<?xml version="1.0" encoding="utf-8"?>
<!-- Generator: Adobe Illustrator 25.3.0, SVG Export Plug-In . SVG Version: 6.00 Build 0)  -->
<svg version="1.1" id="Capa_1" xmlns="http://www.w3.org/2000/svg" xmlns:xlink="http://www.w3.org/1999/xlink" x="0px" y="0px"
	 viewBox="0 0 186.498 46.498" style="enable-background:new 0 0 186.498 46.498;" xml:space="preserve">
<style type="text/css">
	.st0{fill:#F4B924;}
	.st1{fill:#FFFFFF;}
</style>
<path class="st0" d="M175.425,0H11.078C4.971,0,0,4.969,0,11.076v24.346c0,6.107,4.971,11.076,11.078,11.076h164.346
	c6.107,0,11.073-4.969,11.073-11.076V11.076C186.498,4.969,181.532,0,175.425,0z"/>
<path class="st1" d="M36.896,12.996c0.318,0.354,0.455,0.764,0.41,1.23c-0.058,0.468-0.273,0.832-0.649,1.094l-0.034,0.034
	c-0.319,0.229-0.673,0.319-1.06,0.273c-0.388-0.034-0.718-0.199-0.991-0.495c-1.914-2.086-4.289-3.128-7.127-3.128
	c-2.666,0-4.944,0.946-6.836,2.837c-1.891,1.892-2.836,4.176-2.836,6.854c0,2.677,0.945,4.962,2.836,6.853
	c1.892,1.88,4.17,2.819,6.836,2.819c2.393,0,4.495-0.774,6.307-2.324c1.788-1.537,2.871-3.463,3.247-5.775h-9.126
	c-0.434,0-0.803-0.154-1.111-0.462c-0.296-0.296-0.443-0.66-0.443-1.094v-0.034c0-0.433,0.147-0.803,0.443-1.111
	c0.309-0.296,0.678-0.443,1.111-0.443h10.852c0.434,0,0.804,0.147,1.111,0.443c0.296,0.309,0.45,0.679,0.461,1.111v0.018
	c0,3.543-1.253,6.568-3.76,9.074c-2.518,2.507-5.548,3.76-9.092,3.76c-3.543,0-6.568-1.253-9.074-3.76
	c-2.507-2.506-3.76-5.531-3.76-9.074c0-3.544,1.253-6.568,3.76-9.075c2.506-2.507,5.531-3.76,9.074-3.76
	C31.205,8.86,34.355,10.239,36.896,12.996z"/>
<path class="st1" d="M50.036,26.787c0,1.266,0.443,2.348,1.332,3.248c0.9,0.889,1.988,1.332,3.265,1.332
	c1.265,0,2.347-0.443,3.247-1.332c0.889-0.9,1.333-1.982,1.333-3.248v-9.348c0-0.433,0.153-0.803,0.462-1.111
	c0.307-0.307,0.677-0.461,1.11-0.461h0.034c0.433,0,0.797,0.154,1.094,0.461c0.308,0.309,0.461,0.679,0.461,1.111v9.348
	c0,2.131-0.758,3.954-2.272,5.469c-1.516,1.516-3.339,2.273-5.469,2.273c-2.143,0-3.971-0.758-5.485-2.273
	c-1.516-1.515-2.273-3.338-2.273-5.469v-9.348c0-0.433,0.154-0.803,0.461-1.111c0.309-0.307,0.673-0.461,1.094-0.461h0.052
	c0.421,0,0.786,0.154,1.094,0.461c0.308,0.309,0.462,0.679,0.462,1.111V26.787z"/>
<path class="st1" d="M85.22,18.601c1.822,1.823,2.734,4.022,2.734,6.597v7.776c0,0.433-0.154,0.797-0.461,1.094
	c-0.309,0.307-0.673,0.461-1.094,0.461h-0.052c-0.422,0-0.786-0.154-1.094-0.461c-0.308-0.297-0.462-0.661-0.462-1.094v-0.787
	c-1.766,1.562-3.822,2.342-6.169,2.342c-2.575,0-4.774-0.911-6.597-2.734c-1.823-1.822-2.734-4.021-2.734-6.597
	c0-2.574,0.911-4.773,2.734-6.597c1.822-1.822,4.021-2.734,6.597-2.734C81.197,15.867,83.396,16.779,85.22,18.601z M74.248,20.84
	c-1.196,1.208-1.794,2.661-1.794,4.358c0,1.709,0.598,3.168,1.794,4.375c1.207,1.196,2.666,1.794,4.375,1.794
	s3.161-0.598,4.358-1.794c1.207-1.207,1.811-2.666,1.811-4.375c0-1.697-0.604-3.15-1.811-4.358
	c-1.197-1.207-2.649-1.811-4.358-1.811S75.455,19.633,74.248,20.84z"/>
<path class="st1" d="M102.87,15.867c0.433,0,0.803,0.154,1.111,0.461c0.296,0.309,0.443,0.679,0.443,1.111v0.034
	c0,0.434-0.147,0.798-0.443,1.094c-0.309,0.308-0.679,0.462-1.111,0.462h-0.975c-1.07,0-1.982,0.375-2.734,1.127
	c-0.74,0.752-1.116,1.664-1.127,2.734v10.084c0,0.433-0.154,0.797-0.462,1.094c-0.308,0.307-0.673,0.461-1.094,0.461h-0.052
	c-0.421,0-0.785-0.154-1.094-0.461c-0.307-0.297-0.461-0.661-0.461-1.094V22.89c0.022-1.947,0.706-3.605,2.051-4.973
	c1.367-1.367,3.025-2.051,4.973-2.051H102.87z"/>
<path class="st1" d="M126.4,8.86c0.422,0,0.787,0.148,1.094,0.444c0.309,0.308,0.461,0.678,0.461,1.111V25.25
	c-0.012,2.562-0.928,4.75-2.75,6.562c-1.824,1.811-4.018,2.717-6.58,2.717c-2.576,0-4.775-0.911-6.598-2.734
	c-1.822-1.822-2.734-4.021-2.734-6.597c0-2.574,0.912-4.773,2.734-6.597c1.822-1.822,4.021-2.734,6.598-2.734
	c2.346,0,4.402,0.78,6.17,2.342v-7.793c0-0.434,0.152-0.804,0.461-1.111c0.307-0.296,0.672-0.444,1.094-0.444H126.4z
	 M114.249,20.875c-1.197,1.207-1.795,2.666-1.795,4.375c0,1.697,0.598,3.15,1.795,4.357c1.207,1.208,2.666,1.812,4.375,1.812
	s3.162-0.604,4.357-1.812c1.207-1.207,1.812-2.66,1.812-4.357c0-1.709-0.605-3.168-1.812-4.375
	c-1.195-1.208-2.648-1.812-4.357-1.812S115.456,19.667,114.249,20.875z"/>
<path class="st1" d="M150.8,18.601c1.822,1.823,2.734,4.022,2.734,6.597v7.776c0,0.433-0.154,0.797-0.461,1.094
	c-0.309,0.307-0.674,0.461-1.094,0.461h-0.053c-0.422,0-0.785-0.154-1.094-0.461c-0.307-0.297-0.461-0.661-0.461-1.094v-0.787
	c-1.766,1.562-3.822,2.342-6.17,2.342c-2.574,0-4.773-0.911-6.596-2.734c-1.824-1.822-2.734-4.021-2.734-6.597
	c0-2.574,0.91-4.773,2.734-6.597c1.822-1.822,4.021-2.734,6.596-2.734S148.976,16.779,150.8,18.601z M139.828,20.84
	c-1.195,1.208-1.793,2.661-1.793,4.358c0,1.709,0.598,3.168,1.793,4.375c1.207,1.196,2.666,1.794,4.375,1.794
	s3.162-0.598,4.359-1.794c1.207-1.207,1.811-2.666,1.811-4.375c0-1.697-0.604-3.15-1.811-4.358c-1.197-1.207-2.65-1.811-4.359-1.811
	S141.035,19.633,139.828,20.84z"/>
<path class="st1" d="M168.451,15.867c0.432,0,0.803,0.154,1.111,0.461c0.295,0.309,0.443,0.679,0.443,1.111v0.034
	c0,0.434-0.148,0.798-0.443,1.094c-0.309,0.308-0.68,0.462-1.111,0.462h-0.975c-1.07,0-1.982,0.375-2.734,1.127
	c-0.74,0.752-1.117,1.664-1.127,2.734v10.084c0,0.433-0.154,0.797-0.463,1.094c-0.307,0.307-0.672,0.461-1.094,0.461h-0.051
	c-0.422,0-0.785-0.154-1.094-0.461c-0.307-0.297-0.461-0.661-0.461-1.094V22.89c0.021-1.947,0.705-3.605,2.051-4.973
	c1.367-1.367,3.025-2.051,4.973-2.051H168.451z"/>
</svg>
