<?xml version="1.0" encoding="utf-8"?>
<!-- Generator: Adobe Illustrator 25.3.0, SVG Export Plug-In . SVG Version: 6.00 Build 0)  -->
<svg version="1.1" id="Capa_1" xmlns="http://www.w3.org/2000/svg" xmlns:xlink="http://www.w3.org/1999/xlink" x="0px" y="0px"
	 viewBox="0 0 238.419 238.429" style="enable-background:new 0 0 238.419 238.429;" xml:space="preserve">
<style type="text/css">
	.st0{fill:#0071BC;}
</style>
<path class="st0" d="M147.164,142.422c-1.878,0.416-3.393,1.931-3.808,3.809c-0.824,3.726,2.418,6.969,6.145,6.144
	c1.878-0.415,3.393-1.93,3.808-3.808C154.134,144.84,150.891,141.597,147.164,142.422z"/>
<path class="st0" d="M92.121,90.145c-0.239-1.391-1.557-2.327-2.944-2.093c-1.391,0.234-2.327,1.553-2.093,2.944
	c0.944,5.57,7.182,9.616,14.833,9.616s13.888-4.046,14.833-9.616c0.249-1.477-0.822-2.873-2.355-2.975
	c-1.316-0.088-2.435,0.922-2.695,2.215c-0.513,2.552-4.354,5.27-9.782,5.27C96.426,95.506,92.555,92.723,92.121,90.145z"/>
<path class="st0" d="M108.79,78.583c0.904-0.317,1.442-1.207,1.563-2.158c0.466-3.655,4.208-6.179,8.067-4.758
	c2.056,0.757,3.388,2.69,3.673,4.862c0.168,1.28,1.262,2.225,2.531,2.225c0.073,0,0.145-0.005,0.217-0.011
	c1.393-0.114,2.478-1.335,2.331-2.725c-0.592-5.612-5.319-9.859-10.956-9.859c-5.595,0-10.301,4.191-10.944,9.748
	C105.065,77.707,106.782,79.288,108.79,78.583z"/>
<path class="st0" d="M78.708,78.705c1.479,0.291,2.865-0.742,3.035-2.21c0.432-3.746,4.301-6.331,8.244-4.763
	c1.999,0.795,3.171,2.761,3.517,4.884c0.202,1.236,1.278,2.138,2.515,2.138c0.069,0,0.138-0.004,0.208-0.01
	c1.396-0.109,2.491-1.332,2.344-2.725c-0.592-5.612-5.323-9.86-10.956-9.86c-5.502,0-10.137,4.046-10.906,9.458
	C76.51,77.014,77.324,78.433,78.708,78.705z"/>
<path class="st0" d="M238.354,115.264c-2.03-62.47-52.73-113.17-115.2-115.2c-68.85-2.24-125.33,54.26-123.09,123.11
	c2.03,62.46,52.72,113.16,115.18,115.19C184.104,240.604,240.594,184.114,238.354,115.264z M142.133,68.9
	c0-1.762,1.328-2.468,1.736-2.642c0.2-0.085,0.642-0.243,1.187-0.243c0.587,0,1.289,0.179,1.953,0.808
	c2.161,2.059,3.353,4.834,3.353,7.816c0,3.008-1.272,5.902-3.489,7.94c-1.221,1.119-2.591,0.647-2.983,0.477
	c-0.413-0.183-1.757-0.911-1.757-2.672V68.9z M152.128,121.579h-11.927c-2.591,0-4.995,0.825-6.961,2.221v-22.317L152.128,121.579z
	 M96.644,17.071h10.544c16.075,0,29.223,12.778,29.819,28.712c-0.064-0.072-0.132-0.145-0.196-0.217
	c-0.136-0.153-0.277-0.311-0.417-0.464c-0.106-0.111-0.213-0.226-0.323-0.336c-0.145-0.149-0.289-0.294-0.438-0.438
	c-0.111-0.111-0.226-0.217-0.34-0.323c-0.153-0.14-0.306-0.281-0.464-0.421c-0.115-0.098-0.23-0.2-0.349-0.298
	c-0.162-0.14-0.332-0.272-0.502-0.408c-0.115-0.089-0.225-0.183-0.345-0.268c-0.187-0.14-0.374-0.277-0.566-0.413
	c-0.106-0.072-0.208-0.149-0.315-0.221c-0.247-0.17-0.502-0.332-0.762-0.494c-0.051-0.03-0.098-0.064-0.149-0.098
	c-0.311-0.187-0.625-0.37-0.945-0.54c-0.098-0.051-0.196-0.098-0.294-0.149c-0.225-0.119-0.451-0.238-0.681-0.345
	c-0.128-0.064-0.255-0.119-0.383-0.174c-0.204-0.094-0.413-0.187-0.621-0.272c-0.14-0.06-0.281-0.111-0.421-0.166
	c-0.2-0.081-0.404-0.157-0.608-0.23c-0.149-0.051-0.298-0.102-0.447-0.153c-0.2-0.064-0.404-0.132-0.609-0.191
	c-0.153-0.047-0.306-0.089-0.459-0.132c-0.208-0.055-0.417-0.106-0.625-0.157c-0.153-0.038-0.311-0.072-0.464-0.106
	c-0.217-0.047-0.43-0.089-0.647-0.128c-0.153-0.03-0.306-0.06-0.464-0.085c-0.225-0.038-0.455-0.068-0.681-0.094
	c-0.149-0.021-0.294-0.043-0.443-0.06c-0.255-0.026-0.511-0.047-0.766-0.064c-0.128-0.008-0.251-0.021-0.379-0.03
	c-0.383-0.017-0.77-0.03-1.157-0.03H83.083c-0.387,0-0.774,0.013-1.157,0.03c-0.128,0.008-0.251,0.021-0.379,0.03
	c-0.255,0.017-0.511,0.038-0.766,0.064c-0.149,0.017-0.294,0.038-0.443,0.06c-0.225,0.026-0.455,0.055-0.681,0.094
	c-0.157,0.026-0.311,0.055-0.464,0.085c-0.217,0.038-0.43,0.081-0.647,0.128c-0.153,0.034-0.311,0.068-0.464,0.106
	c-0.208,0.051-0.417,0.102-0.625,0.157c-0.153,0.043-0.306,0.085-0.459,0.132c-0.204,0.06-0.408,0.128-0.608,0.191
	c-0.149,0.051-0.298,0.102-0.447,0.153c-0.204,0.072-0.408,0.149-0.609,0.23c-0.14,0.055-0.281,0.106-0.421,0.166
	c-0.208,0.085-0.417,0.179-0.621,0.272c-0.128,0.055-0.255,0.111-0.383,0.174c-0.23,0.106-0.455,0.225-0.681,0.345
	c-0.098,0.051-0.196,0.098-0.294,0.149c-0.319,0.17-0.634,0.353-0.945,0.54c-0.051,0.034-0.098,0.068-0.149,0.098
	c-0.26,0.162-0.515,0.323-0.762,0.494c-0.106,0.072-0.208,0.149-0.315,0.221c-0.192,0.136-0.379,0.272-0.566,0.413
	c-0.119,0.085-0.23,0.179-0.345,0.268c-0.17,0.136-0.336,0.268-0.502,0.408c-0.119,0.098-0.234,0.2-0.349,0.298
	c-0.157,0.141-0.311,0.281-0.464,0.421c-0.115,0.106-0.23,0.213-0.34,0.323c-0.149,0.145-0.294,0.289-0.438,0.438
	c-0.111,0.111-0.217,0.226-0.323,0.336c-0.14,0.153-0.281,0.311-0.417,0.464c-0.064,0.072-0.132,0.145-0.196,0.217
	C67.421,29.848,80.569,17.071,96.644,17.071z M66.804,59.663c0-8.991,7.289-16.28,16.28-16.28h37.665
	c8.991,0,16.279,7.289,16.279,16.279v37.66c0,0.272-0.027,0.54-0.041,0.81l-8.775-9.334v6.897l-0.078-0.083v16.22
	c-2.281,1.162-4.808,1.77-7.387,1.77H83.083c-8.991,0-16.279-7.289-16.279-16.279V59.663z M114.685,126.694L101.58,146.02
	l-13.318-19.326H114.685z M56.822,66.824c0.664-0.63,1.366-0.808,1.953-0.808c0.545,0,0.987,0.157,1.187,0.243
	c0.408,0.174,1.736,0.881,1.736,2.642v11.484c0,1.762-1.344,2.489-1.757,2.672c-0.391,0.17-1.766,0.643-2.983-0.477
	c-2.217-2.038-3.489-4.931-3.489-7.94C53.469,71.657,54.66,68.883,56.822,66.824z M55.949,204.482c-2.199,0-3.982-1.783-3.982-3.982
	v-58.284c0-8.573,6.949-15.522,15.522-15.522h14.569l17.437,25.3c0.477,0.689,1.264,1.102,2.102,1.102h0.013
	c0.842,0,1.63-0.421,2.102-1.119l17.143-25.283h7.28v70.836c0,0.285,0.013,0.562,0.034,0.838c0.004,0.068,0.008,0.14,0.013,0.208
	c0.026,0.272,0.055,0.545,0.098,0.817c0.009,0.038,0.017,0.077,0.021,0.115c0.042,0.243,0.089,0.485,0.145,0.719
	c0.013,0.064,0.026,0.123,0.043,0.183c0.064,0.26,0.136,0.519,0.217,0.77c0.017,0.055,0.034,0.106,0.051,0.157
	c0.077,0.221,0.157,0.443,0.242,0.659c0.021,0.047,0.038,0.098,0.06,0.145c0.102,0.243,0.208,0.481,0.328,0.719
	c0.026,0.055,0.055,0.111,0.085,0.166c0.111,0.213,0.225,0.425,0.349,0.63c0.017,0.03,0.034,0.06,0.051,0.089
	c0.136,0.226,0.281,0.443,0.43,0.66c0.017,0.026,0.034,0.051,0.051,0.077H55.949z M191.81,197.517c0,3.845-3.117,6.961-6.961,6.961
	h-19.288v-13.986c1.094-0.511,2.017-1.345,2.651-2.442l4.119-7.127c1.101-1.912,1.085-4.192-0.048-6.089
	c-1.116-1.869-3.221-2.923-5.398-2.923h-7.75c-2.177,0-4.282,1.053-5.398,2.923c-1.132,1.897-1.148,4.177-0.048,6.089l4.119,7.127
	c0.63,1.098,1.557,1.932,2.647,2.442v13.986h-20.253c-0.481,0-0.949-0.047-1.4-0.14c-3.17-0.651-5.561-3.464-5.561-6.821v-61.497
	c0.004-5.148,4.191-9.335,9.34-9.335h39.886c5.161,0,9.344,4.183,9.344,9.344V197.517z M191.81,123.8
	c-1.97-1.396-4.37-2.221-6.961-2.221h-11.927l18.888-20.096V123.8z"/>
<path class="st0" d="M175.153,142.427c-1.873,0.424-3.381,1.942-3.79,3.819c-0.812,3.719,2.425,6.95,6.145,6.13
	c1.877-0.414,3.393-1.928,3.81-3.804C182.15,144.835,178.883,141.583,175.153,142.427z"/>
</svg>
