<?xml version="1.0" encoding="utf-8"?>
<!-- Generator: Adobe Illustrator 25.3.0, SVG Export Plug-In . SVG Version: 6.00 Build 0)  -->
<svg version="1.1" id="Capa_1" xmlns="http://www.w3.org/2000/svg" xmlns:xlink="http://www.w3.org/1999/xlink" x="0px" y="0px"
	 viewBox="0 0 68.08 68.08" style="enable-background:new 0 0 68.08 68.08;" xml:space="preserve">
<style type="text/css">
	.st0{fill:#F4B924;}
</style>
<path class="st0" d="M34.04,68.08c18.8,0,34.04-15.24,34.04-34.04C68.08,15.24,52.84,0,34.04,0S0,15.24,0,34.04
	C0,52.84,15.24,68.08,34.04,68.08z M26.03,11.938c0.512-0.512,1.193-0.794,1.917-0.794s1.405,0.282,1.917,0.794l20.186,20.186
	c0.512,0.512,0.794,1.192,0.794,1.917s-0.282,1.405-0.794,1.917L29.864,56.143c-1.057,1.057-2.777,1.057-3.834,0
	c-1.057-1.057-1.057-2.777,0-3.834l18.269-18.269L26.03,15.772C24.973,14.716,24.973,12.995,26.03,11.938z"/>
</svg>
