<?xml version="1.0" encoding="utf-8"?>
<!-- Generator: Adobe Illustrator 25.3.0, SVG Export Plug-In . SVG Version: 6.00 Build 0)  -->
<svg version="1.1" id="Capa_1" xmlns="http://www.w3.org/2000/svg" xmlns:xlink="http://www.w3.org/1999/xlink" x="0px" y="0px"
	 viewBox="0 0 174.743 122.232" style="enable-background:new 0 0 174.743 122.232;" xml:space="preserve">
<style type="text/css">
	.st0{fill:#0071BC;}
	.st1{fill:#F4B924;}
	.st2{fill:#FFFFFF;}
	.st3{fill:#00BABA;}
</style>
<path class="st0" d="M171.648,68.281h-1.689h-6.796h-0.016c-0.002-0.266-0.006-0.535-0.013-0.808
	c-0.007-0.28-0.017-0.563-0.029-0.846h6.855l0-0.002h1.671c1.709,0,3.095-1.385,3.095-3.094c0-1.709-1.385-3.094-3.095-3.094h-2.773
	l-4.128-23.185c-0.877-4.925-8.229-8.825-16.368-8.825h-24.431l-0.258-0.831c-1.814-5.845-6.349-9.622-11.553-9.622H88.313
	c-5.204,0-9.739,3.777-11.553,9.622l-0.253,0.814H40.47c-1.549,0-3.102,0.418-4.498,1.304c-1.396,0.891-2.435,2.119-3.097,3.51
	L20.028,60.418h-6.644c-1.709,0-3.095,1.385-3.095,3.094c0,1.709,1.385,3.094,3.095,3.094h8.143l-0.781,1.674h-9.909
	c-1.709,0-3.095,1.385-3.095,3.094c0,1.681,1.342,3.047,3.013,3.09c-1.422,2.244-5.6,9.225-4.217,18.744c0,0.001,0,0.002,0,0.003
	C2.919,93.265,0,96.211,0,99.843c0,3.665,2.971,6.636,6.636,6.636c0.025,0,0.049-0.003,0.074-0.004c0,0.001-0.001,0.004-0.001,0.004
	h24.063c-0.001-0.061-0.005-0.121-0.005-0.182c0-10.893,8.862-19.755,19.755-19.755s19.755,8.862,19.755,19.755
	c0,0.061-0.004,0.121-0.005,0.182h7.525c0.046,0,0.089,0.002,0.135,0.002h35.325c-0.001-0.061-0.005-0.122-0.005-0.184
	c0-10.893,8.862-19.755,19.755-19.755c10.893,0,19.755,8.862,19.755,19.755c0,0.014-0.001,0.029-0.001,0.043
	c0.117,0.003,0.189,0.007,0.189,0.01c7.07-0.71,13.03-4.292,13.814-8.694l2.106-23.187h2.776c1.709,0,3.095-1.385,3.095-3.094
	S173.357,68.281,171.648,68.281z M82.404,28.426l0.067-0.166c1.22-3.004,3.513-4.944,5.842-4.944h23.805
	c2.329,0,4.622,1.941,5.842,4.944l0.067,0.166H82.404z"/>
<path class="st1" d="M61.137,28.41v-5.912c0-1.583-0.414-3.167-1.243-4.374c-0.829-1.209-1.915-1.812-3.002-1.812h-2.335
	c-1.087,0-2.173,0.604-3.002,1.812c-0.828,1.207-1.243,2.791-1.243,4.374v5.912H61.137z"/>
<path class="st2" d="M103.613,86.346L103.613,86.346c0,1.896-1.537,3.433-3.433,3.433h-5.771v5.771c0,1.896-1.537,3.433-3.433,3.433
	h0c-1.896,0-3.433-1.537-3.433-3.433v-5.771H81.77c-1.896,0-3.433-1.537-3.433-3.433v0c0-1.896,1.537-3.433,3.433-3.433h5.771
	v-5.771c0-1.896,1.537-3.433,3.433-3.433h0c1.896,0,3.433,1.537,3.433,3.433v5.771h5.771
	C102.076,82.913,103.613,84.45,103.613,86.346z"/>
<path class="st2" d="M90.975,66.38c-1.524,0-2.76-1.236-2.76-2.76V40.77c0-1.524,1.236-2.76,2.76-2.76c1.524,0,2.76,1.236,2.76,2.76
	v22.85C93.735,65.144,92.499,66.38,90.975,66.38z"/>
<path class="st2" d="M101.163,66.38c-1.524,0-2.76-1.236-2.76-2.76V40.77c0-1.524,1.236-2.76,2.76-2.76
	c1.524,0,2.76,1.236,2.76,2.76v22.85C103.923,65.144,102.687,66.38,101.163,66.38z"/>
<path class="st2" d="M111.351,66.38c-1.524,0-2.76-1.236-2.76-2.76V40.77c0-1.524,1.236-2.76,2.76-2.76
	c1.524,0,2.76,1.236,2.76,2.76v22.85C114.11,65.144,112.875,66.38,111.351,66.38z"/>
<path class="st2" d="M121.538,66.38c-1.524,0-2.76-1.236-2.76-2.76V40.77c0-1.524,1.236-2.76,2.76-2.76
	c1.524,0,2.76,1.236,2.76,2.76v22.85C124.298,65.144,123.063,66.38,121.538,66.38z"/>
<path class="st2" d="M131.726,66.38c-1.524,0-2.76-1.236-2.76-2.76V40.77c0-1.524,1.236-2.76,2.76-2.76s2.76,1.236,2.76,2.76v22.85
	C134.486,65.144,133.25,66.38,131.726,66.38z"/>
<path class="st2" d="M141.914,66.38c-1.524,0-2.76-1.236-2.76-2.76V40.77c0-1.524,1.236-2.76,2.76-2.76
	c1.524,0,2.76,1.236,2.76,2.76v22.85C144.674,65.144,143.438,66.38,141.914,66.38z"/>
<path class="st2" d="M152.102,66.38c-1.524,0-2.76-1.236-2.76-2.76V40.77c0-1.524,1.236-2.76,2.76-2.76
	c1.524,0,2.76,1.236,2.76,2.76v22.85C154.862,65.144,153.626,66.38,152.102,66.38z"/>
<path class="st3" d="M50.523,122.232c-8.787,0-15.935-7.148-15.935-15.935s7.148-15.935,15.935-15.935s15.935,7.148,15.935,15.935
	S59.31,122.232,50.523,122.232z M50.523,97.494c-4.854,0-8.803,3.949-8.803,8.803s3.949,8.803,8.803,8.803s8.803-3.949,8.803-8.803
	S55.377,97.494,50.523,97.494z"/>
<path class="st3" d="M133.009,122.232c-8.787,0-15.935-7.148-15.935-15.935s7.148-15.935,15.935-15.935s15.935,7.148,15.935,15.935
	S141.796,122.232,133.009,122.232z M133.009,97.494c-4.854,0-8.803,3.949-8.803,8.803s3.949,8.803,8.803,8.803
	c4.854,0,8.803-3.949,8.803-8.803S137.863,97.494,133.009,97.494z"/>
<path class="st2" d="M65.864,62.769V39.937c0-1.611-1.306-2.917-2.917-2.917H45.289c-1.404,0-2.683,0.806-3.289,2.073L30.731,62.657
	c-0.825,1.725,0.433,3.72,2.345,3.72h29.18C64.248,66.378,65.864,64.762,65.864,62.769z"/>
<path class="st0" d="M73.463,9.083c-0.595-0.595-1.561-0.595-2.156,0l-6.524,6.524c-0.596,0.595-0.596,1.561,0,2.156
	c0.298,0.298,0.688,0.447,1.078,0.447s0.781-0.149,1.078-0.447l6.524-6.524C74.059,10.644,74.059,9.678,73.463,9.083z"/>
<path class="st0" d="M39.791,9.083c-0.595-0.595-1.561-0.595-2.156,0c-0.596,0.595-0.596,1.561,0,2.156l6.524,6.524
	c0.298,0.298,0.688,0.447,1.078,0.447c0.39,0,0.781-0.149,1.078-0.447c0.596-0.595,0.596-1.561,0-2.156L39.791,9.083z"/>
<path class="st0" d="M55.492,0c-0.842,0-1.525,0.683-1.525,1.525v9.227c0,0.842,0.683,1.525,1.525,1.525
	c0.842,0,1.525-0.683,1.525-1.525V1.525C57.017,0.683,56.335,0,55.492,0z"/>
</svg>
