<?xml version="1.0" encoding="utf-8"?>
<!-- Generator: Adobe Illustrator 25.3.0, SVG Export Plug-In . SVG Version: 6.00 Build 0)  -->
<svg version="1.1" id="Capa_1" xmlns="http://www.w3.org/2000/svg" xmlns:xlink="http://www.w3.org/1999/xlink" x="0px" y="0px"
	 viewBox="0 0 250 158.5" style="enable-background:new 0 0 250 158.5;" xml:space="preserve">
<style type="text/css">
	.st0{fill:#0071BC;stroke:#FFFFFF;stroke-width:5;stroke-linecap:round;stroke-linejoin:round;stroke-miterlimit:10;}
	.st1{fill:#0071BC;stroke:#FFFFFF;stroke-width:7;stroke-linecap:round;stroke-linejoin:round;stroke-miterlimit:10;}
	.st2{fill:#0071BC;}
	.st3{fill:#F4B924;}
	.st4{fill:#FFFFFF;}
	.st5{fill:#00BABA;}
</style>
<path class="st0" d="M67.1,147.1c-0.2,0-0.4,0.1-0.5,0.2s-0.2,0.3-0.3,0.4l-2.6,6.1l-2.6-6.1c-0.1-0.2-0.2-0.4-0.3-0.5
	c-0.1-0.1-0.3-0.2-0.5-0.2c-0.3,0-0.5,0.1-0.6,0.3c-0.1,0.2-0.1,0.4,0,0.8l3.2,7.2c0.2,0.4,0.5,0.6,0.9,0.6c0.2,0,0.4-0.1,0.5-0.2
	c0.1-0.1,0.2-0.3,0.3-0.5l3.2-7.2c0.1-0.3,0.1-0.6,0-0.7C67.6,147.2,67.4,147.1,67.1,147.1z"/>
<path class="st0" d="M74.7,152.7c0-0.9-0.2-1.7-0.7-2.2c-0.5-0.5-1.2-0.8-2-0.8c-0.6,0-1.1,0.1-1.6,0.4c-0.5,0.3-0.8,0.6-1.1,1.1
	c-0.3,0.5-0.4,1-0.4,1.6c0,0.6,0.1,1.2,0.4,1.7s0.6,0.8,1.1,1.1c0.5,0.3,1.1,0.4,1.8,0.4c0.3,0,0.7,0,1-0.1c0.4-0.1,0.7-0.2,1-0.4
	c0.2-0.1,0.3-0.3,0.3-0.4c0-0.2,0-0.3,0-0.4c-0.1-0.1-0.2-0.2-0.3-0.3c-0.1,0-0.3,0-0.5,0.1c-0.2,0.1-0.5,0.2-0.8,0.3
	s-0.5,0.1-0.7,0.1c-1.1,0-1.7-0.5-1.8-1.6h3.7C74.5,153.2,74.7,153,74.7,152.7z M70.4,152.3c0.1-0.5,0.2-0.9,0.5-1.1
	s0.6-0.4,1.1-0.4c0.4,0,0.8,0.1,1,0.4c0.2,0.3,0.4,0.6,0.4,1.1L70.4,152.3L70.4,152.3z"/>
<path class="st0" d="M80.7,154.6c-0.1,0-0.2,0-0.3,0s-0.2,0-0.4,0c-0.4,0-0.7-0.1-0.8-0.3c-0.2-0.2-0.3-0.5-0.3-0.9V151h1.3
	c0.4,0,0.6-0.2,0.6-0.6s-0.2-0.6-0.6-0.6H79v-1.1c0-0.5-0.3-0.8-0.8-0.8c-0.5,0-0.8,0.3-0.8,0.8v1.1h-0.6c-0.4,0-0.6,0.2-0.6,0.6
	s0.2,0.6,0.6,0.6h0.6v2.6c0,1.6,0.8,2.4,2.4,2.4c0.1,0,0.3,0,0.5,0c0.2,0,0.3-0.1,0.4-0.1c0.1,0,0.2-0.1,0.3-0.3
	c0.1-0.1,0.1-0.3,0.1-0.4c0-0.2,0-0.4-0.1-0.4C80.9,154.6,80.8,154.6,80.7,154.6z"/>
<path class="st0" d="M88.4,152.7c0-0.9-0.2-1.7-0.7-2.2c-0.5-0.5-1.2-0.8-2-0.8c-0.6,0-1.1,0.1-1.6,0.4c-0.5,0.3-0.8,0.6-1.1,1.1
	c-0.3,0.5-0.4,1-0.4,1.6c0,0.6,0.1,1.2,0.4,1.7s0.6,0.8,1.1,1.1c0.5,0.3,1.1,0.4,1.8,0.4c0.3,0,0.7,0,1-0.1c0.4-0.1,0.7-0.2,1-0.4
	c0.2-0.1,0.3-0.3,0.3-0.4c0-0.2,0-0.3,0-0.4c-0.1-0.1-0.2-0.2-0.3-0.3c-0.1,0-0.3,0-0.5,0.1c-0.2,0.1-0.5,0.2-0.8,0.3
	s-0.5,0.1-0.7,0.1c-1.1,0-1.7-0.5-1.8-1.6h3.7C88.2,153.2,88.4,153,88.4,152.7z M84.1,152.3c0.1-0.5,0.2-0.9,0.5-1.1
	s0.6-0.4,1.1-0.4c0.4,0,0.8,0.1,1,0.4c0.2,0.3,0.4,0.6,0.4,1.1L84.1,152.3L84.1,152.3z"/>
<path class="st0" d="M94.2,149.7c-1,0.1-1.6,0.5-1.9,1.2v-0.4c0-0.5-0.2-0.8-0.7-0.8s-0.7,0.3-0.7,0.8v4.6c0,0.5,0.3,0.8,0.8,0.8
	c0.5,0,0.8-0.3,0.8-0.8v-2.5c0-0.9,0.5-1.4,1.5-1.5l0.3,0c0.5,0,0.7-0.3,0.6-0.7C94.8,149.9,94.6,149.7,94.2,149.7z"/>
<path class="st0" d="M97.6,147c-0.3,0-0.5,0.1-0.7,0.2c-0.2,0.1-0.2,0.3-0.2,0.6c0,0.3,0.1,0.5,0.2,0.6s0.4,0.2,0.7,0.2
	c0.6,0,0.9-0.3,0.9-0.8S98.2,147,97.6,147z"/>
<path class="st0" d="M97.6,149.8c-0.5,0-0.8,0.3-0.8,0.8v4.5c0,0.3,0.1,0.5,0.2,0.6s0.3,0.2,0.6,0.2c0.3,0,0.4-0.1,0.6-0.2
	c0.1-0.1,0.2-0.4,0.2-0.6v-4.5C98.4,150,98.1,149.8,97.6,149.8z"/>
<path class="st0" d="M104.7,149.7c-0.4,0-0.8,0.1-1.2,0.3c-0.3,0.2-0.6,0.4-0.8,0.8v-0.3c0-0.5-0.2-0.8-0.7-0.8s-0.7,0.3-0.7,0.8
	v4.6c0,0.5,0.3,0.8,0.8,0.8c0.5,0,0.8-0.3,0.8-0.8v-2.7c0-0.5,0.1-0.8,0.4-1.1c0.3-0.3,0.6-0.4,1.1-0.4c0.4,0,0.6,0.1,0.8,0.3
	s0.3,0.6,0.3,1v2.9c0,0.5,0.3,0.8,0.8,0.8c0.5,0,0.8-0.3,0.8-0.8v-3C106.8,150.5,106.1,149.7,104.7,149.7z"/>
<path class="st0" d="M112.2,149.7c-0.3,0-0.6,0-0.9,0.1c-0.3,0.1-0.7,0.2-1.1,0.3c-0.2,0.1-0.3,0.2-0.4,0.3s-0.1,0.3,0,0.5
	s0.1,0.3,0.3,0.3s0.3,0.1,0.5,0c0.3-0.1,0.6-0.2,0.9-0.3s0.5-0.1,0.8-0.1c0.4,0,0.7,0.1,0.9,0.3c0.2,0.2,0.3,0.5,0.3,0.9v0.3h-0.4
	c-0.9,0-1.6,0.1-2.1,0.2c-0.5,0.1-0.9,0.3-1.1,0.6s-0.3,0.6-0.3,1c0,0.4,0.1,0.7,0.3,1c0.2,0.3,0.5,0.5,0.8,0.7s0.7,0.3,1.2,0.3
	c0.4,0,0.8-0.1,1.1-0.3s0.5-0.5,0.7-0.8v0.3c0,0.5,0.2,0.8,0.7,0.8c0.5,0,0.7-0.3,0.7-0.8v-2.9c0-0.9-0.2-1.5-0.6-1.9
	C113.7,149.9,113.1,149.7,112.2,149.7z M113.3,153.4c0,0.4-0.1,0.8-0.4,1.1c-0.3,0.3-0.6,0.4-1,0.4c-0.3,0-0.6-0.1-0.8-0.3
	s-0.3-0.4-0.3-0.7c0-0.3,0.1-0.5,0.4-0.6c0.3-0.1,0.8-0.2,1.6-0.2h0.4C113.3,153.2,113.3,153.4,113.3,153.4z"/>
<path class="st0" d="M120.9,149.7c-1,0.1-1.6,0.5-1.9,1.2v-0.4c0-0.5-0.2-0.8-0.7-0.8s-0.7,0.3-0.7,0.8v4.6c0,0.5,0.3,0.8,0.8,0.8
	c0.5,0,0.8-0.3,0.8-0.8v-2.5c0-0.9,0.5-1.4,1.5-1.5l0.3,0c0.5,0,0.7-0.3,0.6-0.7C121.5,149.9,121.3,149.7,120.9,149.7z"/>
<path class="st0" d="M124.3,147c-0.3,0-0.5,0.1-0.7,0.2s-0.2,0.3-0.2,0.6c0,0.3,0.1,0.5,0.2,0.6s0.4,0.2,0.7,0.2
	c0.6,0,0.9-0.3,0.9-0.8S124.9,147,124.3,147z"/>
<path class="st0" d="M124.3,149.8c-0.5,0-0.8,0.3-0.8,0.8v4.5c0,0.3,0.1,0.5,0.2,0.6s0.3,0.2,0.6,0.2c0.3,0,0.4-0.1,0.6-0.2
	c0.1-0.1,0.2-0.4,0.2-0.6v-4.5C125.1,150,124.9,149.8,124.3,149.8z"/>
<path class="st0" d="M132.3,150.1c-0.5-0.3-1-0.4-1.6-0.4c-0.6,0-1.2,0.1-1.6,0.4c-0.5,0.3-0.8,0.6-1.1,1.1c-0.3,0.5-0.4,1-0.4,1.7
	c0,0.6,0.1,1.2,0.4,1.7c0.3,0.5,0.6,0.8,1.1,1.1c0.5,0.3,1,0.4,1.6,0.4s1.2-0.1,1.6-0.4c0.5-0.3,0.8-0.6,1.1-1.1
	c0.3-0.5,0.4-1,0.4-1.7s-0.1-1.2-0.4-1.7C133.1,150.7,132.7,150.4,132.3,150.1z M131.8,154.3c-0.3,0.3-0.6,0.5-1.1,0.5
	s-0.8-0.2-1.1-0.5c-0.3-0.3-0.4-0.8-0.4-1.5c0-0.7,0.1-1.1,0.4-1.5s0.6-0.5,1.1-0.5c0.5,0,0.8,0.2,1.1,0.5s0.4,0.8,0.4,1.5
	C132.2,153.5,132,154,131.8,154.3z"/>
<path class="st0" d="M139.4,152.5l-1.2-0.2c-0.5-0.1-0.7-0.3-0.7-0.7c0-0.2,0.1-0.4,0.3-0.6s0.5-0.2,0.9-0.2c0.2,0,0.4,0,0.7,0.1
	c0.2,0.1,0.5,0.2,0.7,0.3c0.2,0.1,0.3,0.1,0.5,0s0.2-0.1,0.3-0.3c0.1-0.1,0.1-0.3,0-0.4c0-0.1-0.1-0.3-0.3-0.3
	c-0.6-0.3-1.2-0.5-1.9-0.5c-0.5,0-0.9,0.1-1.3,0.2c-0.4,0.2-0.7,0.4-0.9,0.7c-0.2,0.3-0.3,0.6-0.3,1c0,0.9,0.5,1.4,1.6,1.6l1.2,0.2
	c0.5,0.1,0.8,0.3,0.8,0.7c0,0.2-0.1,0.4-0.3,0.5c-0.2,0.1-0.5,0.2-0.9,0.2c-0.3,0-0.6,0-0.8-0.1c-0.3-0.1-0.6-0.2-0.9-0.3
	c-0.2-0.1-0.3-0.1-0.4,0c-0.1,0.1-0.2,0.1-0.3,0.3c-0.1,0.1-0.1,0.3,0,0.4s0.1,0.3,0.3,0.4c0.3,0.2,0.7,0.3,1.1,0.4
	c0.4,0.1,0.8,0.1,1.1,0.1c0.8,0,1.4-0.2,1.9-0.5c0.5-0.3,0.7-0.8,0.7-1.4c0-0.4-0.1-0.8-0.4-1.1
	C140.3,152.7,139.9,152.6,139.4,152.5z"/>
<path class="st0" d="M150.5,149.7c-0.3,0-0.6,0-0.9,0.1c-0.3,0.1-0.7,0.2-1.1,0.3c-0.2,0.1-0.3,0.2-0.4,0.3c-0.1,0.2-0.1,0.3,0,0.5
	s0.1,0.3,0.3,0.3s0.3,0.1,0.5,0c0.3-0.1,0.6-0.2,0.9-0.3s0.5-0.1,0.8-0.1c0.4,0,0.7,0.1,0.9,0.3c0.2,0.2,0.3,0.5,0.3,0.9v0.3h-0.4
	c-0.9,0-1.6,0.1-2.1,0.2c-0.5,0.1-0.9,0.3-1.1,0.6c-0.2,0.3-0.3,0.6-0.3,1c0,0.4,0.1,0.7,0.3,1c0.2,0.3,0.5,0.5,0.8,0.7
	c0.3,0.2,0.7,0.3,1.2,0.3c0.4,0,0.8-0.1,1.1-0.3c0.3-0.2,0.5-0.5,0.7-0.8v0.3c0,0.5,0.2,0.8,0.7,0.8c0.5,0,0.7-0.3,0.7-0.8v-2.9
	c0-0.9-0.2-1.5-0.6-1.9C152.1,149.9,151.4,149.7,150.5,149.7z M151.7,153.4c0,0.4-0.1,0.8-0.4,1.1c-0.3,0.3-0.6,0.4-1,0.4
	c-0.3,0-0.6-0.1-0.8-0.3s-0.3-0.4-0.3-0.7c0-0.3,0.1-0.5,0.4-0.6c0.3-0.1,0.8-0.2,1.6-0.2h0.4L151.7,153.4L151.7,153.4z"/>
<path class="st0" d="M165.5,147.1c-0.5,0-0.8,0.3-0.8,0.8v2.9c-0.2-0.3-0.4-0.6-0.8-0.7c-0.3-0.2-0.7-0.3-1.2-0.3
	c-0.5,0-1,0.1-1.4,0.4s-0.7,0.6-0.9,1.1s-0.3,1-0.3,1.7c0,0.6,0.1,1.2,0.3,1.7c0.2,0.5,0.5,0.8,0.9,1.1c0.4,0.3,0.9,0.4,1.4,0.4
	c0.4,0,0.8-0.1,1.2-0.3s0.6-0.5,0.8-0.8v0.3c0,0.5,0.3,0.8,0.8,0.8s0.8-0.3,0.8-0.8v-7.3C166.2,147.4,166,147.1,165.5,147.1z
	 M164.3,154.3c-0.3,0.3-0.6,0.5-1.1,0.5c-0.5,0-0.8-0.2-1.1-0.5s-0.4-0.8-0.4-1.5c0-0.7,0.1-1.1,0.4-1.5s0.6-0.5,1.1-0.5
	c0.5,0,0.8,0.2,1.1,0.5s0.4,0.8,0.4,1.5C164.7,153.5,164.6,154,164.3,154.3z"/>
<path class="st0" d="M173.4,150.1c-0.5-0.3-1-0.4-1.6-0.4s-1.2,0.1-1.6,0.4c-0.5,0.3-0.8,0.6-1.1,1.1c-0.3,0.5-0.4,1-0.4,1.7
	c0,0.6,0.1,1.2,0.4,1.7c0.3,0.5,0.6,0.8,1.1,1.1c0.5,0.3,1,0.4,1.6,0.4c0.6,0,1.2-0.1,1.6-0.4c0.5-0.3,0.8-0.6,1.1-1.1
	c0.3-0.5,0.4-1,0.4-1.7s-0.1-1.2-0.4-1.7C174.2,150.7,173.9,150.4,173.4,150.1z M172.9,154.3c-0.3,0.3-0.6,0.5-1.1,0.5
	c-0.5,0-0.8-0.2-1.1-0.5s-0.4-0.8-0.4-1.5c0-0.7,0.1-1.1,0.4-1.5s0.6-0.5,1.1-0.5c0.5,0,0.8,0.2,1.1,0.5s0.4,0.8,0.4,1.5
	C173.3,153.5,173.2,154,172.9,154.3z"/>
<path class="st0" d="M184.5,149.7c-0.4,0-0.9,0.1-1.2,0.3c-0.4,0.2-0.6,0.5-0.8,0.9c-0.3-0.8-0.9-1.2-1.8-1.2
	c-0.4,0-0.8,0.1-1.1,0.3s-0.6,0.4-0.7,0.8v-0.2c0-0.5-0.2-0.8-0.7-0.8c-0.5,0-0.7,0.3-0.7,0.8v4.6c0,0.5,0.3,0.8,0.8,0.8
	c0.5,0,0.8-0.3,0.8-0.8v-2.6c0-0.5,0.1-0.9,0.3-1.2c0.2-0.3,0.5-0.4,0.9-0.4c0.4,0,0.6,0.1,0.8,0.3s0.2,0.5,0.2,1v2.9
	c0,0.5,0.3,0.8,0.8,0.8c0.5,0,0.8-0.3,0.8-0.8v-2.6c0-0.5,0.1-0.9,0.3-1.2s0.5-0.4,0.9-0.4c0.4,0,0.6,0.1,0.8,0.3
	c0.2,0.2,0.2,0.5,0.2,1v2.9c0,0.5,0.3,0.8,0.8,0.8c0.5,0,0.8-0.3,0.8-0.8v-3C186.5,150.5,185.8,149.7,184.5,149.7z"/>
<path class="st0" d="M190.1,147c-0.3,0-0.5,0.1-0.7,0.2s-0.2,0.3-0.2,0.6c0,0.3,0.1,0.5,0.2,0.6s0.4,0.2,0.7,0.2
	c0.6,0,0.9-0.3,0.9-0.8S190.7,147,190.1,147z"/>
<path class="st0" d="M190.1,149.8c-0.5,0-0.8,0.3-0.8,0.8v4.5c0,0.3,0.1,0.5,0.2,0.6s0.3,0.2,0.6,0.2c0.3,0,0.4-0.1,0.6-0.2
	c0.1-0.1,0.2-0.4,0.2-0.6v-4.5C190.8,150,190.6,149.8,190.1,149.8z"/>
<path class="st0" d="M196.6,150.9c0.4,0,0.7,0.1,1.1,0.3c0.2,0.1,0.3,0.1,0.5,0.1c0.1-0.1,0.2-0.2,0.3-0.3s0.1-0.3,0.1-0.4
	c0-0.2-0.1-0.3-0.3-0.4c-0.3-0.2-0.6-0.3-0.9-0.4c-0.3-0.1-0.6-0.1-0.9-0.1c-0.6,0-1.2,0.1-1.6,0.4s-0.8,0.6-1.1,1.1
	c-0.3,0.5-0.4,1-0.4,1.6s0.1,1.2,0.4,1.7c0.3,0.5,0.6,0.8,1.1,1.1c0.5,0.3,1,0.4,1.6,0.4c0.3,0,0.6,0,0.9-0.1s0.6-0.2,0.9-0.4
	c0.2-0.1,0.2-0.2,0.3-0.4c0-0.2,0-0.3,0-0.4s-0.2-0.2-0.3-0.3c-0.1-0.1-0.3,0-0.5,0.1c-0.4,0.2-0.7,0.3-1.1,0.3
	c-0.5,0-0.9-0.2-1.2-0.5c-0.3-0.3-0.4-0.8-0.4-1.4c0-0.6,0.1-1.1,0.4-1.4C195.6,151.1,196,150.9,196.6,150.9z"/>
<path class="st0" d="M201.4,147c-0.3,0-0.5,0.1-0.7,0.2s-0.2,0.3-0.2,0.6c0,0.3,0.1,0.5,0.2,0.6s0.4,0.2,0.7,0.2
	c0.6,0,0.9-0.3,0.9-0.8S202,147,201.4,147z"/>
<path class="st0" d="M201.4,149.8c-0.5,0-0.8,0.3-0.8,0.8v4.5c0,0.3,0.1,0.5,0.2,0.6s0.3,0.2,0.6,0.2c0.3,0,0.4-0.1,0.6-0.2
	c0.1-0.1,0.2-0.4,0.2-0.6v-4.5C202.2,150,202,149.8,201.4,149.8z"/>
<path class="st0" d="M207.8,154.7c-0.1,0-0.1,0-0.2,0c-0.1,0-0.1,0-0.2,0c-0.6,0-0.9-0.4-0.9-1.1v-5.7c0-0.5-0.3-0.8-0.8-0.8
	c-0.5,0-0.8,0.3-0.8,0.8v5.8c0,1.5,0.7,2.3,2,2.3c0.2,0,0.4,0,0.5,0c0.2,0,0.3-0.1,0.4-0.2s0.1-0.3,0.1-0.5c0-0.2,0-0.4-0.1-0.5
	C208,154.7,208,154.7,207.8,154.7z"/>
<path class="st0" d="M210.9,149.8c-0.5,0-0.8,0.3-0.8,0.8v4.5c0,0.3,0.1,0.5,0.2,0.6s0.3,0.2,0.6,0.2c0.3,0,0.4-0.1,0.6-0.2
	c0.1-0.1,0.2-0.4,0.2-0.6v-4.5C211.7,150,211.4,149.8,210.9,149.8z"/>
<path class="st0" d="M210.9,147c-0.3,0-0.5,0.1-0.7,0.2s-0.2,0.3-0.2,0.6c0,0.3,0.1,0.5,0.2,0.6s0.4,0.2,0.7,0.2
	c0.6,0,0.9-0.3,0.9-0.8S211.5,147,210.9,147z"/>
<path class="st0" d="M218.9,150.1c-0.5-0.3-1-0.4-1.6-0.4s-1.2,0.1-1.6,0.4c-0.5,0.3-0.8,0.6-1.1,1.1c-0.3,0.5-0.4,1-0.4,1.7
	c0,0.6,0.1,1.2,0.4,1.7c0.3,0.5,0.6,0.8,1.1,1.1c0.5,0.3,1,0.4,1.6,0.4c0.6,0,1.2-0.1,1.6-0.4c0.5-0.3,0.8-0.6,1.1-1.1
	c0.3-0.5,0.4-1,0.4-1.7s-0.1-1.2-0.4-1.7S219.3,150.4,218.9,150.1z M218.4,154.3c-0.3,0.3-0.6,0.5-1.1,0.5c-0.5,0-0.8-0.2-1.1-0.5
	s-0.4-0.8-0.4-1.5c0-0.7,0.1-1.1,0.4-1.5s0.6-0.5,1.1-0.5c0.5,0,0.8,0.2,1.1,0.5s0.4,0.8,0.4,1.5C218.8,153.5,218.6,154,218.4,154.3
	z"/>
<g>
	<g>
		<path class="st1" d="M230.3,71.8h-1.7h-6.8h0c0-0.3,0-0.5,0-0.8c0-0.3,0-0.6,0-0.8h6.9v0h1.7c1.7,0,3.1-1.4,3.1-3.1
			s-1.4-3.1-3.1-3.1h-2.8l-4.1-23.2c-0.9-4.9-8.2-8.8-16.4-8.8h-24.4l-0.3-0.8c-1.8-5.8-6.3-9.6-11.6-9.6H147
			c-5.2,0-9.7,3.8-11.6,9.6l-0.3,0.8h-15.4V26c0-1.6-0.4-3.2-1.2-4.4c-0.8-1.2-1.9-1.8-3-1.8h-2.3c-1.1,0-2.2,0.6-3,1.8
			c-0.8,1.2-1.2,2.8-1.2,4.4v5.9h-9.8c-1.5,0-3.1,0.4-4.5,1.3c-1.4,0.9-2.4,2.1-3.1,3.5L78.7,63.9H72c-1.7,0-3.1,1.4-3.1,3.1
			s1.4,3.1,3.1,3.1h8.1l-0.8,1.7h-9.9c-1.7,0-3.1,1.4-3.1,3.1c0,1.7,1.3,3,3,3.1c-1.4,2.2-5.6,9.2-4.2,18.7c0,0,0,0,0,0
			c-3.6,0.1-6.5,3-6.5,6.6c0,3.7,3,6.6,6.6,6.6c0,0,0,0,0.1,0l0,0h24.1c0-0.1,0-0.1,0-0.2c0-10.9,8.9-19.8,19.8-19.8
			s19.8,8.9,19.8,19.8c0,0.1,0,0.1,0,0.2h7.5c0,0,0.1,0,0.1,0h35.3c0-0.1,0-0.1,0-0.2c0-10.9,8.9-19.8,19.8-19.8s19.8,8.9,19.8,19.8
			c0,0,0,0,0,0c0.1,0,0.2,0,0.2,0c7.1-0.7,13-4.3,13.8-8.7l2.1-23.2h2.8c1.7,0,3.1-1.4,3.1-3.1C233.4,73.2,232,71.8,230.3,71.8z
			 M141.1,31.9l0.1-0.2c1.2-3,3.5-4.9,5.8-4.9h23.8c2.3,0,4.6,1.9,5.8,4.9l0.1,0.2H141.1z"/>
	</g>
	<path class="st1" d="M48.7,105.9L48.7,105.9c-0.7,0-1.3,0.2-1.8,0.7c-0.5,0.5-0.7,1-0.7,1.7V119h-11v-10.7c0-0.7-0.2-1.2-0.7-1.7
		c-0.5-0.5-1-0.7-1.7-0.7h-0.1c-0.6,0-1.2,0.2-1.7,0.7c-0.5,0.5-0.7,1-0.7,1.7v26.3c0,0.7,0.2,1.2,0.7,1.7c0.5,0.5,1,0.7,1.7,0.7
		h0.1c0.6,0,1.2-0.2,1.7-0.7c0.5-0.5,0.7-1,0.7-1.7v-10.7h11v10.7c0,0.7,0.2,1.2,0.7,1.7c0.5,0.5,1,0.7,1.7,0.7h0.1
		c0.6,0,1.2-0.2,1.7-0.7c0.5-0.5,0.7-1,0.7-1.7v-26.3c0-0.7-0.2-1.2-0.7-1.7C49.9,106.1,49.4,105.9,48.7,105.9z"/>
	<path class="st1" d="M85.5,137L85.5,137c0.7,0,1.3-0.2,1.8-0.7c0.5-0.5,0.7-1,0.7-1.7l0-22.2c0-0.7-0.2-1.2-0.7-1.7
		c-0.5-0.5-1-0.7-1.7-0.7h-0.1c-0.7,0-1.2,0.2-1.7,0.7c-0.5,0.5-0.7,1-0.7,1.7l0,22.2c0,0.7,0.2,1.2,0.7,1.7
		C84.2,136.7,84.8,137,85.5,137z"/>
	<path class="st1" d="M244.1,117.9c0.6,0,1.2-0.2,1.7-0.7c0.5-0.5,0.7-1,0.7-1.7v0c0-0.7-0.2-1.2-0.7-1.7c-0.5-0.5-1-0.7-1.7-0.7h-3
		v-5.8c0-0.7-0.2-1.2-0.7-1.7c-0.5-0.5-1-0.7-1.7-0.7h-0.1c-0.6,0-1.2,0.2-1.7,0.7c-0.5,0.5-0.7,1-0.7,1.7v22.4
		c0,1.7,0.6,3.2,1.8,4.4c1.2,1.2,2.7,1.8,4.4,1.8h1.6c0.6,0,1.2-0.2,1.7-0.7c0.5-0.5,0.7-1,0.7-1.7v0c0-0.7-0.2-1.2-0.7-1.7
		c-0.5-0.5-1-0.7-1.7-0.7h-1.6c-0.4,0-0.7-0.1-1-0.4c-0.3-0.3-0.4-0.6-0.4-1v-11.8L244.1,117.9L244.1,117.9z"/>
	<path class="st1" d="M147.8,136.3c0.3,0.3,0.7,0.5,1.1,0.5h0c0.4,0,0.8-0.2,1.2-0.5c0.3-0.3,0.5-0.7,0.5-1.1v-7.4
		c0-1.8-0.6-3.3-1.9-4.6c-1.3-1.3-2.8-1.9-4.6-1.9c-2.1,0-3.7,0.7-4.8,2.1c-1.1-1.4-2.7-2.1-4.8-2.1c-1.8,0-3.3,0.6-4.6,1.9
		c-1.3,1.3-1.9,2.8-1.9,4.6v7.4c0,0.5,0.2,0.8,0.5,1.1c0.3,0.3,0.7,0.5,1.1,0.5h0c0.4,0,0.8-0.2,1.1-0.5c0.3-0.3,0.5-0.7,0.5-1.1
		v-7.4c0-0.9,0.3-1.6,0.9-2.2c0.6-0.6,1.4-0.9,2.2-0.9s1.6,0.3,2.2,0.9c0.6,0.6,0.9,1.4,0.9,2.2v7.4c0,0.5,0.2,0.8,0.5,1.1
		c0.3,0.3,0.7,0.5,1.2,0.5h0c0.5,0,0.8-0.2,1.1-0.5c0.3-0.3,0.5-0.7,0.5-1.1v-7.4c0-0.9,0.3-1.6,0.9-2.2s1.4-0.9,2.2-0.9
		c0.9,0,1.6,0.3,2.3,0.9c0.6,0.6,0.9,1.4,0.9,2.2v7.4C147.3,135.6,147.5,136,147.8,136.3z"/>
	<path class="st1" d="M165.3,121.3L165.3,121.3c-0.5,0-0.9,0.2-1.2,0.5s-0.5,0.7-0.5,1.2v7c0,0.9-0.3,1.6-0.9,2.3
		c-0.6,0.6-1.4,0.9-2.3,0.9c-0.9,0-1.7-0.3-2.3-0.9c-0.6-0.6-0.9-1.4-0.9-2.3v-7c0-0.4-0.2-0.8-0.5-1.2c-0.3-0.3-0.7-0.5-1.1-0.5h0
		c-0.4,0-0.8,0.2-1.1,0.5c-0.3,0.3-0.5,0.7-0.5,1.2v7c0,1.8,0.6,3.3,1.9,4.6c1.3,1.3,2.8,1.9,4.6,1.9c1.4,0,2.5-0.3,3.2-0.8v0.1
		c0,0.9-0.3,1.6-1,2.3c-0.6,0.6-1.4,0.9-2.2,0.9c-0.7,0-1.3-0.2-1.9-0.5c-0.6-0.3-1-0.8-1.3-1.3c-0.2-0.4-0.5-0.6-0.8-0.8
		c-0.2-0.1-0.4-0.1-0.6-0.1c-0.2,0-0.4,0-0.6,0.1l-0.1,0c-0.4,0.2-0.8,0.5-0.9,0.9c-0.1,0.2-0.1,0.4-0.1,0.6c0,0.2,0.1,0.5,0.2,0.7
		c0.6,1.1,1.4,1.9,2.4,2.6c1.1,0.7,2.3,1,3.7,1c1.7,0,3.2-0.6,4.5-1.9c1.3-1.3,2-2.8,2-4.6V123c0-0.4-0.2-0.8-0.5-1.2
		C166.1,121.5,165.8,121.3,165.3,121.3z"/>
	<g>
		<path class="st1" d="M125.1,109.8c0-8.8-7.1-15.9-15.9-15.9c-8.7,0-15.8,7-15.9,15.7c0,0.2-0.1,0.4-0.1,0.6v24.1
			c0,0.8,0.3,1.4,0.8,1.9c0.5,0.5,1.2,0.8,1.9,0.8h0.1c0.7,0,1.3-0.3,1.9-0.8c0.5-0.5,0.8-1.1,0.8-1.9v-12.6c2.8,2.5,6.5,4,10.6,4
			C118,125.7,125.1,118.6,125.1,109.8z M109.2,118.6c-4.9,0-8.8-3.9-8.8-8.8c0-4.9,3.9-8.8,8.8-8.8s8.8,3.9,8.8,8.8
			C118,114.7,114,118.6,109.2,118.6z"/>
	</g>
	<g>
		<path class="st1" d="M191.7,93.9c-8.8,0-15.9,7.1-15.9,15.9c0,0.1,0,0.3,0,0.4c0,0.1,0,0.2,0,0.2v23.9c0,0.7,0.3,1.4,0.8,1.9
			c0.5,0.5,1.1,0.8,1.9,0.8h0.1c0.7,0,1.3-0.3,1.9-0.8c0.5-0.5,0.8-1.1,0.8-1.9v-12.6c2.8,2.5,6.5,4,10.6,4
			c8.8,0,15.9-7.1,15.9-15.9C207.6,101,200.4,93.9,191.7,93.9z M191.7,118.6c-4.9,0-8.8-3.9-8.8-8.8c0-4.9,3.9-8.8,8.8-8.8
			c4.9,0,8.8,3.9,8.8,8.8C200.5,114.7,196.5,118.6,191.7,118.6z"/>
	</g>
	<path class="st1" d="M124.5,21.7c0.4,0,0.8-0.1,1.1-0.4l6.5-6.5c0.6-0.6,0.6-1.6,0-2.2c-0.6-0.6-1.6-0.6-2.2,0l-6.5,6.5
		c-0.6,0.6-0.6,1.6,0,2.2C123.7,21.6,124.1,21.7,124.5,21.7z"/>
	<path class="st1" d="M102.8,21.3c0.3,0.3,0.7,0.4,1.1,0.4s0.8-0.1,1.1-0.4c0.6-0.6,0.6-1.6,0-2.2l-6.5-6.5c-0.6-0.6-1.6-0.6-2.2,0
		c-0.6,0.6-0.6,1.6,0,2.2L102.8,21.3z"/>
	<path class="st1" d="M114.1,15.8c0.8,0,1.5-0.7,1.5-1.5V5c0-0.8-0.7-1.5-1.5-1.5s-1.5,0.7-1.5,1.5v9.2
		C112.6,15.1,113.3,15.8,114.1,15.8z"/>
	<g>
		<path class="st1" d="M78.2,128.5c0-0.5-0.2-0.9-0.5-1.3c-0.5-0.7-1.1-1-2-1c-1.2,0-1.9,0.5-2.3,1.6c-0.5,1.3-1.2,2.4-2.4,3.2
			c-1.2,0.8-2.4,1.3-3.9,1.3c-2.1,0-3.7-0.6-4.7-1.9c0.7-0.3,2.9-1.3,6.6-3c3-1.4,5.5-2.5,7.3-3.3c0.6-0.3,1-0.7,1.3-1.4
			c0.1-0.3,0.2-0.6,0.2-0.8c0-0.3-0.1-0.7-0.2-1c-0.9-2-2.3-3.6-4.2-4.8c-1.9-1.2-4-1.9-6.2-1.9c-3.2,0-5.9,1.1-8.1,3.4
			s-3.4,4.9-3.4,8.1s1.1,5.9,3.4,8.1c2.2,2.2,4.9,3.4,8.1,3.4c2.5,0,4.7-0.7,6.7-2.2c2-1.4,3.3-3.2,4.1-5.5
			C78.1,129,78.2,128.7,78.2,128.5z M60.6,125.6c0-1.8,0.6-3.4,1.9-4.7c1.3-1.3,2.8-1.9,4.7-1.9c2,0,3.6,0.6,4.5,1.8l-11.1,5
			C60.6,125.7,60.6,125.6,60.6,125.6z"/>
	</g>
	<g>
		<path class="st1" d="M229.2,125.1c-1.2,0-1.9,0.5-2.3,1.6c-0.5,1.3-1.2,2.4-2.4,3.2c-1.2,0.8-2.4,1.3-3.9,1.3
			c-2.1,0-3.7-0.6-4.7-1.9c0.6-0.3,2.9-1.3,6.6-3c3-1.4,5.5-2.5,7.3-3.3c0.6-0.3,1-0.7,1.3-1.4c0.1-0.3,0.2-0.6,0.2-0.8
			c0-0.3-0.1-0.7-0.2-1c-0.9-2-2.3-3.6-4.2-4.8c-1.9-1.2-4-1.9-6.2-1.9c-3.2,0-5.9,1.1-8.1,3.4s-3.4,4.9-3.4,8.1s1.1,5.9,3.4,8.1
			s4.9,3.4,8.1,3.4c2.5,0,4.7-0.7,6.7-2.2c2-1.4,3.3-3.2,4.1-5.5c0.1-0.3,0.2-0.6,0.2-0.9c0-0.5-0.2-0.9-0.5-1.3
			C230.7,125.4,230.1,125.1,229.2,125.1z M214.1,124.5c0-1.8,0.6-3.4,1.9-4.7c1.3-1.3,2.8-1.9,4.7-1.9c2,0,3.6,0.6,4.5,1.8l-11.1,5
			V124.5z"/>
	</g>
</g>
<path class="st2" d="M230.3,71.8h-1.7h-6.8h0c0-0.3,0-0.5,0-0.8c0-0.3,0-0.6,0-0.8h6.9v0h1.7c1.7,0,3.1-1.4,3.1-3.1
	s-1.4-3.1-3.1-3.1h-2.8l-4.1-23.2c-0.9-4.9-8.2-8.8-16.4-8.8h-24.4l-0.3-0.8c-1.8-5.8-6.3-9.6-11.6-9.6H147c-5.2,0-9.7,3.8-11.6,9.6
	l-0.3,0.8h-36c-1.5,0-3.1,0.4-4.5,1.3c-1.4,0.9-2.4,2.1-3.1,3.5L78.7,63.9H72c-1.7,0-3.1,1.4-3.1,3.1s1.4,3.1,3.1,3.1h8.1l-0.8,1.7
	h-9.9c-1.7,0-3.1,1.4-3.1,3.1c0,1.7,1.3,3,3,3.1c-1.4,2.2-5.6,9.2-4.2,18.7c0,0,0,0,0,0c-3.6,0.1-6.5,3-6.5,6.6c0,3.7,3,6.6,6.6,6.6
	c0,0,0,0,0.1,0c0,0,0,0,0,0h24.1c0-0.1,0-0.1,0-0.2c0-10.9,8.9-19.8,19.8-19.8s19.8,8.9,19.8,19.8c0,0.1,0,0.1,0,0.2h7.5
	c0,0,0.1,0,0.1,0h35.3c0-0.1,0-0.1,0-0.2c0-10.9,8.9-19.8,19.8-19.8s19.8,8.9,19.8,19.8c0,0,0,0,0,0c0.1,0,0.2,0,0.2,0
	c7.1-0.7,13-4.3,13.8-8.7l2.1-23.2h2.8c1.7,0,3.1-1.4,3.1-3.1S232,71.8,230.3,71.8z M141.1,31.9l0.1-0.2c1.2-3,3.5-4.9,5.8-4.9h23.8
	c2.3,0,4.6,1.9,5.8,4.9l0.1,0.2H141.1z"/>
<path class="st3" d="M119.8,31.9V26c0-1.6-0.4-3.2-1.2-4.4c-0.8-1.2-1.9-1.8-3-1.8h-2.3c-1.1,0-2.2,0.6-3,1.8
	c-0.8,1.2-1.2,2.8-1.2,4.4v5.9H119.8z"/>
<path class="st2" d="M63.6,155.9c-0.4,0-0.7-0.2-0.9-0.6l-3.2-7.2c-0.1-0.3-0.1-0.6,0-0.8s0.4-0.3,0.6-0.3c0.2,0,0.4,0.1,0.5,0.2
	c0.1,0.1,0.2,0.3,0.3,0.5l2.6,6.1l2.6-6.1c0.1-0.2,0.2-0.3,0.3-0.4c0.1-0.1,0.3-0.2,0.5-0.2c0.3,0,0.5,0.1,0.6,0.3
	c0.1,0.2,0.1,0.4,0,0.7l-3.2,7.2c-0.1,0.2-0.2,0.4-0.3,0.5C64,155.9,63.9,155.9,63.6,155.9z"/>
<path class="st2" d="M72.2,156c-0.7,0-1.3-0.1-1.8-0.4c-0.5-0.3-0.9-0.6-1.1-1.1s-0.4-1-0.4-1.7c0-0.6,0.1-1.2,0.4-1.6
	c0.3-0.5,0.6-0.8,1.1-1.1c0.5-0.3,1-0.4,1.6-0.4c0.8,0,1.5,0.3,2,0.8c0.5,0.5,0.7,1.3,0.7,2.2c0,0.3-0.2,0.5-0.6,0.5h-3.7
	c0.1,1.1,0.7,1.6,1.8,1.6c0.2,0,0.5,0,0.7-0.1c0.3-0.1,0.5-0.1,0.8-0.3c0.2-0.1,0.4-0.2,0.5-0.1c0.1,0,0.3,0.1,0.3,0.3
	c0.1,0.1,0.1,0.3,0,0.4s-0.2,0.3-0.3,0.4c-0.3,0.2-0.6,0.3-1,0.4C72.9,155.9,72.5,156,72.2,156z M72,150.8c-0.4,0-0.8,0.1-1.1,0.4
	s-0.4,0.7-0.5,1.1h3c0-0.5-0.2-0.9-0.4-1.1C72.7,150.9,72.4,150.8,72,150.8z"/>
<path class="st2" d="M79.8,156c-1.6,0-2.4-0.8-2.4-2.4V151h-0.6c-0.4,0-0.6-0.2-0.6-0.6s0.2-0.6,0.6-0.6h0.6v-1.1
	c0-0.5,0.3-0.8,0.8-0.8c0.5,0,0.8,0.3,0.8,0.8v1.1h1.3c0.4,0,0.6,0.2,0.6,0.6s-0.2,0.6-0.6,0.6H79v2.5c0,0.4,0.1,0.7,0.3,0.9
	c0.2,0.2,0.4,0.3,0.8,0.3c0.1,0,0.3,0,0.4,0c0.1,0,0.2,0,0.3,0c0.1,0,0.2,0,0.2,0.1c0.1,0.1,0.1,0.2,0.1,0.4c0,0.2,0,0.3-0.1,0.4
	c-0.1,0.1-0.1,0.2-0.3,0.3c-0.1,0-0.2,0.1-0.4,0.1C80.1,155.9,80,156,79.8,156z"/>
<path class="st2" d="M85.9,156c-0.7,0-1.3-0.1-1.8-0.4c-0.5-0.3-0.9-0.6-1.1-1.1s-0.4-1-0.4-1.7c0-0.6,0.1-1.2,0.4-1.6
	c0.3-0.5,0.6-0.8,1.1-1.1c0.5-0.3,1-0.4,1.6-0.4c0.8,0,1.5,0.3,2,0.8c0.5,0.5,0.7,1.3,0.7,2.2c0,0.3-0.2,0.5-0.6,0.5h-3.7
	c0.1,1.1,0.7,1.6,1.8,1.6c0.2,0,0.5,0,0.7-0.1c0.3-0.1,0.5-0.1,0.8-0.3c0.2-0.1,0.4-0.2,0.5-0.1c0.1,0,0.3,0.1,0.3,0.3
	c0.1,0.1,0.1,0.3,0,0.4s-0.2,0.3-0.3,0.4c-0.3,0.2-0.6,0.3-1,0.4C86.6,155.9,86.2,156,85.9,156z M85.7,150.8c-0.5,0-0.8,0.1-1.1,0.4
	s-0.4,0.7-0.5,1.1h3c0-0.5-0.2-0.9-0.4-1.1C86.5,150.9,86.1,150.8,85.7,150.8z"/>
<path class="st2" d="M91.6,155.9c-0.5,0-0.8-0.3-0.8-0.8v-4.6c0-0.5,0.2-0.8,0.7-0.8c0.5,0,0.7,0.3,0.7,0.8v0.4
	c0.3-0.7,0.9-1.1,1.9-1.2c0.4,0,0.5,0.2,0.6,0.6c0,0.4-0.2,0.7-0.6,0.7l-0.3,0c-1,0.1-1.5,0.6-1.5,1.5v2.5
	C92.4,155.7,92.1,155.9,91.6,155.9z"/>
<path class="st2" d="M97.6,148.6c-0.3,0-0.5-0.1-0.7-0.2c-0.2-0.1-0.2-0.3-0.2-0.6c0-0.3,0.1-0.5,0.2-0.6s0.4-0.2,0.7-0.2
	c0.6,0,0.9,0.3,0.9,0.8S98.2,148.6,97.6,148.6z M97.6,155.9c-0.2,0-0.4-0.1-0.6-0.2c-0.1-0.1-0.2-0.4-0.2-0.6v-4.5
	c0-0.6,0.3-0.8,0.8-0.8c0.5,0,0.8,0.3,0.8,0.8v4.5c0,0.3-0.1,0.5-0.2,0.6C98.1,155.9,97.9,155.9,97.6,155.9z"/>
<path class="st2" d="M102,155.9c-0.5,0-0.8-0.3-0.8-0.8v-4.6c0-0.5,0.2-0.8,0.7-0.8c0.5,0,0.7,0.3,0.7,0.8v0.3
	c0.2-0.3,0.5-0.6,0.8-0.8c0.3-0.2,0.7-0.3,1.2-0.3c1.4,0,2.1,0.8,2.1,2.5v3c0,0.5-0.3,0.8-0.8,0.8c-0.5,0-0.8-0.3-0.8-0.8v-2.9
	c0-0.5-0.1-0.8-0.3-1c-0.2-0.2-0.4-0.3-0.8-0.3c-0.4,0-0.8,0.1-1.1,0.4s-0.4,0.7-0.4,1.1v2.7C102.7,155.7,102.5,155.9,102,155.9z"/>
<path class="st2" d="M111.6,156c-0.4,0-0.8-0.1-1.2-0.3s-0.6-0.4-0.8-0.7c-0.2-0.3-0.3-0.6-0.3-1c0-0.4,0.1-0.8,0.3-1
	c0.2-0.3,0.6-0.4,1.1-0.6c0.5-0.1,1.2-0.2,2.1-0.2h0.4V152c0-0.4-0.1-0.7-0.3-0.9s-0.5-0.3-0.9-0.3c-0.2,0-0.5,0-0.8,0.1
	c-0.3,0.1-0.6,0.2-0.9,0.3c-0.2,0.1-0.4,0.1-0.5,0c-0.1-0.1-0.2-0.2-0.3-0.3s0-0.3,0-0.5c0.1-0.2,0.2-0.3,0.4-0.3
	c0.4-0.2,0.7-0.3,1.1-0.3c0.3-0.1,0.7-0.1,0.9-0.1c0.9,0,1.5,0.2,1.9,0.6c0.4,0.4,0.6,1,0.6,1.9v2.9c0,0.5-0.2,0.8-0.7,0.8
	c-0.5,0-0.7-0.3-0.7-0.8v-0.3c-0.1,0.3-0.4,0.6-0.7,0.8C112.4,155.9,112,156,111.6,156z M111.9,154.9c0.4,0,0.7-0.1,1-0.4
	s0.4-0.6,0.4-1.1v-0.3h-0.4c-0.8,0-1.3,0.1-1.6,0.2c-0.3,0.1-0.4,0.3-0.4,0.6c0,0.3,0.1,0.5,0.3,0.7
	C111.3,154.8,111.6,154.9,111.9,154.9z"/>
<path class="st2" d="M118.3,155.9c-0.5,0-0.8-0.3-0.8-0.8v-4.6c0-0.5,0.2-0.8,0.7-0.8c0.5,0,0.7,0.3,0.7,0.8v0.4
	c0.3-0.7,0.9-1.1,1.9-1.2c0.4,0,0.5,0.2,0.6,0.6c0,0.4-0.2,0.7-0.6,0.7l-0.3,0c-1,0.1-1.5,0.6-1.5,1.5v2.5
	C119.1,155.7,118.8,155.9,118.3,155.9z"/>
<path class="st2" d="M124.3,148.6c-0.3,0-0.5-0.1-0.7-0.2c-0.2-0.1-0.2-0.3-0.2-0.6c0-0.3,0.1-0.5,0.2-0.6c0.2-0.1,0.4-0.2,0.7-0.2
	c0.6,0,0.9,0.3,0.9,0.8S124.9,148.6,124.3,148.6z M124.3,155.9c-0.2,0-0.4-0.1-0.6-0.2c-0.1-0.1-0.2-0.4-0.2-0.6v-4.5
	c0-0.6,0.3-0.8,0.8-0.8c0.5,0,0.8,0.3,0.8,0.8v4.5c0,0.3-0.1,0.5-0.2,0.6C124.8,155.9,124.6,155.9,124.3,155.9z"/>
<path class="st2" d="M130.7,156c-0.6,0-1.2-0.1-1.6-0.4c-0.5-0.3-0.8-0.6-1.1-1.1c-0.3-0.5-0.4-1-0.4-1.7s0.1-1.2,0.4-1.7
	c0.3-0.5,0.6-0.8,1.1-1.1c0.5-0.3,1-0.4,1.6-0.4s1.2,0.1,1.6,0.4c0.5,0.3,0.8,0.6,1.1,1.1c0.3,0.5,0.4,1,0.4,1.7
	c0,0.6-0.1,1.2-0.4,1.7c-0.3,0.5-0.6,0.8-1.1,1.1S131.3,156,130.7,156z M130.7,154.8c0.5,0,0.8-0.2,1.1-0.5s0.4-0.8,0.4-1.5
	c0-0.7-0.1-1.1-0.4-1.5s-0.6-0.5-1.1-0.5s-0.8,0.2-1.1,0.5c-0.3,0.3-0.4,0.8-0.4,1.5c0,0.6,0.1,1.1,0.4,1.5
	C129.8,154.6,130.2,154.8,130.7,154.8z"/>
<path class="st2" d="M138.4,156c-0.4,0-0.7,0-1.1-0.1c-0.4-0.1-0.7-0.2-1.1-0.4c-0.2-0.1-0.3-0.2-0.3-0.4s0-0.3,0-0.4
	c0.1-0.1,0.1-0.2,0.3-0.3s0.3,0,0.4,0c0.3,0.2,0.6,0.3,0.9,0.3c0.3,0.1,0.6,0.1,0.8,0.1c0.4,0,0.7-0.1,0.9-0.2
	c0.2-0.1,0.3-0.3,0.3-0.5c0-0.3-0.3-0.6-0.8-0.7l-1.2-0.2c-1-0.2-1.6-0.7-1.6-1.6c0-0.4,0.1-0.7,0.3-1c0.2-0.3,0.5-0.5,0.9-0.7
	s0.8-0.2,1.3-0.2c0.7,0,1.4,0.2,1.9,0.5c0.2,0.1,0.2,0.2,0.3,0.3c0,0.1,0,0.3,0,0.4c-0.1,0.1-0.2,0.2-0.3,0.3c-0.1,0.1-0.3,0-0.5,0
	c-0.3-0.1-0.5-0.2-0.7-0.3c-0.2-0.1-0.5-0.1-0.7-0.1c-0.4,0-0.7,0.1-0.9,0.2c-0.2,0.1-0.3,0.3-0.3,0.6c0,0.4,0.2,0.6,0.7,0.7
	l1.2,0.2c0.5,0.1,0.9,0.3,1.2,0.5c0.3,0.3,0.4,0.6,0.4,1.1c0,0.6-0.2,1.1-0.7,1.4C139.8,155.8,139.2,156,138.4,156z"/>
<path class="st2" d="M150,156c-0.4,0-0.8-0.1-1.2-0.3c-0.3-0.2-0.6-0.4-0.8-0.7c-0.2-0.3-0.3-0.6-0.3-1c0-0.4,0.1-0.8,0.3-1
	s0.6-0.4,1.1-0.6c0.5-0.1,1.2-0.2,2.1-0.2h0.4V152c0-0.4-0.1-0.7-0.3-0.9c-0.2-0.2-0.5-0.3-0.9-0.3c-0.2,0-0.5,0-0.8,0.1
	c-0.3,0.1-0.6,0.2-0.9,0.3c-0.2,0.1-0.4,0.1-0.5,0c-0.1-0.1-0.2-0.2-0.3-0.3s0-0.3,0-0.5c0.1-0.2,0.2-0.3,0.4-0.3
	c0.4-0.2,0.7-0.3,1.1-0.3c0.3-0.1,0.7-0.1,0.9-0.1c0.9,0,1.5,0.2,1.9,0.6c0.4,0.4,0.6,1,0.6,1.9v2.9c0,0.5-0.2,0.8-0.7,0.8
	c-0.5,0-0.7-0.3-0.7-0.8v-0.3c-0.1,0.3-0.4,0.6-0.7,0.8C150.7,155.9,150.4,156,150,156z M150.3,154.9c0.4,0,0.7-0.1,1-0.4
	c0.3-0.3,0.4-0.6,0.4-1.1v-0.3h-0.4c-0.8,0-1.3,0.1-1.6,0.2c-0.3,0.1-0.4,0.3-0.4,0.6c0,0.3,0.1,0.5,0.3,0.7
	C149.7,154.8,149.9,154.9,150.3,154.9z"/>
<path class="st2" d="M162.8,156c-0.5,0-1-0.1-1.4-0.4s-0.7-0.6-0.9-1.1s-0.3-1-0.3-1.7c0-0.6,0.1-1.2,0.3-1.7
	c0.2-0.5,0.5-0.8,0.9-1.1c0.4-0.3,0.9-0.4,1.4-0.4c0.4,0,0.8,0.1,1.2,0.3c0.3,0.2,0.6,0.4,0.8,0.7v-2.9c0-0.5,0.3-0.8,0.8-0.8
	c0.5,0,0.8,0.3,0.8,0.8v7.3c0,0.5-0.3,0.8-0.8,0.8s-0.8-0.3-0.8-0.8v-0.3c-0.2,0.3-0.4,0.6-0.8,0.8C163.6,155.9,163.2,156,162.8,156
	z M163.2,154.8c0.5,0,0.8-0.2,1.1-0.5s0.4-0.8,0.4-1.5c0-0.7-0.1-1.1-0.4-1.5s-0.6-0.5-1.1-0.5c-0.5,0-0.8,0.2-1.1,0.5
	s-0.4,0.8-0.4,1.5c0,0.6,0.1,1.1,0.4,1.5S162.7,154.8,163.2,154.8z"/>
<path class="st2" d="M171.8,156c-0.6,0-1.2-0.1-1.6-0.4c-0.5-0.3-0.8-0.6-1.1-1.1s-0.4-1-0.4-1.7s0.1-1.2,0.4-1.7
	c0.3-0.5,0.6-0.8,1.1-1.1c0.5-0.3,1-0.4,1.6-0.4c0.6,0,1.2,0.1,1.6,0.4c0.5,0.3,0.8,0.6,1.1,1.1c0.3,0.5,0.4,1,0.4,1.7
	c0,0.6-0.1,1.2-0.4,1.7c-0.3,0.5-0.6,0.8-1.1,1.1C172.9,155.8,172.4,156,171.8,156z M171.8,154.8c0.5,0,0.8-0.2,1.1-0.5
	s0.4-0.8,0.4-1.5c0-0.7-0.1-1.1-0.4-1.5s-0.6-0.5-1.1-0.5c-0.5,0-0.8,0.2-1.1,0.5s-0.4,0.8-0.4,1.5c0,0.6,0.1,1.1,0.4,1.5
	S171.3,154.8,171.8,154.8z"/>
<path class="st2" d="M178.1,155.9c-0.5,0-0.8-0.3-0.8-0.8v-4.6c0-0.5,0.2-0.8,0.7-0.8c0.5,0,0.7,0.3,0.7,0.8v0.2
	c0.2-0.3,0.4-0.6,0.7-0.8s0.7-0.3,1.1-0.3c0.9,0,1.5,0.4,1.8,1.2c0.2-0.4,0.5-0.7,0.8-0.9c0.4-0.2,0.8-0.3,1.2-0.3
	c1.3,0,2,0.8,2,2.5v3c0,0.5-0.3,0.8-0.8,0.8c-0.5,0-0.8-0.3-0.8-0.8v-2.9c0-0.5-0.1-0.8-0.2-1s-0.4-0.3-0.8-0.3
	c-0.4,0-0.7,0.1-0.9,0.4s-0.3,0.7-0.3,1.2v2.6c0,0.5-0.3,0.8-0.8,0.8c-0.5,0-0.8-0.3-0.8-0.8v-2.9c0-0.5-0.1-0.8-0.2-1
	s-0.4-0.3-0.8-0.3c-0.4,0-0.7,0.1-0.9,0.4s-0.3,0.7-0.3,1.2v2.6C178.9,155.7,178.6,155.9,178.1,155.9z"/>
<path class="st2" d="M190.1,148.6c-0.3,0-0.5-0.1-0.7-0.2c-0.2-0.1-0.2-0.3-0.2-0.6c0-0.3,0.1-0.5,0.2-0.6c0.2-0.1,0.4-0.2,0.7-0.2
	c0.6,0,0.9,0.3,0.9,0.8S190.7,148.6,190.1,148.6z M190.1,155.9c-0.2,0-0.4-0.1-0.6-0.2c-0.1-0.1-0.2-0.4-0.2-0.6v-4.5
	c0-0.6,0.3-0.8,0.8-0.8c0.5,0,0.8,0.3,0.8,0.8v4.5c0,0.3-0.1,0.5-0.2,0.6C190.5,155.9,190.3,155.9,190.1,155.9z"/>
<path class="st2" d="M196.4,156c-0.6,0-1.2-0.1-1.6-0.4s-0.8-0.6-1.1-1.1c-0.3-0.5-0.4-1-0.4-1.7c0-0.6,0.1-1.2,0.4-1.6
	c0.3-0.5,0.6-0.8,1.1-1.1c0.5-0.2,1-0.4,1.6-0.4c0.3,0,0.6,0,0.9,0.1c0.3,0.1,0.6,0.2,0.9,0.4c0.2,0.1,0.3,0.2,0.3,0.4
	c0,0.2,0,0.3-0.1,0.4c-0.1,0.1-0.2,0.2-0.3,0.3c-0.1,0.1-0.3,0-0.5-0.1c-0.4-0.2-0.7-0.3-1.1-0.3c-0.5,0-0.9,0.2-1.2,0.5
	c-0.3,0.3-0.4,0.8-0.4,1.4c0,0.6,0.1,1.1,0.4,1.4s0.7,0.5,1.2,0.5c0.4,0,0.7-0.1,1.1-0.3c0.2-0.1,0.3-0.1,0.5-0.1
	c0.1,0.1,0.2,0.2,0.3,0.3c0.1,0.1,0.1,0.3,0,0.4s-0.1,0.3-0.3,0.4c-0.3,0.2-0.6,0.3-0.9,0.4C197,155.9,196.7,156,196.4,156z"/>
<path class="st2" d="M201.4,148.6c-0.3,0-0.5-0.1-0.7-0.2c-0.2-0.1-0.2-0.3-0.2-0.6c0-0.3,0.1-0.5,0.2-0.6s0.4-0.2,0.7-0.2
	c0.6,0,0.9,0.3,0.9,0.8S202,148.6,201.4,148.6z M201.4,155.9c-0.2,0-0.4-0.1-0.6-0.2c-0.1-0.1-0.2-0.4-0.2-0.6v-4.5
	c0-0.6,0.3-0.8,0.8-0.8c0.5,0,0.8,0.3,0.8,0.8v4.5c0,0.3-0.1,0.5-0.2,0.6C201.9,155.9,201.7,155.9,201.4,155.9z"/>
<path class="st2" d="M207.1,156c-1.4,0-2-0.8-2-2.3v-5.8c0-0.5,0.3-0.8,0.8-0.8c0.5,0,0.8,0.3,0.8,0.8v5.7c0,0.7,0.3,1.1,0.9,1.1
	c0.1,0,0.1,0,0.2,0c0.1,0,0.1,0,0.2,0c0.1,0,0.2,0,0.2,0.1c0,0.1,0.1,0.2,0.1,0.5c0,0.2,0,0.4-0.1,0.5c-0.1,0.1-0.2,0.2-0.4,0.2
	C207.4,156,207.3,156,207.1,156z"/>
<path class="st2" d="M210.9,148.6c-0.3,0-0.5-0.1-0.7-0.2c-0.2-0.1-0.2-0.3-0.2-0.6c0-0.3,0.1-0.5,0.2-0.6c0.2-0.1,0.4-0.2,0.7-0.2
	c0.6,0,0.9,0.3,0.9,0.8S211.5,148.6,210.9,148.6z M210.9,155.9c-0.2,0-0.4-0.1-0.6-0.2c-0.1-0.1-0.2-0.4-0.2-0.6v-4.5
	c0-0.6,0.3-0.8,0.8-0.8c0.5,0,0.8,0.3,0.8,0.8v4.5c0,0.3-0.1,0.5-0.2,0.6C211.4,155.9,211.2,155.9,210.9,155.9z"/>
<path class="st2" d="M217.3,156c-0.6,0-1.2-0.1-1.6-0.4c-0.5-0.3-0.8-0.6-1.1-1.1s-0.4-1-0.4-1.7s0.1-1.2,0.4-1.7
	c0.3-0.5,0.6-0.8,1.1-1.1c0.5-0.3,1-0.4,1.6-0.4c0.6,0,1.2,0.1,1.6,0.4c0.5,0.3,0.8,0.6,1.1,1.1c0.3,0.5,0.4,1,0.4,1.7
	c0,0.6-0.1,1.2-0.4,1.7c-0.3,0.5-0.6,0.8-1.1,1.1C218.4,155.8,217.9,156,217.3,156z M217.3,154.8c0.5,0,0.8-0.2,1.1-0.5
	s0.4-0.8,0.4-1.5c0-0.7-0.1-1.1-0.4-1.5s-0.6-0.5-1.1-0.5c-0.5,0-0.8,0.2-1.1,0.5s-0.4,0.8-0.4,1.5c0,0.6,0.1,1.1,0.4,1.5
	S216.8,154.8,217.3,154.8z"/>
<path class="st4" d="M162.3,89.8L162.3,89.8c0,1.9-1.5,3.4-3.4,3.4h-5.8v5.8c0,1.9-1.5,3.4-3.4,3.4l0,0c-1.9,0-3.4-1.5-3.4-3.4v-5.8
	h-5.8c-1.9,0-3.4-1.5-3.4-3.4l0,0c0-1.9,1.5-3.4,3.4-3.4h5.8v-5.8c0-1.9,1.5-3.4,3.4-3.4l0,0c1.9,0,3.4,1.5,3.4,3.4v5.8h5.8
	C160.7,86.4,162.3,87.9,162.3,89.8z"/>
<path class="st4" d="M149.6,69.9c-1.5,0-2.8-1.2-2.8-2.8V44.3c0-1.5,1.2-2.8,2.8-2.8s2.8,1.2,2.8,2.8v22.9
	C152.4,68.6,151.1,69.9,149.6,69.9z"/>
<path class="st4" d="M159.8,69.9c-1.5,0-2.8-1.2-2.8-2.8V44.3c0-1.5,1.2-2.8,2.8-2.8s2.8,1.2,2.8,2.8v22.9
	C162.6,68.6,161.3,69.9,159.8,69.9z"/>
<path class="st4" d="M170,69.9c-1.5,0-2.8-1.2-2.8-2.8V44.3c0-1.5,1.2-2.8,2.8-2.8s2.8,1.2,2.8,2.8v22.9
	C172.8,68.6,171.5,69.9,170,69.9z"/>
<path class="st4" d="M180.2,69.9c-1.5,0-2.8-1.2-2.8-2.8V44.3c0-1.5,1.2-2.8,2.8-2.8s2.8,1.2,2.8,2.8v22.9
	C182.9,68.6,181.7,69.9,180.2,69.9z"/>
<path class="st4" d="M190.4,69.9c-1.5,0-2.8-1.2-2.8-2.8V44.3c0-1.5,1.2-2.8,2.8-2.8s2.8,1.2,2.8,2.8v22.9
	C193.1,68.6,191.9,69.9,190.4,69.9z"/>
<path class="st4" d="M200.6,69.9c-1.5,0-2.8-1.2-2.8-2.8V44.3c0-1.5,1.2-2.8,2.8-2.8s2.8,1.2,2.8,2.8v22.9
	C203.3,68.6,202.1,69.9,200.6,69.9z"/>
<path class="st4" d="M210.8,69.9c-1.5,0-2.8-1.2-2.8-2.8V44.3c0-1.5,1.2-2.8,2.8-2.8s2.8,1.2,2.8,2.8v22.9
	C213.5,68.6,212.3,69.9,210.8,69.9z"/>
<path class="st2" d="M32.8,105.9c0.6,0,1.2,0.2,1.7,0.7c0.5,0.5,0.7,1,0.7,1.7V119h11v-10.7c0-0.7,0.2-1.2,0.7-1.7
	c0.5-0.5,1-0.7,1.7-0.7h0.1c0.7,0,1.2,0.2,1.7,0.7c0.5,0.5,0.7,1,0.7,1.7v26.3c0,0.7-0.2,1.2-0.7,1.7c-0.5,0.5-1,0.7-1.7,0.7h-0.1
	c-0.7,0-1.2-0.2-1.7-0.7c-0.5-0.5-0.7-1-0.7-1.7v-10.7h-11v10.7c0,0.7-0.2,1.2-0.7,1.7c-0.5,0.5-1,0.7-1.7,0.7h-0.1
	c-0.6,0-1.2-0.2-1.7-0.7c-0.5-0.5-0.7-1-0.7-1.7v-26.3c0-0.7,0.2-1.2,0.7-1.7C31.6,106.1,32.1,105.9,32.8,105.9
	C32.8,105.9,32.8,105.9,32.8,105.9z"/>
<path class="st2" d="M85.5,110c0.7,0,1.2,0.2,1.7,0.7c0.5,0.5,0.7,1,0.7,1.7l0,22.2c0,0.7-0.2,1.2-0.7,1.7c-0.5,0.5-1,0.7-1.7,0.7
	h-0.1c-0.7,0-1.2-0.2-1.7-0.7c-0.5-0.5-0.7-1-0.7-1.7l0-22.2c0-0.7,0.2-1.2,0.7-1.7C84.2,110.2,84.8,110,85.5,110L85.5,110z"/>
<path class="st2" d="M95.9,107.5c0.7,0,1.3,0.3,1.9,0.8c0.5,0.5,0.8,1.2,0.8,1.9v24.1c0,0.8-0.3,1.4-0.8,1.9
	c-0.5,0.5-1.2,0.8-1.9,0.8h-0.1c-0.7,0-1.3-0.3-1.9-0.8c-0.5-0.5-0.8-1.1-0.8-1.9v-24.1c0-0.7,0.3-1.4,0.8-1.9
	C94.5,107.8,95.1,107.5,95.9,107.5L95.9,107.5z"/>
<path class="st2" d="M238.7,104.9c0.6,0,1.2,0.2,1.7,0.7c0.5,0.5,0.7,1,0.7,1.7v5.8h3c0.6,0,1.2,0.2,1.7,0.7s0.7,1,0.7,1.7v0
	c0,0.7-0.2,1.2-0.7,1.7c-0.5,0.5-1,0.7-1.7,0.7h-3v11.8c0,0.4,0.1,0.7,0.4,1c0.3,0.3,0.6,0.4,1,0.4h1.6c0.6,0,1.2,0.2,1.7,0.7
	c0.5,0.5,0.7,1,0.7,1.7v0c0,0.7-0.2,1.2-0.7,1.7c-0.5,0.5-1,0.7-1.7,0.7h-1.6c-1.7,0-3.2-0.6-4.4-1.8c-1.2-1.2-1.8-2.7-1.8-4.4
	v-22.4c0-0.7,0.2-1.2,0.7-1.7C237.5,105.1,238,104.9,238.7,104.9L238.7,104.9L238.7,104.9z"/>
<path class="st2" d="M178.4,107.8c0.7,0,1.3,0.3,1.9,0.8c0.5,0.5,0.8,1.2,0.8,1.9v23.9c0,0.7-0.3,1.4-0.8,1.9
	c-0.5,0.5-1.1,0.8-1.9,0.8h-0.1c-0.7,0-1.3-0.3-1.9-0.8c-0.5-0.5-0.8-1.1-0.8-1.9v-23.9c0-0.7,0.3-1.4,0.8-1.9
	C177,108.1,177.7,107.8,178.4,107.8L178.4,107.8z"/>
<path class="st2" d="M131.3,135.2c0,0.5-0.2,0.8-0.5,1.1c-0.3,0.3-0.7,0.5-1.1,0.5h0c-0.4,0-0.8-0.2-1.1-0.5
	c-0.3-0.3-0.5-0.7-0.5-1.1v-7.4c0-1.8,0.6-3.3,1.9-4.6c1.3-1.3,2.8-1.9,4.6-1.9c2.1,0,3.7,0.7,4.8,2.1c1.1-1.4,2.7-2.1,4.8-2.1
	c1.8,0,3.3,0.6,4.6,1.9c1.3,1.3,1.9,2.8,1.9,4.6v7.4c0,0.4-0.2,0.8-0.5,1.1c-0.3,0.3-0.7,0.5-1.2,0.5h0c-0.5,0-0.8-0.2-1.1-0.5
	c-0.3-0.3-0.5-0.7-0.5-1.1v-7.4c0-0.9-0.3-1.6-0.9-2.2c-0.6-0.6-1.4-0.9-2.3-0.9c-0.9,0-1.6,0.3-2.2,0.9c-0.6,0.6-0.9,1.4-0.9,2.2
	v7.4c0,0.5-0.2,0.8-0.5,1.1c-0.3,0.3-0.7,0.5-1.1,0.5h0c-0.4,0-0.8-0.2-1.2-0.5c-0.3-0.3-0.5-0.7-0.5-1.1v-7.4
	c0-0.9-0.3-1.6-0.9-2.2s-1.4-0.9-2.2-0.9s-1.6,0.3-2.2,0.9c-0.6,0.6-0.9,1.4-0.9,2.2L131.3,135.2L131.3,135.2z"/>
<path class="st2" d="M157.2,130c0,0.9,0.3,1.6,0.9,2.3c0.6,0.6,1.4,0.9,2.3,0.9c0.9,0,1.6-0.3,2.3-0.9c0.6-0.6,0.9-1.4,0.9-2.3v-7
	c0-0.4,0.2-0.8,0.5-1.2c0.3-0.3,0.7-0.5,1.2-0.5h0c0.5,0,0.8,0.2,1.1,0.5c0.3,0.3,0.5,0.7,0.5,1.2v12.8c0,1.8-0.7,3.3-2,4.6
	c-1.3,1.3-2.8,1.9-4.5,1.9c-1.3,0-2.6-0.3-3.7-1c-1.1-0.6-1.9-1.5-2.4-2.6c-0.1-0.2-0.2-0.5-0.2-0.7c0-0.2,0-0.4,0.1-0.6
	c0.2-0.5,0.5-0.8,0.9-0.9l0.1,0c0.2-0.1,0.4-0.1,0.6-0.1c0.2,0,0.4,0,0.6,0.1c0.4,0.2,0.6,0.4,0.8,0.8c0.3,0.5,0.7,1,1.3,1.3
	c0.6,0.3,1.2,0.5,1.9,0.5c0.9,0,1.6-0.3,2.2-0.9c0.6-0.6,1-1.4,1-2.3v-0.1c-0.7,0.5-1.8,0.8-3.2,0.8c-1.8,0-3.3-0.6-4.6-1.9
	c-1.3-1.3-1.9-2.8-1.9-4.6v-7c0-0.4,0.2-0.8,0.5-1.2c0.3-0.3,0.7-0.5,1.1-0.5h0c0.4,0,0.8,0.2,1.1,0.5s0.5,0.7,0.5,1.2V130z"/>
<path class="st5" d="M109.2,125.7c-8.8,0-15.9-7.1-15.9-15.9s7.1-15.9,15.9-15.9s15.9,7.1,15.9,15.9S118,125.7,109.2,125.7z
	 M109.2,101c-4.9,0-8.8,3.9-8.8,8.8s3.9,8.8,8.8,8.8s8.8-3.9,8.8-8.8S114,101,109.2,101z"/>
<path class="st5" d="M191.7,125.7c-8.8,0-15.9-7.1-15.9-15.9s7.1-15.9,15.9-15.9s15.9,7.1,15.9,15.9S200.4,125.7,191.7,125.7z
	 M191.7,101c-4.9,0-8.8,3.9-8.8,8.8s3.9,8.8,8.8,8.8c4.9,0,8.8-3.9,8.8-8.8S196.5,101,191.7,101z"/>
<path class="st4" d="M124.5,66.3V43.4c0-1.6-1.3-2.9-2.9-2.9h-17.7c-1.4,0-2.7,0.8-3.3,2.1L89.4,66.2c-0.8,1.7,0.4,3.7,2.3,3.7h29.2
	C122.9,69.9,124.5,68.3,124.5,66.3z"/>
<path class="st2" d="M132.1,12.6c-0.6-0.6-1.6-0.6-2.2,0l-6.5,6.5c-0.6,0.6-0.6,1.6,0,2.2c0.3,0.3,0.7,0.4,1.1,0.4s0.8-0.1,1.1-0.4
	l6.5-6.5C132.7,14.1,132.7,13.2,132.1,12.6z"/>
<path class="st2" d="M98.4,12.6c-0.6-0.6-1.6-0.6-2.2,0c-0.6,0.6-0.6,1.6,0,2.2l6.5,6.5c0.3,0.3,0.7,0.4,1.1,0.4s0.8-0.1,1.1-0.4
	c0.6-0.6,0.6-1.6,0-2.2L98.4,12.6z"/>
<path class="st2" d="M114.1,3.5c-0.8,0-1.5,0.7-1.5,1.5v9.2c0,0.8,0.7,1.5,1.5,1.5s1.5-0.7,1.5-1.5V5C115.7,4.2,115,3.5,114.1,3.5z"
	/>
<path class="st2" d="M77.6,120.7c0.2,0.3,0.2,0.7,0.2,1c0,0.3-0.1,0.6-0.2,0.8c-0.2,0.6-0.7,1.1-1.3,1.4c-1.9,0.8-4.3,1.9-7.3,3.3
	c-3.8,1.7-6,2.7-6.6,3c1,1.3,2.6,1.9,4.7,1.9c1.4,0,2.7-0.4,3.9-1.3c1.1-0.8,1.9-1.9,2.4-3.2c0.4-1.1,1.2-1.6,2.3-1.6
	c0.8,0,1.5,0.3,2,1c0.3,0.4,0.5,0.9,0.5,1.3c0,0.3-0.1,0.6-0.2,0.9c-0.8,2.3-2.2,4.1-4.1,5.5c-2,1.4-4.2,2.2-6.7,2.2
	c-3.2,0-5.9-1.1-8.1-3.4s-3.4-4.9-3.4-8.1c0-3.2,1.1-5.9,3.4-8.1c2.2-2.2,4.9-3.4,8.1-3.4c2.3,0,4.4,0.6,6.2,1.9
	C75.3,117.1,76.7,118.7,77.6,120.7z M67.2,119c-1.8,0-3.4,0.6-4.7,1.9c-1.3,1.3-1.9,2.8-1.9,4.7v0.1l11.1-5
	C70.7,119.5,69.2,119,67.2,119z"/>
<path class="st2" d="M231.1,119.7c0.2,0.3,0.2,0.7,0.2,1c0,0.3-0.1,0.6-0.2,0.8c-0.2,0.6-0.6,1.1-1.3,1.4c-1.9,0.8-4.3,1.9-7.3,3.3
	c-3.8,1.7-6,2.7-6.6,3c1,1.3,2.6,1.9,4.7,1.9c1.4,0,2.7-0.4,3.9-1.3c1.1-0.8,1.9-1.9,2.4-3.2c0.4-1.1,1.2-1.6,2.3-1.6
	c0.8,0,1.5,0.3,2,1c0.3,0.4,0.5,0.9,0.5,1.3c0,0.3-0.1,0.6-0.2,0.9c-0.8,2.3-2.2,4.1-4.1,5.5c-2,1.4-4.2,2.2-6.7,2.2
	c-3.2,0-5.9-1.1-8.1-3.4s-3.4-4.9-3.4-8.1c0-3.2,1.1-5.9,3.4-8.1s4.9-3.4,8.1-3.4c2.3,0,4.4,0.6,6.2,1.9
	C228.8,116.1,230.2,117.7,231.1,119.7z M220.7,117.9c-1.8,0-3.4,0.6-4.7,1.9c-1.3,1.3-1.9,2.8-1.9,4.7v0.1l11.1-5
	C224.3,118.5,222.7,117.9,220.7,117.9z"/>
</svg>
