<?xml version="1.0" encoding="utf-8"?>
<!-- Generator: Adobe Illustrator 25.3.0, SVG Export Plug-In . SVG Version: 6.00 Build 0)  -->
<svg version="1.1" id="Capa_1" xmlns="http://www.w3.org/2000/svg" xmlns:xlink="http://www.w3.org/1999/xlink" x="0px" y="0px"
	 viewBox="0 0 445.399 89.873" style="enable-background:new 0 0 445.399 89.873;" xml:space="preserve">
<style type="text/css">
	.st0{fill:#FFFFFF;}
</style>
<path class="st0" d="M92.712,33.929c0.542,0,1.011,0.19,1.406,0.571c0.396,0.396,0.593,0.871,0.593,1.428v29.004
	c0,0.558-0.197,1.026-0.593,1.406c-0.396,0.396-0.864,0.594-1.406,0.594h-0.065c-0.543,0-1.012-0.197-1.406-0.594
	c-0.396-0.38-0.594-0.849-0.594-1.406V35.928c0-0.557,0.197-1.032,0.594-1.428c0.395-0.381,0.863-0.571,1.406-0.571H92.712z"/>
<path class="st0" d="M108.55,64.932c0,0.558-0.197,1.026-0.593,1.406c-0.396,0.396-0.864,0.594-1.406,0.594h-0.065
	c-0.543,0-1.012-0.197-1.406-0.594c-0.396-0.38-0.594-0.849-0.594-1.406V52.913c0-2.754,0.974-5.104,2.922-7.054
	c1.948-1.947,4.3-2.922,7.054-2.922c2.739,0,5.083,0.975,7.031,2.922c1.948,1.949,2.923,4.3,2.923,7.054v12.019
	c0,0.558-0.198,1.026-0.594,1.406c-0.381,0.396-0.85,0.594-1.406,0.594h-0.044c-0.557,0-1.032-0.197-1.429-0.594
	c-0.395-0.38-0.593-0.849-0.593-1.406V52.913c0-1.626-0.571-3.018-1.714-4.175c-1.157-1.157-2.549-1.736-4.175-1.736
	c-1.641,0-3.04,0.579-4.196,1.736c-1.143,1.157-1.715,2.549-1.715,4.175V64.932z"/>
<path class="st0" d="M144.647,71.898c2.007,0,3.815-0.776,5.428-2.329c1.67-1.597,2.504-3.464,2.504-5.604v-0.043
	c-2.271,2.007-4.914,3.01-7.932,3.01c-3.311,0-6.138-1.172-8.481-3.516c-2.344-2.344-3.516-5.171-3.516-8.481
	s1.172-6.138,3.516-8.481s5.171-3.516,8.481-3.516c3.296,0,6.115,1.164,8.459,3.494c2.344,2.328,3.523,5.148,3.538,8.459v9.074
	c0,3.237-1.26,6.064-3.779,8.482c-2.432,2.343-5.171,3.516-8.218,3.516c-4.702,0-8.218-1.817-10.547-5.449
	c-0.352-0.543-0.425-1.121-0.22-1.736s0.615-1.033,1.23-1.252l0.065-0.022c0.981-0.337,1.766-0.073,2.352,0.791
	C139.11,70.696,141.483,71.898,144.647,71.898z M152.578,54.803c-0.029-2.168-0.82-4.006-2.373-5.516
	c-1.537-1.522-3.391-2.285-5.559-2.285c-2.197,0-4.072,0.777-5.625,2.33c-1.538,1.553-2.307,3.42-2.307,5.603
	c0,2.197,0.769,4.072,2.307,5.625c1.553,1.538,3.428,2.308,5.625,2.308s4.064-0.77,5.604-2.308c1.552-1.553,2.328-3.428,2.328-5.625
	V54.803z"/>
<path class="st0" d="M175.821,42.938c0.557,0,1.033,0.197,1.428,0.594c0.381,0.395,0.572,0.871,0.572,1.428v0.044
	c0,0.557-0.191,1.025-0.572,1.406c-0.395,0.396-0.871,0.593-1.428,0.593h-1.252c-1.378,0-2.549,0.484-3.516,1.451
	c-0.953,0.967-1.437,2.139-1.451,3.516v12.963c0,0.558-0.197,1.026-0.593,1.406c-0.396,0.396-0.864,0.594-1.406,0.594h-0.065
	c-0.543,0-1.012-0.197-1.406-0.594c-0.396-0.38-0.594-0.849-0.594-1.406V51.969c0.029-2.506,0.908-4.637,2.637-6.395
	c1.758-1.758,3.889-2.637,6.395-2.637H175.821z"/>
<path class="st0" d="M206.974,49.947c0.234,0.498,0.256,1.01,0.066,1.537c-0.191,0.514-0.543,0.887-1.055,1.121
	c-2.052,0.923-4.746,2.139-8.086,3.647c-4.146,1.875-6.834,3.091-8.064,3.647c1.582,2.021,3.662,3.032,6.24,3.032
	c1.714,0,3.267-0.505,4.658-1.517c1.348-0.98,2.292-2.255,2.834-3.822c0.322-0.908,0.967-1.363,1.934-1.363
	c0.688,0,1.238,0.286,1.648,0.857c0.396,0.557,0.476,1.164,0.242,1.824c-0.821,2.373-2.257,4.292-4.307,5.756
	c-2.096,1.51-4.432,2.264-7.01,2.264c-3.311,0-6.138-1.172-8.481-3.516c-2.344-2.344-3.516-5.171-3.516-8.481
	s1.172-6.138,3.516-8.481s5.171-3.516,8.481-3.516c2.388,0,4.57,0.652,6.548,1.955C204.571,46.168,206.022,47.853,206.974,49.947z
	 M196.075,47.047c-2.197,0-4.072,0.776-5.625,2.328c-1.538,1.554-2.307,3.428-2.307,5.625c0,0.396,0.028,0.784,0.088,1.165
	l13.908-6.284C200.558,47.991,198.536,47.047,196.075,47.047z"/>
<path class="st0" d="M222.131,47.002c-0.82,0-1.516,0.286-2.088,0.857c-0.57,0.586-0.856,1.282-0.856,2.088
	c0,1.143,0.542,1.999,1.626,2.57c0.337,0.176,1.604,0.557,3.801,1.143c1.641,0.469,2.842,1.069,3.604,1.802
	c1.084,1.025,1.627,2.513,1.627,4.46c0,1.934-0.682,3.59-2.044,4.967c-1.377,1.361-3.032,2.043-4.966,2.043H217.1
	c-0.543,0-1.012-0.197-1.406-0.594c-0.396-0.38-0.594-0.849-0.594-1.406v-0.043c0-0.557,0.197-1.033,0.594-1.429
	c0.395-0.396,0.863-0.593,1.406-0.593h5.954c0.82,0,1.517-0.286,2.087-0.857c0.572-0.571,0.857-1.267,0.857-2.088
	c0-1.083-0.542-1.889-1.626-2.416c-0.249-0.117-1.517-0.498-3.802-1.143c-1.625-0.484-2.827-1.1-3.604-1.846
	c-1.084-1.069-1.625-2.594-1.625-4.57c0-1.934,0.681-3.582,2.043-4.944c1.377-1.377,3.032-2.065,4.966-2.065h4.043
	c0.557,0,1.032,0.197,1.429,0.594c0.395,0.395,0.593,0.871,0.593,1.428v0.044c0,0.557-0.198,1.025-0.593,1.406
	c-0.396,0.396-0.872,0.593-1.429,0.593H222.131z"/>
<path class="st0" d="M249.196,42.938c3.311,0,6.138,1.172,8.481,3.516c2.344,2.344,3.516,5.171,3.516,8.481
	s-1.172,6.138-3.516,8.481c-2.344,2.344-5.171,3.516-8.481,3.516s-6.138-1.172-8.481-3.516c-2.344-2.344-3.516-5.171-3.516-8.481
	s1.172-6.138,3.516-8.481S245.886,42.938,249.196,42.938z M249.196,47.047c-2.197,0-4.072,0.776-5.625,2.328
	c-1.538,1.554-2.307,3.428-2.307,5.625c0,2.184,0.769,4.051,2.307,5.604c1.553,1.553,3.428,2.329,5.625,2.329
	s4.064-0.776,5.604-2.329c1.552-1.553,2.328-3.42,2.328-5.604c0-2.197-0.776-4.071-2.328-5.625
	C253.261,47.823,251.394,47.047,249.196,47.047z"/>
<path class="st0" d="M306.096,34.434c1.012,0.264,1.518,0.908,1.518,1.934v0.066c0,0.645-0.264,1.172-0.791,1.582
	c-0.514,0.396-1.084,0.513-1.715,0.352c-1.025-0.264-2.064-0.396-3.119-0.396c-3.428,0-6.357,1.216-8.789,3.647
	s-3.648,5.369-3.648,8.811c0,3.443,1.216,6.38,3.648,8.812c2.432,2.417,5.361,3.626,8.789,3.626c1.055,0,2.094-0.125,3.119-0.374
	c0.631-0.161,1.201-0.044,1.715,0.352c0.527,0.396,0.791,0.923,0.791,1.582v0.044c0,1.04-0.506,1.691-1.518,1.955
	c-1.348,0.338-2.717,0.506-4.107,0.506c-4.557,0-8.445-1.611-11.668-4.834c-3.223-3.223-4.833-7.111-4.833-11.668
	c0-4.555,1.61-8.444,4.833-11.667c3.223-3.223,7.111-4.834,11.668-4.834C303.38,33.929,304.749,34.097,306.096,34.434z"/>
<path class="st0" d="M318.573,33.929c0.543,0,1.012,0.19,1.406,0.571c0.396,0.396,0.594,0.871,0.594,1.428v29.004
	c0,0.558-0.197,1.026-0.594,1.406c-0.395,0.396-0.863,0.594-1.406,0.594h-0.064c-0.543,0-1.012-0.197-1.406-0.594
	c-0.396-0.38-0.594-0.849-0.594-1.406V35.928c0-0.557,0.197-1.032,0.594-1.428c0.395-0.381,0.863-0.571,1.406-0.571H318.573z"/>
<path class="st0" d="M333.204,38.763c-0.674,0-1.246-0.234-1.715-0.703s-0.703-1.04-0.703-1.714c0-0.659,0.234-1.224,0.703-1.692
	s1.041-0.703,1.715-0.703c0.658,0,1.223,0.234,1.691,0.703c0.482,0.469,0.725,1.033,0.725,1.692c0,0.674-0.242,1.245-0.725,1.714
	C334.426,38.528,333.862,38.763,333.204,38.763z M333.225,42.938c0.557,0,1.025,0.197,1.406,0.594
	c0.395,0.395,0.594,0.871,0.594,1.428v19.973c0,0.558-0.199,1.026-0.594,1.406c-0.381,0.396-0.85,0.594-1.406,0.594h-0.045
	c-0.557,0-1.031-0.197-1.428-0.594c-0.395-0.38-0.594-0.849-0.594-1.406V44.959c0-0.557,0.199-1.033,0.594-1.428
	c0.396-0.396,0.871-0.594,1.428-0.594H333.225z"/>
<path class="st0" d="M367.19,49.947c0.234,0.498,0.256,1.01,0.066,1.537c-0.191,0.514-0.543,0.887-1.055,1.121
	c-2.051,0.923-4.746,2.139-8.086,3.647c-4.146,1.875-6.834,3.091-8.064,3.647c1.582,2.021,3.662,3.032,6.24,3.032
	c1.715,0,3.268-0.505,4.658-1.517c1.348-0.98,2.293-2.255,2.834-3.822c0.322-0.908,0.967-1.363,1.934-1.363
	c0.689,0,1.238,0.286,1.648,0.857c0.396,0.557,0.477,1.164,0.242,1.824c-0.82,2.373-2.256,4.292-4.307,5.756
	c-2.096,1.51-4.432,2.264-7.01,2.264c-3.311,0-6.137-1.172-8.48-3.516c-2.344-2.344-3.516-5.171-3.516-8.481
	s1.172-6.138,3.516-8.481s5.17-3.516,8.48-3.516c2.389,0,4.57,0.652,6.549,1.955C364.788,46.168,366.239,47.853,367.19,49.947z
	 M356.292,47.047c-2.197,0-4.072,0.776-5.625,2.328c-1.537,1.554-2.307,3.428-2.307,5.625c0,0.396,0.029,0.784,0.088,1.165
	l13.908-6.284C360.774,47.991,358.753,47.047,356.292,47.047z"/>
<path class="st0" d="M380.258,64.932c0,0.558-0.197,1.026-0.592,1.406c-0.396,0.396-0.865,0.594-1.406,0.594h-0.066
	c-0.543,0-1.012-0.197-1.406-0.594c-0.396-0.38-0.594-0.849-0.594-1.406V52.913c0-2.754,0.975-5.104,2.922-7.054
	c1.949-1.947,4.301-2.922,7.055-2.922c2.738,0,5.082,0.975,7.031,2.922c1.947,1.949,2.922,4.3,2.922,7.054v12.019
	c0,0.558-0.197,1.026-0.594,1.406c-0.381,0.396-0.85,0.594-1.406,0.594h-0.043c-0.557,0-1.033-0.197-1.43-0.594
	c-0.395-0.38-0.592-0.849-0.592-1.406V52.913c0-1.626-0.572-3.018-1.715-4.175c-1.156-1.157-2.549-1.736-4.174-1.736
	c-1.641,0-3.041,0.579-4.197,1.736c-1.143,1.157-1.715,2.549-1.715,4.175V64.932z"/>
<path class="st0" d="M407.085,33.929c0.541,0,1.01,0.19,1.406,0.571c0.395,0.396,0.592,0.871,0.592,1.428v7.01h3.955
	c0.543,0,1.012,0.197,1.406,0.594c0.396,0.395,0.594,0.871,0.594,1.428v0.044c0,0.557-0.197,1.025-0.594,1.406
	c-0.395,0.396-0.863,0.593-1.406,0.593h-3.955v13.689c0,0.601,0.213,1.113,0.639,1.538c0.424,0.425,0.943,0.638,1.559,0.638h1.758
	c0.543,0,1.012,0.197,1.406,0.593c0.396,0.396,0.594,0.872,0.594,1.429v0.043c0,0.558-0.197,1.026-0.594,1.406
	c-0.395,0.396-0.863,0.594-1.406,0.594h-1.758c-1.729,0-3.207-0.607-4.438-1.824c-1.217-1.23-1.824-2.702-1.824-4.416V35.928
	c0-0.557,0.197-1.032,0.594-1.428c0.395-0.381,0.863-0.571,1.406-0.571H407.085z"/>
<path class="st0" d="M444.85,49.947c0.234,0.498,0.256,1.01,0.066,1.537c-0.191,0.514-0.543,0.887-1.055,1.121
	c-2.051,0.923-4.746,2.139-8.086,3.647c-4.146,1.875-6.834,3.091-8.064,3.647c1.582,2.021,3.662,3.032,6.24,3.032
	c1.715,0,3.268-0.505,4.658-1.517c1.348-0.98,2.293-2.255,2.834-3.822c0.322-0.908,0.967-1.363,1.934-1.363
	c0.689,0,1.238,0.286,1.648,0.857c0.396,0.557,0.477,1.164,0.242,1.824c-0.82,2.373-2.256,4.292-4.307,5.756
	c-2.096,1.51-4.432,2.264-7.01,2.264c-3.311,0-6.137-1.172-8.48-3.516c-2.344-2.344-3.516-5.171-3.516-8.481
	s1.172-6.138,3.516-8.481s5.17-3.516,8.48-3.516c2.389,0,4.57,0.652,6.549,1.955C442.448,46.168,443.899,47.853,444.85,49.947z
	 M433.952,47.047c-2.197,0-4.072,0.776-5.625,2.328c-1.537,1.554-2.307,3.428-2.307,5.625c0,0.396,0.029,0.784,0.088,1.165
	l13.908-6.284C438.434,47.991,436.413,47.047,433.952,47.047z"/>
<path class="st0" d="M26.256,47.173c-0.518,0.518-0.518,1.358,0,1.877c0.259,0.259,0.599,0.389,0.938,0.389
	c0.34,0,0.679-0.13,0.938-0.389l10.866-10.866c0.031-0.031,0.06-0.063,0.088-0.097c0.007-0.009,0.014-0.019,0.021-0.028
	c0.019-0.025,0.039-0.05,0.057-0.076c0.006-0.009,0.011-0.019,0.017-0.028c0.017-0.027,0.034-0.055,0.05-0.083
	c0.004-0.007,0.007-0.015,0.011-0.023c0.016-0.031,0.031-0.062,0.045-0.095c0.002-0.005,0.004-0.011,0.006-0.017
	c0.014-0.035,0.027-0.07,0.038-0.106c0.002-0.006,0.003-0.012,0.004-0.018c0.01-0.036,0.02-0.071,0.027-0.108
	c0.002-0.011,0.003-0.023,0.005-0.034c0.005-0.031,0.011-0.063,0.014-0.095c0.004-0.044,0.007-0.088,0.007-0.133
	c0-0.044-0.002-0.089-0.007-0.133c-0.003-0.032-0.009-0.063-0.014-0.095c-0.002-0.011-0.003-0.023-0.005-0.034
	c-0.007-0.037-0.017-0.073-0.027-0.108c-0.002-0.006-0.003-0.012-0.004-0.018c-0.011-0.036-0.024-0.071-0.038-0.106
	c-0.002-0.005-0.004-0.011-0.006-0.017c-0.014-0.032-0.029-0.064-0.045-0.095c-0.004-0.007-0.007-0.015-0.011-0.023
	c-0.015-0.029-0.032-0.056-0.05-0.083c-0.006-0.009-0.011-0.019-0.017-0.028c-0.018-0.026-0.037-0.051-0.057-0.076
	c-0.007-0.009-0.013-0.019-0.021-0.028c-0.028-0.034-0.057-0.066-0.088-0.097L28.132,25.441c-0.518-0.518-1.359-0.518-1.877,0
	c-0.518,0.518-0.518,1.358,0,1.877l8.601,8.601H1.327C0.594,35.918,0,36.513,0,37.245s0.594,1.327,1.327,1.327h33.529L26.256,47.173
	z"/>
<path class="st0" d="M69.735,1.164c-0.002-0.014-0.004-0.028-0.006-0.042c-0.007-0.042-0.015-0.084-0.026-0.125
	c-0.003-0.012-0.006-0.024-0.009-0.036c-0.03-0.104-0.072-0.203-0.125-0.295c-0.007-0.012-0.014-0.023-0.021-0.034
	c-0.022-0.036-0.046-0.07-0.071-0.104c-0.008-0.01-0.015-0.02-0.023-0.03c-0.033-0.041-0.067-0.08-0.105-0.116
	c-0.007-0.007-0.015-0.013-0.022-0.02c-0.032-0.03-0.065-0.059-0.1-0.085c-0.011-0.009-0.023-0.017-0.034-0.026
	c-0.042-0.03-0.086-0.059-0.131-0.084c-0.001-0.001-0.002-0.001-0.003-0.002c0,0,0,0-0.001,0c-0.048-0.027-0.099-0.05-0.151-0.07
	c-0.011-0.004-0.021-0.008-0.032-0.012c-0.041-0.015-0.083-0.028-0.127-0.039c-0.012-0.003-0.024-0.007-0.036-0.009
	c-0.052-0.012-0.105-0.021-0.159-0.027c-0.002,0-0.004,0-0.006,0C68.505,0.002,68.463,0,68.419,0H20.396
	c-0.733,0-1.327,0.594-1.327,1.327v21.157c0,0.733,0.594,1.327,1.327,1.327s1.327-0.594,1.327-1.327V2.654h42.12l-20.259,12.83
	c-0.384,0.243-0.617,0.666-0.617,1.121v55.336H21.723v-19.83c0-0.733-0.594-1.327-1.327-1.327s-1.327,0.594-1.327,1.327v21.157
	c0,0.733,0.594,1.327,1.327,1.327h22.571v13.951c0,0.484,0.263,0.929,0.687,1.163c0.2,0.11,0.42,0.164,0.64,0.164
	c0.247,0,0.494-0.069,0.71-0.206l24.125-15.278c0.004-0.002,0.007-0.005,0.011-0.008c0.043-0.028,0.085-0.058,0.125-0.091
	c0.002-0.002,0.004-0.004,0.006-0.005c0.036-0.031,0.071-0.063,0.104-0.098c0.011-0.011,0.021-0.023,0.031-0.034
	c0.024-0.027,0.047-0.055,0.07-0.084c0.009-0.012,0.018-0.024,0.027-0.036c0.027-0.038,0.052-0.077,0.075-0.118
	c0.002-0.003,0.003-0.005,0.005-0.008c0.025-0.045,0.047-0.092,0.066-0.14c0.004-0.009,0.007-0.019,0.01-0.028
	c0.015-0.038,0.027-0.077,0.038-0.117c0.004-0.014,0.007-0.027,0.011-0.041c0.009-0.037,0.016-0.075,0.022-0.114
	c0.002-0.014,0.005-0.027,0.006-0.041c0.006-0.051,0.01-0.103,0.01-0.156V1.327C69.746,1.272,69.742,1.218,69.735,1.164z
	 M56.691,34.11c1.343-0.579,2.425,0.31,2.416,1.985c-0.009,1.675-1.105,3.501-2.448,4.079c-1.343,0.579-2.424-0.309-2.415-1.984
	C54.253,36.516,55.348,34.689,56.691,34.11z M50.342,45.96c-1.343,0.579-2.424-0.311-2.415-1.986
	c0.009-1.675,1.104-3.502,2.447-4.08c1.343-0.579,2.425,0.31,2.416,1.985C52.782,43.553,51.685,45.381,50.342,45.96z M56.585,54.225
	c-2.619,1.129-4.728-0.605-4.71-3.87c0.017-3.266,2.154-6.828,4.773-7.956c2.619-1.129,4.728,0.604,4.71,3.87
	C61.34,49.534,59.204,53.097,56.585,54.225z M62.943,40.53c-1.343,0.579-2.424-0.311-2.415-1.986
	c0.009-1.675,1.104-3.502,2.447-4.08c1.343-0.579,2.425,0.31,2.416,1.985C65.382,38.124,64.286,39.951,62.943,40.53z"/>
</svg>
