<?xml version="1.0" encoding="utf-8"?>
<!-- Generator: Adobe Illustrator 25.3.0, SVG Export Plug-In . SVG Version: 6.00 Build 0)  -->
<svg version="1.1" id="Capa_1" xmlns="http://www.w3.org/2000/svg" xmlns:xlink="http://www.w3.org/1999/xlink" x="0px" y="0px"
	 viewBox="0 0 69.746 89.873" style="enable-background:new 0 0 69.746 89.873;" xml:space="preserve">
<style type="text/css">
	.st0{fill:#FFFFFF;}
</style>
<path class="st0" d="M26.256,47.173c-0.518,0.518-0.518,1.358,0,1.877c0.259,0.259,0.599,0.389,0.938,0.389
	c0.34,0,0.679-0.13,0.938-0.389l10.866-10.866c0.031-0.031,0.06-0.063,0.088-0.097c0.007-0.009,0.014-0.019,0.021-0.028
	c0.019-0.025,0.039-0.05,0.057-0.076c0.006-0.009,0.011-0.019,0.017-0.028c0.017-0.027,0.034-0.055,0.05-0.083
	c0.004-0.007,0.007-0.015,0.011-0.023c0.016-0.031,0.031-0.062,0.045-0.095c0.002-0.005,0.004-0.011,0.006-0.017
	c0.014-0.035,0.027-0.07,0.038-0.106c0.002-0.006,0.003-0.012,0.004-0.018c0.01-0.036,0.02-0.071,0.027-0.108
	c0.002-0.011,0.003-0.023,0.005-0.034c0.005-0.031,0.011-0.063,0.014-0.095c0.004-0.044,0.007-0.088,0.007-0.133
	c0-0.044-0.002-0.089-0.007-0.133c-0.003-0.032-0.009-0.063-0.014-0.095c-0.002-0.011-0.003-0.023-0.005-0.034
	c-0.007-0.037-0.017-0.073-0.027-0.108c-0.002-0.006-0.003-0.012-0.004-0.018c-0.011-0.036-0.024-0.071-0.038-0.106
	c-0.002-0.005-0.004-0.011-0.006-0.017c-0.014-0.032-0.029-0.064-0.045-0.095c-0.004-0.007-0.007-0.015-0.011-0.023
	c-0.015-0.029-0.032-0.056-0.05-0.083c-0.006-0.009-0.011-0.019-0.017-0.028c-0.018-0.026-0.037-0.051-0.057-0.076
	c-0.007-0.009-0.013-0.019-0.021-0.028c-0.028-0.034-0.057-0.066-0.088-0.097L28.132,25.441c-0.518-0.518-1.359-0.518-1.877,0
	c-0.518,0.518-0.518,1.358,0,1.877l8.601,8.601H1.327C0.594,35.918,0,36.513,0,37.245s0.594,1.327,1.327,1.327h33.529L26.256,47.173
	z"/>
<path class="st0" d="M69.735,1.164c-0.002-0.014-0.004-0.028-0.006-0.042c-0.007-0.042-0.015-0.084-0.026-0.125
	c-0.003-0.012-0.006-0.024-0.009-0.036c-0.03-0.104-0.072-0.203-0.125-0.295c-0.007-0.012-0.014-0.023-0.021-0.034
	c-0.022-0.036-0.046-0.07-0.071-0.104c-0.008-0.01-0.015-0.02-0.023-0.03c-0.033-0.041-0.067-0.08-0.105-0.116
	c-0.007-0.007-0.015-0.013-0.022-0.02c-0.032-0.03-0.065-0.059-0.1-0.085c-0.011-0.009-0.023-0.017-0.034-0.026
	c-0.042-0.03-0.086-0.059-0.131-0.084c-0.001-0.001-0.002-0.001-0.003-0.002c0,0,0,0-0.001,0c-0.048-0.027-0.099-0.05-0.151-0.07
	c-0.011-0.004-0.021-0.008-0.032-0.012c-0.041-0.015-0.083-0.028-0.127-0.039c-0.012-0.003-0.024-0.007-0.036-0.009
	c-0.052-0.012-0.105-0.021-0.159-0.027c-0.002,0-0.004,0-0.006,0C68.505,0.002,68.463,0,68.419,0H20.396
	c-0.733,0-1.327,0.594-1.327,1.327v21.157c0,0.733,0.594,1.327,1.327,1.327s1.327-0.594,1.327-1.327V2.654h42.12l-20.259,12.83
	c-0.384,0.243-0.617,0.666-0.617,1.121v55.336H21.723v-19.83c0-0.733-0.594-1.327-1.327-1.327s-1.327,0.594-1.327,1.327v21.157
	c0,0.733,0.594,1.327,1.327,1.327h22.571v13.951c0,0.484,0.263,0.929,0.687,1.163c0.2,0.11,0.42,0.164,0.64,0.164
	c0.247,0,0.494-0.069,0.71-0.206l24.125-15.278c0.004-0.002,0.007-0.005,0.011-0.008c0.043-0.028,0.085-0.058,0.125-0.091
	c0.002-0.002,0.004-0.004,0.006-0.005c0.036-0.031,0.071-0.063,0.104-0.098c0.011-0.011,0.021-0.023,0.031-0.034
	c0.024-0.027,0.047-0.055,0.07-0.084c0.009-0.012,0.018-0.024,0.027-0.036c0.027-0.038,0.052-0.077,0.075-0.118
	c0.002-0.003,0.003-0.005,0.005-0.008c0.025-0.045,0.047-0.092,0.066-0.14c0.004-0.009,0.007-0.019,0.01-0.028
	c0.015-0.038,0.027-0.077,0.038-0.117c0.004-0.014,0.007-0.027,0.011-0.041c0.009-0.037,0.016-0.075,0.022-0.114
	c0.002-0.014,0.005-0.027,0.006-0.041c0.006-0.051,0.01-0.103,0.01-0.156V1.327C69.746,1.272,69.742,1.218,69.735,1.164z
	 M56.691,34.11c1.343-0.579,2.425,0.31,2.416,1.985c-0.009,1.675-1.105,3.501-2.448,4.079c-1.343,0.579-2.424-0.309-2.415-1.984
	C54.253,36.516,55.348,34.689,56.691,34.11z M50.342,45.96c-1.343,0.579-2.424-0.311-2.415-1.986
	c0.009-1.675,1.104-3.502,2.447-4.08c1.343-0.579,2.425,0.31,2.416,1.985C52.782,43.553,51.685,45.381,50.342,45.96z M56.585,54.225
	c-2.619,1.129-4.728-0.605-4.71-3.87c0.017-3.266,2.154-6.828,4.773-7.956c2.619-1.129,4.728,0.604,4.71,3.87
	C61.34,49.534,59.204,53.097,56.585,54.225z M62.943,40.53c-1.343,0.579-2.424-0.311-2.415-1.986
	c0.009-1.675,1.104-3.502,2.447-4.08c1.343-0.579,2.425,0.31,2.416,1.985C65.382,38.124,64.286,39.951,62.943,40.53z"/>
</svg>
