<?xml version="1.0" encoding="utf-8"?>
<!-- Generator: Adobe Illustrator 25.3.0, SVG Export Plug-In . SVG Version: 6.00 Build 0)  -->
<svg version="1.1" id="Capa_1" xmlns="http://www.w3.org/2000/svg" xmlns:xlink="http://www.w3.org/1999/xlink" x="0px" y="0px"
	 viewBox="0 0 68.08 68.08" style="enable-background:new 0 0 68.08 68.08;" xml:space="preserve">
<style type="text/css">
	.st0{fill:#F4B924;}
</style>
<path class="st0" d="M34.04,0C15.24,0,0,15.24,0,34.04c0,18.8,15.24,34.04,34.04,34.04s34.04-15.24,34.04-34.04
	C68.08,15.24,52.84,0,34.04,0z M42.05,56.142c-0.512,0.512-1.193,0.794-1.917,0.794s-1.405-0.282-1.917-0.794L18.031,35.956
	c-0.512-0.512-0.794-1.192-0.794-1.917s0.282-1.405,0.794-1.917l20.185-20.186c1.057-1.057,2.777-1.057,3.834,0
	c1.057,1.057,1.057,2.777,0,3.834L23.781,34.039L42.05,52.308C43.108,53.365,43.108,55.085,42.05,56.142z"/>
</svg>
