<?xml version="1.0" encoding="utf-8"?>
<!-- Generator: Adobe Illustrator 25.3.0, SVG Export Plug-In . SVG Version: 6.00 Build 0)  -->
<svg version="1.1" id="Capa_1" xmlns="http://www.w3.org/2000/svg" xmlns:xlink="http://www.w3.org/1999/xlink" x="0px" y="0px"
	 viewBox="0 0 244.6 96.5" style="enable-background:new 0 0 244.6 96.5;" xml:space="preserve">
<style type="text/css">
	.st0{fill:#FFFFFF;}
</style>
<path class="st0" d="M76.6,91.9L76.6,91.9L82,74.5c0.2-0.6,0.6-0.9,1.3-0.9h0.1c0.5,0,0.8,0.2,1.1,0.6c0.3,0.4,0.3,0.8,0.2,1.2
	l-6,18.8c-0.4,0.9-1.1,1.4-2.1,1.4s-1.7-0.5-2.1-1.4l-6-18.8c-0.2-0.4-0.1-0.8,0.2-1.2c0.3-0.4,0.6-0.6,1.1-0.6h0.1
	c0.6,0,1.1,0.3,1.3,0.9l5.3,17.4l0,0.1c0,0.1,0.1,0.1,0.1,0.1C76.5,92,76.6,92,76.6,91.9z"/>
<path class="st0" d="M104.3,84.2c0.2,0.3,0.2,0.7,0,1c-0.1,0.3-0.4,0.6-0.7,0.7c-1.4,0.6-3.2,1.4-5.4,2.4c-2.8,1.2-4.6,2.1-5.4,2.4
	c1.1,1.3,2.4,2,4.2,2c1.1,0,2.2-0.3,3.1-1c0.9-0.7,1.5-1.5,1.9-2.5c0.2-0.6,0.6-0.9,1.3-0.9c0.5,0,0.8,0.2,1.1,0.6
	c0.3,0.4,0.3,0.8,0.2,1.2c-0.5,1.6-1.5,2.9-2.9,3.8c-1.4,1-3,1.5-4.7,1.5c-2.2,0-4.1-0.8-5.7-2.3c-1.6-1.6-2.3-3.4-2.3-5.7
	s0.8-4.1,2.3-5.7c1.6-1.6,3.4-2.3,5.7-2.3c1.6,0,3,0.4,4.4,1.3C102.7,81.7,103.6,82.8,104.3,84.2z M97,82.3c-1.5,0-2.7,0.5-3.8,1.6
	c-1,1-1.5,2.3-1.5,3.8c0,0.3,0,0.5,0.1,0.8l9.3-4.2C100,82.9,98.6,82.3,97,82.3z"/>
<path class="st0" d="M111.6,73.6c0.4,0,0.7,0.1,0.9,0.4c0.3,0.3,0.4,0.6,0.4,1v4.7h2.6c0.4,0,0.7,0.1,0.9,0.4s0.4,0.6,0.4,1v0
	c0,0.4-0.1,0.7-0.4,0.9c-0.3,0.3-0.6,0.4-0.9,0.4H113v9.1c0,0.4,0.1,0.7,0.4,1s0.6,0.4,1,0.4h1.2c0.4,0,0.7,0.1,0.9,0.4
	s0.4,0.6,0.4,1v0c0,0.4-0.1,0.7-0.4,0.9c-0.3,0.3-0.6,0.4-0.9,0.4h-1.2c-1.2,0-2.1-0.4-3-1.2c-0.8-0.8-1.2-1.8-1.2-2.9V74.9
	c0-0.4,0.1-0.7,0.4-1C110.9,73.7,111.2,73.6,111.6,73.6L111.6,73.6z"/>
<path class="st0" d="M136.8,84.2c0.2,0.3,0.2,0.7,0,1c-0.1,0.3-0.4,0.6-0.7,0.7c-1.4,0.6-3.2,1.4-5.4,2.4c-2.8,1.2-4.6,2.1-5.4,2.4
	c1.1,1.3,2.4,2,4.2,2c1.1,0,2.2-0.3,3.1-1c0.9-0.7,1.5-1.5,1.9-2.5c0.2-0.6,0.6-0.9,1.3-0.9c0.5,0,0.8,0.2,1.1,0.6
	c0.3,0.4,0.3,0.8,0.2,1.2c-0.5,1.6-1.5,2.9-2.9,3.8c-1.4,1-3,1.5-4.7,1.5c-2.2,0-4.1-0.8-5.7-2.3s-2.3-3.4-2.3-5.7s0.8-4.1,2.3-5.7
	c1.6-1.6,3.4-2.3,5.7-2.3c1.6,0,3,0.4,4.4,1.3C135.2,81.7,136.2,82.8,136.8,84.2z M129.6,82.3c-1.5,0-2.7,0.5-3.8,1.6
	c-1,1-1.5,2.3-1.5,3.8c0,0.3,0,0.5,0.1,0.8l9.3-4.2C132.5,82.9,131.2,82.3,129.6,82.3z"/>
<path class="st0" d="M149.7,79.6c0.4,0,0.7,0.1,1,0.4c0.3,0.3,0.4,0.6,0.4,1v0c0,0.4-0.1,0.7-0.4,0.9c-0.3,0.3-0.6,0.4-1,0.4h-0.8
	c-0.9,0-1.7,0.3-2.3,1c-0.6,0.6-1,1.4-1,2.3v8.6c0,0.4-0.1,0.7-0.4,0.9c-0.3,0.3-0.6,0.4-0.9,0.4h0c-0.4,0-0.7-0.1-0.9-0.4
	c-0.3-0.3-0.4-0.6-0.4-0.9v-8.6c0-1.7,0.6-3.1,1.8-4.3c1.2-1.2,2.6-1.8,4.3-1.8L149.7,79.6L149.7,79.6z"/>
<path class="st0" d="M157.5,76.8c-0.4,0-0.8-0.2-1.1-0.5s-0.5-0.7-0.5-1.1c0-0.4,0.2-0.8,0.5-1.1c0.3-0.3,0.7-0.5,1.1-0.5
	c0.4,0,0.8,0.2,1.1,0.5c0.3,0.3,0.5,0.7,0.5,1.1c0,0.4-0.2,0.8-0.5,1.1C158.3,76.6,158,76.8,157.5,76.8z M157.5,79.6
	c0.4,0,0.7,0.1,0.9,0.4c0.3,0.3,0.4,0.6,0.4,1v13.3c0,0.4-0.1,0.7-0.4,0.9c-0.3,0.3-0.6,0.4-0.9,0.4h0c-0.4,0-0.7-0.1-1-0.4
	c-0.3-0.3-0.4-0.6-0.4-0.9V80.9c0-0.4,0.1-0.7,0.4-1S157.1,79.6,157.5,79.6L157.5,79.6L157.5,79.6z"/>
<path class="st0" d="M168.1,94.2c0,0.4-0.1,0.7-0.4,0.9c-0.3,0.3-0.6,0.4-0.9,0.4h0c-0.4,0-0.7-0.1-0.9-0.4
	c-0.3-0.3-0.4-0.6-0.4-0.9v-8c0-1.8,0.6-3.4,1.9-4.7c1.3-1.3,2.9-1.9,4.7-1.9c1.8,0,3.4,0.7,4.7,1.9c1.3,1.3,1.9,2.9,1.9,4.7v8
	c0,0.4-0.1,0.7-0.4,0.9c-0.3,0.3-0.6,0.4-0.9,0.4h0c-0.4,0-0.7-0.1-1-0.4c-0.3-0.3-0.4-0.6-0.4-0.9v-8c0-1.1-0.4-2-1.1-2.8
	c-0.8-0.8-1.7-1.2-2.8-1.2c-1.1,0-2,0.4-2.8,1.2c-0.8,0.8-1.1,1.7-1.1,2.8L168.1,94.2L168.1,94.2z"/>
<path class="st0" d="M198.2,81.9c1.6,1.6,2.3,3.4,2.3,5.7v6.7c0,0.4-0.1,0.7-0.4,0.9c-0.3,0.3-0.6,0.4-0.9,0.4h0
	c-0.4,0-0.7-0.1-0.9-0.4c-0.3-0.3-0.4-0.6-0.4-0.9v-0.7c-1.5,1.3-3.3,2-5.3,2c-2.2,0-4.1-0.8-5.7-2.3s-2.3-3.4-2.3-5.7
	s0.8-4.1,2.3-5.7c1.6-1.6,3.4-2.3,5.7-2.3S196.7,80.3,198.2,81.9z M188.8,83.8c-1,1-1.5,2.3-1.5,3.7c0,1.5,0.5,2.7,1.5,3.8
	c1,1,2.3,1.5,3.8,1.5s2.7-0.5,3.7-1.5c1-1,1.6-2.3,1.6-3.8c0-1.5-0.5-2.7-1.6-3.7c-1-1-2.3-1.6-3.7-1.6S189.9,82.8,188.8,83.8z"/>
<path class="st0" d="M213.4,79.6c0.4,0,0.7,0.1,1,0.4c0.3,0.3,0.4,0.6,0.4,1v0c0,0.4-0.1,0.7-0.4,0.9c-0.3,0.3-0.6,0.4-1,0.4h-0.8
	c-0.9,0-1.7,0.3-2.3,1c-0.6,0.6-1,1.4-1,2.3v8.6c0,0.4-0.1,0.7-0.4,0.9c-0.3,0.3-0.6,0.4-0.9,0.4h0c-0.4,0-0.7-0.1-0.9-0.4
	c-0.3-0.3-0.4-0.6-0.4-0.9v-8.6c0-1.7,0.6-3.1,1.8-4.3c1.2-1.2,2.6-1.8,4.3-1.8L213.4,79.6L213.4,79.6z"/>
<path class="st0" d="M221.2,76.8c-0.4,0-0.8-0.2-1.1-0.5s-0.5-0.7-0.5-1.1c0-0.4,0.2-0.8,0.5-1.1c0.3-0.3,0.7-0.5,1.1-0.5
	c0.4,0,0.8,0.2,1.1,0.5c0.3,0.3,0.5,0.7,0.5,1.1c0,0.4-0.2,0.8-0.5,1.1C222,76.6,221.6,76.8,221.2,76.8z M221.2,79.6
	c0.4,0,0.7,0.1,0.9,0.4c0.3,0.3,0.4,0.6,0.4,1v13.3c0,0.4-0.1,0.7-0.4,0.9c-0.3,0.3-0.6,0.4-0.9,0.4h0c-0.4,0-0.7-0.1-1-0.4
	c-0.3-0.3-0.4-0.6-0.4-0.9V80.9c0-0.4,0.1-0.7,0.4-1S220.8,79.6,221.2,79.6L221.2,79.6L221.2,79.6z"/>
<path class="st0" d="M236.6,79.6c2.2,0,4.1,0.8,5.7,2.3s2.3,3.4,2.3,5.7s-0.8,4.1-2.3,5.7s-3.4,2.3-5.7,2.3s-4.1-0.8-5.7-2.3
	s-2.3-3.4-2.3-5.7s0.8-4.1,2.3-5.7C232.5,80.3,234.4,79.6,236.6,79.6z M236.6,82.3c-1.5,0-2.7,0.5-3.8,1.6c-1,1-1.5,2.3-1.5,3.8
	c0,1.5,0.5,2.7,1.5,3.7c1,1,2.3,1.6,3.8,1.6s2.7-0.5,3.7-1.6c1-1,1.6-2.3,1.6-3.7c0-1.5-0.5-2.7-1.6-3.8
	C239.3,82.8,238.1,82.3,236.6,82.3z"/>
<path class="st0" d="M5.5,50v2.6c0,4.3,3.5,7.9,7.9,7.9h13.9c4.3,0,7.9-3.5,7.9-7.9V50c2.8-0.5,4.9-2.9,4.9-5.8s-2.1-5.3-4.9-5.8V29
	c0-4.3-3.5-7.9-7.9-7.9H13.3c-4.3,0-7.9,3.5-7.9,7.9v9.4c-2.8,0.5-4.9,2.9-4.9,5.8S2.7,49.5,5.5,50z M33.2,52.6c0,3.3-2.7,6-6,6
	H13.3c-3.3,0-6-2.7-6-6v-2.5V38.7c0-3.3,2.7-6,6-6h13.9c3.3,0,6,2.7,6,6v11.4L33.2,52.6L33.2,52.6z M38.1,44.2c0,1.9-1.3,3.4-3,3.9
	v-7.7C36.8,40.8,38.1,42.3,38.1,44.2z M7.3,29c0-3.3,2.7-6,6-6h13.9c3.3,0,6,2.7,6,6v4.6c0,0,0-0.1-0.1-0.1
	c-0.1-0.1-0.1-0.1-0.2-0.2c0,0-0.1-0.1-0.1-0.1c-0.1-0.1-0.1-0.1-0.2-0.2c0,0-0.1-0.1-0.1-0.1c-0.1-0.1-0.1-0.1-0.2-0.2
	c0,0-0.1-0.1-0.1-0.1c-0.1-0.1-0.1-0.1-0.2-0.2c0,0-0.1-0.1-0.1-0.1c-0.1-0.1-0.1-0.1-0.2-0.2c0,0-0.1-0.1-0.1-0.1
	c-0.1-0.1-0.2-0.1-0.3-0.2c0,0,0,0-0.1,0c-0.1-0.1-0.2-0.1-0.3-0.2c0,0-0.1,0-0.1,0c-0.1,0-0.2-0.1-0.3-0.1c0,0-0.1,0-0.1-0.1
	c-0.1,0-0.2-0.1-0.2-0.1c0,0-0.1,0-0.2-0.1c-0.1,0-0.2-0.1-0.2-0.1c-0.1,0-0.1,0-0.2-0.1c-0.1,0-0.2,0-0.2-0.1c-0.1,0-0.1,0-0.2,0
	c-0.1,0-0.2,0-0.2-0.1c-0.1,0-0.1,0-0.2,0c-0.1,0-0.2,0-0.2,0c-0.1,0-0.1,0-0.2,0c-0.1,0-0.2,0-0.3,0c-0.1,0-0.1,0-0.2,0
	c-0.1,0-0.2,0-0.3,0c0,0-0.1,0-0.1,0c-0.1,0-0.3,0-0.4,0H13.3c-0.1,0-0.3,0-0.4,0c0,0-0.1,0-0.1,0c-0.1,0-0.2,0-0.3,0
	c-0.1,0-0.1,0-0.2,0c-0.1,0-0.2,0-0.3,0c-0.1,0-0.1,0-0.2,0c-0.1,0-0.2,0-0.2,0c-0.1,0-0.1,0-0.2,0c-0.1,0-0.2,0-0.2,0.1
	c-0.1,0-0.1,0-0.2,0c-0.1,0-0.2,0-0.2,0.1c-0.1,0-0.1,0-0.2,0.1c-0.1,0-0.2,0.1-0.2,0.1c-0.1,0-0.1,0-0.2,0.1
	c-0.1,0-0.2,0.1-0.2,0.1c0,0-0.1,0-0.1,0.1c-0.1,0-0.2,0.1-0.3,0.1c0,0-0.1,0-0.1,0c-0.1,0.1-0.2,0.1-0.3,0.2c0,0,0,0-0.1,0
	c-0.1,0.1-0.2,0.1-0.3,0.2c0,0-0.1,0.1-0.1,0.1c-0.1,0-0.1,0.1-0.2,0.2c0,0-0.1,0.1-0.1,0.1c-0.1,0-0.1,0.1-0.2,0.2
	c0,0-0.1,0.1-0.1,0.1C8.1,32.8,8,32.9,8,32.9c0,0-0.1,0.1-0.1,0.1c-0.1,0.1-0.1,0.1-0.2,0.2c0,0-0.1,0.1-0.1,0.1
	c-0.1,0.1-0.1,0.1-0.2,0.2c0,0,0,0.1-0.1,0.1C7.3,33.6,7.3,29,7.3,29z M5.5,40.3v7.7c-1.7-0.4-3-2-3-3.9S3.7,40.8,5.5,40.3z"/>
<path class="st0" d="M17.2,44.9c0.1,0.5,0.5,0.9,1,0.8c0.5-0.1,0.9-0.5,0.8-1c-0.2-2-2-3.6-4-3.6s-3.8,1.5-4,3.6
	c-0.1,0.5,0.3,1,0.8,1c0,0,0.1,0,0.1,0c0.5,0,0.9-0.4,0.9-0.8C13,43.8,13.9,43,15,43S17.1,43.8,17.2,44.9z"/>
<path class="st0" d="M25,49.1c-0.5-0.1-1,0.3-1.1,0.8c-0.2,1-1.6,2-3.6,2s-3.4-1-3.6-2c-0.1-0.5-0.6-0.9-1.1-0.8
	c-0.5,0.1-0.9,0.6-0.8,1.1c0.3,2.1,2.6,3.5,5.5,3.5s5.1-1.5,5.5-3.5C25.8,49.7,25.5,49.2,25,49.1z"/>
<path class="st0" d="M25.6,41.1c-2.1,0-3.8,1.5-4,3.6c-0.1,0.5,0.3,1,0.8,1c0.5,0.1,1-0.3,1-0.8c0.1-1.1,1.1-1.9,2.2-1.9
	c1.1,0,2,0.8,2.2,1.9c0.1,0.5,0.5,0.8,0.9,0.8c0,0,0.1,0,0.1,0c0.5-0.1,0.9-0.5,0.8-1C29.3,42.6,27.6,41.1,25.6,41.1z"/>
<path class="st0" d="M54.6,61.6H30.9c-1.6,0-2.8,1.3-2.8,2.8h-0.9c-1.1-0.2-2.1-0.3-3.2-0.3h-7.3l0,0c-0.4,0-0.6,0.1-0.9,0.3H8.1
	c-0.4,0-0.8,0.3-0.9,0.8l-0.4,2.2C2.5,70.4,0,75.4,0,80.7v15.8h19.5h0.8c0,0,0,0,0,0h0l0,0l0,0h0c0,0,0,0,0,0h1.6h9h23.7
	c1.6,0,2.8-1.3,2.8-2.8V64.4C57.4,62.8,56.2,61.6,54.6,61.6z M14.6,75.8L14.6,75.8l0.9-1.3L14,74.4h0L11.4,74l-3.9-0.6l0.3-1.8
	l1-5.4h6.5l1.1,7.9l2.2,16.7l-6.5-11.5L14.6,75.8z M19.6,83.1L18,71.2c0.7,0.3,1.5,0.6,2.5,0.6c0,0,0,0,0.1,0c0.7,0,1.4-0.2,2.1-0.5
	l-2.3,17.1L19.6,83.1z M24.7,69.3C24.7,69.3,24.7,69.3,24.7,69.3l0.4-3H27c0.4,0.1,0.7,0.2,1.1,0.3v7.6l-1.5,0.2
	c-0.3,0-0.6,0.3-0.7,0.6c-0.1,0.3-0.1,0.6,0.1,0.9l2.1,3v1l-6.2,11L24.7,69.3z M23.3,66l-0.4,2.8c-0.8,0.8-1.6,1.2-2.4,1.2
	c-1.3,0-2.4-0.8-2.9-1.2L17.3,66L23.3,66L23.3,66z M1.9,94.6V80.7c0-3.9,1.6-7.7,4.3-10.4l-0.7,3.8l0,0l-0.2,1l1,0.1c0,0,0,0,0,0
	l5.9,0.8l-1.9,2.7c0,0,0,0,0,0l-0.3,0.5l8.7,15.4L1.9,94.6L1.9,94.6z M21.9,94.6l6.2-10.9v9.9c0,0.1,0,0.2,0,0.3c0,0,0,0.1,0,0.1
	c0,0.1,0,0.1,0,0.2c0,0,0,0.1,0,0.1c0,0.1,0,0.1,0,0.2c0,0,0,0.1,0,0.1c0,0,0,0,0,0.1L21.9,94.6L21.9,94.6z M55.6,93.7
	c0,0.5-0.4,1-1,1H30.9c-0.5,0-1-0.4-1-1V80.2v-1.6V75v-9.6v-0.1v-0.8c0-0.5,0.4-1,1-1h23.7c0.5,0,1,0.4,1,1V93.7z"/>
<path class="st0" d="M33.8,69.1h8.9c0.5,0,0.9-0.4,0.9-0.9c0-0.5-0.4-0.9-0.9-0.9h-8.9c-0.5,0-0.9,0.4-0.9,0.9
	C32.9,68.7,33.3,69.1,33.8,69.1z"/>
<path class="st0" d="M51.7,73.6H33.8c-0.5,0-0.9,0.4-0.9,0.9s0.4,0.9,0.9,0.9h17.9c0.5,0,0.9-0.4,0.9-0.9
	C52.7,74,52.2,73.6,51.7,73.6z"/>
<path class="st0" d="M51.7,78.3H33.8c-0.5,0-0.9,0.4-0.9,0.9c0,0.5,0.4,0.9,0.9,0.9h17.9c0.5,0,0.9-0.4,0.9-0.9
	C52.7,78.7,52.2,78.3,51.7,78.3z"/>
<path class="st0" d="M51.7,83H33.8c-0.5,0-0.9,0.4-0.9,0.9s0.4,0.9,0.9,0.9h17.9c0.5,0,0.9-0.4,0.9-0.9C52.7,83.4,52.2,83,51.7,83z"
	/>
<path class="st0" d="M51.7,87.7H33.8c-0.5,0-0.9,0.4-0.9,0.9s0.4,0.9,0.9,0.9h17.9c0.5,0,0.9-0.4,0.9-0.9S52.2,87.7,51.7,87.7z"/>
</svg>
