<?xml version="1.0" encoding="utf-8"?>
<!-- Generator: Adobe Illustrator 25.3.0, SVG Export Plug-In . SVG Version: 6.00 Build 0)  -->
<svg version="1.1" id="Capa_1" xmlns="http://www.w3.org/2000/svg" xmlns:xlink="http://www.w3.org/1999/xlink" x="0px" y="0px"
	 viewBox="0 0 173.5 96.5" style="enable-background:new 0 0 173.5 96.5;" xml:space="preserve">
<style type="text/css">
	.st0{fill:#FFFFFF;}
</style>
<path class="st0" d="M80.7,73.9c0.7,0.2,1,0.6,1,1.3v0c0,0.4-0.2,0.8-0.5,1.1c-0.3,0.3-0.7,0.3-1.1,0.2c-0.7-0.2-1.4-0.3-2.1-0.3
	c-2.3,0-4.2,0.8-5.9,2.4c-1.6,1.6-2.4,3.6-2.4,5.9c0,2.3,0.8,4.3,2.4,5.9c1.6,1.6,3.6,2.4,5.9,2.4c0.7,0,1.4-0.1,2.1-0.2
	c0.4-0.1,0.8,0,1.1,0.2c0.4,0.3,0.5,0.6,0.5,1.1v0c0,0.7-0.3,1.1-1,1.3c-0.9,0.2-1.8,0.3-2.7,0.3c-3,0-5.6-1.1-7.8-3.2
	s-3.2-4.7-3.2-7.8s1.1-5.6,3.2-7.8c2.1-2.1,4.7-3.2,7.8-3.2C78.9,73.6,79.8,73.7,80.7,73.9z"/>
<path class="st0" d="M89,73.6c0.4,0,0.7,0.1,0.9,0.4c0.3,0.3,0.4,0.6,0.4,1v19.3c0,0.4-0.1,0.7-0.4,0.9c-0.3,0.3-0.6,0.4-0.9,0.4h0
	c-0.4,0-0.7-0.1-0.9-0.4c-0.3-0.3-0.4-0.6-0.4-0.9V74.9c0-0.4,0.1-0.7,0.4-1C88.3,73.7,88.6,73.6,89,73.6L89,73.6z"/>
<path class="st0" d="M98.7,76.8c-0.4,0-0.8-0.2-1.1-0.5s-0.5-0.7-0.5-1.1c0-0.4,0.2-0.8,0.5-1.1c0.3-0.3,0.7-0.5,1.1-0.5
	c0.4,0,0.8,0.2,1.1,0.5c0.3,0.3,0.5,0.7,0.5,1.1c0,0.4-0.2,0.8-0.5,1.1C99.6,76.6,99.2,76.8,98.7,76.8z M98.8,79.6
	c0.4,0,0.7,0.1,0.9,0.4c0.3,0.3,0.4,0.6,0.4,1v13.3c0,0.4-0.1,0.7-0.4,0.9c-0.3,0.3-0.6,0.4-0.9,0.4h0c-0.4,0-0.7-0.1-1-0.4
	c-0.3-0.3-0.4-0.6-0.4-0.9V80.9c0-0.4,0.1-0.7,0.4-1S98.4,79.6,98.8,79.6L98.8,79.6z"/>
<path class="st0" d="M121.4,84.2c0.2,0.3,0.2,0.7,0,1c-0.1,0.3-0.4,0.6-0.7,0.7c-1.4,0.6-3.2,1.4-5.4,2.4c-2.8,1.2-4.6,2.1-5.4,2.4
	c1.1,1.3,2.4,2,4.2,2c1.1,0,2.2-0.3,3.1-1c0.9-0.7,1.5-1.5,1.9-2.5c0.2-0.6,0.6-0.9,1.3-0.9c0.5,0,0.8,0.2,1.1,0.6
	c0.3,0.4,0.3,0.8,0.2,1.2c-0.5,1.6-1.5,2.9-2.9,3.8c-1.4,1-3,1.5-4.7,1.5c-2.2,0-4.1-0.8-5.7-2.3s-2.3-3.4-2.3-5.7s0.8-4.1,2.3-5.7
	c1.6-1.6,3.4-2.3,5.7-2.3c1.6,0,3,0.4,4.4,1.3C119.8,81.7,120.8,82.8,121.4,84.2z M114.1,82.3c-1.5,0-2.7,0.5-3.8,1.6
	c-1,1-1.5,2.3-1.5,3.8c0,0.3,0,0.5,0.1,0.8l9.3-4.2C117.1,82.9,115.8,82.3,114.1,82.3z"/>
<path class="st0" d="M130.1,94.2c0,0.4-0.1,0.7-0.4,0.9c-0.3,0.3-0.6,0.4-0.9,0.4h0c-0.4,0-0.7-0.1-0.9-0.4
	c-0.3-0.3-0.4-0.6-0.4-0.9v-8c0-1.8,0.6-3.4,1.9-4.7c1.3-1.3,2.9-1.9,4.7-1.9c1.8,0,3.4,0.6,4.7,1.9c1.3,1.3,1.9,2.9,1.9,4.7v8
	c0,0.4-0.1,0.7-0.4,0.9c-0.3,0.3-0.6,0.4-0.9,0.4h0c-0.4,0-0.7-0.1-1-0.4c-0.3-0.3-0.4-0.6-0.4-0.9v-8c0-1.1-0.4-2-1.1-2.8
	c-0.8-0.8-1.7-1.2-2.8-1.2c-1.1,0-2,0.4-2.8,1.2c-0.8,0.8-1.1,1.7-1.1,2.8L130.1,94.2L130.1,94.2z"/>
<path class="st0" d="M148,73.6c0.4,0,0.7,0.1,0.9,0.4c0.3,0.3,0.4,0.6,0.4,1v4.7h2.6c0.4,0,0.7,0.1,0.9,0.4s0.4,0.6,0.4,1v0
	c0,0.4-0.1,0.7-0.4,0.9c-0.3,0.3-0.6,0.4-0.9,0.4h-2.6v9.1c0,0.4,0.1,0.7,0.4,1s0.6,0.4,1,0.4h1.2c0.4,0,0.7,0.1,0.9,0.4
	s0.4,0.6,0.4,1v0c0,0.4-0.1,0.7-0.4,0.9c-0.3,0.3-0.6,0.4-0.9,0.4h-1.2c-1.2,0-2.1-0.4-3-1.2c-0.8-0.8-1.2-1.8-1.2-2.9V74.9
	c0-0.4,0.1-0.7,0.4-1C147.3,73.7,147.6,73.6,148,73.6L148,73.6z"/>
<path class="st0" d="M173.2,84.2c0.2,0.3,0.2,0.7,0,1c-0.1,0.3-0.4,0.6-0.7,0.7c-1.4,0.6-3.2,1.4-5.4,2.4c-2.8,1.2-4.6,2.1-5.4,2.4
	c1.1,1.3,2.4,2,4.2,2c1.1,0,2.2-0.3,3.1-1c0.9-0.7,1.5-1.5,1.9-2.5c0.2-0.6,0.6-0.9,1.3-0.9c0.5,0,0.8,0.2,1.1,0.6
	c0.3,0.4,0.3,0.8,0.2,1.2c-0.5,1.6-1.5,2.9-2.9,3.8c-1.4,1-3,1.5-4.7,1.5c-2.2,0-4.1-0.8-5.7-2.3s-2.3-3.4-2.3-5.7s0.8-4.1,2.3-5.7
	c1.6-1.6,3.4-2.3,5.7-2.3c1.6,0,3,0.4,4.4,1.3C171.6,81.7,172.5,82.8,173.2,84.2z M165.9,82.3c-1.5,0-2.7,0.5-3.8,1.6
	c-1,1-1.5,2.3-1.5,3.8c0,0.3,0,0.5,0.1,0.8l9.3-4.2C168.9,82.9,167.5,82.3,165.9,82.3z"/>
<path class="st0" d="M54.6,53.5c-0.4-0.1-0.8-0.1-1,0.2l-9.8,10.4h-2.5l-7.3-7.7c0.6-1.2,1-2.5,1-3.8v-3.5c0.4,0.1,0.7,0.2,1.1,0.2
	c0.7,0,1.4-0.3,1.9-0.8c1.2-1.1,1.9-2.7,1.9-4.3c0-1.6-0.6-3.1-1.8-4.2c-0.8-0.8-2-1-3.1-0.6v-0.7V34c0-7.1-5.8-12.9-12.9-12.9h-3.9
	c-7.1,0-12.9,5.8-12.9,12.9v4.7v0.7C4.4,39,3.2,39.2,2.4,40c-1.2,1.1-1.8,2.6-1.8,4.2c0,1.6,0.7,3.2,1.9,4.3
	c0.5,0.5,1.2,0.8,1.9,0.8c0.4,0,0.7-0.1,1.1-0.2v3.5c0,4.3,3.5,7.9,7.9,7.9h13.9c0.9,0,1.9-0.2,2.7-0.5v4.1h-3.2H13.4H7.6
	c-4.2,0-7.6,3.4-7.6,7.6v24.8h39.6l0.9,0h10.3c2.5,0,4.4-2,4.4-4.4V69.4v-0.9V54.3C55.2,54,55,53.6,54.6,53.5z M35.1,42.1
	c0-0.6,0.5-0.9,0.6-1c0.1,0,0.2-0.1,0.4-0.1c0.2,0,0.5,0.1,0.7,0.3c0.8,0.8,1.2,1.8,1.2,2.9c0,1.1-0.5,2.2-1.3,2.9
	c-0.4,0.4-1,0.2-1.1,0.2c-0.2-0.1-0.6-0.3-0.6-1C35.1,46.4,35.1,42.1,35.1,42.1z M5.5,46.4c0,0.6-0.5,0.9-0.6,1
	c-0.1,0.1-0.6,0.2-1.1-0.2c-0.8-0.8-1.3-1.8-1.3-2.9c0-1.1,0.4-2.1,1.2-2.9c0.2-0.2,0.5-0.3,0.7-0.3c0.2,0,0.4,0.1,0.4,0.1
	c0.2,0.1,0.6,0.3,0.6,1C5.5,42.1,5.5,46.4,5.5,46.4z M18.3,23.1h3.9c5.9,0,10.8,4.7,11,10.6c-0.1-0.1-0.1-0.1-0.2-0.2
	c-0.1-0.1-0.2-0.2-0.3-0.4c-0.1-0.1-0.2-0.1-0.2-0.2c-0.1-0.1-0.2-0.2-0.4-0.3c-0.1-0.1-0.2-0.1-0.3-0.2c-0.1-0.1-0.3-0.2-0.4-0.3
	c-0.1-0.1-0.2-0.1-0.3-0.2c-0.1-0.1-0.3-0.1-0.4-0.2c-0.1-0.1-0.2-0.1-0.3-0.1c-0.1-0.1-0.3-0.1-0.4-0.2c-0.1,0-0.2-0.1-0.3-0.1
	c-0.2-0.1-0.3-0.1-0.5-0.1c-0.1,0-0.2-0.1-0.3-0.1c-0.2,0-0.4-0.1-0.5-0.1c-0.1,0-0.2,0-0.3,0c-0.3,0-0.6,0-0.8,0H13.3
	c-0.3,0-0.6,0-0.8,0c-0.1,0-0.2,0-0.3,0C12,31,11.8,31,11.7,31c-0.1,0-0.2,0.1-0.3,0.1c-0.2,0-0.3,0.1-0.5,0.1
	c-0.1,0-0.2,0.1-0.3,0.1c-0.1,0.1-0.3,0.1-0.4,0.2c-0.1,0-0.2,0.1-0.3,0.1c-0.1,0.1-0.3,0.1-0.4,0.2C9.3,32,9.2,32,9.1,32.1
	c-0.1,0.1-0.3,0.2-0.4,0.3c-0.1,0.1-0.2,0.1-0.3,0.2c-0.1,0.1-0.2,0.2-0.4,0.3C8,32.9,7.9,33,7.9,33.1c-0.1,0.1-0.2,0.2-0.3,0.4
	c-0.1,0.1-0.1,0.1-0.2,0.2C7.6,27.8,12.4,23.1,18.3,23.1z M25,66l-4.8,7.1L15.2,66H25z M1.9,94.6V71.7c0-3.2,2.6-5.7,5.7-5.7H13
	l6.4,9.3c0.2,0.3,0.5,0.4,0.8,0.4c0,0,0,0,0,0c0.3,0,0.6-0.2,0.8-0.4l6.3-9.3h2.7v3.4v22.6c0,0.3,0,0.5,0.1,0.8c0,0.1,0,0.2,0.1,0.2
	c0,0.2,0.1,0.4,0.2,0.5c0,0.1,0.1,0.2,0.1,0.2c0.1,0.2,0.2,0.4,0.3,0.5c0,0.1,0.1,0.1,0.1,0.2c0,0,0,0,0,0L1.9,94.6L1.9,94.6z
	 M31.5,53.7L29.9,52v2.4v3.6c-0.8,0.4-1.8,0.7-2.7,0.7H13.3c-3.3,0-6-2.7-6-6v-6.2v-4.2v-3.4c0-3.3,2.7-6,6-6h13.9c3.3,0,6,2.7,6,6
	v3.4v4.2v6.2c0,0.8-0.2,1.6-0.5,2.3L31.5,53.7L31.5,53.7z M31.8,64.1V59v-2.3l7,7.4h-3.5h-0.9c-1,0-1.8,0.3-2.6,0.8
	C31.8,64.9,31.8,64.1,31.8,64.1z M53.4,92.1c0,1.4-1.2,2.6-2.6,2.6h-7.1v-5.2c0.4-0.2,0.7-0.5,1-0.9l1.5-2.6c0.4-0.7,0.4-1.5,0-2.2
	s-1.1-1.1-1.9-1.1h-3c-0.8,0-1.5,0.4-1.9,1.1c-0.4,0.7-0.4,1.5,0,2.2l1.5,2.6c0.2,0.4,0.6,0.7,1,0.9v5.2h-1.3h-6.2
	c-0.5,0-1-0.2-1.4-0.4c-0.7-0.5-1.1-1.2-1.1-2.1V69.4c0-1.9,1.5-3.4,3.4-3.4h5.7h3.3h5.7c1.9,0,3.4,1.5,3.4,3.4
	C53.4,69.4,53.4,92.1,53.4,92.1z M53.4,64.9c-0.7-0.5-1.6-0.8-2.6-0.8h-0.9h-3.5l7-7.4V64.9z"/>
<circle class="st0" cx="37.4" cy="73.6" r="1.9"/>
<circle class="st0" cx="47.7" cy="73.6" r="1.9"/>
<path class="st0" d="M17.2,44.9c0.1,0.5,0.5,0.8,0.9,0.8c0,0,0.1,0,0.1,0c0.5-0.1,0.9-0.5,0.8-1c-0.2-2-2-3.6-4-3.6s-3.8,1.5-4,3.6
	c-0.1,0.5,0.3,1,0.8,1c0.5,0.1,1-0.3,1-0.8C13,43.8,13.9,43,15,43S17,43.8,17.2,44.9z"/>
<path class="st0" d="M25,49.2c-0.5-0.1-1,0.3-1.1,0.8c-0.2,0.9-1.6,2-3.6,2s-3.4-1-3.6-2c-0.1-0.5-0.6-0.9-1.1-0.8
	c-0.5,0.1-0.9,0.6-0.8,1.1c0.3,2.1,2.6,3.5,5.5,3.5s5.1-1.5,5.5-3.5C25.8,49.8,25.5,49.3,25,49.2z"/>
<path class="st0" d="M25.5,41.1c-2.1,0-3.8,1.5-4,3.6c-0.1,0.5,0.3,1,0.8,1c0.5,0.1,1-0.3,1-0.8c0.1-1.1,1.1-1.9,2.2-1.9
	s2,0.8,2.2,1.9c0.1,0.5,0.5,0.8,0.9,0.8c0,0,0.1,0,0.1,0c0.5-0.1,0.9-0.5,0.8-1C29.3,42.7,27.6,41.1,25.5,41.1z"/>
</svg>
