<?xml version="1.0" encoding="utf-8"?>
<!-- Generator: Adobe Illustrator 25.3.0, SVG Export Plug-In . SVG Version: 6.00 Build 0)  -->
<svg version="1.1" id="Capa_1" xmlns="http://www.w3.org/2000/svg" xmlns:xlink="http://www.w3.org/1999/xlink" x="0px" y="0px"
	 viewBox="0 0 493.458 51.775" style="enable-background:new 0 0 493.458 51.775;" xml:space="preserve">
<style type="text/css">
	.st0{fill:#FFFFFF;}
</style>
<path class="st0" d="M97.007,31.103v6.391c0,0.396-0.141,0.729-0.422,1c-0.281,0.281-0.615,0.422-1,0.422h-0.047
	c-0.386,0-0.719-0.141-1-0.422c-0.281-0.271-0.422-0.604-0.422-1V23.275c0-2.166,0.766-4.016,2.297-5.547
	c1.531-1.521,3.375-2.281,5.531-2.281c2.166,0,4.01,0.761,5.531,2.281c1.531,1.531,2.297,3.381,2.297,5.547
	c0,2.156-0.766,4-2.297,5.531c-1.521,1.531-3.365,2.297-5.531,2.297H97.007z M97.007,28.213h4.938c1.364,0,2.531-0.484,3.5-1.453
	c0.958-0.958,1.438-2.119,1.438-3.484c0-1.364-0.479-2.531-1.438-3.5c-0.969-0.969-2.136-1.453-3.5-1.453
	c-1.365,0-2.531,0.484-3.5,1.453c-0.959,0.969-1.438,2.136-1.438,3.5V28.213z"/>
<path class="st0" d="M122.942,21.853c0.396,0,0.734,0.141,1.016,0.422c0.271,0.281,0.406,0.62,0.406,1.016v0.031
	c0,0.396-0.136,0.729-0.406,1c-0.281,0.281-0.62,0.422-1.016,0.422h-0.891c-0.979,0-1.812,0.344-2.5,1.031
	c-0.678,0.688-1.021,1.521-1.031,2.5v9.219c0,0.396-0.141,0.729-0.422,1c-0.281,0.281-0.615,0.422-1,0.422h-0.047
	c-0.386,0-0.719-0.141-1-0.422c-0.281-0.271-0.422-0.604-0.422-1v-9.219c0.021-1.781,0.646-3.297,1.875-4.547
	c1.25-1.25,2.766-1.875,4.547-1.875H122.942z"/>
<path class="st0" d="M137.345,21.853c2.354,0,4.364,0.834,6.031,2.5c1.666,1.667,2.5,3.678,2.5,6.031c0,2.354-0.834,4.365-2.5,6.031
	c-1.667,1.667-3.678,2.5-6.031,2.5c-2.354,0-4.365-0.833-6.031-2.5c-1.667-1.666-2.5-3.677-2.5-6.031c0-2.354,0.833-4.364,2.5-6.031
	C132.98,22.687,134.991,21.853,137.345,21.853z M137.345,24.775c-1.562,0-2.896,0.553-4,1.656c-1.094,1.104-1.641,2.438-1.641,4
	c0,1.553,0.547,2.881,1.641,3.984c1.104,1.104,2.438,1.656,4,1.656s2.891-0.552,3.984-1.656c1.104-1.104,1.656-2.432,1.656-3.984
	c0-1.562-0.553-2.896-1.656-4C140.236,25.328,138.908,24.775,137.345,24.775z"/>
<path class="st0" d="M159.795,42.447c1.427,0,2.713-0.553,3.859-1.656c1.188-1.136,1.781-2.463,1.781-3.984v-0.031
	c-1.615,1.428-3.495,2.141-5.641,2.141c-2.354,0-4.365-0.833-6.031-2.5c-1.667-1.666-2.5-3.677-2.5-6.031
	c0-2.354,0.833-4.364,2.5-6.031c1.666-1.666,3.677-2.5,6.031-2.5c2.344,0,4.349,0.828,6.016,2.484
	c1.666,1.656,2.505,3.662,2.516,6.016v6.453c0,2.302-0.896,4.312-2.688,6.031c-1.729,1.666-3.678,2.5-5.844,2.5
	c-3.344,0-5.844-1.292-7.5-3.875c-0.25-0.386-0.303-0.797-0.156-1.234c0.146-0.438,0.438-0.734,0.875-0.891l0.047-0.016
	c0.697-0.24,1.255-0.053,1.672,0.562C155.857,41.593,157.545,42.447,159.795,42.447z M165.435,30.291
	c-0.021-1.541-0.584-2.849-1.688-3.922c-1.094-1.083-2.412-1.625-3.953-1.625c-1.562,0-2.896,0.553-4,1.656
	c-1.094,1.104-1.641,2.433-1.641,3.984c0,1.562,0.547,2.896,1.641,4c1.104,1.094,2.438,1.641,4,1.641s2.891-0.547,3.984-1.641
	c1.104-1.104,1.656-2.438,1.656-4V30.291z"/>
<path class="st0" d="M181.964,21.853c0.396,0,0.734,0.141,1.016,0.422c0.271,0.281,0.406,0.62,0.406,1.016v0.031
	c0,0.396-0.136,0.729-0.406,1c-0.281,0.281-0.62,0.422-1.016,0.422h-0.891c-0.979,0-1.812,0.344-2.5,1.031
	c-0.678,0.688-1.021,1.521-1.031,2.5v9.219c0,0.396-0.141,0.729-0.422,1c-0.281,0.281-0.615,0.422-1,0.422h-0.047
	c-0.386,0-0.719-0.141-1-0.422c-0.281-0.271-0.422-0.604-0.422-1v-9.219c0.021-1.781,0.646-3.297,1.875-4.547
	c1.25-1.25,2.766-1.875,4.547-1.875H181.964z"/>
<path class="st0" d="M202.866,24.353c1.666,1.667,2.5,3.678,2.5,6.031v7.109c0,0.396-0.141,0.729-0.422,1
	c-0.281,0.281-0.615,0.422-1,0.422h-0.047c-0.385,0-0.719-0.141-1-0.422c-0.281-0.271-0.422-0.604-0.422-1v-0.719
	c-1.615,1.428-3.494,2.141-5.641,2.141c-2.354,0-4.365-0.833-6.031-2.5c-1.667-1.666-2.5-3.677-2.5-6.031
	c0-2.354,0.833-4.364,2.5-6.031c1.666-1.666,3.678-2.5,6.031-2.5S201.2,22.687,202.866,24.353z M192.835,26.4
	c-1.094,1.104-1.641,2.433-1.641,3.984c0,1.562,0.547,2.896,1.641,4c1.104,1.094,2.438,1.641,4,1.641s2.891-0.547,3.984-1.641
	c1.104-1.104,1.656-2.438,1.656-4c0-1.552-0.553-2.88-1.656-3.984c-1.094-1.104-2.422-1.656-3.984-1.656
	S193.939,25.297,192.835,26.4z"/>
<path class="st0" d="M214.583,37.494c0,0.396-0.141,0.729-0.422,1c-0.281,0.281-0.615,0.422-1,0.422h-0.047
	c-0.387,0-0.719-0.141-1-0.422c-0.281-0.271-0.422-0.604-0.422-1V28.9c0-1.938,0.688-3.599,2.062-4.984
	c1.375-1.375,3.035-2.062,4.984-2.062c2.322,0,4.191,0.928,5.609,2.781c1.406-1.854,3.27-2.781,5.594-2.781
	c1.947,0,3.609,0.688,4.984,2.062c1.375,1.386,2.062,3.047,2.062,4.984v8.594c0,0.396-0.137,0.729-0.406,1
	c-0.281,0.281-0.621,0.422-1.016,0.422h-0.031c-0.396,0-0.73-0.141-1-0.422c-0.281-0.271-0.422-0.604-0.422-1V28.9
	c0-1.146-0.406-2.125-1.219-2.938s-1.797-1.219-2.953-1.219c-1.146,0-2.125,0.406-2.938,1.219s-1.219,1.792-1.219,2.938v8.594
	c0,0.396-0.141,0.729-0.422,1c-0.271,0.281-0.605,0.422-1,0.422h-0.031c-0.396,0-0.734-0.141-1.016-0.422
	c-0.281-0.271-0.422-0.604-0.422-1V28.9c0-1.146-0.406-2.125-1.219-2.938s-1.793-1.219-2.938-1.219
	c-1.146,0-2.125,0.406-2.938,1.219s-1.219,1.792-1.219,2.938V37.494z"/>
<path class="st0" d="M257.876,24.353c1.666,1.667,2.5,3.678,2.5,6.031v7.109c0,0.396-0.141,0.729-0.422,1
	c-0.281,0.281-0.615,0.422-1,0.422h-0.047c-0.385,0-0.719-0.141-1-0.422c-0.281-0.271-0.422-0.604-0.422-1v-0.719
	c-1.615,1.428-3.494,2.141-5.641,2.141c-2.354,0-4.365-0.833-6.031-2.5c-1.666-1.666-2.5-3.677-2.5-6.031
	c0-2.354,0.834-4.364,2.5-6.031c1.666-1.666,3.678-2.5,6.031-2.5S256.21,22.687,257.876,24.353z M247.845,26.4
	c-1.094,1.104-1.641,2.433-1.641,3.984c0,1.562,0.547,2.896,1.641,4c1.104,1.094,2.438,1.641,4,1.641s2.891-0.547,3.984-1.641
	c1.104-1.104,1.656-2.438,1.656-4c0-1.552-0.553-2.88-1.656-3.984c-1.094-1.104-2.422-1.656-3.984-1.656
	S248.948,25.297,247.845,26.4z"/>
<path class="st0" d="M277.341,22.26c0.666,0.209,1,0.662,1,1.359v0.078c0,0.479-0.193,0.859-0.578,1.141
	c-0.396,0.292-0.822,0.365-1.281,0.219c-0.553-0.188-1.125-0.281-1.719-0.281c-1.562,0-2.896,0.553-4,1.656
	c-1.094,1.104-1.641,2.438-1.641,4c0,1.553,0.547,2.881,1.641,3.984c1.104,1.104,2.438,1.656,4,1.656
	c0.594,0,1.166-0.088,1.719-0.266c0.459-0.146,0.885-0.078,1.281,0.203c0.385,0.281,0.578,0.667,0.578,1.156
	c0,0.688-0.334,1.141-1,1.359c-0.834,0.261-1.693,0.391-2.578,0.391c-2.354,0-4.365-0.833-6.031-2.5
	c-1.666-1.666-2.5-3.677-2.5-6.031c0-2.354,0.834-4.364,2.5-6.031c1.666-1.666,3.678-2.5,6.031-2.5
	C275.648,21.853,276.507,21.989,277.341,22.26z"/>
<path class="st0" d="M286.23,18.885c-0.48,0-0.887-0.166-1.219-0.5c-0.334-0.333-0.5-0.739-0.5-1.219c0-0.469,0.166-0.869,0.5-1.203
	c0.332-0.333,0.738-0.5,1.219-0.5c0.469,0,0.869,0.167,1.203,0.5c0.344,0.334,0.516,0.734,0.516,1.203
	c0,0.479-0.172,0.886-0.516,1.219C287.099,18.719,286.698,18.885,286.23,18.885z M286.245,21.853c0.395,0,0.729,0.141,1,0.422
	c0.281,0.281,0.422,0.62,0.422,1.016v14.203c0,0.396-0.141,0.729-0.422,1c-0.271,0.281-0.605,0.422-1,0.422h-0.031
	c-0.396,0-0.734-0.141-1.016-0.422c-0.281-0.271-0.422-0.604-0.422-1V23.291c0-0.396,0.141-0.734,0.422-1.016
	s0.619-0.422,1.016-0.422H286.245z"/>
<path class="st0" d="M302.648,21.853c2.354,0,4.365,0.834,6.031,2.5c1.666,1.667,2.5,3.678,2.5,6.031c0,2.354-0.834,4.365-2.5,6.031
	c-1.666,1.667-3.678,2.5-6.031,2.5s-4.365-0.833-6.031-2.5c-1.666-1.666-2.5-3.677-2.5-6.031c0-2.354,0.834-4.364,2.5-6.031
	C298.282,22.687,300.294,21.853,302.648,21.853z M302.648,24.775c-1.562,0-2.896,0.553-4,1.656c-1.094,1.104-1.641,2.438-1.641,4
	c0,1.553,0.547,2.881,1.641,3.984c1.104,1.104,2.438,1.656,4,1.656s2.891-0.552,3.984-1.656c1.104-1.104,1.656-2.432,1.656-3.984
	c0-1.562-0.553-2.896-1.656-4C305.538,25.328,304.21,24.775,302.648,24.775z M306.757,16.869c0.166-0.166,0.182-0.375,0.047-0.625
	c-0.104-0.229-0.281-0.344-0.531-0.344h-2.406c-0.209,0-0.365,0.078-0.469,0.234l-2.75,3.922c-0.146,0.209-0.166,0.417-0.062,0.625
	c0.104,0.219,0.281,0.328,0.531,0.328h1.203c0.156,0,0.318-0.078,0.484-0.234L306.757,16.869z"/>
<path class="st0" d="M319.927,37.494c0,0.396-0.141,0.729-0.422,1c-0.281,0.281-0.615,0.422-1,0.422h-0.047
	c-0.387,0-0.719-0.141-1-0.422c-0.281-0.271-0.422-0.604-0.422-1v-8.547c0-1.958,0.691-3.63,2.078-5.016
	c1.385-1.385,3.057-2.078,5.016-2.078c1.947,0,3.613,0.693,5,2.078c1.385,1.386,2.078,3.058,2.078,5.016v8.547
	c0,0.396-0.141,0.729-0.422,1c-0.271,0.281-0.605,0.422-1,0.422h-0.031c-0.396,0-0.734-0.141-1.016-0.422
	c-0.281-0.271-0.422-0.604-0.422-1v-8.547c0-1.156-0.406-2.146-1.219-2.969c-0.824-0.822-1.812-1.234-2.969-1.234
	c-1.168,0-2.162,0.412-2.984,1.234c-0.812,0.823-1.219,1.812-1.219,2.969V37.494z"/>
<path class="st0" d="M364.513,15.447c0.385,0,0.719,0.136,1,0.406c0.281,0.281,0.422,0.62,0.422,1.016v13.562
	c-0.01,2.344-0.85,4.344-2.516,6s-3.672,2.484-6.016,2.484c-2.354,0-4.365-0.833-6.031-2.5c-1.666-1.666-2.5-3.677-2.5-6.031
	c0-2.354,0.834-4.364,2.5-6.031c1.666-1.666,3.678-2.5,6.031-2.5c2.146,0,4.025,0.714,5.641,2.141v-7.125
	c0-0.396,0.141-0.734,0.422-1.016c0.281-0.271,0.615-0.406,1-0.406H364.513z M353.403,26.432c-1.094,1.104-1.641,2.438-1.641,4
	c0,1.553,0.547,2.881,1.641,3.984c1.104,1.104,2.438,1.656,4,1.656s2.891-0.552,3.984-1.656c1.104-1.104,1.656-2.432,1.656-3.984
	c0-1.562-0.553-2.896-1.656-4c-1.094-1.104-2.422-1.656-3.984-1.656S354.507,25.328,353.403,26.432z"/>
<path class="st0" d="M388.073,26.838c0.166,0.354,0.182,0.719,0.047,1.094c-0.137,0.365-0.387,0.631-0.75,0.797
	c-1.459,0.656-3.375,1.521-5.75,2.594c-2.949,1.334-4.859,2.198-5.734,2.594c1.125,1.438,2.604,2.156,4.438,2.156
	c1.219,0,2.322-0.359,3.312-1.078c0.957-0.697,1.629-1.604,2.016-2.719c0.229-0.646,0.688-0.969,1.375-0.969
	c0.488,0,0.879,0.203,1.172,0.609c0.281,0.396,0.338,0.828,0.172,1.297c-0.584,1.688-1.605,3.053-3.062,4.094
	c-1.49,1.073-3.152,1.609-4.984,1.609c-2.355,0-4.365-0.833-6.031-2.5c-1.668-1.666-2.5-3.677-2.5-6.031
	c0-2.354,0.832-4.364,2.5-6.031c1.666-1.666,3.676-2.5,6.031-2.5c1.697,0,3.25,0.464,4.656,1.391
	C386.364,24.15,387.396,25.349,388.073,26.838z M380.323,24.775c-1.562,0-2.896,0.553-4,1.656c-1.094,1.104-1.641,2.438-1.641,4
	c0,0.281,0.02,0.558,0.062,0.828l9.891-4.469C383.511,25.447,382.073,24.775,380.323,24.775z"/>
<path class="st0" d="M413.864,35.025l0.047-0.094l5.672-18.531c0.219-0.635,0.666-0.953,1.344-0.953h0.109
	c0.488,0,0.875,0.198,1.156,0.594c0.291,0.396,0.354,0.828,0.188,1.297L415.974,37.4c-0.396,1.011-1.137,1.516-2.219,1.516
	c-1.084,0-1.828-0.505-2.234-1.516l-6.391-20.063c-0.168-0.469-0.109-0.9,0.172-1.297c0.291-0.396,0.682-0.594,1.172-0.594h0.109
	c0.676,0,1.125,0.318,1.344,0.953l5.672,18.531l0.047,0.094c0.031,0.062,0.066,0.094,0.109,0.094
	C413.796,35.119,413.833,35.088,413.864,35.025z"/>
<path class="st0" d="M429.579,18.885c-0.479,0-0.885-0.166-1.219-0.5c-0.334-0.333-0.5-0.739-0.5-1.219
	c0-0.469,0.166-0.869,0.5-1.203c0.334-0.333,0.74-0.5,1.219-0.5c0.469,0,0.869,0.167,1.203,0.5c0.344,0.334,0.516,0.734,0.516,1.203
	c0,0.479-0.172,0.886-0.516,1.219C430.448,18.719,430.048,18.885,429.579,18.885z M429.595,21.853c0.396,0,0.729,0.141,1,0.422
	c0.281,0.281,0.422,0.62,0.422,1.016v14.203c0,0.396-0.141,0.729-0.422,1c-0.271,0.281-0.604,0.422-1,0.422h-0.031
	c-0.396,0-0.734-0.141-1.016-0.422c-0.281-0.271-0.422-0.604-0.422-1V23.291c0-0.396,0.141-0.734,0.422-1.016
	s0.619-0.422,1.016-0.422H429.595z"/>
<path class="st0" d="M442.31,24.744c-0.584,0-1.078,0.203-1.484,0.609c-0.406,0.417-0.609,0.912-0.609,1.484
	c0,0.812,0.385,1.422,1.156,1.828c0.24,0.125,1.141,0.396,2.703,0.812c1.166,0.334,2.021,0.761,2.562,1.281
	c0.771,0.729,1.156,1.787,1.156,3.172c0,1.375-0.484,2.553-1.453,3.531c-0.979,0.969-2.156,1.453-3.531,1.453h-4.078
	c-0.385,0-0.719-0.141-1-0.422c-0.281-0.271-0.422-0.604-0.422-1v-0.031c0-0.396,0.141-0.734,0.422-1.016s0.615-0.422,1-0.422h4.234
	c0.584,0,1.078-0.203,1.484-0.609s0.609-0.9,0.609-1.484c0-0.771-0.385-1.344-1.156-1.719c-0.178-0.083-1.078-0.354-2.703-0.813
	c-1.156-0.344-2.01-0.781-2.562-1.312c-0.771-0.76-1.156-1.844-1.156-3.25c0-1.375,0.484-2.547,1.453-3.516
	c0.979-0.979,2.156-1.469,3.531-1.469h2.875c0.396,0,0.734,0.141,1.016,0.422s0.422,0.62,0.422,1.016v0.031
	c0,0.396-0.141,0.729-0.422,1c-0.281,0.281-0.619,0.422-1.016,0.422H442.31z"/>
<path class="st0" d="M455.527,18.885c-0.48,0-0.887-0.166-1.219-0.5c-0.334-0.333-0.5-0.739-0.5-1.219
	c0-0.469,0.166-0.869,0.5-1.203c0.332-0.333,0.738-0.5,1.219-0.5c0.469,0,0.869,0.167,1.203,0.5
	c0.344,0.334,0.516,0.734,0.516,1.203c0,0.479-0.172,0.886-0.516,1.219C456.396,18.719,455.995,18.885,455.527,18.885z
	 M455.542,21.853c0.395,0,0.729,0.141,1,0.422c0.281,0.281,0.422,0.62,0.422,1.016v14.203c0,0.396-0.141,0.729-0.422,1
	c-0.271,0.281-0.605,0.422-1,0.422h-0.031c-0.396,0-0.734-0.141-1.016-0.422c-0.281-0.271-0.422-0.604-0.422-1V23.291
	c0-0.396,0.141-0.734,0.422-1.016s0.619-0.422,1.016-0.422H455.542z"/>
<path class="st0" d="M465.351,15.447c0.385,0,0.719,0.136,1,0.406c0.281,0.281,0.422,0.62,0.422,1.016v4.984h2.812
	c0.385,0,0.719,0.141,1,0.422s0.422,0.62,0.422,1.016v0.031c0,0.396-0.141,0.729-0.422,1c-0.281,0.281-0.615,0.422-1,0.422h-2.812
	v9.734c0,0.428,0.15,0.792,0.453,1.094c0.303,0.303,0.672,0.453,1.109,0.453h1.25c0.385,0,0.719,0.141,1,0.422
	s0.422,0.62,0.422,1.016v0.031c0,0.396-0.141,0.729-0.422,1c-0.281,0.281-0.615,0.422-1,0.422h-1.25
	c-1.229,0-2.281-0.432-3.156-1.297c-0.865-0.875-1.297-1.922-1.297-3.141V16.869c0-0.396,0.141-0.734,0.422-1.016
	c0.281-0.271,0.615-0.406,1-0.406H465.351z"/>
<path class="st0" d="M490.958,24.353c1.666,1.667,2.5,3.678,2.5,6.031v7.109c0,0.396-0.141,0.729-0.422,1
	c-0.281,0.281-0.615,0.422-1,0.422h-0.047c-0.387,0-0.719-0.141-1-0.422c-0.281-0.271-0.422-0.604-0.422-1v-0.719
	c-1.615,1.428-3.496,2.141-5.641,2.141c-2.355,0-4.365-0.833-6.031-2.5c-1.668-1.666-2.5-3.677-2.5-6.031
	c0-2.354,0.832-4.364,2.5-6.031c1.666-1.666,3.676-2.5,6.031-2.5C487.28,21.853,489.29,22.687,490.958,24.353z M480.927,26.4
	c-1.094,1.104-1.641,2.433-1.641,3.984c0,1.562,0.547,2.896,1.641,4c1.104,1.094,2.438,1.641,4,1.641s2.891-0.547,3.984-1.641
	c1.104-1.104,1.656-2.438,1.656-4c0-1.552-0.553-2.88-1.656-3.984c-1.094-1.104-2.422-1.656-3.984-1.656S482.03,25.297,480.927,26.4
	z"/>
<path class="st0" d="M31.118,3.847c-0.252-0.252-0.661-0.252-0.913,0l-2.763,2.763c-0.252,0.252-0.252,0.661,0,0.913
	c0.126,0.126,0.291,0.189,0.457,0.189s0.331-0.063,0.457-0.189l2.763-2.763C31.37,4.508,31.37,4.099,31.118,3.847z"/>
<path class="st0" d="M16.855,3.847c-0.252-0.252-0.661-0.252-0.913,0c-0.252,0.252-0.252,0.661,0,0.913l2.763,2.763
	c0.126,0.126,0.291,0.189,0.457,0.189c0.165,0,0.331-0.063,0.457-0.189c0.252-0.252,0.252-0.661,0-0.913L16.855,3.847z"/>
<path class="st0" d="M23.506,0c-0.357,0-0.646,0.289-0.646,0.646v3.908c0,0.357,0.289,0.646,0.646,0.646s0.646-0.289,0.646-0.646
	V0.646C24.152,0.289,23.862,0,23.506,0z"/>
<path class="st0" d="M72.707,28.922h-0.716h-2.879h-0.007c-0.001-0.113-0.003-0.227-0.006-0.342
	c-0.003-0.119-0.007-0.239-0.012-0.358h2.903l0-0.001h0.708c0.724,0,1.311-0.587,1.311-1.311S73.423,25.6,72.699,25.6h-1.175
	l-1.749-9.821c-0.371-2.086-3.486-3.738-6.933-3.738H52.494l-0.109-0.352c-0.768-2.476-2.689-4.076-4.894-4.076H37.408
	c-2.204,0-4.125,1.6-4.893,4.076l-0.107,0.345H17.142c-0.656,0-1.314,0.177-1.905,0.552c-0.591,0.378-1.031,0.898-1.312,1.487
	L8.483,25.592H5.669c-0.724,0-1.311,0.587-1.311,1.311s0.587,1.311,1.311,1.311h3.449l-0.331,0.709H4.59
	c-0.724,0-1.311,0.587-1.311,1.311c0,0.712,0.568,1.291,1.276,1.309c-0.602,0.95-2.372,3.908-1.786,7.94c0,0,0,0.001,0,0.001
	C1.237,39.505,0,40.753,0,42.292c0,1.552,1.258,2.811,2.811,2.811c0.011,0,0.021-0.001,0.031-0.002c0,0,0,0.002,0,0.002h10.193
	c0-0.026-0.002-0.051-0.002-0.077c0-4.614,3.754-8.368,8.368-8.368s8.368,3.754,8.368,8.368c0,0.026-0.002,0.051-0.002,0.077h3.187
	c0.019,0,0.038,0.001,0.057,0.001h14.963c0-0.026-0.002-0.052-0.002-0.078c0-4.614,3.754-8.368,8.368-8.368
	c4.614,0,8.368,3.754,8.368,8.368c0,0.006,0,0.012,0,0.018c0.049,0.001,0.08,0.003,0.08,0.004c2.995-0.301,5.519-1.818,5.851-3.683
	l0.892-9.821h1.176c0.724,0,1.311-0.587,1.311-1.311S73.431,28.922,72.707,28.922z M27.899,26.588c0,0.844-0.684,1.529-1.529,1.529
	H14.01c-0.81,0-1.343-0.845-0.993-1.576l4.773-9.982c0.257-0.537,0.798-0.878,1.393-0.878h7.479c0.682,0,1.236,0.553,1.236,1.236
	V26.588z M43.889,36.575c0,0.803-0.651,1.454-1.454,1.454H39.99v2.445c0,0.803-0.651,1.454-1.454,1.454
	c-0.803,0-1.454-0.651-1.454-1.454v-2.445h-2.445c-0.803,0-1.454-0.651-1.454-1.454v0c0-0.803,0.651-1.454,1.454-1.454h2.445v-2.445
	c0-0.803,0.651-1.454,1.454-1.454c0.803,0,1.454,0.651,1.454,1.454v2.445h2.445C43.237,35.12,43.889,35.771,43.889,36.575
	L43.889,36.575z M37.366,26.948V17.27c0-0.646,0.523-1.169,1.169-1.169c0.646,0,1.169,0.523,1.169,1.169v9.679
	c0,0.646-0.523,1.169-1.169,1.169C37.89,28.117,37.366,27.594,37.366,26.948z M44.02,26.948c0,0.646-0.523,1.169-1.169,1.169
	c-0.646,0-1.169-0.523-1.169-1.169V17.27c0-0.646,0.523-1.169,1.169-1.169c0.646,0,1.169,0.523,1.169,1.169V26.948z M48.335,26.948
	c0,0.646-0.523,1.169-1.169,1.169c-0.646,0-1.169-0.523-1.169-1.169V17.27c0-0.646,0.523-1.169,1.169-1.169
	c0.646,0,1.169,0.523,1.169,1.169V26.948z M34.905,12.041l0.029-0.07c0.517-1.272,1.488-2.094,2.474-2.094h10.083
	c0.986,0,1.958,0.822,2.474,2.094l0.029,0.07H34.905z M52.65,26.948c0,0.646-0.523,1.169-1.169,1.169s-1.169-0.523-1.169-1.169
	V17.27c0-0.646,0.523-1.169,1.169-1.169s1.169,0.523,1.169,1.169V26.948z M56.966,26.948c0,0.646-0.523,1.169-1.169,1.169
	s-1.169-0.523-1.169-1.169V17.27c0-0.646,0.523-1.169,1.169-1.169s1.169,0.523,1.169,1.169V26.948z M61.281,26.948
	c0,0.646-0.523,1.169-1.169,1.169c-0.646,0-1.169-0.523-1.169-1.169V17.27c0-0.646,0.523-1.169,1.169-1.169
	c0.646,0,1.169,0.523,1.169,1.169V26.948z M65.597,26.948c0,0.646-0.523,1.169-1.169,1.169c-0.646,0-1.169-0.523-1.169-1.169V17.27
	c0-0.646,0.523-1.169,1.169-1.169c0.646,0,1.169,0.523,1.169,1.169V26.948z"/>
<path class="st0" d="M25.896,12.034V9.53c0-0.67-0.176-1.342-0.526-1.853c-0.351-0.512-0.811-0.768-1.272-0.768h-0.989
	c-0.46,0-0.92,0.256-1.272,0.768c-0.351,0.511-0.526,1.182-0.526,1.853v2.504H25.896z"/>
<path class="st0" d="M21.401,51.775c-3.722,0-6.75-3.028-6.75-6.75c0-3.722,3.028-6.75,6.75-6.75s6.75,3.028,6.75,6.75
	C28.15,48.747,25.122,51.775,21.401,51.775z M21.401,41.297c-2.056,0-3.729,1.673-3.729,3.729s1.673,3.729,3.729,3.729
	s3.729-1.673,3.729-3.729S23.457,41.297,21.401,41.297z"/>
<path class="st0" d="M56.34,51.775c-3.722,0-6.75-3.028-6.75-6.75c0-3.722,3.028-6.75,6.75-6.75c3.722,0,6.75,3.028,6.75,6.75
	C63.09,48.747,60.062,51.775,56.34,51.775z M56.34,41.297c-2.056,0-3.729,1.673-3.729,3.729s1.673,3.729,3.729,3.729
	s3.729-1.673,3.729-3.729S58.396,41.297,56.34,41.297z"/>
</svg>
