<?xml version="1.0" encoding="utf-8"?>
<!-- Generator: Adobe Illustrator 25.3.0, SVG Export Plug-In . SVG Version: 6.00 Build 0)  -->
<svg version="1.1" id="Capa_1" xmlns="http://www.w3.org/2000/svg" xmlns:xlink="http://www.w3.org/1999/xlink" x="0px" y="0px"
	 viewBox="0 0 431.55 54.461" style="enable-background:new 0 0 431.55 54.461;" xml:space="preserve">
<style type="text/css">
	.st0{fill:#FFFFFF;}
</style>
<path class="st0" d="M21.423,34.729c0,2.96-1.047,5.479-3.142,7.559c-2.095,2.096-4.622,3.143-7.581,3.143
	c-2.943,0-5.464-1.047-7.559-3.143C1.047,40.209,0,37.689,0,34.729V14.427c0-0.557,0.198-1.033,0.593-1.428
	c0.396-0.381,0.864-0.571,1.406-0.571h0.066c0.542,0,1.011,0.19,1.406,0.571c0.396,0.396,0.594,0.872,0.594,1.428v20.302
	c0,1.832,0.644,3.399,1.934,4.703c1.303,1.289,2.87,1.934,4.701,1.934c1.846,0,3.421-0.645,4.725-1.934
	c1.289-1.304,1.934-2.871,1.934-4.703V14.427c0-0.557,0.197-1.033,0.594-1.428c0.395-0.381,0.863-0.571,1.406-0.571h0.065
	c0.542,0,1.011,0.19,1.406,0.571c0.396,0.396,0.593,0.872,0.593,1.428V34.729z"/>
<path class="st0" d="M36.689,25.501c-0.82,0-1.516,0.286-2.088,0.857c-0.57,0.586-0.856,1.282-0.856,2.088
	c0,1.143,0.542,1.999,1.626,2.57c0.337,0.176,1.604,0.557,3.801,1.143c1.641,0.469,2.842,1.069,3.604,1.802
	c1.084,1.025,1.627,2.513,1.627,4.46c0,1.934-0.682,3.59-2.044,4.967c-1.377,1.361-3.032,2.043-4.966,2.043h-5.734
	c-0.543,0-1.012-0.197-1.406-0.594c-0.396-0.38-0.594-0.849-0.594-1.406v-0.043c0-0.557,0.197-1.033,0.594-1.429
	c0.395-0.396,0.863-0.593,1.406-0.593h5.954c0.82,0,1.517-0.286,2.087-0.857c0.572-0.571,0.857-1.267,0.857-2.088
	c0-1.083-0.542-1.889-1.626-2.416c-0.249-0.117-1.517-0.498-3.802-1.143c-1.625-0.484-2.827-1.1-3.604-1.846
	c-1.084-1.069-1.625-2.594-1.625-4.57c0-1.934,0.681-3.582,2.043-4.944c1.377-1.377,3.032-2.065,4.966-2.065h4.043
	c0.557,0,1.032,0.197,1.429,0.594c0.395,0.395,0.593,0.871,0.593,1.428v0.044c0,0.557-0.198,1.025-0.593,1.406
	c-0.396,0.396-0.872,0.593-1.429,0.593H36.689z"/>
<path class="st0" d="M54.483,12.427c0.542,0,1.011,0.19,1.406,0.571c0.396,0.396,0.593,0.872,0.593,1.428v7.009h3.955
	c0.542,0,1.012,0.197,1.406,0.594c0.396,0.395,0.594,0.871,0.594,1.428v0.044c0,0.557-0.197,1.025-0.594,1.406
	c-0.395,0.396-0.864,0.593-1.406,0.593h-3.955V39.19c0,0.601,0.213,1.113,0.638,1.538s0.944,0.638,1.56,0.638h1.758
	c0.542,0,1.012,0.197,1.406,0.593c0.396,0.396,0.594,0.872,0.594,1.429v0.043c0,0.558-0.197,1.026-0.594,1.406
	c-0.395,0.396-0.864,0.594-1.406,0.594H58.68c-1.729,0-3.207-0.607-4.438-1.824c-1.217-1.23-1.824-2.702-1.824-4.416V14.427
	c0-0.557,0.197-1.033,0.594-1.428c0.395-0.381,0.863-0.571,1.406-0.571H54.483z"/>
<path class="st0" d="M92.25,28.446c0.234,0.498,0.256,1.01,0.066,1.537c-0.191,0.514-0.543,0.887-1.055,1.121
	c-2.052,0.923-4.746,2.139-8.086,3.647c-4.146,1.875-6.834,3.091-8.064,3.647c1.582,2.021,3.662,3.032,6.24,3.032
	c1.714,0,3.267-0.505,4.658-1.517c1.348-0.98,2.292-2.255,2.834-3.822c0.322-0.908,0.967-1.363,1.934-1.363
	c0.688,0,1.238,0.286,1.648,0.857c0.396,0.557,0.476,1.164,0.242,1.824c-0.821,2.373-2.257,4.292-4.307,5.756
	c-2.096,1.51-4.432,2.264-7.01,2.264c-3.311,0-6.138-1.172-8.481-3.516s-3.516-5.171-3.516-8.481s1.172-6.138,3.516-8.481
	s5.171-3.516,8.481-3.516c2.388,0,4.57,0.652,6.548,1.955C89.848,24.667,91.298,26.351,92.25,28.446z M81.352,25.545
	c-2.197,0-4.072,0.776-5.625,2.328c-1.538,1.554-2.307,3.428-2.307,5.625c0,0.396,0.028,0.784,0.088,1.165l13.908-6.284
	C85.834,26.49,83.812,25.545,81.352,25.545z"/>
<path class="st0" d="M122.59,12.427c0.541,0,1.01,0.19,1.406,0.571c0.395,0.396,0.593,0.872,0.593,1.428v19.072
	c-0.015,3.297-1.194,6.109-3.538,8.438c-2.344,2.33-5.163,3.494-8.459,3.494c-3.311,0-6.138-1.172-8.481-3.516
	s-3.516-5.171-3.516-8.481s1.172-6.138,3.516-8.481s5.171-3.516,8.481-3.516c3.018,0,5.661,1.004,7.932,3.01V14.427
	c0-0.557,0.198-1.033,0.594-1.428c0.396-0.381,0.864-0.571,1.406-0.571H122.59z M106.967,27.874
	c-1.538,1.554-2.307,3.428-2.307,5.625c0,2.184,0.769,4.051,2.307,5.604c1.553,1.553,3.428,2.329,5.625,2.329
	s4.064-0.776,5.604-2.329c1.552-1.553,2.328-3.42,2.328-5.604c0-2.197-0.776-4.071-2.328-5.625
	c-1.539-1.552-3.406-2.328-5.604-2.328S108.52,26.322,106.967,27.874z"/>
<path class="st0" d="M172.327,28.446c0.234,0.498,0.256,1.01,0.066,1.537c-0.191,0.514-0.543,0.887-1.055,1.121
	c-2.052,0.923-4.746,2.139-8.086,3.647c-4.146,1.875-6.834,3.091-8.064,3.647c1.582,2.021,3.662,3.032,6.24,3.032
	c1.714,0,3.267-0.505,4.658-1.517c1.348-0.98,2.292-2.255,2.834-3.822c0.322-0.908,0.967-1.363,1.934-1.363
	c0.688,0,1.238,0.286,1.648,0.857c0.396,0.557,0.476,1.164,0.242,1.824c-0.821,2.373-2.257,4.292-4.307,5.756
	c-2.096,1.51-4.432,2.264-7.01,2.264c-3.311,0-6.138-1.172-8.481-3.516s-3.516-5.171-3.516-8.481s1.172-6.138,3.516-8.481
	s5.171-3.516,8.481-3.516c2.388,0,4.57,0.652,6.548,1.955C169.925,24.667,171.375,26.351,172.327,28.446z M161.429,25.545
	c-2.197,0-4.072,0.776-5.625,2.328c-1.538,1.554-2.307,3.428-2.307,5.625c0,0.396,0.028,0.784,0.088,1.165l13.908-6.284
	C165.911,26.49,163.89,25.545,161.429,25.545z"/>
<path class="st0" d="M187.484,25.501c-0.82,0-1.516,0.286-2.088,0.857c-0.57,0.586-0.856,1.282-0.856,2.088
	c0,1.143,0.542,1.999,1.626,2.57c0.337,0.176,1.604,0.557,3.801,1.143c1.641,0.469,2.842,1.069,3.604,1.802
	c1.084,1.025,1.627,2.513,1.627,4.46c0,1.934-0.682,3.59-2.044,4.967c-1.377,1.361-3.032,2.043-4.966,2.043h-5.734
	c-0.543,0-1.012-0.197-1.406-0.594c-0.396-0.38-0.594-0.849-0.594-1.406v-0.043c0-0.557,0.197-1.033,0.594-1.429
	c0.395-0.396,0.863-0.593,1.406-0.593h5.954c0.82,0,1.517-0.286,2.087-0.857c0.572-0.571,0.857-1.267,0.857-2.088
	c0-1.083-0.542-1.889-1.626-2.416c-0.249-0.117-1.517-0.498-3.802-1.143c-1.625-0.484-2.827-1.1-3.604-1.846
	c-1.084-1.069-1.625-2.594-1.625-4.57c0-1.934,0.681-3.582,2.043-4.944c1.377-1.377,3.032-2.065,4.966-2.065h4.043
	c0.557,0,1.032,0.197,1.429,0.594c0.395,0.395,0.593,0.871,0.593,1.428v0.044c0,0.557-0.198,1.025-0.593,1.406
	c-0.396,0.396-0.872,0.593-1.429,0.593H187.484z"/>
<path class="st0" d="M205.277,12.427c0.542,0,1.011,0.19,1.406,0.571c0.396,0.396,0.593,0.872,0.593,1.428v7.009h3.955
	c0.542,0,1.012,0.197,1.406,0.594c0.396,0.395,0.594,0.871,0.594,1.428v0.044c0,0.557-0.197,1.025-0.594,1.406
	c-0.395,0.396-0.864,0.593-1.406,0.593h-3.955V39.19c0,0.601,0.213,1.113,0.638,1.538s0.944,0.638,1.56,0.638h1.758
	c0.542,0,1.012,0.197,1.406,0.593c0.396,0.396,0.594,0.872,0.594,1.429v0.043c0,0.558-0.197,1.026-0.594,1.406
	c-0.395,0.396-0.864,0.594-1.406,0.594h-1.758c-1.729,0-3.207-0.607-4.438-1.824c-1.217-1.23-1.824-2.702-1.824-4.416V14.427
	c0-0.557,0.197-1.033,0.594-1.428c0.395-0.381,0.863-0.571,1.406-0.571H205.277z"/>
<path class="st0" d="M241.286,24.952c2.344,2.344,3.516,5.171,3.516,8.481v9.997c0,0.558-0.197,1.026-0.594,1.406
	c-0.395,0.396-0.864,0.594-1.406,0.594h-0.065c-0.542,0-1.011-0.197-1.406-0.594c-0.396-0.38-0.593-0.849-0.593-1.406v-1.01
	c-2.271,2.007-4.915,3.01-7.933,3.01c-3.311,0-6.138-1.172-8.481-3.516s-3.516-5.171-3.516-8.481s1.172-6.138,3.516-8.481
	s5.171-3.516,8.481-3.516S238.942,22.608,241.286,24.952z M227.18,27.831c-1.538,1.553-2.308,3.42-2.308,5.603
	c0,2.197,0.77,4.072,2.308,5.625c1.553,1.538,3.428,2.308,5.625,2.308s4.065-0.77,5.603-2.308c1.553-1.553,2.33-3.428,2.33-5.625
	c0-2.183-0.777-4.05-2.33-5.603c-1.537-1.553-3.405-2.33-5.603-2.33S228.732,26.278,227.18,27.831z M233.024,19.92
	c-0.234,0.22-0.461,0.33-0.682,0.33h-1.691c-0.352,0-0.601-0.154-0.747-0.461c-0.146-0.293-0.117-0.586,0.088-0.879l3.867-5.515
	c0.146-0.22,0.366-0.33,0.659-0.33h3.384c0.352,0,0.601,0.161,0.747,0.483c0.19,0.352,0.168,0.645-0.066,0.879L233.024,19.92z"/>
<path class="st0" d="M290.781,24.952c2.344,2.344,3.516,5.171,3.516,8.481v9.997c0,0.558-0.197,1.026-0.594,1.406
	c-0.395,0.396-0.864,0.594-1.406,0.594h-0.065c-0.542,0-1.011-0.197-1.406-0.594c-0.396-0.38-0.593-0.849-0.593-1.406v-1.01
	c-2.271,2.007-4.915,3.01-7.933,3.01c-3.311,0-6.138-1.172-8.481-3.516s-3.516-5.171-3.516-8.481s1.172-6.138,3.516-8.481
	s5.171-3.516,8.481-3.516S288.438,22.608,290.781,24.952z M276.675,27.831c-1.538,1.553-2.308,3.42-2.308,5.603
	c0,2.197,0.77,4.072,2.308,5.625c1.553,1.538,3.428,2.308,5.625,2.308s4.065-0.77,5.603-2.308c1.553-1.553,2.33-3.428,2.33-5.625
	c0-2.183-0.777-4.05-2.33-5.603c-1.537-1.553-3.405-2.33-5.603-2.33S278.228,26.278,276.675,27.831z"/>
<path class="st0" d="M324.461,54.461c-0.542,0-1.011-0.198-1.406-0.594s-0.594-0.864-0.594-1.406V42.42
	c-2.271,2.007-4.914,3.01-7.932,3.01c-3.311,0-6.138-1.172-8.481-3.516s-3.516-5.171-3.516-8.481s1.172-6.138,3.516-8.481
	s5.171-3.516,8.481-3.516c3.296,0,6.115,1.164,8.459,3.494c2.344,2.344,3.523,5.163,3.538,8.459v19.072
	c0,0.542-0.198,1.011-0.593,1.406c-0.396,0.396-0.865,0.594-1.406,0.594H324.461z M314.529,41.321c2.197,0,4.064-0.775,5.604-2.328
	c1.552-1.553,2.328-3.421,2.328-5.604c0-2.197-0.776-4.072-2.328-5.625c-1.539-1.538-3.406-2.307-5.604-2.307
	s-4.072,0.769-5.625,2.307c-1.538,1.553-2.307,3.428-2.307,5.625c0,2.183,0.769,4.051,2.307,5.604
	C310.457,40.545,312.332,41.321,314.529,41.321z"/>
<path class="st0" d="M339.486,35.477c0,1.625,0.572,3.018,1.715,4.174c1.156,1.143,2.556,1.715,4.196,1.715
	c1.626,0,3.018-0.572,4.175-1.715c1.143-1.156,1.714-2.549,1.714-4.174v-12.02c0-0.557,0.198-1.033,0.593-1.428
	c0.396-0.396,0.872-0.594,1.429-0.594h0.044c0.557,0,1.025,0.197,1.406,0.594c0.396,0.395,0.594,0.871,0.594,1.428v12.02
	c0,2.739-0.975,5.083-2.923,7.031s-4.292,2.922-7.031,2.922c-2.754,0-5.105-0.974-7.054-2.922s-2.922-4.292-2.922-7.031v-12.02
	c0-0.557,0.197-1.033,0.594-1.428c0.395-0.396,0.863-0.594,1.406-0.594h0.065c0.542,0,1.011,0.197,1.406,0.594
	c0.396,0.395,0.593,0.871,0.593,1.428V35.477z"/>
<path class="st0" d="M367.321,19.92c-0.234,0.22-0.461,0.33-0.682,0.33h-1.691c-0.352,0-0.601-0.154-0.747-0.461
	c-0.146-0.293-0.117-0.586,0.088-0.879l3.867-5.515c0.146-0.22,0.366-0.33,0.659-0.33h3.384c0.352,0,0.601,0.161,0.747,0.483
	c0.19,0.352,0.168,0.645-0.066,0.879L367.321,19.92z M367.124,21.436c0.556,0,1.024,0.197,1.406,0.594
	c0.395,0.395,0.593,0.871,0.593,1.428V43.43c0,0.558-0.198,1.026-0.593,1.406c-0.382,0.396-0.851,0.594-1.406,0.594h-0.045
	c-0.557,0-1.032-0.197-1.428-0.594c-0.396-0.38-0.594-0.849-0.594-1.406V23.458c0-0.557,0.198-1.033,0.594-1.428
	c0.396-0.396,0.871-0.594,1.428-0.594H367.124z"/>
<path class="st0" d="M431.55,19.271C431.55,8.628,422.922,0,412.28,0c-10.643,0-19.271,8.628-19.271,19.271
	c0,5.671,2.465,10.754,6.363,14.28h-0.033c0,0,10.469,9.049,11.802,15.1h0.03c0.076,0.625,0.533,1.115,1.108,1.115
	c0.575,0,1.031-0.489,1.108-1.115h0.03c1.332-6.05,11.802-15.1,11.802-15.1h-0.033C429.086,30.024,431.55,24.942,431.55,19.271z
	 M414.029,36.014c-0.516,0.515-1.15,0.778-1.88,0.778c-0.744,0-1.385-0.264-1.906-0.783c-0.52-0.52-0.783-1.161-0.783-1.906
	c0-0.731,0.264-1.366,0.783-1.886c0.519-0.52,1.16-0.783,1.906-0.783c0.731,0,1.366,0.264,1.886,0.783
	c0.531,0.515,0.803,1.151,0.803,1.886C414.838,34.85,414.566,35.493,414.029,36.014z M419.502,21.462
	c-1.273,1.588-2.968,2.67-5.042,3.22v2.674c0,0.595-0.221,1.126-0.657,1.58c-0.447,0.447-0.988,0.671-1.614,0.671
	c-0.686,0-1.227-0.224-1.667-0.664c-0.442-0.46-0.663-1.005-0.663-1.627v-4.677c0-0.625,0.223-1.166,0.663-1.607
	c0.437-0.437,0.966-0.667,1.574-0.684h0.114c1.333,0,2.435-0.453,3.368-1.386c0.946-0.946,1.406-2.055,1.406-3.388
	c0-1.334-0.46-2.442-1.406-3.389c-0.933-0.933-2.035-1.386-3.368-1.386c-1.079,0-2.015,0.312-2.862,0.953
	c-0.839,0.633-1.4,1.424-1.716,2.419c-0.132,0.481-0.412,0.881-0.825,1.173c-0.382,0.283-0.837,0.43-1.343,0.43
	c-0.809,0-1.443-0.317-1.892-0.917c-0.445-0.615-0.557-1.292-0.337-2.017c0.586-1.938,1.71-3.544,3.342-4.772
	c1.661-1.242,3.556-1.871,5.634-1.871c2.579,0,4.813,0.919,6.641,2.732l0.003,0.003c1.813,1.828,2.732,4.062,2.732,6.641
	C421.584,17.778,420.884,19.759,419.502,21.462z"/>
</svg>
