<?xml version="1.0" encoding="utf-8"?>
<!-- Generator: Adobe Illustrator 25.3.0, SVG Export Plug-In . SVG Version: 6.00 Build 0)  -->
<svg version="1.1" id="Capa_1" xmlns="http://www.w3.org/2000/svg" xmlns:xlink="http://www.w3.org/1999/xlink" x="0px" y="0px"
	 viewBox="0 0 227.049 48.282" style="enable-background:new 0 0 227.049 48.282;" xml:space="preserve">
<style type="text/css">
	.st0{fill:#FFFFFF;}
</style>
<path class="st0" d="M58.202,29.037v6.391c0,0.396-0.141,0.729-0.422,1c-0.281,0.281-0.615,0.422-1,0.422h-0.047
	c-0.386,0-0.719-0.141-1-0.422c-0.281-0.271-0.422-0.604-0.422-1V21.209c0-2.166,0.766-4.016,2.297-5.547
	c1.531-1.521,3.375-2.281,5.531-2.281c2.167,0,4.01,0.761,5.531,2.281c1.531,1.531,2.297,3.381,2.297,5.547
	c0,2.156-0.766,4-2.297,5.531c-1.521,1.531-3.365,2.297-5.531,2.297H58.202z M58.202,26.146h4.938c1.364,0,2.531-0.484,3.5-1.453
	c0.958-0.958,1.438-2.119,1.438-3.484c0-1.364-0.479-2.531-1.438-3.5c-0.969-0.969-2.136-1.453-3.5-1.453
	c-1.365,0-2.531,0.484-3.5,1.453c-0.958,0.969-1.438,2.136-1.438,3.5V26.146z"/>
<path class="st0" d="M92.637,24.771c0.167,0.354,0.182,0.719,0.047,1.094c-0.136,0.365-0.386,0.631-0.75,0.797
	c-1.458,0.656-3.375,1.521-5.75,2.594c-2.948,1.334-4.859,2.198-5.734,2.594c1.125,1.438,2.604,2.156,4.438,2.156
	c1.219,0,2.323-0.359,3.312-1.078c0.958-0.697,1.63-1.604,2.016-2.719c0.229-0.646,0.688-0.969,1.375-0.969
	c0.489,0,0.88,0.203,1.172,0.609c0.281,0.396,0.338,0.828,0.172,1.297c-0.583,1.688-1.604,3.053-3.062,4.094
	c-1.49,1.073-3.151,1.609-4.984,1.609c-2.354,0-4.365-0.833-6.031-2.5c-1.667-1.666-2.5-3.677-2.5-6.031
	c0-2.354,0.833-4.364,2.5-6.031c1.667-1.666,3.677-2.5,6.031-2.5c1.698,0,3.25,0.464,4.656,1.391
	C90.928,22.084,91.96,23.282,92.637,24.771z M84.887,22.709c-1.562,0-2.896,0.553-4,1.656c-1.094,1.104-1.641,2.438-1.641,4
	c0,0.281,0.021,0.558,0.062,0.828l9.891-4.469C88.074,23.381,86.637,22.709,84.887,22.709z"/>
<path class="st0" d="M100.508,13.381c0.385,0,0.719,0.136,1,0.406c0.281,0.281,0.422,0.62,0.422,1.016v4.984h2.812
	c0.385,0,0.719,0.141,1,0.422s0.422,0.62,0.422,1.016v0.031c0,0.396-0.141,0.729-0.422,1c-0.281,0.281-0.615,0.422-1,0.422h-2.812
	v9.734c0,0.428,0.151,0.792,0.453,1.094c0.302,0.303,0.672,0.453,1.109,0.453h1.25c0.385,0,0.719,0.141,1,0.422
	s0.422,0.62,0.422,1.016v0.031c0,0.396-0.141,0.729-0.422,1c-0.281,0.281-0.615,0.422-1,0.422h-1.25
	c-1.229,0-2.281-0.432-3.156-1.297c-0.865-0.875-1.297-1.922-1.297-3.141V14.803c0-0.396,0.141-0.734,0.422-1.016
	c0.281-0.271,0.614-0.406,1-0.406H100.508z"/>
<path class="st0" d="M114.443,35.428c0,0.396-0.141,0.729-0.422,1c-0.281,0.281-0.615,0.422-1,0.422h-0.047
	c-0.386,0-0.719-0.141-1-0.422c-0.281-0.271-0.422-0.604-0.422-1v-8.547c0-1.958,0.692-3.63,2.078-5.016
	c1.385-1.385,3.057-2.078,5.016-2.078c1.948,0,3.614,0.693,5,2.078c1.385,1.386,2.078,3.058,2.078,5.016v8.547
	c0,0.396-0.141,0.729-0.422,1c-0.271,0.281-0.604,0.422-1,0.422h-0.031c-0.396,0-0.734-0.141-1.016-0.422
	c-0.281-0.271-0.422-0.604-0.422-1v-8.547c0-1.156-0.406-2.146-1.219-2.969c-0.823-0.822-1.812-1.234-2.969-1.234
	c-1.167,0-2.162,0.412-2.984,1.234c-0.812,0.823-1.219,1.812-1.219,2.969V35.428z"/>
<path class="st0" d="M140.111,19.787c2.354,0,4.364,0.834,6.031,2.5c1.667,1.667,2.5,3.678,2.5,6.031c0,2.354-0.833,4.365-2.5,6.031
	c-1.667,1.667-3.677,2.5-6.031,2.5c-2.354,0-4.365-0.833-6.031-2.5c-1.667-1.666-2.5-3.677-2.5-6.031c0-2.354,0.833-4.364,2.5-6.031
	C135.747,20.621,137.757,19.787,140.111,19.787z M140.111,22.709c-1.562,0-2.896,0.553-4,1.656c-1.094,1.104-1.641,2.438-1.641,4
	c0,1.553,0.547,2.881,1.641,3.984c1.104,1.104,2.438,1.656,4,1.656s2.891-0.552,3.984-1.656c1.104-1.104,1.656-2.432,1.656-3.984
	c0-1.562-0.552-2.896-1.656-4C143.002,23.262,141.674,22.709,140.111,22.709z M144.221,14.803c0.167-0.166,0.182-0.375,0.047-0.625
	c-0.104-0.229-0.281-0.344-0.531-0.344h-2.406c-0.208,0-0.365,0.078-0.469,0.234l-2.75,3.922c-0.146,0.209-0.167,0.417-0.062,0.625
	c0.104,0.219,0.281,0.328,0.531,0.328h1.203c0.156,0,0.317-0.078,0.484-0.234L144.221,14.803z"/>
<path class="st0" d="M158.874,22.678c-0.583,0-1.078,0.203-1.484,0.609c-0.406,0.417-0.609,0.912-0.609,1.484
	c0,0.812,0.385,1.422,1.156,1.828c0.239,0.125,1.141,0.396,2.703,0.812c1.167,0.334,2.021,0.761,2.562,1.281
	c0.771,0.729,1.156,1.787,1.156,3.172c0,1.375-0.484,2.553-1.453,3.531c-0.979,0.969-2.156,1.453-3.531,1.453h-4.078
	c-0.386,0-0.719-0.141-1-0.422c-0.281-0.271-0.422-0.604-0.422-1v-0.031c0-0.396,0.141-0.734,0.422-1.016s0.614-0.422,1-0.422h4.234
	c0.583,0,1.078-0.203,1.484-0.609s0.609-0.9,0.609-1.484c0-0.771-0.386-1.344-1.156-1.719c-0.177-0.083-1.078-0.354-2.703-0.812
	c-1.156-0.344-2.011-0.781-2.562-1.312c-0.771-0.76-1.156-1.844-1.156-3.25c0-1.375,0.484-2.547,1.453-3.516
	c0.979-0.979,2.156-1.469,3.531-1.469h2.875c0.396,0,0.734,0.141,1.016,0.422s0.422,0.62,0.422,1.016v0.031
	c0,0.396-0.141,0.729-0.422,1c-0.281,0.281-0.62,0.422-1.016,0.422H158.874z"/>
<path class="st0" d="M171.528,13.381c0.385,0,0.719,0.136,1,0.406c0.281,0.281,0.422,0.62,0.422,1.016v4.984h2.812
	c0.385,0,0.719,0.141,1,0.422s0.422,0.62,0.422,1.016v0.031c0,0.396-0.141,0.729-0.422,1c-0.281,0.281-0.615,0.422-1,0.422h-2.812
	v9.734c0,0.428,0.151,0.792,0.453,1.094c0.302,0.303,0.672,0.453,1.109,0.453h1.25c0.385,0,0.719,0.141,1,0.422
	s0.422,0.62,0.422,1.016v0.031c0,0.396-0.141,0.729-0.422,1c-0.281,0.281-0.615,0.422-1,0.422h-1.25
	c-1.229,0-2.281-0.432-3.156-1.297c-0.865-0.875-1.297-1.922-1.297-3.141V14.803c0-0.396,0.141-0.734,0.422-1.016
	c0.281-0.271,0.614-0.406,1-0.406H171.528z"/>
<path class="st0" d="M184.602,16.818c-0.479,0-0.885-0.166-1.219-0.5c-0.333-0.333-0.5-0.739-0.5-1.219
	c0-0.469,0.167-0.869,0.5-1.203c0.334-0.333,0.74-0.5,1.219-0.5c0.469,0,0.87,0.167,1.203,0.5c0.344,0.334,0.516,0.734,0.516,1.203
	c0,0.479-0.172,0.886-0.516,1.219C185.472,16.652,185.07,16.818,184.602,16.818z M184.617,19.787c0.396,0,0.729,0.141,1,0.422
	c0.281,0.281,0.422,0.62,0.422,1.016v14.203c0,0.396-0.141,0.729-0.422,1c-0.271,0.281-0.604,0.422-1,0.422h-0.031
	c-0.396,0-0.734-0.141-1.016-0.422c-0.281-0.271-0.422-0.604-0.422-1V21.224c0-0.396,0.141-0.734,0.422-1.016
	s0.62-0.422,1.016-0.422H184.617z"/>
<path class="st0" d="M203.6,20.193c0.666,0.209,1,0.662,1,1.359v0.078c0,0.479-0.193,0.859-0.578,1.141
	c-0.396,0.292-0.824,0.365-1.281,0.219c-0.553-0.188-1.125-0.281-1.719-0.281c-1.562,0-2.896,0.553-4,1.656
	c-1.094,1.104-1.641,2.438-1.641,4c0,1.553,0.547,2.881,1.641,3.984c1.104,1.104,2.438,1.656,4,1.656
	c0.594,0,1.166-0.088,1.719-0.266c0.457-0.146,0.885-0.078,1.281,0.203c0.385,0.281,0.578,0.667,0.578,1.156
	c0,0.688-0.334,1.141-1,1.359c-0.834,0.261-1.693,0.391-2.578,0.391c-2.355,0-4.365-0.833-6.031-2.5
	c-1.668-1.666-2.5-3.677-2.5-6.031c0-2.354,0.832-4.364,2.5-6.031c1.666-1.666,3.676-2.5,6.031-2.5
	C201.906,19.787,202.766,19.923,203.6,20.193z"/>
<path class="st0" d="M218.518,19.787c2.354,0,4.364,0.834,6.031,2.5c1.666,1.667,2.5,3.678,2.5,6.031c0,2.354-0.834,4.365-2.5,6.031
	c-1.667,1.667-3.678,2.5-6.031,2.5c-2.354,0-4.365-0.833-6.031-2.5c-1.667-1.666-2.5-3.677-2.5-6.031c0-2.354,0.833-4.364,2.5-6.031
	C214.153,20.621,216.163,19.787,218.518,19.787z M218.518,22.709c-1.562,0-2.896,0.553-4,1.656c-1.094,1.104-1.641,2.438-1.641,4
	c0,1.553,0.547,2.881,1.641,3.984c1.104,1.104,2.438,1.656,4,1.656s2.891-0.552,3.984-1.656c1.104-1.104,1.656-2.432,1.656-3.984
	c0-1.562-0.553-2.896-1.656-4C221.408,23.262,220.08,22.709,218.518,22.709z"/>
<path class="st0" d="M35.035,2.24h-8.2V0.635c0-0.35-0.284-0.635-0.635-0.635H9.538c-0.35,0-0.635,0.284-0.635,0.635V2.24H0.635
	C0.284,2.24,0,2.524,0,2.874v44.774c0,0.35,0.284,0.635,0.635,0.635h34.401c0.35,0,0.635-0.284,0.635-0.635V2.874
	C35.67,2.524,35.386,2.24,35.035,2.24z M10.173,1.269h15.394v1.605v1.605H10.173V2.874V1.269z M34.401,47.013H1.269V3.509h7.634
	v1.605c0,0.35,0.284,0.635,0.635,0.635h16.663c0.35,0,0.635-0.284,0.635-0.635V3.509h7.565V47.013z"/>
<path class="st0" d="M30.069,35.336H5.613c-0.35,0-0.635,0.284-0.635,0.635v7.928c0,0.35,0.284,0.635,0.635,0.635h24.457
	c0.35,0,0.635-0.284,0.635-0.635V35.97C30.704,35.62,30.42,35.336,30.069,35.336z M29.435,43.264H6.247v-6.659h23.188V43.264z"/>
<path class="st0" d="M5.347,8.915c0,0.357,0.29,0.647,0.647,0.647h23.929c0.357,0,0.647-0.29,0.647-0.647s-0.29-0.647-0.647-0.647
	H5.994C5.637,8.268,5.347,8.558,5.347,8.915z"/>
<path class="st0" d="M10.809,15.007h18.903c0.35,0,0.635-0.284,0.635-0.635s-0.284-0.635-0.635-0.635H10.809
	c-0.35,0-0.635,0.284-0.635,0.635S10.458,15.007,10.809,15.007z"/>
<path class="st0" d="M10.809,19.238h18.903c0.35,0,0.635-0.284,0.635-0.635c0-0.35-0.284-0.635-0.635-0.635H10.809
	c-0.35,0-0.635,0.284-0.635,0.635C10.174,18.953,10.458,19.238,10.809,19.238z"/>
<path class="st0" d="M10.809,23.468h18.903c0.35,0,0.635-0.284,0.635-0.635c0-0.35-0.284-0.635-0.635-0.635H10.809
	c-0.35,0-0.635,0.284-0.635,0.635C10.174,23.184,10.458,23.468,10.809,23.468z"/>
<path class="st0" d="M10.809,27.698h18.903c0.35,0,0.635-0.284,0.635-0.635s-0.284-0.635-0.635-0.635H10.809
	c-0.35,0-0.635,0.284-0.635,0.635S10.458,27.698,10.809,27.698z"/>
<path class="st0" d="M10.809,31.929h18.903c0.35,0,0.635-0.284,0.635-0.635c0-0.35-0.284-0.635-0.635-0.635H10.809
	c-0.35,0-0.635,0.284-0.635,0.635C10.174,31.645,10.458,31.929,10.809,31.929z"/>
<circle class="st0" cx="7.106" cy="14.279" r="1.405"/>
<circle class="st0" cx="7.106" cy="18.51" r="1.405"/>
<circle class="st0" cx="7.106" cy="22.74" r="1.405"/>
<circle class="st0" cx="7.106" cy="26.971" r="1.405"/>
<circle class="st0" cx="7.106" cy="31.201" r="1.405"/>
</svg>
