<?xml version="1.0" encoding="utf-8"?>
<!-- Generator: Adobe Illustrator 25.3.0, SVG Export Plug-In . SVG Version: 6.00 Build 0)  -->
<svg version="1.1" id="Capa_1" xmlns="http://www.w3.org/2000/svg" xmlns:xlink="http://www.w3.org/1999/xlink" x="0px" y="0px"
	 viewBox="0 0 244.596 75.393" style="enable-background:new 0 0 244.596 75.393;" xml:space="preserve">
<style type="text/css">
	.st0{fill:#FFFFFF;}
</style>
<path class="st0" d="M76.608,70.805l0.044-0.088l5.317-17.373c0.205-0.596,0.625-0.895,1.26-0.895h0.103
	c0.459,0,0.82,0.186,1.084,0.557c0.273,0.371,0.332,0.777,0.176,1.217l-6.006,18.809c-0.371,0.947-1.064,1.42-2.08,1.42
	s-1.714-0.473-2.095-1.42l-5.991-18.809c-0.156-0.439-0.103-0.846,0.161-1.217c0.273-0.371,0.64-0.557,1.099-0.557h0.103
	c0.635,0,1.055,0.299,1.26,0.895l5.317,17.373l0.044,0.088c0.029,0.059,0.063,0.088,0.103,0.088
	C76.544,70.893,76.578,70.863,76.608,70.805z"/>
<path class="st0" d="M104.261,63.129c0.156,0.332,0.171,0.674,0.044,1.025c-0.127,0.342-0.361,0.59-0.703,0.746
	c-1.367,0.615-3.164,1.426-5.391,2.432c-2.764,1.25-4.556,2.061-5.376,2.432c1.055,1.348,2.441,2.021,4.16,2.021
	c1.143,0,2.178-0.336,3.105-1.01c0.898-0.654,1.528-1.504,1.89-2.549c0.215-0.605,0.645-0.908,1.289-0.908
	c0.459,0,0.825,0.189,1.099,0.57c0.264,0.371,0.317,0.777,0.161,1.217c-0.547,1.582-1.504,2.861-2.871,3.838
	c-1.396,1.006-2.954,1.508-4.673,1.508c-2.207,0-4.092-0.781-5.654-2.344c-1.562-1.562-2.344-3.447-2.344-5.654
	s0.781-4.092,2.344-5.654c1.563-1.562,3.447-2.344,5.654-2.344c1.592,0,3.047,0.436,4.365,1.305
	C102.66,60.609,103.626,61.732,104.261,63.129z M96.995,61.195c-1.465,0-2.715,0.518-3.75,1.553
	c-1.025,1.035-1.538,2.285-1.538,3.75c0,0.264,0.02,0.521,0.059,0.775l9.272-4.189C99.984,61.824,98.636,61.195,96.995,61.195z"/>
<path class="st0" d="M111.641,52.449c0.361,0,0.674,0.127,0.938,0.381c0.264,0.264,0.396,0.582,0.396,0.953v4.672h2.637
	c0.361,0,0.674,0.133,0.938,0.396s0.396,0.58,0.396,0.951v0.029c0,0.371-0.132,0.684-0.396,0.938
	c-0.264,0.264-0.576,0.396-0.938,0.396h-2.637v9.125c0,0.4,0.142,0.742,0.425,1.025s0.63,0.426,1.04,0.426h1.172
	c0.361,0,0.674,0.131,0.938,0.395s0.396,0.582,0.396,0.953v0.029c0,0.371-0.132,0.684-0.396,0.938
	c-0.264,0.264-0.576,0.395-0.938,0.395h-1.172c-1.152,0-2.139-0.404-2.959-1.215c-0.811-0.82-1.216-1.803-1.216-2.945V53.783
	c0-0.371,0.132-0.689,0.396-0.953c0.264-0.254,0.576-0.381,0.938-0.381H111.641z"/>
<path class="st0" d="M136.819,63.129c0.156,0.332,0.171,0.674,0.044,1.025c-0.127,0.342-0.361,0.59-0.703,0.746
	c-1.367,0.615-3.164,1.426-5.391,2.432c-2.764,1.25-4.556,2.061-5.376,2.432c1.055,1.348,2.441,2.021,4.16,2.021
	c1.143,0,2.178-0.336,3.105-1.01c0.898-0.654,1.528-1.504,1.89-2.549c0.215-0.605,0.645-0.908,1.289-0.908
	c0.459,0,0.825,0.189,1.099,0.57c0.264,0.371,0.317,0.777,0.161,1.217c-0.547,1.582-1.504,2.861-2.871,3.838
	c-1.396,1.006-2.954,1.508-4.673,1.508c-2.207,0-4.092-0.781-5.654-2.344s-2.344-3.447-2.344-5.654s0.781-4.092,2.344-5.654
	s3.447-2.344,5.654-2.344c1.592,0,3.047,0.436,4.365,1.305C135.217,60.609,136.184,61.732,136.819,63.129z M129.553,61.195
	c-1.465,0-2.715,0.518-3.75,1.553c-1.025,1.035-1.538,2.285-1.538,3.75c0,0.264,0.02,0.521,0.059,0.775l9.272-4.189
	C132.541,61.824,131.194,61.195,129.553,61.195z"/>
<path class="st0" d="M149.677,58.455c0.371,0,0.688,0.133,0.952,0.396c0.254,0.264,0.381,0.58,0.381,0.951v0.029
	c0,0.371-0.127,0.684-0.381,0.938c-0.264,0.264-0.581,0.396-0.952,0.396h-0.835c-0.918,0-1.699,0.322-2.344,0.967
	c-0.635,0.645-0.957,1.426-0.967,2.344v8.643c0,0.371-0.132,0.684-0.396,0.938c-0.264,0.264-0.576,0.395-0.938,0.395h-0.044
	c-0.361,0-0.674-0.131-0.938-0.395c-0.264-0.254-0.396-0.566-0.396-0.938v-8.643c0.02-1.67,0.605-3.092,1.758-4.264
	c1.172-1.172,2.593-1.758,4.263-1.758H149.677z"/>
<path class="st0" d="M157.526,55.672c-0.449,0-0.83-0.156-1.143-0.469s-0.469-0.693-0.469-1.143c0-0.439,0.156-0.814,0.469-1.127
	s0.693-0.469,1.143-0.469c0.439,0,0.815,0.156,1.128,0.469c0.322,0.312,0.483,0.688,0.483,1.127c0,0.449-0.161,0.83-0.483,1.143
	C158.341,55.516,157.965,55.672,157.526,55.672z M157.54,58.455c0.371,0,0.684,0.133,0.938,0.396
	c0.264,0.264,0.396,0.58,0.396,0.951v13.316c0,0.371-0.132,0.684-0.396,0.938c-0.254,0.264-0.566,0.395-0.938,0.395h-0.029
	c-0.371,0-0.688-0.131-0.952-0.395c-0.264-0.254-0.396-0.566-0.396-0.938V59.803c0-0.371,0.132-0.688,0.396-0.951
	s0.581-0.396,0.952-0.396H157.54z"/>
<path class="st0" d="M168.07,73.119c0,0.371-0.132,0.684-0.396,0.938c-0.264,0.264-0.576,0.395-0.938,0.395h-0.044
	c-0.361,0-0.674-0.131-0.938-0.395c-0.264-0.254-0.396-0.566-0.396-0.938v-8.014c0-1.836,0.649-3.402,1.948-4.701
	s2.866-1.949,4.702-1.949c1.826,0,3.389,0.65,4.688,1.949s1.948,2.865,1.948,4.701v8.014c0,0.371-0.132,0.684-0.396,0.938
	c-0.254,0.264-0.566,0.395-0.938,0.395h-0.029c-0.371,0-0.688-0.131-0.952-0.395c-0.264-0.254-0.396-0.566-0.396-0.938v-8.014
	c0-1.084-0.381-2.012-1.143-2.783c-0.771-0.771-1.699-1.156-2.783-1.156c-1.094,0-2.026,0.385-2.798,1.156
	c-0.762,0.771-1.143,1.699-1.143,2.783V73.119z"/>
<path class="st0" d="M198.228,60.799c1.562,1.562,2.344,3.447,2.344,5.654v6.666c0,0.371-0.132,0.684-0.396,0.938
	c-0.264,0.264-0.576,0.395-0.938,0.395h-0.044c-0.361,0-0.674-0.131-0.938-0.395c-0.264-0.254-0.396-0.566-0.396-0.938v-0.674
	c-1.514,1.338-3.276,2.006-5.288,2.006c-2.207,0-4.092-0.781-5.654-2.344s-2.344-3.447-2.344-5.654s0.781-4.092,2.344-5.654
	s3.447-2.344,5.654-2.344S196.665,59.236,198.228,60.799z M188.824,62.719c-1.025,1.035-1.538,2.279-1.538,3.734
	c0,1.465,0.513,2.715,1.538,3.75c1.035,1.025,2.285,1.539,3.75,1.539s2.71-0.514,3.735-1.539c1.035-1.035,1.553-2.285,1.553-3.75
	c0-1.455-0.518-2.699-1.553-3.734c-1.025-1.035-2.271-1.553-3.735-1.553S189.859,61.684,188.824,62.719z"/>
<path class="st0" d="M213.357,58.455c0.371,0,0.688,0.133,0.952,0.396c0.254,0.264,0.381,0.58,0.381,0.951v0.029
	c0,0.371-0.127,0.684-0.381,0.938c-0.264,0.264-0.581,0.396-0.952,0.396h-0.835c-0.918,0-1.699,0.322-2.344,0.967
	c-0.635,0.645-0.957,1.426-0.967,2.344v8.643c0,0.371-0.132,0.684-0.396,0.938c-0.264,0.264-0.576,0.395-0.938,0.395h-0.044
	c-0.361,0-0.674-0.131-0.938-0.395c-0.264-0.254-0.396-0.566-0.396-0.938v-8.643c0.02-1.67,0.605-3.092,1.758-4.264
	c1.172-1.172,2.593-1.758,4.263-1.758H213.357z"/>
<path class="st0" d="M221.205,55.672c-0.449,0-0.83-0.156-1.143-0.469s-0.469-0.693-0.469-1.143c0-0.439,0.156-0.814,0.469-1.127
	s0.693-0.469,1.143-0.469c0.439,0,0.815,0.156,1.128,0.469c0.322,0.312,0.483,0.688,0.483,1.127c0,0.449-0.161,0.83-0.483,1.143
	C222.021,55.516,221.645,55.672,221.205,55.672z M221.22,58.455c0.371,0,0.684,0.133,0.938,0.396
	c0.264,0.264,0.396,0.58,0.396,0.951v13.316c0,0.371-0.132,0.684-0.396,0.938c-0.254,0.264-0.566,0.395-0.938,0.395h-0.029
	c-0.371,0-0.688-0.131-0.952-0.395c-0.264-0.254-0.396-0.566-0.396-0.938V59.803c0-0.371,0.132-0.688,0.396-0.951
	s0.581-0.396,0.952-0.396H221.22z"/>
<path class="st0" d="M236.598,58.455c2.207,0,4.092,0.781,5.654,2.344s2.344,3.447,2.344,5.654s-0.781,4.092-2.344,5.654
	s-3.447,2.344-5.654,2.344s-4.092-0.781-5.654-2.344s-2.344-3.447-2.344-5.654s0.781-4.092,2.344-5.654
	S234.391,58.455,236.598,58.455z M236.598,61.195c-1.465,0-2.715,0.518-3.75,1.553c-1.025,1.035-1.538,2.285-1.538,3.75
	c0,1.455,0.513,2.699,1.538,3.734c1.035,1.035,2.285,1.553,3.75,1.553s2.71-0.518,3.735-1.553c1.035-1.035,1.553-2.279,1.553-3.734
	c0-1.465-0.518-2.715-1.553-3.75C239.308,61.713,238.063,61.195,236.598,61.195z"/>
<path class="st0" d="M5.466,28.867v2.581c0,4.344,3.534,7.879,7.879,7.879h13.876c4.344,0,7.879-3.534,7.879-7.879v-2.581
	c2.782-0.451,4.913-2.87,4.913-5.777s-2.131-5.326-4.913-5.777V7.879C35.1,3.534,31.565,0,27.221,0H13.345
	C9.001,0,5.466,3.534,5.466,7.879v9.434c-2.782,0.451-4.913,2.87-4.913,5.777S2.684,28.416,5.466,28.867z M33.219,31.448
	c0,3.307-2.69,5.997-5.997,5.997H13.345c-3.307,0-5.997-2.69-5.997-5.997v-2.504V17.572c0-3.307,2.69-5.997,5.997-5.997h13.876
	c3.307,0,5.997,2.69,5.997,5.997v11.372V31.448z M38.132,23.09c0,1.867-1.294,3.436-3.032,3.86v-7.72
	C36.838,19.654,38.132,21.223,38.132,23.09z M7.347,7.879c0-3.307,2.69-5.998,5.997-5.998h13.876c3.307,0,5.997,2.69,5.997,5.998
	v4.59c-0.024-0.028-0.049-0.054-0.073-0.081c-0.051-0.059-0.103-0.117-0.156-0.174c-0.039-0.041-0.078-0.082-0.117-0.123
	c-0.054-0.055-0.108-0.11-0.164-0.164c-0.041-0.039-0.081-0.079-0.123-0.117c-0.057-0.053-0.115-0.105-0.174-0.156
	c-0.042-0.037-0.084-0.074-0.126-0.109c-0.061-0.052-0.124-0.102-0.187-0.151c-0.042-0.033-0.083-0.067-0.126-0.099
	c-0.068-0.052-0.138-0.101-0.208-0.151c-0.039-0.028-0.077-0.056-0.117-0.083c-0.086-0.059-0.175-0.115-0.263-0.171
	c-0.025-0.015-0.048-0.032-0.073-0.047c-0.114-0.07-0.231-0.137-0.349-0.201c-0.029-0.016-0.06-0.03-0.09-0.046
	c-0.089-0.047-0.179-0.093-0.27-0.136c-0.044-0.021-0.09-0.041-0.135-0.061c-0.078-0.035-0.156-0.071-0.235-0.103
	c-0.05-0.021-0.101-0.04-0.152-0.06c-0.076-0.03-0.151-0.059-0.228-0.086c-0.054-0.019-0.108-0.037-0.162-0.055
	c-0.076-0.025-0.151-0.049-0.228-0.072c-0.056-0.017-0.112-0.032-0.168-0.048c-0.077-0.021-0.154-0.041-0.232-0.059
	c-0.057-0.014-0.113-0.027-0.171-0.039c-0.079-0.017-0.159-0.033-0.239-0.047c-0.057-0.01-0.113-0.021-0.17-0.03
	c-0.083-0.014-0.168-0.025-0.252-0.036c-0.054-0.007-0.109-0.015-0.163-0.021c-0.093-0.01-0.188-0.017-0.282-0.024
	c-0.046-0.003-0.093-0.008-0.139-0.011c-0.141-0.008-0.284-0.012-0.427-0.012H13.345c-0.143,0-0.286,0.004-0.427,0.012
	c-0.047,0.002-0.093,0.007-0.139,0.011C12.684,9.723,12.59,9.73,12.497,9.74c-0.055,0.006-0.109,0.014-0.163,0.021
	c-0.084,0.011-0.169,0.022-0.252,0.036c-0.057,0.009-0.113,0.02-0.17,0.03c-0.08,0.015-0.16,0.03-0.239,0.047
	c-0.057,0.012-0.114,0.026-0.171,0.039c-0.078,0.019-0.155,0.038-0.232,0.059c-0.056,0.015-0.112,0.031-0.168,0.048
	c-0.077,0.023-0.152,0.047-0.228,0.072c-0.054,0.018-0.108,0.036-0.162,0.055c-0.077,0.027-0.152,0.056-0.228,0.086
	c-0.051,0.02-0.102,0.039-0.152,0.06c-0.079,0.033-0.157,0.068-0.235,0.103c-0.045,0.02-0.09,0.04-0.135,0.061
	c-0.091,0.043-0.181,0.09-0.27,0.136c-0.03,0.016-0.06,0.03-0.09,0.046c-0.118,0.064-0.235,0.131-0.349,0.201
	c-0.025,0.015-0.049,0.032-0.073,0.047C9.093,10.943,9.005,11,8.918,11.058c-0.04,0.027-0.078,0.056-0.117,0.083
	c-0.07,0.05-0.14,0.099-0.208,0.151c-0.042,0.032-0.084,0.066-0.126,0.099c-0.063,0.05-0.126,0.1-0.187,0.151
	c-0.043,0.036-0.084,0.073-0.126,0.109c-0.059,0.051-0.117,0.103-0.174,0.156c-0.041,0.039-0.082,0.078-0.123,0.117
	c-0.055,0.054-0.11,0.109-0.164,0.164c-0.039,0.041-0.079,0.081-0.117,0.123c-0.053,0.057-0.105,0.115-0.156,0.174
	c-0.024,0.027-0.049,0.054-0.073,0.081V7.879z M5.466,19.23v7.72c-1.738-0.424-3.032-1.994-3.032-3.86S3.728,19.654,5.466,19.23z"/>
<path class="st0" d="M17.178,23.773c0.06,0.516,0.525,0.886,1.042,0.826c0.516-0.06,0.886-0.526,0.826-1.042
	c-0.237-2.048-1.97-3.592-4.032-3.592c-2.062,0-3.796,1.544-4.032,3.592c-0.06,0.516,0.31,0.983,0.826,1.042
	c0.037,0.004,0.073,0.006,0.109,0.006c0.471,0,0.878-0.353,0.933-0.833c0.127-1.098,1.057-1.926,2.163-1.926
	S17.051,22.675,17.178,23.773z"/>
<path class="st0" d="M24.977,28.032c-0.512-0.087-0.998,0.258-1.084,0.77c-0.161,0.95-1.586,1.975-3.609,1.975
	c-2.023,0-3.449-1.025-3.609-1.975c-0.087-0.512-0.573-0.857-1.084-0.77c-0.512,0.087-0.857,0.572-0.77,1.084
	c0.347,2.053,2.645,3.543,5.464,3.543c2.819,0,5.117-1.49,5.464-3.543C25.834,28.604,25.489,28.119,24.977,28.032z"/>
<path class="st0" d="M25.552,19.966c-2.062,0-3.796,1.544-4.032,3.592c-0.06,0.516,0.31,0.983,0.826,1.042
	c0.516,0.059,0.983-0.31,1.042-0.826c0.127-1.098,1.057-1.926,2.163-1.926c1.107,0,2.037,0.828,2.163,1.926
	c0.055,0.479,0.462,0.833,0.933,0.833c0.036,0,0.072-0.002,0.109-0.006c0.516-0.06,0.886-0.526,0.826-1.042
	C29.348,21.51,27.614,19.966,25.552,19.966z"/>
<path class="st0" d="M54.601,40.448h-23.68c-1.567,0-2.842,1.274-2.844,2.84h-0.924c-1.06-0.209-2.141-0.317-3.233-0.317h-7.274
	l-0.041,0.001c-0.358,0.016-0.645,0.138-0.859,0.316H8.133c-0.45,0-0.838,0.319-0.923,0.761l-0.418,2.153
	C2.532,49.337,0,54.322,0,59.617v15.776h19.46h0.821c0,0,0,0,0.001,0c0,0,0.001,0,0.001,0c0,0,0,0,0,0s0,0,0,0c0,0,0.001,0,0.001,0
	c0,0,0,0,0.001,0h1.612h9.023h23.68c1.568,0,2.844-1.276,2.844-2.844V43.292C57.445,41.724,56.169,40.448,54.601,40.448z
	 M14.614,54.727C14.614,54.727,14.614,54.727,14.614,54.727l0.878-1.254l-1.515-0.216c0,0-0.001,0-0.001,0l-2.584-0.369
	l-3.873-0.553l0.347-1.791l1.043-5.374h6.501l1.061,7.918l2.234,16.674l-6.54-11.538L14.614,54.727z M19.565,62.011l-1.595-11.907
	c0.696,0.35,1.546,0.63,2.488,0.63c0.021,0,0.043,0,0.064,0c0.717-0.01,1.405-0.178,2.058-0.501L20.283,67.37L19.565,62.011z
	 M24.749,48.209c0-0.001,0-0.002,0-0.002l0.407-3.038h1.815c0.372,0.078,0.741,0.169,1.106,0.276v7.599l-1.487,0.212
	c-0.324,0.046-0.6,0.257-0.73,0.557c-0.13,0.3-0.095,0.646,0.092,0.914l2.124,3.035v1.033L21.86,69.762L24.749,48.209z M23.3,44.852
	l-0.376,2.806c-0.759,0.778-1.572,1.18-2.418,1.194c-1.296,0.021-2.423-0.837-2.869-1.228l-0.372-2.773H23.3z M1.881,73.512V59.617
	c0-3.947,1.586-7.701,4.336-10.449l-0.733,3.778c0,0,0,0,0,0l-0.188,0.97l0.976,0.139c0.001,0,0.001,0,0.002,0l5.921,0.846
	l-1.911,2.73c0,0,0,0,0,0.001l-0.34,0.486l8.725,15.393H1.881z M21.897,73.512l6.179-10.902v9.939c0,0.092,0.005,0.183,0.014,0.272
	c0.003,0.029,0.008,0.058,0.011,0.087c0.008,0.06,0.016,0.12,0.027,0.179c0.006,0.033,0.014,0.066,0.022,0.099
	c0.012,0.054,0.026,0.107,0.041,0.16c0.01,0.033,0.02,0.066,0.031,0.099c0.007,0.022,0.013,0.046,0.021,0.068H21.897z
	 M55.563,72.549c0,0.531-0.432,0.963-0.963,0.963h-23.68c-0.531,0-0.963-0.432-0.963-0.963V59.043v-1.578V53.86v-9.631v-0.143
	v-0.794c0-0.531,0.432-0.963,0.963-0.963h23.68c0.531,0,0.963,0.432,0.963,0.963V72.549z"/>
<path class="st0" d="M33.849,48.017h8.915c0.519,0,0.941-0.421,0.941-0.941c0-0.519-0.421-0.941-0.941-0.941h-8.915
	c-0.519,0-0.941,0.421-0.941,0.941C32.909,47.596,33.33,48.017,33.849,48.017z"/>
<path class="st0" d="M51.731,52.449H33.849c-0.519,0-0.941,0.421-0.941,0.941s0.421,0.941,0.941,0.941h17.882
	c0.519,0,0.941-0.421,0.941-0.941S52.25,52.449,51.731,52.449z"/>
<path class="st0" d="M51.731,57.151H33.849c-0.519,0-0.941,0.421-0.941,0.941c0,0.519,0.421,0.941,0.941,0.941h17.882
	c0.519,0,0.941-0.421,0.941-0.941C52.672,57.572,52.25,57.151,51.731,57.151z"/>
<path class="st0" d="M51.731,61.854H33.849c-0.519,0-0.941,0.421-0.941,0.941s0.421,0.941,0.941,0.941h17.882
	c0.519,0,0.941-0.421,0.941-0.941S52.25,61.854,51.731,61.854z"/>
<path class="st0" d="M51.731,66.557H33.849c-0.519,0-0.941,0.421-0.941,0.941s0.421,0.941,0.941,0.941h17.882
	c0.519,0,0.941-0.421,0.941-0.941S52.25,66.557,51.731,66.557z"/>
</svg>
