<?xml version="1.0" encoding="utf-8"?>
<!-- Generator: Adobe Illustrator 25.3.0, SVG Export Plug-In . SVG Version: 6.00 Build 0)  -->
<svg version="1.1" id="Capa_1" xmlns="http://www.w3.org/2000/svg" xmlns:xlink="http://www.w3.org/1999/xlink" x="0px" y="0px"
	 viewBox="0 0 277.71 195.869" style="enable-background:new 0 0 277.71 195.869;" xml:space="preserve">
<style type="text/css">
	.st0{fill:#00BABA;}
	.st1{fill:#80DDDD;}
</style>
<path class="st0" d="M42.735,195.838c-0.536,0-0.919-0.262-1.15-0.787l-4.111-9.231c-0.168-0.399-0.16-0.722,0.024-0.969
	c0.183-0.246,0.454-0.37,0.811-0.37c0.305,0,0.533,0.066,0.685,0.197c0.152,0.132,0.281,0.328,0.386,0.591l3.386,7.86l3.387-7.876
	c0.115-0.252,0.252-0.444,0.41-0.575c0.158-0.131,0.378-0.197,0.661-0.197c0.336,0,0.591,0.126,0.764,0.378
	c0.173,0.252,0.171,0.573-0.008,0.961l-4.111,9.231c-0.116,0.262-0.26,0.459-0.433,0.59
	C43.263,195.772,43.029,195.838,42.735,195.838z"/>
<path class="st0" d="M53.746,195.869c-0.872,0-1.623-0.163-2.253-0.488c-0.63-0.325-1.116-0.788-1.457-1.386
	c-0.341-0.598-0.512-1.308-0.512-2.127c0-0.798,0.166-1.496,0.496-2.095c0.331-0.598,0.788-1.068,1.37-1.41
	c0.583-0.341,1.247-0.512,1.993-0.512c1.092,0,1.956,0.347,2.591,1.04c0.635,0.693,0.953,1.638,0.953,2.835
	c0,0.389-0.252,0.583-0.756,0.583h-4.757c0.147,1.376,0.934,2.064,2.363,2.064c0.273,0,0.58-0.034,0.922-0.103
	c0.341-0.068,0.664-0.186,0.969-0.354c0.273-0.158,0.504-0.207,0.693-0.15c0.189,0.058,0.323,0.171,0.402,0.339
	c0.079,0.168,0.089,0.354,0.031,0.559c-0.058,0.205-0.207,0.381-0.449,0.528c-0.367,0.231-0.79,0.402-1.268,0.512
	C54.598,195.814,54.155,195.869,53.746,195.869z M53.462,189.19c-0.578,0-1.045,0.179-1.402,0.536
	c-0.357,0.357-0.573,0.84-0.646,1.449h3.875c-0.042-0.64-0.218-1.131-0.528-1.473C54.451,189.361,54.019,189.19,53.462,189.19z"/>
<path class="st0" d="M63.559,195.869c-2.038,0-3.056-1.008-3.056-3.024v-3.355h-0.819c-0.525,0-0.788-0.247-0.788-0.74
	c0-0.493,0.262-0.74,0.788-0.74h0.819v-1.433c0-0.661,0.331-0.992,0.992-0.992c0.651,0,0.977,0.331,0.977,0.992v1.433h1.67
	c0.525,0,0.788,0.247,0.788,0.74c0,0.494-0.263,0.74-0.788,0.74h-1.67v3.245c0,0.504,0.11,0.882,0.331,1.134
	c0.22,0.252,0.577,0.378,1.071,0.378c0.179,0,0.336-0.016,0.473-0.047c0.136-0.032,0.257-0.052,0.362-0.063
	c0.126-0.01,0.231,0.029,0.315,0.118c0.084,0.089,0.126,0.271,0.126,0.544c0,0.21-0.034,0.397-0.102,0.559
	c-0.068,0.163-0.192,0.276-0.37,0.339c-0.137,0.042-0.315,0.081-0.536,0.118C63.921,195.851,63.727,195.869,63.559,195.869z"/>
<path class="st0" d="M71.372,195.869c-0.872,0-1.623-0.163-2.253-0.488c-0.63-0.325-1.116-0.788-1.457-1.386
	c-0.341-0.598-0.512-1.308-0.512-2.127c0-0.798,0.166-1.496,0.496-2.095c0.331-0.598,0.788-1.068,1.37-1.41
	c0.583-0.341,1.247-0.512,1.993-0.512c1.092,0,1.956,0.347,2.591,1.04c0.635,0.693,0.953,1.638,0.953,2.835
	c0,0.389-0.252,0.583-0.756,0.583h-4.757c0.147,1.376,0.934,2.064,2.363,2.064c0.273,0,0.58-0.034,0.922-0.103
	c0.341-0.068,0.664-0.186,0.969-0.354c0.273-0.158,0.504-0.207,0.693-0.15c0.189,0.058,0.323,0.171,0.402,0.339
	c0.079,0.168,0.089,0.354,0.031,0.559c-0.058,0.205-0.207,0.381-0.449,0.528c-0.367,0.231-0.79,0.402-1.268,0.512
	C72.225,195.814,71.781,195.869,71.372,195.869z M71.088,189.19c-0.578,0-1.045,0.179-1.402,0.536
	c-0.357,0.357-0.573,0.84-0.646,1.449h3.875c-0.042-0.64-0.218-1.131-0.528-1.473C72.078,189.361,71.645,189.19,71.088,189.19z"/>
<path class="st0" d="M78.696,195.838c-0.672,0-1.008-0.336-1.008-1.008v-5.954c0-0.662,0.32-0.992,0.961-0.992
	c0.64,0,0.961,0.331,0.961,0.992v0.488c0.378-0.903,1.187-1.407,2.426-1.512c0.451-0.052,0.703,0.205,0.756,0.772
	c0.052,0.557-0.22,0.866-0.819,0.929l-0.347,0.032c-1.292,0.126-1.937,0.788-1.937,1.985v3.261
	C79.689,195.502,79.358,195.838,78.696,195.838z"/>
<path class="st0" d="M86.415,186.434c-0.368,0-0.654-0.092-0.859-0.276c-0.205-0.184-0.307-0.438-0.307-0.764
	c0-0.336,0.102-0.593,0.307-0.772c0.205-0.179,0.491-0.268,0.859-0.268c0.777,0,1.165,0.346,1.165,1.039
	S87.191,186.434,86.415,186.434z M86.415,195.822c-0.315,0-0.557-0.095-0.725-0.283c-0.168-0.189-0.252-0.452-0.252-0.788v-5.781
	c0-0.714,0.326-1.071,0.977-1.071c0.661,0,0.992,0.357,0.992,1.071v5.781c0,0.336-0.084,0.598-0.252,0.788
	C86.987,195.727,86.74,195.822,86.415,195.822z"/>
<path class="st0" d="M92.006,195.838c-0.651,0-0.977-0.336-0.977-1.008v-5.954c0-0.662,0.32-0.992,0.961-0.992
	c0.64,0,0.961,0.331,0.961,0.992v0.331c0.262-0.441,0.617-0.777,1.063-1.008c0.446-0.231,0.947-0.347,1.504-0.347
	c1.817,0,2.725,1.055,2.725,3.166v3.812c0,0.672-0.326,1.008-0.977,1.008c-0.661,0-0.992-0.336-0.992-1.008v-3.717
	c0-0.599-0.113-1.034-0.339-1.308c-0.226-0.273-0.575-0.41-1.047-0.41c-0.578,0-1.037,0.181-1.378,0.544s-0.512,0.843-0.512,1.441
	v3.449C92.999,195.502,92.668,195.838,92.006,195.838z"/>
<path class="st0" d="M104.356,195.869c-0.557,0-1.053-0.108-1.489-0.323c-0.436-0.215-0.777-0.506-1.024-0.874
	c-0.247-0.367-0.37-0.782-0.37-1.244c0-0.567,0.147-1.016,0.441-1.347c0.294-0.331,0.772-0.569,1.433-0.717
	c0.661-0.147,1.549-0.22,2.662-0.22h0.551v-0.331c0-0.525-0.116-0.903-0.346-1.134c-0.231-0.231-0.62-0.347-1.166-0.347
	c-0.305,0-0.633,0.037-0.984,0.11c-0.352,0.074-0.722,0.2-1.11,0.378c-0.252,0.116-0.462,0.129-0.63,0.04
	c-0.168-0.089-0.281-0.231-0.339-0.425c-0.058-0.194-0.047-0.391,0.031-0.591c0.079-0.199,0.239-0.347,0.481-0.441
	c0.483-0.199,0.947-0.341,1.394-0.425c0.446-0.084,0.853-0.126,1.221-0.126c1.123,0,1.958,0.26,2.505,0.78
	c0.546,0.52,0.819,1.326,0.819,2.418v3.78c0,0.672-0.305,1.008-0.914,1.008c-0.62,0-0.929-0.336-0.929-1.008v-0.346
	c-0.179,0.431-0.462,0.769-0.851,1.016C105.353,195.746,104.891,195.869,104.356,195.869z M104.765,194.515
	c0.514,0,0.942-0.179,1.284-0.536c0.341-0.357,0.512-0.808,0.512-1.355v-0.347h-0.536c-0.987,0-1.672,0.076-2.056,0.228
	c-0.383,0.152-0.575,0.428-0.575,0.827c0,0.347,0.12,0.63,0.362,0.851C103.998,194.404,104.334,194.515,104.765,194.515z"/>
<path class="st0" d="M113.019,195.838c-0.672,0-1.008-0.336-1.008-1.008v-5.954c0-0.662,0.32-0.992,0.961-0.992
	c0.64,0,0.961,0.331,0.961,0.992v0.488c0.378-0.903,1.187-1.407,2.426-1.512c0.451-0.052,0.703,0.205,0.756,0.772
	c0.052,0.557-0.22,0.866-0.819,0.929l-0.347,0.032c-1.292,0.126-1.937,0.788-1.937,1.985v3.261
	C114.011,195.502,113.681,195.838,113.019,195.838z"/>
<path class="st0" d="M120.738,186.434c-0.368,0-0.654-0.092-0.859-0.276c-0.205-0.184-0.307-0.438-0.307-0.764
	c0-0.336,0.102-0.593,0.307-0.772c0.205-0.179,0.491-0.268,0.859-0.268c0.777,0,1.165,0.346,1.165,1.039
	S121.514,186.434,120.738,186.434z M120.738,195.822c-0.315,0-0.557-0.095-0.725-0.283c-0.168-0.189-0.252-0.452-0.252-0.788v-5.781
	c0-0.714,0.326-1.071,0.977-1.071c0.661,0,0.992,0.357,0.992,1.071v5.781c0,0.336-0.084,0.598-0.252,0.788
	C121.309,195.727,121.063,195.822,120.738,195.822z"/>
<path class="st0" d="M128.865,195.869c-0.798,0-1.491-0.163-2.079-0.488c-0.588-0.325-1.045-0.79-1.37-1.394
	c-0.326-0.604-0.488-1.315-0.488-2.134c0-0.819,0.163-1.528,0.488-2.126c0.326-0.599,0.782-1.061,1.37-1.386
	c0.588-0.326,1.281-0.489,2.079-0.489c0.798,0,1.491,0.163,2.079,0.489c0.588,0.326,1.045,0.787,1.37,1.386
	c0.325,0.598,0.488,1.307,0.488,2.126c0,0.819-0.163,1.531-0.488,2.134c-0.326,0.604-0.783,1.069-1.37,1.394
	C130.356,195.707,129.663,195.869,128.865,195.869z M128.865,194.373c0.588,0,1.061-0.213,1.418-0.638
	c0.357-0.425,0.536-1.053,0.536-1.882c0-0.84-0.179-1.467-0.536-1.882c-0.357-0.415-0.83-0.622-1.418-0.622
	c-0.588,0-1.061,0.208-1.417,0.622c-0.357,0.415-0.536,1.042-0.536,1.882c0,0.83,0.178,1.457,0.536,1.882
	C127.804,194.16,128.277,194.373,128.865,194.373z"/>
<path class="st0" d="M138.82,195.869c-0.451,0-0.929-0.047-1.433-0.142c-0.504-0.094-0.956-0.257-1.355-0.488
	c-0.22-0.126-0.357-0.281-0.41-0.465c-0.053-0.184-0.045-0.357,0.024-0.52c0.068-0.163,0.184-0.281,0.347-0.354
	c0.163-0.073,0.354-0.058,0.575,0.047c0.42,0.2,0.814,0.339,1.181,0.417c0.367,0.079,0.73,0.118,1.087,0.118
	c0.504,0,0.879-0.087,1.126-0.26c0.247-0.174,0.37-0.402,0.37-0.685c0-0.441-0.326-0.724-0.977-0.851l-1.575-0.299
	c-1.334-0.252-2.001-0.945-2.001-2.079c0-0.504,0.139-0.94,0.417-1.308c0.278-0.367,0.664-0.651,1.158-0.851
	c0.493-0.199,1.061-0.299,1.701-0.299c0.924,0,1.748,0.205,2.473,0.614c0.199,0.105,0.318,0.25,0.354,0.433
	c0.037,0.184,0.016,0.357-0.063,0.52c-0.079,0.163-0.202,0.278-0.37,0.347c-0.168,0.068-0.362,0.05-0.583-0.055
	c-0.326-0.168-0.638-0.289-0.937-0.362c-0.299-0.073-0.586-0.11-0.859-0.11c-0.515,0-0.895,0.089-1.142,0.268
	c-0.247,0.179-0.37,0.415-0.37,0.709c0,0.462,0.299,0.746,0.898,0.851l1.575,0.299c0.683,0.126,1.2,0.357,1.552,0.693
	c0.351,0.336,0.528,0.788,0.528,1.355c0,0.767-0.299,1.368-0.898,1.803C140.616,195.651,139.818,195.869,138.82,195.869z"/>
<path class="st0" d="M153.642,195.869c-0.557,0-1.053-0.108-1.489-0.323c-0.436-0.215-0.777-0.506-1.024-0.874
	c-0.247-0.367-0.37-0.782-0.37-1.244c0-0.567,0.147-1.016,0.441-1.347c0.294-0.331,0.772-0.569,1.433-0.717
	c0.661-0.147,1.549-0.22,2.661-0.22h0.552v-0.331c0-0.525-0.116-0.903-0.346-1.134c-0.231-0.231-0.62-0.347-1.166-0.347
	c-0.305,0-0.633,0.037-0.984,0.11c-0.352,0.074-0.722,0.2-1.11,0.378c-0.252,0.116-0.462,0.129-0.63,0.04
	c-0.168-0.089-0.281-0.231-0.339-0.425c-0.058-0.194-0.047-0.391,0.031-0.591c0.079-0.199,0.239-0.347,0.481-0.441
	c0.483-0.199,0.947-0.341,1.394-0.425c0.446-0.084,0.853-0.126,1.221-0.126c1.123,0,1.958,0.26,2.505,0.78
	c0.546,0.52,0.818,1.326,0.818,2.418v3.78c0,0.672-0.304,1.008-0.913,1.008c-0.62,0-0.93-0.336-0.93-1.008v-0.346
	c-0.178,0.431-0.461,0.769-0.85,1.016C154.64,195.746,154.178,195.869,153.642,195.869z M154.052,194.515
	c0.514,0,0.942-0.179,1.283-0.536c0.341-0.357,0.513-0.808,0.513-1.355v-0.347h-0.536c-0.987,0-1.673,0.076-2.056,0.228
	c-0.383,0.152-0.575,0.428-0.575,0.827c0,0.347,0.12,0.63,0.362,0.851C153.285,194.404,153.621,194.515,154.052,194.515z"/>
<path class="st0" d="M170.103,195.869c-0.672,0-1.263-0.163-1.772-0.488c-0.509-0.325-0.906-0.79-1.189-1.394
	c-0.284-0.604-0.425-1.315-0.425-2.134c0-0.829,0.141-1.541,0.425-2.134c0.284-0.593,0.68-1.053,1.189-1.378s1.1-0.489,1.772-0.489
	c0.546,0,1.04,0.121,1.481,0.362c0.441,0.242,0.772,0.562,0.992,0.961v-3.702c0-0.662,0.325-0.992,0.977-0.992
	c0.661,0,0.992,0.331,0.992,0.992v9.356c0,0.672-0.326,1.008-0.977,1.008s-0.977-0.336-0.977-1.008v-0.331
	c-0.22,0.42-0.551,0.754-0.992,1C171.158,195.746,170.659,195.869,170.103,195.869z M170.654,194.373
	c0.588,0,1.06-0.213,1.417-0.638c0.357-0.425,0.536-1.053,0.536-1.882c0-0.84-0.179-1.467-0.536-1.882
	c-0.357-0.415-0.83-0.622-1.417-0.622c-0.589,0-1.061,0.208-1.418,0.622c-0.357,0.415-0.536,1.042-0.536,1.882
	c0,0.83,0.178,1.457,0.536,1.882C169.594,194.16,170.066,194.373,170.654,194.373z"/>
<path class="st0" d="M181.68,195.869c-0.798,0-1.492-0.163-2.08-0.488c-0.588-0.325-1.045-0.79-1.37-1.394
	c-0.326-0.604-0.488-1.315-0.488-2.134c0-0.819,0.162-1.528,0.488-2.126c0.325-0.599,0.782-1.061,1.37-1.386
	c0.588-0.326,1.281-0.489,2.08-0.489c0.798,0,1.491,0.163,2.079,0.489c0.588,0.326,1.045,0.787,1.371,1.386
	c0.325,0.598,0.488,1.307,0.488,2.126c0,0.819-0.163,1.531-0.488,2.134c-0.326,0.604-0.783,1.069-1.371,1.394
	C183.171,195.707,182.478,195.869,181.68,195.869z M181.68,194.373c0.588,0,1.06-0.213,1.417-0.638
	c0.357-0.425,0.536-1.053,0.536-1.882c0-0.84-0.179-1.467-0.536-1.882c-0.357-0.415-0.83-0.622-1.417-0.622
	c-0.589,0-1.061,0.208-1.418,0.622c-0.357,0.415-0.536,1.042-0.536,1.882c0,0.83,0.178,1.457,0.536,1.882
	C180.619,194.16,181.092,194.373,181.68,194.373z"/>
<path class="st0" d="M189.824,195.838c-0.651,0-0.977-0.336-0.977-1.008v-5.954c0-0.662,0.32-0.992,0.961-0.992
	c0.64,0,0.961,0.331,0.961,0.992v0.315c0.231-0.42,0.552-0.748,0.961-0.984c0.41-0.236,0.882-0.354,1.417-0.354
	c1.155,0,1.911,0.504,2.269,1.512c0.241-0.473,0.588-0.843,1.039-1.111c0.452-0.268,0.966-0.402,1.544-0.402
	c1.733,0,2.599,1.055,2.599,3.166v3.812c0,0.672-0.331,1.008-0.992,1.008c-0.651,0-0.977-0.336-0.977-1.008v-3.733
	c0-0.588-0.097-1.018-0.291-1.292c-0.194-0.273-0.523-0.41-0.985-0.41c-0.514,0-0.919,0.181-1.213,0.544s-0.441,0.864-0.441,1.504
	v3.386c0,0.672-0.325,1.008-0.976,1.008c-0.661,0-0.992-0.336-0.992-1.008v-3.733c0-0.588-0.097-1.018-0.291-1.292
	c-0.194-0.273-0.517-0.41-0.969-0.41c-0.514,0-0.919,0.181-1.212,0.544c-0.295,0.362-0.442,0.864-0.442,1.504v3.386
	C190.816,195.502,190.485,195.838,189.824,195.838z"/>
<path class="st0" d="M205.181,186.434c-0.367,0-0.654-0.092-0.858-0.276s-0.307-0.438-0.307-0.764c0-0.336,0.103-0.593,0.307-0.772
	s0.491-0.268,0.858-0.268c0.777,0,1.166,0.346,1.166,1.039S205.959,186.434,205.181,186.434z M205.181,195.822
	c-0.315,0-0.557-0.095-0.725-0.283c-0.168-0.189-0.252-0.452-0.252-0.788v-5.781c0-0.714,0.325-1.071,0.977-1.071
	c0.662,0,0.992,0.357,0.992,1.071v5.781c0,0.336-0.084,0.598-0.252,0.788C205.754,195.727,205.507,195.822,205.181,195.822z"/>
<path class="st0" d="M213.357,195.869c-0.809,0-1.513-0.166-2.111-0.496c-0.599-0.331-1.061-0.8-1.386-1.41
	c-0.326-0.609-0.488-1.323-0.488-2.142s0.162-1.525,0.488-2.119c0.325-0.593,0.787-1.05,1.386-1.37
	c0.598-0.32,1.302-0.481,2.111-0.481c0.346,0,0.722,0.047,1.126,0.142c0.404,0.095,0.785,0.252,1.142,0.473
	c0.21,0.126,0.333,0.289,0.37,0.488c0.036,0.2,0.01,0.383-0.079,0.551c-0.089,0.168-0.22,0.289-0.394,0.362
	c-0.173,0.074-0.371,0.047-0.591-0.079c-0.483-0.273-0.95-0.41-1.401-0.41c-0.683,0-1.21,0.213-1.583,0.638
	c-0.373,0.425-0.559,1.031-0.559,1.819c0,0.777,0.186,1.389,0.559,1.835c0.373,0.446,0.9,0.669,1.583,0.669
	c0.451,0,0.918-0.131,1.401-0.394c0.22-0.126,0.415-0.152,0.583-0.079c0.168,0.074,0.289,0.197,0.362,0.37
	c0.074,0.173,0.089,0.357,0.047,0.551c-0.042,0.195-0.163,0.354-0.362,0.481c-0.346,0.21-0.714,0.362-1.102,0.457
	C214.071,195.822,213.703,195.869,213.357,195.869z"/>
<path class="st0" d="M219.783,186.434c-0.367,0-0.654-0.092-0.858-0.276s-0.307-0.438-0.307-0.764c0-0.336,0.103-0.593,0.307-0.772
	s0.491-0.268,0.858-0.268c0.777,0,1.166,0.346,1.166,1.039S220.56,186.434,219.783,186.434z M219.783,195.822
	c-0.315,0-0.557-0.095-0.725-0.283c-0.168-0.189-0.252-0.452-0.252-0.788v-5.781c0-0.714,0.325-1.071,0.977-1.071
	c0.662,0,0.992,0.357,0.992,1.071v5.781c0,0.336-0.084,0.598-0.252,0.788C220.356,195.727,220.108,195.822,219.783,195.822z"/>
<path class="st0" d="M227.029,195.869c-1.754,0-2.63-0.982-2.63-2.945v-7.451c0-0.662,0.325-0.992,0.977-0.992
	c0.662,0,0.992,0.331,0.992,0.992v7.356c0,0.945,0.394,1.417,1.182,1.417c0.084,0,0.162-0.002,0.236-0.008
	c0.073-0.005,0.147-0.013,0.22-0.024c0.147-0.021,0.247,0.019,0.3,0.118c0.052,0.1,0.079,0.302,0.079,0.606
	c0,0.263-0.052,0.467-0.157,0.614c-0.105,0.147-0.279,0.236-0.52,0.268C227.486,195.854,227.26,195.869,227.029,195.869z"/>
<path class="st0" d="M231.974,186.434c-0.367,0-0.654-0.092-0.858-0.276c-0.205-0.184-0.307-0.438-0.307-0.764
	c0-0.336,0.103-0.593,0.307-0.772c0.204-0.179,0.491-0.268,0.858-0.268c0.777,0,1.166,0.346,1.166,1.039
	S232.752,186.434,231.974,186.434z M231.974,195.822c-0.315,0-0.557-0.095-0.725-0.283c-0.168-0.189-0.252-0.452-0.252-0.788v-5.781
	c0-0.714,0.325-1.071,0.977-1.071c0.662,0,0.992,0.357,0.992,1.071v5.781c0,0.336-0.084,0.598-0.252,0.788
	C232.547,195.727,232.3,195.822,231.974,195.822z"/>
<path class="st0" d="M240.103,195.869c-0.798,0-1.492-0.163-2.08-0.488c-0.588-0.325-1.045-0.79-1.37-1.394
	c-0.326-0.604-0.488-1.315-0.488-2.134c0-0.819,0.162-1.528,0.488-2.126c0.325-0.599,0.782-1.061,1.37-1.386
	c0.588-0.326,1.281-0.489,2.08-0.489c0.798,0,1.491,0.163,2.079,0.489c0.588,0.326,1.045,0.787,1.371,1.386
	c0.325,0.598,0.488,1.307,0.488,2.126c0,0.819-0.163,1.531-0.488,2.134c-0.326,0.604-0.783,1.069-1.371,1.394
	C241.594,195.707,240.9,195.869,240.103,195.869z M240.103,194.373c0.588,0,1.06-0.213,1.417-0.638
	c0.357-0.425,0.536-1.053,0.536-1.882c0-0.84-0.179-1.467-0.536-1.882c-0.357-0.415-0.83-0.622-1.417-0.622
	c-0.589,0-1.061,0.208-1.418,0.622c-0.357,0.415-0.536,1.042-0.536,1.882c0,0.83,0.178,1.457,0.536,1.882
	C239.042,194.16,239.514,194.373,240.103,194.373z"/>
<path class="st0" d="M3.17,131.536c0.835,0,1.559,0.298,2.173,0.895c0.614,0.614,0.92,1.347,0.92,2.198v13.753h14.162v-13.753
	c0-0.852,0.307-1.585,0.92-2.198c0.614-0.596,1.338-0.895,2.173-0.895h0.077c0.835,0,1.559,0.298,2.173,0.895
	c0.614,0.614,0.92,1.347,0.92,2.198v33.743c0,0.869-0.307,1.594-0.92,2.173c-0.614,0.614-1.338,0.92-2.173,0.92h-0.077
	c-0.835,0-1.559-0.307-2.173-0.92c-0.614-0.579-0.92-1.304-0.92-2.173v-13.753H6.263v13.753c0,0.869-0.307,1.594-0.92,2.173
	c-0.614,0.614-1.338,0.92-2.173,0.92H3.093c-0.835,0-1.559-0.307-2.173-0.92C0.307,169.966,0,169.241,0,168.372v-33.743
	c0-0.852,0.307-1.585,0.92-2.198c0.614-0.596,1.338-0.895,2.173-0.895H3.17z"/>
<path class="st0" d="M70.832,136.795c0.835,0,1.559,0.298,2.173,0.895c0.614,0.614,0.92,1.347,0.92,2.198l0.023,28.484
	c0,0.869-0.307,1.594-0.92,2.173c-0.614,0.614-1.338,0.92-2.173,0.92h-0.077c-0.835,0-1.559-0.307-2.173-0.92
	c-0.614-0.579-0.92-1.304-0.92-2.173l-0.023-28.484c0-0.852,0.307-1.585,0.92-2.198c0.614-0.596,1.338-0.895,2.173-0.895H70.832z"/>
<path class="st0" d="M84.243,133.601c0.928,0,1.734,0.332,2.417,0.995c0.682,0.682,1.023,1.498,1.023,2.445v30.984
	c0,0.967-0.341,1.773-1.023,2.417c-0.682,0.682-1.488,1.023-2.417,1.023h-0.085c-0.929,0-1.734-0.341-2.417-1.023
	c-0.682-0.644-1.023-1.45-1.023-2.417v-30.984c0-0.947,0.341-1.763,1.023-2.445c0.682-0.663,1.488-0.995,2.417-0.995H84.243z"/>
<path class="st0" d="M267.69,130.227c0.835,0,1.559,0.298,2.173,0.895c0.613,0.614,0.92,1.347,0.92,2.198v7.388h3.834
	c0.835,0,1.559,0.307,2.173,0.92c0.613,0.614,0.92,1.347,0.92,2.198v0.051c0,0.869-0.307,1.594-0.92,2.173
	c-0.614,0.613-1.338,0.92-2.173,0.92h-3.834v15.159c0,0.495,0.17,0.912,0.511,1.253c0.341,0.341,0.767,0.511,1.278,0.511h2.045
	c0.835,0,1.559,0.307,2.173,0.92c0.613,0.614,0.92,1.347,0.92,2.198v0.051c0,0.869-0.307,1.594-0.92,2.173
	c-0.614,0.613-1.338,0.92-2.173,0.92h-2.045c-2.216,0-4.116-0.784-5.701-2.352c-1.568-1.585-2.352-3.477-2.352-5.675V133.32
	c0-0.852,0.307-1.585,0.92-2.198c0.613-0.596,1.338-0.895,2.173-0.895H267.69z"/>
<path class="st0" d="M190.242,133.993c0.92,0,1.719,0.329,2.395,0.986c0.676,0.676,1.014,1.484,1.014,2.423v30.652
	c0,0.958-0.338,1.757-1.014,2.395c-0.676,0.676-1.475,1.014-2.395,1.014h-0.085c-0.921,0-1.719-0.338-2.395-1.014
	c-0.676-0.638-1.014-1.437-1.014-2.395v-30.652c0-0.939,0.338-1.747,1.014-2.423c0.676-0.657,1.474-0.986,2.395-0.986H190.242z"/>
<path class="st0" d="M129.727,169.131c0,0.586-0.207,1.075-0.62,1.465c-0.414,0.413-0.902,0.62-1.465,0.62h-0.052
	c-0.563,0-1.051-0.207-1.465-0.62c-0.414-0.391-0.621-0.88-0.621-1.465v-9.481c0-2.276,0.81-4.229,2.43-5.861
	c1.621-1.621,3.574-2.431,5.861-2.431c2.735,0,4.798,0.908,6.189,2.724c1.379-1.816,3.436-2.724,6.171-2.724
	c2.287,0,4.241,0.81,5.861,2.431c1.62,1.632,2.43,3.585,2.43,5.861v9.481c0,0.575-0.201,1.063-0.603,1.465
	c-0.414,0.413-0.908,0.62-1.483,0.62h-0.035c-0.586,0-1.075-0.207-1.465-0.62c-0.414-0.391-0.62-0.88-0.62-1.465v-9.481
	c0-1.126-0.396-2.086-1.189-2.879c-0.793-0.793-1.758-1.189-2.896-1.189c-1.126,0-2.086,0.396-2.879,1.189s-1.189,1.752-1.189,2.879
	v9.481c0,0.586-0.207,1.075-0.621,1.465c-0.391,0.413-0.879,0.62-1.465,0.62h-0.035c-0.575,0-1.069-0.207-1.483-0.62
	c-0.414-0.391-0.621-0.88-0.621-1.465v-9.481c0-1.126-0.396-2.086-1.189-2.879c-0.793-0.793-1.752-1.189-2.879-1.189
	c-1.127,0-2.086,0.396-2.879,1.189c-0.793,0.793-1.19,1.752-1.19,2.879V169.131z"/>
<path class="st0" d="M163,162.512c0,1.137,0.396,2.108,1.19,2.913c0.804,0.805,1.781,1.206,2.93,1.206
	c1.126,0,2.091-0.402,2.896-1.206c0.804-0.805,1.207-1.776,1.207-2.913v-9.051c0-0.574,0.207-1.068,0.621-1.482
	c0.414-0.413,0.908-0.62,1.482-0.62h0.035c0.586,0,1.074,0.207,1.465,0.62c0.414,0.414,0.621,0.908,0.621,1.482v16.498
	c0,2.275-0.856,4.241-2.569,5.895c-1.666,1.632-3.585,2.448-5.757,2.448c-1.724,0-3.293-0.425-4.706-1.275
	c-1.379-0.827-2.425-1.937-3.137-3.327c-0.161-0.311-0.242-0.62-0.242-0.931c0-0.264,0.058-0.529,0.173-0.793
	c0.23-0.598,0.632-0.994,1.207-1.189l0.069-0.035c0.253-0.08,0.5-0.12,0.741-0.12c0.253,0,0.5,0.045,0.742,0.138
	c0.471,0.195,0.827,0.523,1.069,0.982c0.368,0.689,0.92,1.247,1.655,1.672c0.747,0.437,1.557,0.656,2.431,0.656
	c1.092,0,2.045-0.402,2.861-1.207c0.827-0.827,1.241-1.799,1.241-2.913v-0.138c-0.908,0.678-2.275,1.017-4.103,1.017
	c-2.299,0-4.264-0.816-5.896-2.448c-1.632-1.62-2.448-3.58-2.448-5.878v-9.051c0-0.574,0.207-1.068,0.621-1.482
	c0.414-0.413,0.902-0.62,1.465-0.62h0.052c0.563,0,1.052,0.207,1.465,0.62c0.414,0.414,0.62,0.908,0.62,1.482V162.512z"/>
<path class="st0" d="M60.691,150.606c0.205,0.426,0.307,0.861,0.307,1.304c0,0.358-0.068,0.716-0.205,1.074
	c-0.29,0.801-0.835,1.38-1.636,1.738c-2.386,1.074-5.522,2.489-9.407,4.243c-4.823,2.182-7.652,3.468-8.487,3.86
	c1.295,1.636,3.314,2.454,6.058,2.454c1.823,0,3.477-0.537,4.959-1.61c1.448-1.056,2.462-2.42,3.042-4.09
	c0.494-1.397,1.483-2.096,2.965-2.096c1.056,0,1.9,0.444,2.531,1.329c0.392,0.546,0.588,1.116,0.588,1.713
	c0,0.358-0.068,0.725-0.205,1.099c-1.006,2.914-2.77,5.266-5.292,7.055c-2.556,1.858-5.419,2.786-8.589,2.786
	c-4.056,0-7.524-1.44-10.404-4.32c-2.88-2.88-4.32-6.348-4.32-10.404c0-4.056,1.44-7.524,4.32-10.404
	c2.88-2.88,6.348-4.32,10.404-4.32c2.931,0,5.607,0.801,8.027,2.403C57.752,145.988,59.532,148.05,60.691,150.606z M47.322,148.331
	c-2.352,0-4.355,0.827-6.007,2.48c-1.636,1.653-2.454,3.655-2.454,6.007v0.179l14.29-6.416
	C51.889,149.081,49.946,148.331,47.322,148.331z"/>
<path class="st0" d="M257.894,149.297c0.205,0.426,0.307,0.861,0.307,1.304c0,0.358-0.068,0.716-0.204,1.074
	c-0.29,0.801-0.835,1.38-1.636,1.738c-2.386,1.074-5.522,2.489-9.407,4.243c-4.823,2.182-7.652,3.468-8.487,3.86
	c1.295,1.636,3.314,2.454,6.058,2.454c1.823,0,3.477-0.537,4.959-1.61c1.448-1.056,2.462-2.42,3.042-4.09
	c0.494-1.397,1.483-2.096,2.965-2.096c1.056,0,1.9,0.444,2.531,1.329c0.392,0.546,0.588,1.116,0.588,1.713
	c0,0.358-0.068,0.725-0.204,1.099c-1.006,2.914-2.77,5.266-5.292,7.055c-2.556,1.858-5.419,2.786-8.589,2.786
	c-4.056,0-7.524-1.44-10.404-4.32c-2.88-2.88-4.32-6.348-4.32-10.404c0-4.056,1.44-7.524,4.32-10.404
	c2.88-2.88,6.348-4.32,10.404-4.32c2.931,0,5.607,0.801,8.027,2.403C254.954,144.679,256.735,146.741,257.894,149.297z
	 M244.525,147.022c-2.352,0-4.355,0.827-6.007,2.48c-1.636,1.653-2.454,3.655-2.454,6.007v0.179l14.29-6.416
	C249.092,147.772,247.149,147.022,244.525,147.022z"/>
<path class="st0" d="M130.723,11.668c-0.765-0.765-2.005-0.765-2.77,0l-8.381,8.381c-0.765,0.765-0.765,2.005,0,2.77
	c0.382,0.382,0.884,0.574,1.385,0.574s1.003-0.191,1.385-0.574l8.381-8.381C131.488,13.674,131.488,12.433,130.723,11.668z"/>
<path class="st0" d="M87.465,11.668c-0.765-0.765-2.005-0.765-2.77,0c-0.765,0.765-0.765,2.005,0,2.77l8.381,8.381
	c0.382,0.382,0.884,0.574,1.385,0.574s1.003-0.191,1.385-0.574c0.765-0.765,0.765-2.005,0-2.77L87.465,11.668z"/>
<path class="st0" d="M107.636,0c-1.082,0-1.959,0.877-1.959,1.959v11.853c0,1.082,0.877,1.959,1.959,1.959s1.959-0.877,1.959-1.959
	V1.959C109.595,0.877,108.718,0,107.636,0z"/>
<path class="st0" d="M256.859,87.719h-2.17h-8.731h-0.021c-0.003-0.341-0.008-0.687-0.017-1.039
	c-0.009-0.36-0.022-0.724-0.037-1.086h8.806l0-0.002h2.147c2.196,0,3.976-1.78,3.976-3.975s-1.78-3.975-3.976-3.975h-3.562
	l-5.303-29.786c-1.126-6.327-10.572-11.337-21.027-11.337h-31.387l-0.332-1.067c-2.33-7.509-8.156-12.361-14.842-12.361h-30.582
	c-6.685,0-12.511,4.852-14.841,12.361l-0.325,1.046H88.337c-1.989,0-3.985,0.537-5.779,1.675c-1.793,1.145-3.128,2.722-3.979,4.509
	L62.075,77.618H53.54c-2.196,0-3.976,1.78-3.976,3.975s1.78,3.975,3.976,3.975h10.461l-1.003,2.151h-12.73
	c-2.196,0-3.976,1.78-3.976,3.975c0,2.16,1.724,3.914,3.871,3.97c-1.827,2.882-7.195,11.851-5.417,24.08
	c0,0.001,0,0.003,0.001,0.004c-4.65,0.067-8.401,3.853-8.401,8.519c0,4.708,3.817,8.525,8.525,8.525
	c0.032,0,0.063-0.004,0.095-0.005c0,0.001-0.001,0.005-0.001,0.005h30.913c-0.001-0.078-0.006-0.155-0.006-0.233
	c0-13.994,11.385-25.379,25.379-25.379s25.379,11.385,25.379,25.379c0,0.078-0.005,0.155-0.006,0.233h9.667
	c0.059,0,0.114,0.003,0.173,0.003h45.381c-0.001-0.079-0.006-0.157-0.006-0.236c0-13.994,11.385-25.379,25.379-25.379
	c13.994,0,25.379,11.385,25.379,25.379c0,0.019-0.001,0.037-0.001,0.055c0.15,0.004,0.242,0.009,0.242,0.013
	c9.082-0.912,16.74-5.513,17.747-11.169l2.705-29.788h3.567c2.196,0,3.976-1.78,3.976-3.975S259.055,87.719,256.859,87.719z
	 M120.96,80.639c0,2.56-2.076,4.636-4.636,4.636H78.838c-2.457,0-4.072-2.563-3.012-4.78l14.477-30.273
	c0.778-1.627,2.422-2.663,4.226-2.663h22.684c2.07,0,3.748,1.678,3.748,3.748V80.639z M169.456,110.928
	c0,2.436-1.975,4.411-4.411,4.411h-7.414v7.414c0,2.436-1.975,4.411-4.411,4.411c-2.436,0-4.411-1.975-4.411-4.411v-7.414h-7.414
	c-2.436,0-4.411-1.975-4.411-4.411v0c0-2.436,1.975-4.411,4.411-4.411h7.414v-7.414c0-2.436,1.975-4.411,4.411-4.411
	c2.436,0,4.411,1.975,4.411,4.411v7.414h7.414C167.481,106.517,169.456,108.492,169.456,110.928L169.456,110.928z M149.674,81.732
	V52.377c0-1.958,1.588-3.546,3.546-3.546c1.958,0,3.546,1.587,3.546,3.546v29.354c0,1.958-1.587,3.546-3.546,3.546
	C151.262,85.277,149.674,83.69,149.674,81.732z M169.854,81.732c0,1.958-1.587,3.546-3.546,3.546c-1.958,0-3.546-1.587-3.546-3.546
	V52.377c0-1.958,1.587-3.546,3.546-3.546c1.958,0,3.546,1.587,3.546,3.546V81.732z M182.942,81.732c0,1.958-1.587,3.546-3.546,3.546
	c-1.958,0-3.546-1.587-3.546-3.546V52.377c0-1.958,1.587-3.546,3.546-3.546c1.958,0,3.546,1.587,3.546,3.546V81.732z
	 M142.209,36.519l0.087-0.213c1.568-3.859,4.514-6.352,7.505-6.352h30.582c2.992,0,5.938,2.493,7.505,6.352l0.087,0.213H142.209z
	 M196.03,81.732c0,1.958-1.587,3.546-3.546,3.546c-1.958,0-3.546-1.587-3.546-3.546V52.377c0-1.958,1.587-3.546,3.546-3.546
	c1.958,0,3.546,1.587,3.546,3.546V81.732z M209.118,81.732c0,1.958-1.587,3.546-3.546,3.546c-1.958,0-3.546-1.587-3.546-3.546
	V52.377c0-1.958,1.587-3.546,3.546-3.546c1.958,0,3.546,1.587,3.546,3.546V81.732z M222.206,81.732c0,1.958-1.587,3.546-3.546,3.546
	c-1.958,0-3.546-1.587-3.546-3.546V52.377c0-1.958,1.587-3.546,3.546-3.546c1.958,0,3.546,1.587,3.546,3.546V81.732z
	 M235.294,81.732c0,1.958-1.587,3.546-3.546,3.546c-1.958,0-3.546-1.587-3.546-3.546V52.377c0-1.958,1.587-3.546,3.546-3.546
	c1.958,0,3.546,1.587,3.546,3.546V81.732z"/>
<path class="st1" d="M114.887,36.497v-7.595c0-2.033-0.532-4.069-1.596-5.619c-1.065-1.553-2.46-2.328-3.857-2.328h-2.999
	c-1.396,0-2.791,0.776-3.857,2.328c-1.064,1.55-1.596,3.586-1.596,5.619v7.595H114.887z"/>
<path class="st1" d="M101.252,157.03c-11.288,0-20.471-9.183-20.471-20.471s9.183-20.471,20.471-20.471s20.471,9.183,20.471,20.471
	S112.54,157.03,101.252,157.03z M101.252,125.249c-6.236,0-11.31,5.074-11.31,11.31s5.074,11.31,11.31,11.31
	s11.31-5.074,11.31-11.31S107.488,125.249,101.252,125.249z"/>
<path class="st1" d="M207.22,157.03c-11.288,0-20.471-9.183-20.471-20.471s9.183-20.471,20.471-20.471s20.471,9.183,20.471,20.471
	S218.508,157.03,207.22,157.03z M207.22,125.249c-6.236,0-11.31,5.074-11.31,11.31s5.074,11.31,11.31,11.31s11.31-5.074,11.31-11.31
	S213.456,125.249,207.22,125.249z"/>
</svg>
