<?xml version="1.0" encoding="utf-8"?>
<!-- Generator: Adobe Illustrator 25.3.0, SVG Export Plug-In . SVG Version: 6.00 Build 0)  -->
<svg version="1.1" id="Capa_1" xmlns="http://www.w3.org/2000/svg" xmlns:xlink="http://www.w3.org/1999/xlink" x="0px" y="0px"
	 viewBox="0 0 238.425 238.424" style="enable-background:new 0 0 238.425 238.424;" xml:space="preserve">
<style type="text/css">
	.st0{fill:#0071BC;}
</style>
<path class="st0" d="M123.16,0.064C54.308-2.174-2.175,54.319,0.064,123.171C2.096,185.635,52.79,236.329,115.253,238.36
	c68.852,2.239,125.346-54.244,123.107-123.096C236.329,52.794,185.63,2.095,123.16,0.064z M141.056,64.117
	c4.718,1.153,8.221,5.406,8.221,10.473c0,5.058-3.503,9.311-8.221,10.464V64.117z M65.797,33.341c0-8.95,7.323-16.273,16.273-16.273
	h37.621c8.982,0,16.264,7.281,16.264,16.264V45.78c-0.063-0.072-0.134-0.143-0.197-0.223c-0.134-0.152-0.277-0.313-0.42-0.474
	l-0.322-0.331c-0.143-0.143-0.295-0.295-0.447-0.447c-0.107-0.098-0.214-0.206-0.331-0.313c-0.152-0.143-0.313-0.286-0.465-0.42
	c-0.116-0.107-0.232-0.206-0.348-0.304c-0.17-0.134-0.34-0.277-0.509-0.411c-0.107-0.089-0.223-0.179-0.34-0.268
	c-0.188-0.134-0.366-0.268-0.563-0.402c-0.107-0.08-0.206-0.161-0.322-0.232c-0.232-0.161-0.465-0.313-0.715-0.465
	c-0.062-0.036-0.125-0.08-0.188-0.125c-0.313-0.188-0.634-0.366-0.947-0.545c-0.089-0.036-0.17-0.08-0.25-0.116
	c-0.241-0.134-0.483-0.259-0.724-0.375c-0.125-0.063-0.25-0.107-0.367-0.161c-0.214-0.098-0.42-0.197-0.643-0.286
	c-0.134-0.054-0.277-0.107-0.411-0.161c-0.206-0.08-0.411-0.161-0.617-0.232c-0.143-0.054-0.295-0.098-0.438-0.152
	c-0.206-0.063-0.411-0.134-0.617-0.197c-0.152-0.045-0.304-0.089-0.456-0.125c-0.206-0.063-0.42-0.116-0.634-0.161
	c-0.152-0.036-0.304-0.08-0.456-0.107c-0.214-0.054-0.429-0.089-0.652-0.134c-0.152-0.027-0.304-0.054-0.456-0.08
	c-0.232-0.036-0.456-0.063-0.688-0.098c-0.143-0.009-0.295-0.036-0.438-0.054c-0.259-0.027-0.509-0.045-0.769-0.063
	c-0.125-0.009-0.25-0.027-0.375-0.027c-0.384-0.027-0.769-0.036-1.162-0.036H82.06c-0.384,0-0.769,0.009-1.162,0.036
	c-0.116,0-0.25,0.018-0.375,0.027c-0.25,0.018-0.509,0.036-0.759,0.063c-0.152,0.018-0.295,0.045-0.447,0.054
	c-0.223,0.036-0.456,0.063-0.679,0.098c-0.161,0.027-0.313,0.054-0.465,0.08c-0.214,0.045-0.438,0.08-0.643,0.134
	c-0.161,0.027-0.313,0.071-0.465,0.107c-0.214,0.045-0.42,0.098-0.634,0.161c-0.152,0.036-0.295,0.08-0.447,0.125
	c-0.214,0.063-0.42,0.134-0.617,0.197c-0.152,0.054-0.295,0.098-0.438,0.152c-0.214,0.072-0.42,0.152-0.625,0.232
	c-0.134,0.054-0.277,0.107-0.411,0.161c-0.214,0.089-0.429,0.188-0.634,0.286c-0.125,0.054-0.25,0.098-0.367,0.161
	c-0.25,0.116-0.491,0.241-0.733,0.375c-0.081,0.036-0.161,0.08-0.241,0.116c-0.322,0.179-0.634,0.357-0.947,0.545
	c-0.063,0.045-0.134,0.089-0.197,0.125c-0.241,0.152-0.483,0.304-0.715,0.465c-0.107,0.072-0.214,0.152-0.322,0.232
	c-0.188,0.134-0.375,0.268-0.563,0.402c-0.116,0.089-0.223,0.179-0.339,0.268c-0.17,0.134-0.34,0.277-0.509,0.411
	c-0.116,0.098-0.223,0.197-0.339,0.304c-0.161,0.134-0.322,0.277-0.474,0.42c-0.107,0.107-0.223,0.214-0.331,0.313
	c-0.152,0.152-0.304,0.304-0.447,0.447l-0.313,0.331c-0.152,0.161-0.286,0.322-0.429,0.474c-0.062,0.08-0.134,0.152-0.197,0.223
	V33.341z M65.797,59.622c0-8.982,7.282-16.264,16.264-16.264h37.63c8.982,0,16.264,7.282,16.264,16.264v37.63
	c0,8.982-7.281,16.264-16.264,16.264H82.06c-8.945,0-16.264-7.319-16.264-16.264V59.622z M109.065,126.58l-1.028,7.614
	c-2.055,2.109-4.263,3.199-6.559,3.244c-3.512,0.054-6.568-2.27-7.775-3.333l-1.01-7.524H109.065z M60.694,64.117v20.937
	c-4.709-1.153-8.221-5.406-8.221-10.464C52.473,69.523,55.985,65.269,60.694,64.117z M54.827,204.306
	c-2.13,0-3.856-1.726-3.856-3.856v-33.828c0-10.705,4.307-20.884,11.76-28.336l-1.984,10.25l-0.518,2.627l2.654,0.384l16.058,2.297
	l-5.183,7.399l-0.92,1.314l23.663,41.75H54.827z M78.861,162.852l6.639-9.49l2.386-3.396l-4.11-0.59l-7.006-1.001l-10.509-1.501
	l0.947-4.852l2.824-14.575h17.631l2.877,21.474l6.059,45.217L78.861,162.852z M98.932,173.119l-4.325-32.295
	c1.886,0.956,4.191,1.716,6.747,1.716h0.17c1.948-0.036,3.807-0.491,5.585-1.367l-6.228,46.477L98.932,173.119z M112.988,135.686
	l1.099-8.239h4.924c1.01,0.215,2.011,0.456,3.003,0.751v20.598l-4.03,0.581c-0.876,0.125-1.626,0.697-1.984,1.51
	c-0.349,0.813-0.259,1.751,0.25,2.475l5.764,8.23v2.806l-16.863,29.739L112.988,135.686z M105.25,204.306l16.764-29.57v26.96
	c0,0.241,0.018,0.491,0.036,0.733c0.009,0.08,0.018,0.161,0.027,0.241c0.027,0.161,0.054,0.322,0.08,0.483
	c0.018,0.089,0.036,0.179,0.063,0.268c0.027,0.143,0.062,0.286,0.107,0.429c0.027,0.089,0.054,0.179,0.08,0.268
	c0.027,0.063,0.036,0.125,0.062,0.188H105.25z M196.559,201.697c0,1.441-1.168,2.609-2.609,2.609h-64.224
	c-1.441,0-2.609-1.168-2.609-2.609v-79.344c0-1.441,1.168-2.609,2.609-2.609h64.215c1.44,0,2.618,1.178,2.618,2.618V201.697z"/>
<path class="st0" d="M95.286,78.683c-1.403,0.161-2.663-0.849-2.833-2.243c-0.339-2.985-2.868-5.228-5.871-5.228
	c-2.993,0-5.514,2.243-5.862,5.228c-0.152,1.305-1.251,2.261-2.529,2.261c-0.098,0-0.197-0.009-0.295-0.018
	c-1.403-0.161-2.404-1.43-2.243-2.833c0.643-5.549,5.344-9.74,10.929-9.74c5.603,0,10.303,4.191,10.947,9.74
	C97.689,77.253,96.68,78.522,95.286,78.683z"/>
<path class="st0" d="M123.863,78.683c-0.107,0.009-0.206,0.018-0.304,0.018c-1.269,0-2.377-0.956-2.529-2.261
	c-0.339-2.985-2.86-5.228-5.862-5.228c-3.002,0-5.522,2.243-5.871,5.228c-0.161,1.394-1.43,2.404-2.824,2.243
	c-1.403-0.161-2.404-1.43-2.243-2.833c0.643-5.549,5.344-9.74,10.938-9.74c5.585,0,10.294,4.191,10.929,9.74
	C126.258,77.253,125.257,78.522,123.863,78.683z"/>
<path class="st0" d="M115.696,90.925c-0.938,5.567-7.176,9.606-14.816,9.606c-7.649,0-13.878-4.039-14.825-9.606
	c-0.232-1.385,0.706-2.699,2.091-2.94c1.394-0.232,2.708,0.706,2.94,2.091c0.438,2.574,4.307,5.353,9.794,5.353
	c5.487,0,9.347-2.779,9.785-5.353c0.232-1.385,1.555-2.323,2.94-2.091C114.999,88.226,115.928,89.54,115.696,90.925z"/>
<path class="st0" d="M188.713,187.998c0,1.403-1.144,2.547-2.556,2.547H137.67c-1.412,0-2.556-1.144-2.556-2.547
	c0-1.412,1.144-2.556,2.556-2.556h48.487C187.569,185.442,188.713,186.586,188.713,187.998z"/>
<path class="st0" d="M188.713,175.237c0,1.412-1.144,2.556-2.556,2.556H137.67c-1.412,0-2.556-1.144-2.556-2.556
	c0-1.403,1.144-2.547,2.556-2.547h48.487C187.569,172.69,188.713,173.834,188.713,175.237z"/>
<path class="st0" d="M188.713,162.485c0,1.412-1.144,2.556-2.556,2.556H137.67c-1.412,0-2.556-1.144-2.556-2.556
	c0-1.403,1.144-2.547,2.556-2.547h48.487C187.569,159.939,188.713,161.082,188.713,162.485z"/>
<path class="st0" d="M188.713,149.734c0,1.412-1.144,2.547-2.556,2.547H137.67c-1.412,0-2.556-1.135-2.556-2.547
	c0-1.403,1.144-2.547,2.556-2.547h48.487C187.569,147.187,188.713,148.331,188.713,149.734z"/>
<path class="st0" d="M164.398,132.612c0,1.412-1.144,2.556-2.556,2.556H137.67c-1.412,0-2.556-1.144-2.556-2.556
	c0-1.403,1.144-2.547,2.556-2.547h24.172C163.254,130.065,164.398,131.209,164.398,132.612z"/>
</svg>
