<?xml version="1.0" encoding="utf-8"?>
<!-- Generator: Adobe Illustrator 25.3.0, SVG Export Plug-In . SVG Version: 6.00 Build 0)  -->
<svg version="1.1" id="Capa_1" xmlns="http://www.w3.org/2000/svg" xmlns:xlink="http://www.w3.org/1999/xlink" x="0px" y="0px"
	 viewBox="0 0 57.42 57.43" style="enable-background:new 0 0 57.42 57.43;" xml:space="preserve">
<style type="text/css">
	.st0{fill:#00BABA;}
</style>
<path class="st0" d="M28.71,0C12.88,0,0,12.88,0,28.71c0,15.84,12.88,28.72,28.71,28.72s28.71-12.88,28.71-28.72
	C57.42,12.88,44.54,0,28.71,0z M36.29,40.39c0,0.45-0.15,0.82-0.47,1.13c-0.31,0.32-0.68,0.47-1.13,0.47H20.95
	c-0.44,0-0.81-0.15-1.13-0.47c-0.31-0.31-0.47-0.68-0.47-1.13v-1.65c0-2.03,0.7-3.87,2.11-5.52c0.98-1.15,2.53-2.39,4.64-3.74
	c2.63-1.7,4.19-2.74,4.66-3.11c1.4-1.18,2.11-2.36,2.11-3.57c0-1.09-0.39-2.02-1.16-2.8c-0.78-0.78-1.72-1.17-2.82-1.17h-7.06
	c-0.45,0-0.83-0.16-1.15-0.46c-0.31-0.32-0.47-0.7-0.47-1.14v-0.04c0-0.44,0.16-0.83,0.47-1.14c0.32-0.31,0.7-0.46,1.15-0.46h7.06
	c2.01,0,3.71,0.7,5.12,2.11c1.4,1.41,2.11,3.11,2.11,5.1c0,1.73-0.7,3.31-2.09,4.73c-0.86,0.88-2.39,2-4.61,3.37
	c-2.25,1.41-3.78,2.51-4.6,3.31c-1.4,1.37-2.1,2.88-2.1,4.53h11.97c0.45,0,0.82,0.16,1.13,0.48c0.32,0.31,0.47,0.69,0.47,1.14V40.39
	z"/>
</svg>
