<?xml version="1.0" encoding="utf-8"?>
<!-- Generator: Adobe Illustrator 25.3.0, SVG Export Plug-In . SVG Version: 6.00 Build 0)  -->
<svg version="1.1" id="Capa_1" xmlns="http://www.w3.org/2000/svg" xmlns:xlink="http://www.w3.org/1999/xlink" x="0px" y="0px"
	 viewBox="0 0 120 120" style="enable-background:new 0 0 120 120;" xml:space="preserve">
<style type="text/css">
	.st0{fill:#0071BC;}
</style>
<path class="st0" d="M72.95,70.499c-1.827,0-3.312,1.485-3.312,3.307c0,1.827,1.485,3.312,3.312,3.312
	c1.822,0,3.307-1.485,3.307-3.312C76.257,71.983,74.772,70.499,72.95,70.499z"/>
<path class="st0" d="M86.463,70.499c-1.822,0-3.307,1.485-3.307,3.307c0,1.827,1.485,3.312,3.307,3.312
	c1.827,0,3.312-1.485,3.312-3.312C89.775,71.983,88.29,70.499,86.463,70.499z"/>
<circle class="st0" cx="59.099" cy="38.217" r="2.839"/>
<path class="st0" d="M119.968,58.012c-1.022-31.441-26.539-56.958-57.98-57.98C27.336-1.095-1.095,27.341,0.032,61.993
	c1.022,31.436,26.539,56.953,57.975,57.975C92.659,121.095,121.095,92.664,119.968,58.012z M83.137,28.544v17.52h-4.998V35.218
	c0-0.619-0.508-1.127-1.127-1.127h-6.427v-2.572c0-0.126-0.005-0.247-0.015-0.367c0-0.025-0.005-0.055-0.005-0.086
	c-0.01-0.116-0.025-0.237-0.04-0.352c-0.005-0.01-0.005-0.02-0.005-0.03c-0.02-0.106-0.04-0.216-0.065-0.322
	c-0.005-0.03-0.01-0.055-0.02-0.081c-0.025-0.111-0.055-0.226-0.091-0.337c-0.005-0.01-0.01-0.025-0.015-0.04
	c-0.03-0.101-0.065-0.196-0.106-0.292c-0.01-0.025-0.02-0.05-0.03-0.07c-0.04-0.106-0.086-0.211-0.136-0.312
	c-0.01-0.02-0.02-0.035-0.03-0.055c-0.045-0.086-0.091-0.176-0.141-0.262c-0.01-0.02-0.025-0.04-0.035-0.06
	c-0.055-0.101-0.121-0.196-0.181-0.287c-0.005-0.005-0.01-0.015-0.015-0.02H83.137z M34.372,28.564
	c-0.06,0.091-0.121,0.186-0.181,0.287c-0.01,0.02-0.02,0.04-0.035,0.06c-0.05,0.086-0.096,0.176-0.141,0.262
	c-0.01,0.02-0.02,0.035-0.025,0.055c-0.05,0.101-0.101,0.206-0.141,0.312c-0.01,0.02-0.02,0.045-0.03,0.07
	c-0.035,0.096-0.07,0.191-0.106,0.292c-0.005,0.015-0.01,0.03-0.015,0.04c-0.035,0.111-0.065,0.226-0.091,0.337
	c-0.005,0.025-0.015,0.05-0.02,0.081c-0.025,0.106-0.045,0.216-0.06,0.322c-0.005,0.01-0.005,0.02-0.005,0.03
	c-0.02,0.116-0.035,0.237-0.045,0.352c0,0.03-0.005,0.06-0.005,0.086c-0.01,0.121-0.015,0.242-0.015,0.367v2.572h-6.422
	c-0.624,0-1.127,0.508-1.127,1.127v10.846h-5.003v-17.52h13.483C34.382,28.549,34.377,28.559,34.372,28.564z M50.895,74.54
	c0,1.812-1.48,3.287-3.292,3.287c-1.812,0-3.286-1.475-3.286-3.287v-4.756h6.578V74.54z M60.181,55.048
	c-0.332,0.231-0.513,0.619-0.478,1.022l0.946,11.46h-7.58v-7.172l5.033-8.717c0.201-0.347,0.201-0.775,0-1.127
	c-0.206-0.347-0.574-0.564-0.981-0.564H46.758c-0.403,0-0.775,0.216-0.976,0.564c-0.201,0.352-0.201,0.78,0,1.127l5.033,8.717v7.172
	H38.685c-1.641,0-2.974-1.334-2.974-2.969V31.519c0-1.641,1.334-2.974,2.974-2.974h26.67c1.641,0,2.975,1.334,2.975,2.974v26.75
	l-7.021-3.312C60.941,54.781,60.513,54.821,60.181,55.048z M62.612,63.88l-0.503-6.05l6.865,3.241l2.904,1.369
	c-3.694,0.664-6.91,2.864-8.893,5.969L62.612,63.88z M77.49,95.653c1.012-0.997,1.741-2.22,2.25-3.367
	c0.518,1.147,1.248,2.376,2.26,3.367H77.49z M96.428,77.62l-4.927,2.255c-0.569,0.257-0.815,0.926-0.559,1.495
	c0.191,0.413,0.599,0.659,1.027,0.659c0.156,0,0.317-0.035,0.468-0.106l3.991-1.822v3.427h-2.657c-0.624,0-1.127,0.508-1.127,1.127
	c0,0.624,0.503,1.132,1.127,1.132h2.577c-0.176,1.49-0.644,2.889-1.349,4.142l-2.31-2.31c-0.443-0.443-1.158-0.443-1.595,0
	c-0.443,0.438-0.443,1.153,0,1.595l2.582,2.582c-1.636,1.887-3.89,3.216-6.447,3.674c-0.091-0.02-0.186-0.035-0.282-0.035
	c-4.132,0-5.637-5.088-5.999-6.628l2.708-4.691c0.201-0.347,0.201-0.775,0-1.127c-0.201-0.347-0.574-0.564-0.976-0.564h-5.874
	c-0.403,0-0.775,0.216-0.976,0.564c-0.201,0.352-0.201,0.78,0,1.127l2.703,4.691c-0.352,1.53-1.832,6.628-5.984,6.628
	c-0.101,0-0.196,0.015-0.287,0.04c-2.572-0.463-4.842-1.807-6.482-3.704l2.557-2.557c0.443-0.443,0.443-1.158,0-1.595
	c-0.438-0.443-1.153-0.443-1.596,0l-2.275,2.275c-0.694-1.243-1.157-2.632-1.329-4.107h2.522c0.624,0,1.127-0.508,1.127-1.132
	c0-0.619-0.503-1.127-1.127-1.127h-2.602v-3.407l3.936,1.802c0.151,0.07,0.312,0.106,0.468,0.106c0.428,0,0.835-0.247,1.027-0.659
	c0.257-0.569,0.01-1.238-0.559-1.495l-4.872-2.235v-2.064c0-0.579,0.04-1.147,0.126-1.706c0.086-0.126,0.151-0.267,0.181-0.418
	c1.007-5.194,5.582-8.964,10.881-8.964h2.219c0.161,0,0.317-0.04,0.458-0.101h5.632c0.141,0.06,0.297,0.101,0.458,0.101h2.23
	c5.29,0,9.865,3.76,10.876,8.944c0.03,0.156,0.096,0.292,0.176,0.418c0.091,0.564,0.136,1.137,0.136,1.726V77.62z M96.489,68.405
	c-1.983-3.105-5.199-5.3-8.893-5.964l3.704-1.746l6.065-2.864L96.489,68.405z"/>
<path class="st0" d="M44.947,35.379c-1.57,0-2.844,1.273-2.844,2.839c0,1.57,1.273,2.839,2.844,2.839
	c1.565,0,2.839-1.268,2.839-2.839C47.785,36.652,46.512,35.379,44.947,35.379z"/>
</svg>
