<?xml version="1.0" encoding="utf-8"?>
<!-- Generator: Adobe Illustrator 25.3.0, SVG Export Plug-In . SVG Version: 6.00 Build 0)  -->
<svg version="1.1" id="Capa_1" xmlns="http://www.w3.org/2000/svg" xmlns:xlink="http://www.w3.org/1999/xlink" x="0px" y="0px"
	 viewBox="0 0 57.42 57.42" style="enable-background:new 0 0 57.42 57.42;" xml:space="preserve">
<style type="text/css">
	.st0{fill:#00BABA;}
</style>
<path class="st0" d="M28.71,0C12.88,0,0,12.88,0,28.71c0,15.83,12.88,28.71,28.71,28.71s28.71-12.88,28.71-28.71
	C57.42,12.88,44.54,0,28.71,0z M30.81,40.39c0,0.44-0.15,0.82-0.46,1.12c-0.31,0.32-0.69,0.48-1.14,0.48h-0.03
	c-0.45,0-0.83-0.16-1.15-0.48c-0.3-0.3-0.45-0.68-0.45-1.12V18.82h-3.41c-0.44,0-0.81-0.15-1.13-0.46s-0.47-0.69-0.47-1.14v-0.03
	c0-0.45,0.15-0.83,0.47-1.15c0.32-0.3,0.69-0.45,1.13-0.45h5.04c0.45,0,0.83,0.15,1.14,0.45c0.31,0.32,0.46,0.7,0.46,1.15V40.39z"/>
</svg>
