<?xml version="1.0" encoding="utf-8"?>
<!-- Generator: Adobe Illustrator 25.3.0, SVG Export Plug-In . SVG Version: 6.00 Build 0)  -->
<svg version="1.1" id="Capa_1" xmlns="http://www.w3.org/2000/svg" xmlns:xlink="http://www.w3.org/1999/xlink" x="0px" y="0px"
	 viewBox="0 0 74.018 51.775" style="enable-background:new 0 0 74.018 51.775;" xml:space="preserve">
<style type="text/css">
	.st0{fill:#FFFFFF;}
</style>
<path class="st0" d="M31.118,3.847c-0.252-0.252-0.661-0.252-0.913,0l-2.763,2.763c-0.252,0.252-0.252,0.661,0,0.913
	c0.126,0.126,0.291,0.189,0.457,0.189s0.331-0.063,0.457-0.189l2.763-2.763C31.37,4.508,31.37,4.099,31.118,3.847z"/>
<path class="st0" d="M16.855,3.847c-0.252-0.252-0.661-0.252-0.913,0c-0.252,0.252-0.252,0.661,0,0.913l2.763,2.763
	c0.126,0.126,0.291,0.189,0.457,0.189c0.165,0,0.331-0.063,0.457-0.189c0.252-0.252,0.252-0.661,0-0.913L16.855,3.847z"/>
<path class="st0" d="M23.506,0c-0.357,0-0.646,0.289-0.646,0.646v3.908c0,0.357,0.289,0.646,0.646,0.646s0.646-0.289,0.646-0.646
	V0.646C24.152,0.289,23.862,0,23.506,0z"/>
<path class="st0" d="M72.707,28.922h-0.716h-2.879h-0.007c-0.001-0.113-0.003-0.227-0.006-0.342
	c-0.003-0.119-0.007-0.239-0.012-0.358h2.903l0-0.001h0.708c0.724,0,1.311-0.587,1.311-1.311S73.423,25.6,72.699,25.6h-1.175
	l-1.749-9.821c-0.371-2.086-3.486-3.738-6.933-3.738H52.494l-0.109-0.352c-0.768-2.476-2.689-4.076-4.894-4.076H37.408
	c-2.204,0-4.125,1.6-4.893,4.076l-0.107,0.345H17.142c-0.656,0-1.314,0.177-1.905,0.552c-0.591,0.378-1.031,0.898-1.312,1.487
	L8.483,25.592H5.669c-0.724,0-1.311,0.587-1.311,1.311s0.587,1.311,1.311,1.311h3.449l-0.331,0.709H4.59
	c-0.724,0-1.311,0.587-1.311,1.311c0,0.712,0.568,1.291,1.276,1.309c-0.602,0.95-2.372,3.908-1.786,7.94c0,0,0,0.001,0,0.001
	C1.237,39.505,0,40.753,0,42.292c0,1.552,1.258,2.811,2.811,2.811c0.011,0,0.021-0.001,0.031-0.002c0,0,0,0.002,0,0.002h10.193
	c0-0.026-0.002-0.051-0.002-0.077c0-4.614,3.754-8.368,8.368-8.368s8.368,3.754,8.368,8.368c0,0.026-0.002,0.051-0.002,0.077h3.187
	c0.019,0,0.038,0.001,0.057,0.001h14.963c0-0.026-0.002-0.052-0.002-0.078c0-4.614,3.754-8.368,8.368-8.368
	c4.614,0,8.368,3.754,8.368,8.368c0,0.006,0,0.012,0,0.018c0.049,0.001,0.08,0.003,0.08,0.004c2.995-0.301,5.519-1.818,5.851-3.683
	l0.892-9.821h1.176c0.724,0,1.311-0.587,1.311-1.311S73.431,28.922,72.707,28.922z M27.899,26.588c0,0.844-0.684,1.529-1.529,1.529
	H14.01c-0.81,0-1.343-0.845-0.993-1.576l4.773-9.982c0.257-0.537,0.798-0.878,1.393-0.878h7.479c0.682,0,1.236,0.553,1.236,1.236
	V26.588z M43.889,36.575c0,0.803-0.651,1.454-1.454,1.454H39.99v2.445c0,0.803-0.651,1.454-1.454,1.454
	c-0.803,0-1.454-0.651-1.454-1.454v-2.445h-2.445c-0.803,0-1.454-0.651-1.454-1.454v0c0-0.803,0.651-1.454,1.454-1.454h2.445v-2.445
	c0-0.803,0.651-1.454,1.454-1.454c0.803,0,1.454,0.651,1.454,1.454v2.445h2.445C43.237,35.12,43.889,35.771,43.889,36.575
	L43.889,36.575z M37.366,26.948V17.27c0-0.646,0.523-1.169,1.169-1.169c0.646,0,1.169,0.523,1.169,1.169v9.679
	c0,0.646-0.523,1.169-1.169,1.169C37.89,28.117,37.366,27.594,37.366,26.948z M44.02,26.948c0,0.646-0.523,1.169-1.169,1.169
	c-0.646,0-1.169-0.523-1.169-1.169V17.27c0-0.646,0.523-1.169,1.169-1.169c0.646,0,1.169,0.523,1.169,1.169V26.948z M48.335,26.948
	c0,0.646-0.523,1.169-1.169,1.169c-0.646,0-1.169-0.523-1.169-1.169V17.27c0-0.646,0.523-1.169,1.169-1.169
	c0.646,0,1.169,0.523,1.169,1.169V26.948z M34.905,12.041l0.029-0.07c0.517-1.272,1.488-2.094,2.474-2.094h10.083
	c0.986,0,1.958,0.822,2.474,2.094l0.029,0.07H34.905z M52.65,26.948c0,0.646-0.523,1.169-1.169,1.169s-1.169-0.523-1.169-1.169
	V17.27c0-0.646,0.523-1.169,1.169-1.169s1.169,0.523,1.169,1.169V26.948z M56.966,26.948c0,0.646-0.523,1.169-1.169,1.169
	s-1.169-0.523-1.169-1.169V17.27c0-0.646,0.523-1.169,1.169-1.169s1.169,0.523,1.169,1.169V26.948z M61.281,26.948
	c0,0.646-0.523,1.169-1.169,1.169c-0.646,0-1.169-0.523-1.169-1.169V17.27c0-0.646,0.523-1.169,1.169-1.169
	c0.646,0,1.169,0.523,1.169,1.169V26.948z M65.597,26.948c0,0.646-0.523,1.169-1.169,1.169c-0.646,0-1.169-0.523-1.169-1.169V17.27
	c0-0.646,0.523-1.169,1.169-1.169c0.646,0,1.169,0.523,1.169,1.169V26.948z"/>
<path class="st0" d="M25.896,12.034V9.53c0-0.67-0.176-1.342-0.526-1.853c-0.351-0.512-0.811-0.768-1.272-0.768h-0.989
	c-0.46,0-0.92,0.256-1.272,0.768c-0.351,0.511-0.526,1.182-0.526,1.853v2.504H25.896z"/>
<path class="st0" d="M21.401,51.775c-3.722,0-6.75-3.028-6.75-6.75c0-3.722,3.028-6.75,6.75-6.75s6.75,3.028,6.75,6.75
	C28.15,48.747,25.122,51.775,21.401,51.775z M21.401,41.297c-2.056,0-3.729,1.673-3.729,3.729s1.673,3.729,3.729,3.729
	s3.729-1.673,3.729-3.729S23.457,41.297,21.401,41.297z"/>
<path class="st0" d="M56.34,51.775c-3.722,0-6.75-3.028-6.75-6.75c0-3.722,3.028-6.75,6.75-6.75c3.722,0,6.75,3.028,6.75,6.75
	C63.09,48.747,60.062,51.775,56.34,51.775z M56.34,41.297c-2.056,0-3.729,1.673-3.729,3.729s1.673,3.729,3.729,3.729
	s3.729-1.673,3.729-3.729S58.396,41.297,56.34,41.297z"/>
</svg>
