<?xml version="1.0" encoding="utf-8"?>
<!-- Generator: Adobe Illustrator 25.3.0, SVG Export Plug-In . SVG Version: 6.00 Build 0)  -->
<svg version="1.1" id="Capa_1" xmlns="http://www.w3.org/2000/svg" xmlns:xlink="http://www.w3.org/1999/xlink" x="0px" y="0px"
	 viewBox="0 0 173.534 75.325" style="enable-background:new 0 0 173.534 75.325;" xml:space="preserve">
<style type="text/css">
	.st0{fill:#FFFFFF;}
</style>
<path class="st0" d="M80.667,52.719c0.674,0.176,1.011,0.605,1.011,1.289v0.044c0,0.43-0.176,0.781-0.527,1.055
	c-0.342,0.264-0.723,0.342-1.143,0.234c-0.684-0.176-1.377-0.264-2.08-0.264c-2.285,0-4.238,0.811-5.859,2.432
	s-2.432,3.579-2.432,5.874s0.811,4.253,2.432,5.874c1.621,1.611,3.574,2.417,5.859,2.417c0.703,0,1.396-0.083,2.08-0.249
	c0.42-0.107,0.801-0.029,1.143,0.234c0.352,0.264,0.527,0.615,0.527,1.055v0.029c0,0.693-0.337,1.128-1.011,1.304
	c-0.898,0.225-1.812,0.337-2.739,0.337c-3.037,0-5.63-1.074-7.778-3.223s-3.223-4.741-3.223-7.778s1.074-5.63,3.223-7.778
	s4.741-3.223,7.778-3.223C78.855,52.382,79.768,52.495,80.667,52.719z"/>
<path class="st0" d="M88.984,52.382c0.361,0,0.674,0.127,0.938,0.381c0.264,0.264,0.396,0.581,0.396,0.952v19.336
	c0,0.371-0.132,0.684-0.396,0.938c-0.264,0.264-0.576,0.396-0.938,0.396H88.94c-0.361,0-0.674-0.132-0.938-0.396
	c-0.264-0.254-0.396-0.566-0.396-0.938V53.715c0-0.371,0.132-0.688,0.396-0.952c0.264-0.254,0.576-0.381,0.938-0.381H88.984z"/>
<path class="st0" d="M98.737,55.605c-0.449,0-0.83-0.156-1.143-0.469s-0.469-0.693-0.469-1.143c0-0.439,0.156-0.815,0.469-1.128
	s0.693-0.469,1.143-0.469c0.439,0,0.815,0.156,1.128,0.469c0.322,0.312,0.483,0.688,0.483,1.128c0,0.449-0.161,0.83-0.483,1.143
	C99.552,55.449,99.176,55.605,98.737,55.605z M98.751,58.388c0.371,0,0.684,0.132,0.938,0.396c0.264,0.264,0.396,0.581,0.396,0.952
	v13.315c0,0.371-0.132,0.684-0.396,0.938c-0.254,0.264-0.566,0.396-0.938,0.396h-0.029c-0.371,0-0.688-0.132-0.952-0.396
	c-0.264-0.254-0.396-0.566-0.396-0.938V59.736c0-0.371,0.132-0.688,0.396-0.952s0.581-0.396,0.952-0.396H98.751z"/>
<path class="st0" d="M121.395,63.061c0.156,0.332,0.171,0.674,0.044,1.025c-0.127,0.342-0.361,0.591-0.703,0.747
	c-1.367,0.615-3.164,1.426-5.391,2.432c-2.764,1.25-4.556,2.061-5.376,2.432c1.055,1.348,2.441,2.021,4.16,2.021
	c1.143,0,2.178-0.337,3.105-1.011c0.898-0.654,1.528-1.504,1.89-2.549c0.215-0.605,0.645-0.908,1.289-0.908
	c0.459,0,0.825,0.19,1.099,0.571c0.264,0.371,0.317,0.776,0.161,1.216c-0.547,1.582-1.504,2.861-2.871,3.838
	c-1.396,1.006-2.954,1.509-4.673,1.509c-2.207,0-4.092-0.781-5.654-2.344s-2.344-3.447-2.344-5.654s0.781-4.092,2.344-5.654
	s3.447-2.344,5.654-2.344c1.592,0,3.047,0.435,4.365,1.304C119.793,60.542,120.76,61.665,121.395,63.061z M114.129,61.127
	c-1.465,0-2.715,0.518-3.75,1.553c-1.025,1.035-1.538,2.285-1.538,3.75c0,0.264,0.02,0.522,0.059,0.776l9.272-4.189
	C117.118,61.757,115.77,61.127,114.129,61.127z"/>
<path class="st0" d="M130.108,73.051c0,0.371-0.132,0.684-0.396,0.938c-0.264,0.264-0.576,0.396-0.938,0.396h-0.044
	c-0.361,0-0.674-0.132-0.938-0.396c-0.264-0.254-0.396-0.566-0.396-0.938v-8.013c0-1.836,0.649-3.403,1.948-4.702
	s2.866-1.948,4.702-1.948c1.826,0,3.389,0.649,4.688,1.948s1.948,2.866,1.948,4.702v8.013c0,0.371-0.132,0.684-0.396,0.938
	c-0.254,0.264-0.566,0.396-0.938,0.396h-0.029c-0.371,0-0.688-0.132-0.952-0.396c-0.264-0.254-0.396-0.566-0.396-0.938v-8.013
	c0-1.084-0.381-2.012-1.143-2.783c-0.771-0.771-1.699-1.157-2.783-1.157c-1.094,0-2.026,0.386-2.798,1.157
	c-0.762,0.771-1.143,1.699-1.143,2.783V73.051z"/>
<path class="st0" d="M147.991,52.382c0.361,0,0.674,0.127,0.938,0.381c0.264,0.264,0.396,0.581,0.396,0.952v4.673h2.637
	c0.361,0,0.674,0.132,0.938,0.396s0.396,0.581,0.396,0.952v0.029c0,0.371-0.132,0.684-0.396,0.938
	c-0.264,0.264-0.576,0.396-0.938,0.396h-2.637v9.126c0,0.4,0.142,0.742,0.425,1.025s0.63,0.425,1.04,0.425h1.172
	c0.361,0,0.674,0.132,0.938,0.396s0.396,0.581,0.396,0.952v0.029c0,0.371-0.132,0.684-0.396,0.938
	c-0.264,0.264-0.576,0.396-0.938,0.396h-1.172c-1.152,0-2.139-0.405-2.959-1.216c-0.811-0.82-1.216-1.802-1.216-2.944V53.715
	c0-0.371,0.132-0.688,0.396-0.952c0.264-0.254,0.576-0.381,0.938-0.381H147.991z"/>
<path class="st0" d="M173.168,63.061c0.156,0.332,0.171,0.674,0.044,1.025c-0.127,0.342-0.361,0.591-0.703,0.747
	c-1.367,0.615-3.164,1.426-5.391,2.432c-2.764,1.25-4.556,2.061-5.376,2.432c1.055,1.348,2.441,2.021,4.16,2.021
	c1.143,0,2.178-0.337,3.105-1.011c0.898-0.654,1.528-1.504,1.89-2.549c0.215-0.605,0.645-0.908,1.289-0.908
	c0.459,0,0.825,0.19,1.099,0.571c0.264,0.371,0.317,0.776,0.161,1.216c-0.547,1.582-1.504,2.861-2.871,3.838
	c-1.396,1.006-2.954,1.509-4.673,1.509c-2.207,0-4.092-0.781-5.654-2.344s-2.344-3.447-2.344-5.654s0.781-4.092,2.344-5.654
	s3.447-2.344,5.654-2.344c1.592,0,3.047,0.435,4.365,1.304C171.567,60.542,172.534,61.665,173.168,63.061z M165.903,61.127
	c-1.465,0-2.715,0.518-3.75,1.553c-1.025,1.035-1.538,2.285-1.538,3.75c0,0.264,0.02,0.522,0.059,0.776l9.272-4.189
	C168.891,61.757,167.543,61.127,165.903,61.127z"/>
<path class="st0" d="M54.64,32.288c-0.358-0.142-0.767-0.051-1.031,0.23L43.822,42.93h-2.495l-7.255-7.718
	c0.642-1.16,0.996-2.451,0.996-3.792v-3.497c0.354,0.14,0.718,0.218,1.078,0.218c0.704,0,1.391-0.261,1.938-0.764
	c1.203-1.105,1.893-2.675,1.893-4.308c0-1.617-0.646-3.122-1.818-4.238c-0.842-0.801-2.017-1.027-3.091-0.609v-0.666v-4.693
	C35.068,5.77,29.298,0,22.205,0h-3.88C11.232,0,5.461,5.77,5.461,12.863v4.693v0.666c-1.074-0.417-2.249-0.192-3.091,0.609
	c-1.172,1.115-1.818,2.62-1.818,4.238c0,1.633,0.69,3.203,1.893,4.308c0.547,0.502,1.233,0.764,1.938,0.764
	c0.361,0,0.725-0.078,1.078-0.218v3.497c0,4.34,3.531,7.872,7.872,7.872h13.864c0.936,0,1.851-0.184,2.719-0.504v4.145h-3.178
	H13.449H7.593C3.406,42.932,0,46.339,0,50.526v24.799h39.59l0.94-0.002h10.261c2.45,0,4.443-1.993,4.443-4.443V48.248v-0.876V33.161
	C55.234,32.776,54.998,32.43,54.64,32.288z M35.068,20.957c0-0.647,0.49-0.908,0.64-0.972c0.073-0.031,0.236-0.089,0.437-0.089
	c0.215,0,0.474,0.065,0.719,0.298c0.796,0.757,1.234,1.778,1.234,2.876c0,1.108-0.468,2.174-1.285,2.924
	c-0.448,0.412-0.953,0.237-1.097,0.174c-0.152-0.067-0.648-0.335-0.648-0.982V20.957z M5.461,25.185
	c0,0.648-0.496,0.916-0.648,0.982c-0.144,0.063-0.649,0.237-1.097-0.174c-0.816-0.75-1.285-1.816-1.285-2.924
	c0-1.098,0.438-2.119,1.234-2.876c0.244-0.232,0.504-0.298,0.719-0.298c0.202,0,0.364,0.058,0.437,0.089
	c0.15,0.064,0.64,0.325,0.64,0.972V25.185z M18.325,1.879h3.88c5.917,0,10.757,4.704,10.976,10.569
	c-0.052-0.061-0.112-0.116-0.167-0.176c-0.11-0.121-0.221-0.242-0.338-0.356c-0.079-0.077-0.162-0.148-0.243-0.221
	c-0.117-0.104-0.234-0.207-0.357-0.305c-0.089-0.07-0.18-0.137-0.271-0.203c-0.125-0.09-0.251-0.178-0.381-0.261
	c-0.097-0.062-0.195-0.121-0.294-0.179c-0.133-0.077-0.269-0.15-0.407-0.219c-0.103-0.052-0.206-0.103-0.311-0.15
	c-0.143-0.064-0.289-0.122-0.437-0.178c-0.106-0.04-0.211-0.081-0.32-0.117c-0.156-0.052-0.316-0.094-0.477-0.136
	c-0.105-0.027-0.208-0.058-0.314-0.081C28.684,9.827,28.5,9.8,28.316,9.774c-0.091-0.013-0.18-0.032-0.272-0.042
	c-0.278-0.03-0.56-0.047-0.847-0.047H13.333c-0.286,0-0.568,0.017-0.847,0.047c-0.092,0.01-0.181,0.029-0.271,0.042
	C12.03,9.8,11.846,9.827,11.666,9.866c-0.106,0.023-0.209,0.053-0.313,0.081c-0.161,0.042-0.321,0.085-0.477,0.136
	c-0.108,0.036-0.213,0.077-0.319,0.117c-0.148,0.056-0.294,0.114-0.438,0.178c-0.105,0.047-0.207,0.098-0.31,0.149
	c-0.138,0.07-0.274,0.142-0.408,0.22c-0.099,0.058-0.197,0.117-0.293,0.178c-0.13,0.083-0.257,0.171-0.382,0.262
	c-0.091,0.066-0.182,0.132-0.27,0.202c-0.123,0.098-0.241,0.201-0.358,0.305c-0.082,0.073-0.165,0.145-0.243,0.221
	c-0.117,0.114-0.228,0.235-0.338,0.356c-0.054,0.06-0.114,0.114-0.167,0.176C7.568,6.583,12.407,1.879,18.325,1.879z M24.965,44.812
	l-4.823,7.114l-4.904-7.114H24.965z M1.879,73.446v-22.92c0-3.151,2.563-5.714,5.714-5.714h5.362l6.419,9.312
	c0.175,0.255,0.465,0.406,0.774,0.406c0.001,0,0.002,0,0.004,0c0.31-0.001,0.6-0.156,0.774-0.412l6.31-9.307h2.68v3.436v22.633
	c0,0.279,0.033,0.549,0.082,0.814c0.015,0.081,0.038,0.158,0.057,0.238c0.045,0.185,0.1,0.365,0.168,0.54
	c0.031,0.081,0.063,0.16,0.098,0.239c0.083,0.183,0.179,0.357,0.285,0.525c0.033,0.053,0.061,0.108,0.096,0.159
	c0.011,0.016,0.019,0.034,0.03,0.049H1.879z M31.54,32.518l-1.624-1.728v2.372v3.599c-0.839,0.428-1.769,0.652-2.719,0.652H13.333
	c-3.304,0-5.992-2.688-5.992-5.992v-6.235v-4.228v-3.4c0-3.304,2.688-5.992,5.992-5.992h13.864c3.304,0,5.992,2.688,5.992,5.992v3.4
	v4.228v6.235c0,0.815-0.163,1.609-0.477,2.345L31.54,32.518C31.54,32.518,31.54,32.518,31.54,32.518z M31.795,42.932v-5.103v-2.296
	l6.953,7.397h-3.514h-0.876c-0.956,0-1.837,0.311-2.563,0.827V42.932z M53.354,70.881c0,1.413-1.15,2.563-2.563,2.563h-7.098v-5.166
	c0.399-0.188,0.744-0.481,0.975-0.882l1.515-2.624c0.4-0.692,0.4-1.519,0-2.211c-0.4-0.692-1.116-1.106-1.915-1.106h-3.03
	c-0.799,0-1.515,0.413-1.915,1.106c-0.4,0.692-0.4,1.519,0,2.211l1.515,2.624c0.232,0.401,0.577,0.694,0.975,0.882v5.166H40.53
	h-6.172c-0.53,0-1.023-0.162-1.432-0.438c-0.682-0.461-1.131-1.241-1.131-2.125V48.248c0-1.896,1.543-3.438,3.439-3.438h5.687h3.307
	h5.687c1.896,0,3.439,1.543,3.439,3.439V70.881z M53.354,43.756c-0.726-0.516-1.607-0.826-2.563-0.826h-0.876h-3.514l6.953-7.397
	V43.756z"/>
<circle class="st0" cx="37.351" cy="52.433" r="1.88"/>
<circle class="st0" cx="47.66" cy="52.433" r="1.88"/>
<path class="st0" d="M17.162,23.752c0.055,0.479,0.462,0.832,0.932,0.832c0.036,0,0.072-0.002,0.109-0.006
	c0.516-0.06,0.885-0.526,0.826-1.041c-0.236-2.046-1.968-3.588-4.029-3.588s-3.792,1.543-4.029,3.588
	c-0.06,0.516,0.31,0.982,0.826,1.041c0.516,0.059,0.982-0.31,1.041-0.826c0.127-1.097,1.056-1.925,2.162-1.925
	S17.035,22.655,17.162,23.752z"/>
<path class="st0" d="M24.954,28.007c-0.511-0.087-0.997,0.258-1.083,0.77c-0.161,0.949-1.585,1.974-3.606,1.974
	c-2.021,0-3.446-1.024-3.606-1.974c-0.087-0.512-0.572-0.856-1.083-0.77c-0.512,0.087-0.856,0.572-0.77,1.083
	c0.347,2.051,2.643,3.539,5.459,3.539c2.816,0,5.112-1.489,5.459-3.539C25.811,28.578,25.466,28.093,24.954,28.007z"/>
<path class="st0" d="M25.529,19.948c-2.06,0-3.792,1.543-4.029,3.588c-0.06,0.516,0.31,0.982,0.826,1.041
	c0.515,0.059,0.982-0.31,1.041-0.826c0.127-1.097,1.056-1.925,2.162-1.925s2.035,0.828,2.162,1.925
	c0.055,0.479,0.462,0.832,0.932,0.832c0.036,0,0.072-0.002,0.109-0.006c0.516-0.06,0.885-0.526,0.826-1.041
	C29.321,21.491,27.589,19.948,25.529,19.948z"/>
</svg>
