<?xml version="1.0" encoding="utf-8"?>
<!-- Generator: Adobe Illustrator 25.3.0, SVG Export Plug-In . SVG Version: 6.00 Build 0)  -->
<svg version="1.1" id="Capa_1" xmlns="http://www.w3.org/2000/svg" xmlns:xlink="http://www.w3.org/1999/xlink" x="0px" y="0px"
	 viewBox="0 0 116.498 46.498" style="enable-background:new 0 0 116.498 46.498;" xml:space="preserve">
<style type="text/css">
	.st0{fill:#F4B924;}
	.st1{fill:#FFFFFF;}
</style>
<path class="st0" d="M105.425,0H11.078C4.971,0,0,4.969,0,11.076v24.346c0,6.107,4.971,11.076,11.078,11.076h94.346
	c6.107,0,11.073-4.969,11.073-11.076V11.076C116.498,4.969,111.532,0,105.425,0z"/>
<path class="st1" d="M31.557,9.254c0.785,0.205,1.179,0.706,1.179,1.504v0.051c0,0.502-0.205,0.912-0.615,1.23
	c-0.399,0.308-0.844,0.399-1.333,0.273c-0.798-0.205-1.606-0.308-2.427-0.308c-2.666,0-4.945,0.946-6.836,2.837
	c-1.892,1.892-2.837,4.176-2.837,6.854c0,2.677,0.945,4.962,2.837,6.853c1.891,1.88,4.17,2.819,6.836,2.819
	c0.82,0,1.629-0.096,2.427-0.29c0.489-0.125,0.934-0.034,1.333,0.273c0.41,0.308,0.615,0.718,0.615,1.23v0.034
	c0,0.81-0.394,1.316-1.179,1.521c-1.049,0.262-2.114,0.393-3.196,0.393c-3.544,0-6.568-1.253-9.075-3.76
	c-2.506-2.506-3.76-5.531-3.76-9.074c0-3.544,1.254-6.568,3.76-9.075c2.507-2.507,5.531-3.76,9.075-3.76
	C29.442,8.86,30.508,8.992,31.557,9.254z"/>
<path class="st1" d="M41.191,12.62c-0.524,0-0.969-0.182-1.333-0.547c-0.365-0.364-0.547-0.809-0.547-1.333
	c0-0.513,0.182-0.951,0.547-1.315c0.364-0.364,0.809-0.547,1.333-0.547c0.513,0,0.951,0.183,1.315,0.547
	c0.377,0.364,0.564,0.803,0.564,1.315c0,0.524-0.188,0.969-0.564,1.333C42.142,12.439,41.704,12.62,41.191,12.62z M41.208,15.867
	c0.434,0,0.798,0.154,1.094,0.461c0.309,0.309,0.462,0.679,0.462,1.111v15.535c0,0.433-0.153,0.797-0.462,1.094
	c-0.296,0.307-0.66,0.461-1.094,0.461h-0.033c-0.434,0-0.804-0.154-1.111-0.461c-0.308-0.297-0.461-0.661-0.461-1.094V17.44
	c0-0.433,0.153-0.803,0.461-1.111c0.308-0.307,0.678-0.461,1.111-0.461H41.208z"/>
<path class="st1" d="M51.937,8.86c0.421,0,0.786,0.148,1.094,0.444c0.308,0.308,0.462,0.678,0.462,1.111v5.451h3.076
	c0.421,0,0.785,0.154,1.094,0.461c0.307,0.309,0.461,0.679,0.461,1.111v0.034c0,0.434-0.154,0.798-0.461,1.094
	c-0.309,0.308-0.673,0.462-1.094,0.462h-3.076v10.646c0,0.468,0.164,0.866,0.495,1.196c0.33,0.331,0.735,0.495,1.214,0.495h1.367
	c0.421,0,0.785,0.154,1.094,0.462c0.307,0.308,0.461,0.678,0.461,1.11v0.035c0,0.433-0.154,0.797-0.461,1.094
	c-0.309,0.307-0.673,0.461-1.094,0.461h-1.367c-1.345,0-2.496-0.473-3.453-1.418c-0.945-0.957-1.418-2.103-1.418-3.436v-19.26
	c0-0.434,0.154-0.804,0.461-1.111C51.1,9.009,51.465,8.86,51.886,8.86H51.937z"/>
<path class="st1" d="M79.944,18.602c1.822,1.823,2.734,4.022,2.734,6.597v7.776c0,0.433-0.154,0.797-0.461,1.094
	c-0.309,0.307-0.673,0.461-1.094,0.461h-0.052c-0.422,0-0.786-0.154-1.094-0.461c-0.308-0.297-0.462-0.661-0.462-1.094v-0.787
	c-1.766,1.562-3.822,2.342-6.169,2.342c-2.575,0-4.774-0.911-6.597-2.734c-1.823-1.822-2.734-4.021-2.734-6.597
	c0-2.574,0.911-4.773,2.734-6.597c1.822-1.822,4.021-2.734,6.597-2.734C75.922,15.867,78.121,16.779,79.944,18.602z M68.973,20.84
	c-1.196,1.208-1.794,2.661-1.794,4.358c0,1.709,0.598,3.168,1.794,4.375c1.207,1.196,2.666,1.794,4.375,1.794
	s3.161-0.598,4.358-1.794c1.207-1.207,1.811-2.666,1.811-4.375c0-1.697-0.604-3.15-1.811-4.358
	c-1.197-1.207-2.649-1.811-4.358-1.811S70.18,19.633,68.973,20.84z"/>
<path class="st1" d="M97.595,15.867c0.433,0,0.803,0.154,1.111,0.461c0.296,0.309,0.443,0.679,0.443,1.111v0.034
	c0,0.434-0.147,0.798-0.443,1.094c-0.309,0.308-0.679,0.462-1.111,0.462H96.62c-1.07,0-1.982,0.375-2.734,1.127
	c-0.74,0.752-1.116,1.664-1.127,2.734v10.084c0,0.433-0.154,0.797-0.462,1.094c-0.308,0.307-0.673,0.461-1.094,0.461h-0.052
	c-0.421,0-0.785-0.154-1.094-0.461c-0.307-0.297-0.461-0.661-0.461-1.094V22.891c0.022-1.947,0.706-3.605,2.051-4.973
	c1.367-1.367,3.025-2.051,4.973-2.051H97.595z"/>
</svg>
