<?xml version="1.0" encoding="utf-8"?>
<!-- Generator: Adobe Illustrator 25.3.0, SVG Export Plug-In . SVG Version: 6.00 Build 0)  -->
<svg version="1.1" id="Capa_1" xmlns="http://www.w3.org/2000/svg" xmlns:xlink="http://www.w3.org/1999/xlink" x="0px" y="0px"
	 viewBox="0 0 110.945 42.172" style="enable-background:new 0 0 110.945 42.172;" xml:space="preserve">
<style type="text/css">
	.st0{fill:#FFFFFF;}
</style>
<path class="st0" d="M53.096,15.151c-0.894,0-1.654,0.314-2.283,0.943s-0.943,1.39-0.943,2.283c0,1.085,0.492,1.909,1.477,2.475
	c0.401,0.228,1.531,0.61,3.391,1.148c1.495,0.446,2.579,0.976,3.254,1.586c0.984,0.894,1.477,2.165,1.477,3.814
	c0,1.604-0.569,2.972-1.709,4.102c-1.13,1.13-2.493,1.695-4.088,1.695h-5.209c-0.337,0-0.629-0.123-0.875-0.369
	s-0.369-0.538-0.369-0.875v-0.082c0-0.337,0.123-0.629,0.369-0.875s0.538-0.369,0.875-0.369h5.346c0.884,0,1.646-0.314,2.283-0.943
	c0.629-0.629,0.943-1.39,0.943-2.283c0-1.066-0.492-1.896-1.477-2.488c-0.429-0.255-1.559-0.67-3.391-1.244
	c-1.504-0.492-2.589-1.039-3.254-1.641c-0.984-0.884-1.477-2.101-1.477-3.65c0-1.604,0.565-2.972,1.695-4.102
	s2.497-1.695,4.102-1.695h3.678c0.347,0,0.643,0.123,0.889,0.369c0.237,0.237,0.355,0.528,0.355,0.875v0.082
	c0,0.337-0.118,0.629-0.355,0.875c-0.246,0.246-0.542,0.369-0.889,0.369H53.096z"/>
<path class="st0" d="M77.334,20.456c1.458,1.458,2.188,3.218,2.188,5.277v6.221c0,0.347-0.123,0.638-0.369,0.875
	c-0.246,0.246-0.538,0.369-0.875,0.369h-0.041c-0.337,0-0.629-0.123-0.875-0.369c-0.246-0.237-0.369-0.528-0.369-0.875v-0.629
	c-1.413,1.249-3.058,1.873-4.936,1.873c-2.06,0-3.819-0.729-5.277-2.188s-2.188-3.218-2.188-5.277s0.729-3.819,2.188-5.277
	s3.218-2.188,5.277-2.188S75.876,18.998,77.334,20.456z M68.556,22.247c-0.957,0.966-1.436,2.128-1.436,3.486
	c0,1.367,0.479,2.534,1.436,3.5c0.966,0.957,2.133,1.436,3.5,1.436s2.529-0.479,3.486-1.436c0.966-0.966,1.449-2.133,1.449-3.5
	c0-1.358-0.483-2.521-1.449-3.486c-0.957-0.966-2.119-1.449-3.486-1.449S69.522,21.281,68.556,22.247z"/>
<path class="st0" d="M86.887,12.663c0.337,0,0.629,0.118,0.875,0.355c0.246,0.246,0.369,0.542,0.369,0.889v18.047
	c0,0.347-0.123,0.638-0.369,0.875c-0.246,0.246-0.538,0.369-0.875,0.369h-0.041c-0.337,0-0.629-0.123-0.875-0.369
	c-0.246-0.237-0.369-0.528-0.369-0.875V13.907c0-0.347,0.123-0.643,0.369-0.889c0.246-0.237,0.538-0.355,0.875-0.355H86.887z"/>
<path class="st0" d="M95.991,15.671c-0.419,0-0.774-0.146-1.066-0.438s-0.438-0.647-0.438-1.066c0-0.41,0.146-0.761,0.438-1.053
	s0.647-0.438,1.066-0.438c0.41,0,0.761,0.146,1.053,0.438c0.301,0.292,0.451,0.643,0.451,1.053c0,0.419-0.15,0.774-0.451,1.066
	C96.752,15.526,96.401,15.671,95.991,15.671z M96.005,18.269c0.347,0,0.638,0.123,0.875,0.369c0.246,0.246,0.369,0.542,0.369,0.889
	v12.428c0,0.347-0.123,0.638-0.369,0.875c-0.237,0.246-0.528,0.369-0.875,0.369h-0.027c-0.347,0-0.643-0.123-0.889-0.369
	c-0.246-0.237-0.369-0.528-0.369-0.875V19.526c0-0.347,0.123-0.643,0.369-0.889s0.542-0.369,0.889-0.369H96.005z"/>
<path class="st0" d="M109.701,18.269c0.347,0,0.643,0.123,0.889,0.369c0.237,0.246,0.355,0.542,0.355,0.889v0.027
	c0,0.347-0.118,0.638-0.355,0.875c-0.246,0.246-0.542,0.369-0.889,0.369h-0.779c-0.856,0-1.586,0.301-2.188,0.902
	c-0.593,0.602-0.894,1.331-0.902,2.188v8.066c0,0.347-0.123,0.638-0.369,0.875c-0.246,0.246-0.538,0.369-0.875,0.369h-0.041
	c-0.337,0-0.629-0.123-0.875-0.369c-0.246-0.237-0.369-0.528-0.369-0.875v-8.066c0.019-1.559,0.565-2.885,1.641-3.979
	c1.094-1.094,2.42-1.641,3.979-1.641H109.701z"/>
<path class="st0" d="M34.558,17.872c0.003-0.004,0.006-0.009,0.01-0.013c0.009-0.012,0.018-0.023,0.027-0.036
	c0.003-0.004,0.005-0.009,0.008-0.013c0.008-0.013,0.016-0.026,0.023-0.039c0.002-0.003,0.003-0.007,0.005-0.011
	c0.007-0.015,0.015-0.029,0.021-0.045c0.001-0.003,0.002-0.005,0.003-0.008c0.006-0.016,0.013-0.033,0.018-0.05
	c0.001-0.003,0.001-0.006,0.002-0.008c0.005-0.017,0.009-0.034,0.013-0.051c0.001-0.005,0.002-0.011,0.002-0.016
	c0.003-0.015,0.005-0.029,0.007-0.044c0.002-0.021,0.003-0.041,0.003-0.062c0-0.021-0.001-0.042-0.003-0.062
	c-0.001-0.015-0.004-0.03-0.007-0.044c-0.001-0.005-0.001-0.011-0.002-0.016c-0.003-0.017-0.008-0.034-0.013-0.051
	c-0.001-0.003-0.001-0.006-0.002-0.008c-0.005-0.017-0.011-0.033-0.018-0.05c-0.001-0.003-0.002-0.005-0.003-0.008
	c-0.006-0.015-0.014-0.03-0.021-0.045c-0.002-0.004-0.003-0.007-0.005-0.011c-0.007-0.013-0.015-0.026-0.023-0.039
	c-0.003-0.004-0.005-0.009-0.008-0.013c-0.008-0.012-0.017-0.024-0.027-0.036c-0.003-0.004-0.006-0.009-0.01-0.013
	c-0.013-0.016-0.027-0.031-0.041-0.045l-5.099-5.099c-0.243-0.243-0.637-0.243-0.881,0c-0.243,0.243-0.243,0.637,0,0.881
	l4.036,4.036H16.84c-0.344,0-0.623,0.279-0.623,0.623c0,0.344,0.279,0.623,0.623,0.623h15.733l-4.036,4.036
	c-0.243,0.243-0.243,0.637,0,0.881c0.122,0.122,0.281,0.182,0.44,0.182c0.159,0,0.319-0.061,0.44-0.182l5.099-5.099
	C34.531,17.903,34.545,17.888,34.558,17.872z"/>
<path class="st0" d="M23.157,11.173c0.344,0,0.623-0.279,0.623-0.623V0.623C23.779,0.279,23.501,0,23.157,0H0.623
	C0.575,0,0.529,0.006,0.484,0.016C0.479,0.017,0.474,0.019,0.468,0.02c-0.021,0.005-0.041,0.011-0.06,0.019
	c-0.005,0.002-0.01,0.003-0.014,0.005c-0.024,0.01-0.048,0.02-0.071,0.033c0,0,0,0,0,0c-0.001,0-0.001,0.001-0.001,0.001
	C0.3,0.09,0.279,0.103,0.259,0.118C0.254,0.122,0.249,0.126,0.243,0.13C0.227,0.142,0.211,0.156,0.196,0.17
	c-0.003,0.003-0.007,0.006-0.01,0.01C0.168,0.196,0.152,0.215,0.137,0.234C0.133,0.238,0.13,0.243,0.126,0.248
	C0.114,0.264,0.103,0.28,0.093,0.297C0.09,0.302,0.086,0.307,0.083,0.313C0.058,0.356,0.039,0.402,0.025,0.451
	C0.023,0.457,0.022,0.462,0.02,0.468C0.015,0.487,0.011,0.506,0.008,0.526c-0.001,0.007-0.002,0.013-0.003,0.02
	C0.002,0.571,0,0.597,0,0.623V34.38c0,0.025,0.002,0.049,0.005,0.073c0.001,0.007,0.002,0.013,0.003,0.019
	c0.003,0.018,0.006,0.036,0.01,0.054c0.002,0.007,0.003,0.013,0.005,0.019c0.005,0.019,0.011,0.037,0.018,0.055
	c0.002,0.004,0.003,0.009,0.005,0.013c0.009,0.023,0.019,0.045,0.031,0.066c0.001,0.001,0.002,0.002,0.002,0.004
	c0.011,0.019,0.023,0.038,0.035,0.055c0.004,0.006,0.008,0.011,0.013,0.017c0.01,0.014,0.021,0.027,0.033,0.04
	c0.005,0.005,0.01,0.011,0.015,0.016c0.015,0.016,0.032,0.031,0.049,0.046c0.001,0.001,0.002,0.002,0.003,0.003
	c0.019,0.015,0.038,0.029,0.059,0.043c0.002,0.001,0.003,0.003,0.005,0.004l11.32,7.169c0.101,0.064,0.217,0.097,0.333,0.097
	c0.103,0,0.207-0.026,0.3-0.077c0.199-0.109,0.322-0.318,0.322-0.546v-6.546h10.591c0.344,0,0.623-0.279,0.623-0.623v-9.928
	c0-0.344-0.279-0.623-0.623-0.623c-0.344,0-0.623,0.279-0.623,0.623v9.305h-9.969V7.792c0-0.213-0.109-0.412-0.29-0.526L2.77,1.245
	h19.764v9.305C22.534,10.894,22.813,11.173,23.157,11.173z M9.09,18.719c0.63,0.272,1.144,1.129,1.148,1.915
	c0.004,0.786-0.503,1.203-1.133,0.932c-0.63-0.272-1.145-1.129-1.149-1.915C7.952,18.865,8.46,18.448,9.09,18.719z M6.126,16.006
	c0.63,0.272,1.144,1.129,1.148,1.915c0.004,0.786-0.503,1.202-1.133,0.931c-0.63-0.272-1.145-1.128-1.149-1.914
	C4.988,16.151,5.496,15.734,6.126,16.006z M6.147,19.895c1.229,0.53,2.231,2.201,2.24,3.733c0.008,1.532-0.981,2.345-2.21,1.816
	c-1.229-0.53-2.231-2.202-2.24-3.733C3.928,20.179,4.918,19.366,6.147,19.895z M3.177,16.172c0.63,0.272,1.144,1.129,1.148,1.915
	c0.004,0.786-0.503,1.203-1.133,0.932c-0.63-0.272-1.145-1.129-1.149-1.915C2.04,16.317,2.547,15.9,3.177,16.172z"/>
</svg>
