<?xml version="1.0" encoding="utf-8"?>
<!-- Generator: Adobe Illustrator 25.3.0, SVG Export Plug-In . SVG Version: 6.00 Build 0)  -->
<svg version="1.1" id="Capa_1" xmlns="http://www.w3.org/2000/svg" xmlns:xlink="http://www.w3.org/1999/xlink" x="0px" y="0px"
	 viewBox="0 0 180.9 180.9" style="enable-background:new 0 0 180.9 180.9;" xml:space="preserve">
<style type="text/css">
	.st0{fill:#F4B924;}
</style>
<path class="st0" d="M137.82,0H43.1C19.34,0,0,19.33,0,43.09v94.72c0,23.76,19.34,43.09,43.1,43.09h94.72
	c23.76,0,43.08-19.33,43.08-43.09V43.09C180.9,19.33,161.58,0,137.82,0z M133.145,67.815l-53.771,53.77
	c-1.219,1.219-2.872,1.904-4.596,1.904s-3.377-0.685-4.597-1.904L45.9,97.302c-2.538-2.539-2.538-6.654,0.001-9.192
	c2.538-2.539,6.654-2.539,9.192,0l19.686,19.687l49.175-49.174c2.537-2.539,6.653-2.538,9.192,0
	C135.684,61.161,135.684,65.277,133.145,67.815z"/>
</svg>
