<?xml version="1.0" encoding="utf-8"?>
<!-- Generator: Adobe Illustrator 25.3.0, SVG Export Plug-In . SVG Version: 6.00 Build 0)  -->
<svg version="1.1" id="Capa_1" xmlns="http://www.w3.org/2000/svg" xmlns:xlink="http://www.w3.org/1999/xlink" x="0px" y="0px"
	 viewBox="0 0 173.936 49.26" style="enable-background:new 0 0 173.936 49.26;" xml:space="preserve">
<style type="text/css">
	.st0{fill:#FFFFFF;}
</style>
<path class="st0" d="M53.071,34.054c0-1.075-0.383-1.996-1.148-2.762c-0.693-0.702-1.522-1.08-2.488-1.135h-4.457v6.426
	c0,0.347-0.119,0.638-0.355,0.875c-0.246,0.246-0.542,0.369-0.889,0.369h-0.027c-0.347,0-0.638-0.123-0.875-0.369
	c-0.246-0.237-0.369-0.528-0.369-0.875V22.214c0-1.358,0.479-2.516,1.436-3.473c0.966-0.966,2.128-1.449,3.486-1.449h1.777
	c1.777,0,3.29,0.629,4.539,1.887c1.258,1.258,1.887,2.775,1.887,4.553c0,1.769-0.629,3.281-1.887,4.539
	c-0.228,0.228-0.46,0.433-0.697,0.615c0.246,0.191,0.483,0.401,0.711,0.629c1.249,1.249,1.873,2.762,1.873,4.539v2.529
	c0,0.347-0.123,0.638-0.369,0.875c-0.246,0.246-0.538,0.369-0.875,0.369h-0.027c-0.337,0-0.629-0.123-0.875-0.369
	c-0.246-0.237-0.369-0.528-0.369-0.875V34.054z M49.161,27.628c1.075,0,1.996-0.378,2.762-1.135
	c0.766-0.766,1.148-1.687,1.148-2.762c0-1.085-0.383-2.01-1.148-2.775c-0.766-0.757-1.687-1.135-2.762-1.135h-1.572
	c-0.793,0-1.422,0.228-1.887,0.684c-0.365,0.355-0.593,0.779-0.684,1.271c-0.027,0.128-0.041,0.314-0.041,0.561v5.291H49.161z"/>
<path class="st0" d="M74.41,27.259c0.146,0.31,0.159,0.629,0.041,0.957c-0.119,0.319-0.337,0.552-0.656,0.697
	c-1.276,0.574-2.953,1.331-5.031,2.27c-2.58,1.167-4.252,1.923-5.018,2.27c0.984,1.258,2.278,1.887,3.883,1.887
	c1.066,0,2.032-0.314,2.898-0.943c0.838-0.61,1.426-1.403,1.764-2.379c0.2-0.565,0.602-0.848,1.203-0.848
	c0.428,0,0.77,0.178,1.025,0.533c0.246,0.347,0.296,0.725,0.15,1.135c-0.511,1.477-1.404,2.671-2.68,3.582
	c-1.304,0.938-2.757,1.408-4.361,1.408c-2.06,0-3.819-0.729-5.277-2.188c-1.458-1.458-2.188-3.218-2.188-5.277
	s0.729-3.819,2.188-5.277c1.458-1.458,3.217-2.188,5.277-2.188c1.485,0,2.844,0.405,4.074,1.217
	C72.915,24.907,73.817,25.955,74.41,27.259z M67.628,25.454c-1.367,0-2.534,0.483-3.5,1.449c-0.957,0.966-1.436,2.133-1.436,3.5
	c0,0.246,0.018,0.487,0.055,0.725l8.654-3.91C70.418,26.042,69.16,25.454,67.628,25.454z"/>
<path class="st0" d="M87.067,40.917c1.249,0,2.374-0.483,3.377-1.449c1.039-0.993,1.559-2.155,1.559-3.486v-0.027
	c-1.413,1.249-3.058,1.873-4.936,1.873c-2.06,0-3.819-0.729-5.277-2.188c-1.458-1.458-2.188-3.218-2.188-5.277
	s0.729-3.819,2.188-5.277c1.458-1.458,3.217-2.188,5.277-2.188c2.051,0,3.805,0.725,5.264,2.174
	c1.458,1.449,2.192,3.204,2.201,5.264v5.646c0,2.015-0.784,3.773-2.352,5.277c-1.513,1.458-3.218,2.188-5.113,2.188
	c-2.926,0-5.113-1.13-6.562-3.391c-0.219-0.337-0.265-0.697-0.137-1.08c0.127-0.383,0.383-0.643,0.766-0.779l0.041-0.014
	c0.61-0.21,1.098-0.046,1.463,0.492C83.622,40.17,85.099,40.917,87.067,40.917z M92.003,30.28c-0.019-1.349-0.511-2.493-1.477-3.432
	c-0.957-0.948-2.11-1.422-3.459-1.422c-1.367,0-2.534,0.483-3.5,1.449c-0.957,0.966-1.436,2.128-1.436,3.486
	c0,1.367,0.479,2.534,1.436,3.5c0.966,0.957,2.133,1.436,3.5,1.436s2.529-0.479,3.486-1.436c0.966-0.966,1.449-2.133,1.449-3.5
	V30.28z"/>
<path class="st0" d="M101.844,20.3c-0.419,0-0.775-0.146-1.066-0.438c-0.292-0.292-0.438-0.647-0.438-1.066
	c0-0.41,0.146-0.761,0.438-1.053c0.292-0.292,0.647-0.438,1.066-0.438c0.41,0,0.761,0.146,1.053,0.438
	c0.301,0.292,0.451,0.643,0.451,1.053c0,0.419-0.15,0.774-0.451,1.066C102.605,20.154,102.254,20.3,101.844,20.3z M101.857,22.898
	c0.346,0,0.638,0.123,0.875,0.369c0.246,0.246,0.369,0.542,0.369,0.889v12.428c0,0.347-0.123,0.638-0.369,0.875
	c-0.237,0.246-0.529,0.369-0.875,0.369h-0.027c-0.347,0-0.643-0.123-0.889-0.369c-0.246-0.237-0.369-0.528-0.369-0.875V24.155
	c0-0.347,0.123-0.643,0.369-0.889s0.542-0.369,0.889-0.369H101.857z"/>
<path class="st0" d="M112.984,25.427c-0.511,0-0.943,0.178-1.299,0.533c-0.355,0.364-0.533,0.798-0.533,1.299
	c0,0.711,0.337,1.244,1.012,1.6c0.209,0.109,0.998,0.347,2.365,0.711c1.021,0.292,1.768,0.665,2.242,1.121
	c0.674,0.638,1.012,1.563,1.012,2.775c0,1.203-0.424,2.233-1.271,3.09c-0.857,0.848-1.887,1.271-3.09,1.271h-3.568
	c-0.337,0-0.629-0.123-0.875-0.369c-0.246-0.237-0.369-0.528-0.369-0.875v-0.027c0-0.347,0.123-0.643,0.369-0.889
	s0.538-0.369,0.875-0.369h3.705c0.51,0,0.943-0.178,1.299-0.533s0.533-0.788,0.533-1.299c0-0.675-0.337-1.176-1.012-1.504
	c-0.155-0.073-0.943-0.31-2.365-0.711c-1.012-0.301-1.759-0.684-2.242-1.148c-0.675-0.665-1.012-1.613-1.012-2.844
	c0-1.203,0.424-2.229,1.271-3.076c0.856-0.856,1.887-1.285,3.09-1.285h2.516c0.346,0,0.643,0.123,0.889,0.369
	s0.369,0.542,0.369,0.889v0.027c0,0.347-0.123,0.638-0.369,0.875c-0.246,0.246-0.542,0.369-0.889,0.369H112.984z"/>
<path class="st0" d="M124.055,17.292c0.337,0,0.629,0.118,0.875,0.355c0.246,0.246,0.369,0.542,0.369,0.889v4.361h2.461
	c0.337,0,0.629,0.123,0.875,0.369s0.369,0.542,0.369,0.889v0.027c0,0.347-0.123,0.638-0.369,0.875
	c-0.246,0.246-0.538,0.369-0.875,0.369h-2.461v8.518c0,0.374,0.132,0.692,0.396,0.957c0.264,0.265,0.588,0.396,0.971,0.396h1.094
	c0.337,0,0.629,0.123,0.875,0.369s0.369,0.542,0.369,0.889v0.027c0,0.347-0.123,0.638-0.369,0.875
	c-0.246,0.246-0.538,0.369-0.875,0.369h-1.094c-1.076,0-1.996-0.378-2.762-1.135c-0.757-0.766-1.135-1.682-1.135-2.748V18.536
	c0-0.347,0.123-0.643,0.369-0.889c0.246-0.237,0.538-0.355,0.875-0.355H124.055z"/>
<path class="st0" d="M140.117,22.898c0.346,0,0.643,0.123,0.889,0.369c0.237,0.246,0.355,0.542,0.355,0.889v0.027
	c0,0.347-0.119,0.638-0.355,0.875c-0.246,0.246-0.542,0.369-0.889,0.369h-0.779c-0.857,0-1.586,0.301-2.188,0.902
	c-0.593,0.602-0.894,1.331-0.902,2.188v8.066c0,0.347-0.123,0.638-0.369,0.875c-0.246,0.246-0.538,0.369-0.875,0.369h-0.041
	c-0.337,0-0.629-0.123-0.875-0.369c-0.246-0.237-0.369-0.528-0.369-0.875v-8.066c0.018-1.559,0.565-2.885,1.641-3.979
	c1.094-1.094,2.42-1.641,3.979-1.641H140.117z"/>
<path class="st0" d="M152.72,22.898c2.06,0,3.819,0.729,5.277,2.188c1.458,1.458,2.188,3.218,2.188,5.277s-0.729,3.819-2.188,5.277
	c-1.458,1.458-3.218,2.188-5.277,2.188c-2.06,0-3.819-0.729-5.277-2.188c-1.458-1.458-2.188-3.218-2.188-5.277
	s0.729-3.819,2.188-5.277C148.9,23.627,150.66,22.898,152.72,22.898z M152.72,25.454c-1.367,0-2.534,0.483-3.5,1.449
	c-0.957,0.966-1.436,2.133-1.436,3.5c0,1.358,0.479,2.521,1.436,3.486c0.966,0.966,2.133,1.449,3.5,1.449s2.529-0.483,3.486-1.449
	c0.966-0.966,1.449-2.128,1.449-3.486c0-1.367-0.483-2.534-1.449-3.5C155.249,25.938,154.087,25.454,152.72,25.454z"/>
<path class="st0" d="M169.137,25.427c-0.511,0-0.943,0.178-1.299,0.533c-0.355,0.364-0.533,0.798-0.533,1.299
	c0,0.711,0.337,1.244,1.012,1.6c0.209,0.109,0.998,0.347,2.365,0.711c1.021,0.292,1.768,0.665,2.242,1.121
	c0.674,0.638,1.012,1.563,1.012,2.775c0,1.203-0.424,2.233-1.271,3.09c-0.857,0.848-1.887,1.271-3.09,1.271h-3.568
	c-0.337,0-0.629-0.123-0.875-0.369c-0.246-0.237-0.369-0.528-0.369-0.875v-0.027c0-0.347,0.123-0.643,0.369-0.889
	s0.538-0.369,0.875-0.369h3.705c0.51,0,0.943-0.178,1.299-0.533s0.533-0.788,0.533-1.299c0-0.675-0.337-1.176-1.012-1.504
	c-0.155-0.073-0.943-0.31-2.365-0.711c-1.012-0.301-1.759-0.684-2.242-1.148c-0.675-0.665-1.012-1.613-1.012-2.844
	c0-1.203,0.424-2.229,1.271-3.076c0.856-0.856,1.887-1.285,3.09-1.285h2.516c0.346,0,0.643,0.123,0.889,0.369
	s0.369,0.542,0.369,0.889v0.027c0,0.347-0.123,0.638-0.369,0.875c-0.246,0.246-0.542,0.369-0.889,0.369H169.137z"/>
<path class="st0" d="M29.638,0H0.727C0.722,0,0.716,0.001,0.71,0.001C0.68,0.002,0.649,0.005,0.619,0.009
	C0.611,0.011,0.604,0.011,0.596,0.012C0.561,0.019,0.526,0.028,0.491,0.04c-0.01,0.003-0.019,0.007-0.028,0.011
	C0.438,0.061,0.414,0.072,0.39,0.085C0.379,0.09,0.368,0.096,0.358,0.102C0.351,0.106,0.343,0.11,0.336,0.114
	C0.319,0.125,0.304,0.137,0.288,0.149c-0.007,0.005-0.014,0.01-0.021,0.015C0.239,0.187,0.213,0.212,0.189,0.239
	C0.183,0.245,0.178,0.253,0.172,0.26c-0.018,0.021-0.035,0.044-0.05,0.067c-0.006,0.01-0.013,0.019-0.019,0.03
	c-0.015,0.026-0.029,0.052-0.041,0.08C0.059,0.442,0.056,0.448,0.053,0.455C0.039,0.489,0.029,0.525,0.02,0.561
	c-0.001,0.003-0.002,0.006-0.003,0.01C0.016,0.577,0.016,0.584,0.014,0.59C0.009,0.618,0.005,0.647,0.003,0.675
	C0.002,0.687,0.001,0.698,0.001,0.709C0.001,0.715,0,0.721,0,0.727v39.432c0,0.283,0.165,0.541,0.422,0.66l18.072,8.374
	c0.097,0.045,0.202,0.067,0.306,0.067c0.137,0,0.273-0.038,0.392-0.114c0.209-0.134,0.336-0.365,0.336-0.613v-7.647h7.522
	c0.402,0,0.727-0.326,0.727-0.727V13.554l2.358-2.209c0.147-0.138,0.23-0.33,0.23-0.531V0.727C30.365,0.326,30.039,0,29.638,0z
	 M4.641,22.664c-1.078-0.464-1.957-1.93-1.964-3.274c-0.007-1.344,0.861-2.057,1.938-1.593c1.078,0.464,1.956,1.93,1.963,3.274
	C6.586,22.415,5.719,23.129,4.641,22.664z M9.742,33.652c-2.101-0.905-3.815-3.764-3.829-6.383c-0.014-2.62,1.678-4.01,3.779-3.105
	c2.101,0.905,3.815,3.763,3.829,6.383C13.535,33.166,11.844,34.557,9.742,33.652z M7.719,19.106
	c-0.007-1.344,0.861-2.057,1.938-1.593c1.078,0.464,1.956,1.93,1.963,3.274c0.007,1.344-0.86,2.056-1.937,1.592
	C8.605,21.915,7.726,20.45,7.719,19.106z M14.75,27.02c-1.078-0.464-1.957-1.93-1.964-3.274c-0.007-1.344,0.861-2.057,1.938-1.593
	c1.078,0.464,1.956,1.93,1.963,3.274C16.695,26.771,15.828,27.485,14.75,27.02z M28.91,10.499l-2.358,2.209
	c-0.147,0.138-0.23,0.33-0.23,0.531v26.193h-6.795V9.101c0-0.283-0.165-0.541-0.422-0.66L4.027,1.455H28.91V10.499z"/>
</svg>
