<?xml version="1.0" encoding="utf-8"?>
<!-- Generator: Adobe Illustrator 25.3.0, SVG Export Plug-In . SVG Version: 6.00 Build 0)  -->
<svg version="1.1" id="Capa_1" xmlns="http://www.w3.org/2000/svg" xmlns:xlink="http://www.w3.org/1999/xlink" x="0px" y="0px"
	 viewBox="0 0 176.498 46.498" style="enable-background:new 0 0 176.498 46.498;" xml:space="preserve">
<style type="text/css">
	.st0{fill:#F4B924;}
	.st1{fill:#FFFFFF;}
</style>
<path class="st0" d="M165.425,0H11.078C4.971,0,0,4.969,0,11.076v24.346c0,6.107,4.971,11.076,11.078,11.076h154.346
	c6.107,0,11.073-4.969,11.073-11.076V11.076C176.498,4.969,171.532,0,165.425,0z"/>
<path class="st1" d="M35.787,32.975c0,0.433-0.154,0.797-0.462,1.094c-0.308,0.307-0.673,0.461-1.094,0.461H34.18
	c-0.421,0-0.785-0.154-1.094-0.461c-0.307-0.297-0.461-0.661-0.461-1.094V24.84h-10.34v8.135c0,0.433-0.153,0.797-0.461,1.094
	c-0.308,0.307-0.673,0.461-1.094,0.461H20.68c-0.422,0-0.787-0.154-1.094-0.461c-0.309-0.297-0.462-0.661-0.462-1.094V17.184
	c0-2.302,0.814-4.267,2.444-5.896c1.629-1.618,3.588-2.427,5.879-2.427c2.301,0,4.266,0.809,5.896,2.427
	c1.629,1.63,2.444,3.595,2.444,5.896V32.975z M32.625,21.695v-4.512c0-1.425-0.502-2.644-1.504-3.658
	c-1.015-1.014-2.238-1.521-3.674-1.521c-1.425,0-2.644,0.507-3.658,1.521c-1.002,1.015-1.504,2.233-1.504,3.658v4.512H32.625z"/>
<path class="st1" d="M54.515,16.312c0.729,0.229,1.094,0.724,1.094,1.487v0.085c0,0.524-0.212,0.94-0.633,1.247
	c-0.434,0.319-0.9,0.399-1.401,0.24c-0.604-0.205-1.23-0.309-1.88-0.309c-1.709,0-3.168,0.604-4.375,1.812
	c-1.196,1.207-1.795,2.666-1.795,4.375c0,1.697,0.599,3.15,1.795,4.357c1.207,1.208,2.666,1.812,4.375,1.812
	c0.649,0,1.275-0.097,1.88-0.29c0.501-0.16,0.968-0.086,1.401,0.222c0.421,0.308,0.633,0.729,0.633,1.265
	c0,0.752-0.365,1.248-1.094,1.486c-0.912,0.285-1.853,0.428-2.82,0.428c-2.575,0-4.774-0.911-6.597-2.734
	c-1.823-1.822-2.734-4.021-2.734-6.597c0-2.574,0.911-4.773,2.734-6.597c1.822-1.822,4.021-2.734,6.597-2.734
	C52.662,15.867,53.602,16.016,54.515,16.312z"/>
<path class="st1" d="M79.308,21.318c0.182,0.388,0.199,0.787,0.051,1.197c-0.147,0.398-0.421,0.689-0.82,0.871
	c-1.595,0.718-3.691,1.664-6.289,2.837c-3.224,1.459-5.314,2.404-6.271,2.837c1.23,1.572,2.848,2.358,4.854,2.358
	c1.333,0,2.54-0.394,3.623-1.179c1.048-0.764,1.783-1.755,2.205-2.975c0.25-0.706,0.752-1.059,1.504-1.059
	c0.535,0,0.962,0.222,1.281,0.666c0.308,0.434,0.37,0.906,0.188,1.418c-0.638,1.846-1.754,3.339-3.35,4.479
	c-1.629,1.173-3.446,1.76-5.451,1.76c-2.575,0-4.774-0.911-6.597-2.734c-1.823-1.822-2.734-4.021-2.734-6.597
	c0-2.574,0.911-4.773,2.734-6.597c1.822-1.822,4.021-2.734,6.597-2.734c1.856,0,3.555,0.507,5.093,1.521
	C77.438,18.379,78.566,19.69,79.308,21.318z M70.831,19.063c-1.709,0-3.168,0.604-4.375,1.812c-1.196,1.207-1.795,2.666-1.795,4.375
	c0,0.307,0.023,0.609,0.068,0.905l10.818-4.888C74.317,19.798,72.745,19.063,70.831,19.063z"/>
<path class="st1" d="M87.866,41.553c-0.421,0-0.785-0.153-1.094-0.461c-0.307-0.308-0.461-0.673-0.461-1.094V25.164
	c0.011-2.574,0.929-4.768,2.752-6.58c1.811-1.811,4.004-2.717,6.579-2.717c2.574,0,4.773,0.912,6.597,2.734
	c1.822,1.823,2.734,4.022,2.734,6.597c0,2.575-0.912,4.774-2.734,6.597c-1.823,1.823-4.022,2.734-6.597,2.734
	c-2.358,0-4.415-0.78-6.169-2.342v7.811c0,0.421-0.154,0.786-0.462,1.094s-0.673,0.461-1.094,0.461H87.866z M100.001,29.522
	c1.207-1.207,1.811-2.659,1.811-4.357c0-1.709-0.604-3.167-1.811-4.375c-1.197-1.196-2.649-1.795-4.358-1.795
	s-3.168,0.599-4.375,1.795c-1.196,1.208-1.794,2.666-1.794,4.375c0,1.698,0.598,3.15,1.794,4.357
	c1.207,1.208,2.666,1.812,4.375,1.812S98.804,30.73,100.001,29.522z"/>
<path class="st1" d="M112.984,8.86c0.421,0,0.786,0.148,1.094,0.444c0.308,0.308,0.462,0.678,0.462,1.111v5.451h3.076
	c0.421,0,0.785,0.154,1.094,0.461c0.307,0.309,0.461,0.679,0.461,1.111v0.034c0,0.434-0.154,0.798-0.461,1.094
	c-0.309,0.308-0.673,0.462-1.094,0.462h-3.076v10.646c0,0.468,0.164,0.866,0.495,1.196c0.33,0.331,0.735,0.495,1.214,0.495h1.367
	c0.421,0,0.785,0.154,1.094,0.462c0.307,0.308,0.461,0.678,0.461,1.11v0.035c0,0.433-0.154,0.797-0.461,1.094
	c-0.309,0.307-0.673,0.461-1.094,0.461h-1.367c-1.345,0-2.496-0.473-3.453-1.418c-0.945-0.957-1.418-2.103-1.418-3.436v-19.26
	c0-0.434,0.154-0.804,0.461-1.111c0.309-0.296,0.673-0.444,1.094-0.444H112.984z"/>
<path class="st1" d="M140.991,18.602c1.822,1.823,2.734,4.022,2.734,6.597v7.776c0,0.433-0.154,0.797-0.461,1.094
	c-0.309,0.307-0.673,0.461-1.094,0.461h-0.052c-0.422,0-0.786-0.154-1.094-0.461c-0.308-0.297-0.462-0.661-0.462-1.094v-0.787
	c-1.766,1.562-3.822,2.342-6.169,2.342c-2.575,0-4.774-0.911-6.597-2.734c-1.823-1.822-2.734-4.021-2.734-6.597
	c0-2.574,0.911-4.773,2.734-6.597c1.822-1.822,4.021-2.734,6.597-2.734C136.969,15.867,139.168,16.779,140.991,18.602z
	 M130.019,20.84c-1.196,1.208-1.794,2.661-1.794,4.358c0,1.709,0.598,3.168,1.794,4.375c1.207,1.196,2.666,1.794,4.375,1.794
	s3.161-0.598,4.358-1.794c1.207-1.207,1.811-2.666,1.811-4.375c0-1.697-0.604-3.15-1.811-4.358
	c-1.197-1.207-2.649-1.811-4.358-1.811S131.226,19.633,130.019,20.84z"/>
<path class="st1" d="M158.642,15.867c0.433,0,0.803,0.154,1.111,0.461c0.296,0.309,0.443,0.679,0.443,1.111v0.034
	c0,0.434-0.147,0.798-0.443,1.094c-0.309,0.308-0.679,0.462-1.111,0.462h-0.975c-1.07,0-1.982,0.375-2.734,1.127
	c-0.74,0.752-1.116,1.664-1.127,2.734v10.084c0,0.433-0.154,0.797-0.462,1.094c-0.308,0.307-0.673,0.461-1.094,0.461h-0.052
	c-0.421,0-0.785-0.154-1.094-0.461c-0.307-0.297-0.461-0.661-0.461-1.094V22.891c0.022-1.947,0.706-3.605,2.051-4.973
	c1.367-1.367,3.025-2.051,4.973-2.051H158.642z"/>
</svg>
