<?xml version="1.0" encoding="utf-8"?>
<!-- Generator: Adobe Illustrator 25.3.0, SVG Export Plug-In . SVG Version: 6.00 Build 0)  -->
<svg version="1.1" id="Capa_1" xmlns="http://www.w3.org/2000/svg" xmlns:xlink="http://www.w3.org/1999/xlink" x="0px" y="0px"
	 viewBox="0 0 223.17 158.465" style="enable-background:new 0 0 223.17 158.465;" xml:space="preserve">
<style type="text/css">
	.st0{fill:#0071BC;stroke:#FFFFFF;stroke-width:5;stroke-linecap:round;stroke-linejoin:round;stroke-miterlimit:10;}
	.st1{fill:#0071BC;stroke:#FFFFFF;stroke-width:7;stroke-linecap:round;stroke-linejoin:round;stroke-miterlimit:10;}
	.st2{fill:#0071BC;}
	.st3{fill:#F4B924;}
	.st4{fill:#FFFFFF;}
	.st5{fill:#00BABA;}
</style>
<path class="st0" d="M40.259,147.1c-0.221,0-0.392,0.051-0.515,0.153c-0.123,0.102-0.229,0.251-0.319,0.448l-2.636,6.13
	l-2.636-6.118c-0.082-0.204-0.182-0.357-0.3-0.46c-0.119-0.102-0.297-0.153-0.534-0.153c-0.278,0-0.489,0.096-0.631,0.288
	c-0.143,0.192-0.149,0.444-0.018,0.754l3.2,7.185c0.18,0.409,0.478,0.613,0.895,0.613c0.229,0,0.411-0.051,0.545-0.153
	c0.135-0.102,0.247-0.255,0.337-0.46l3.2-7.185c0.139-0.302,0.141-0.552,0.006-0.748C40.719,147.198,40.521,147.1,40.259,147.1z"/>
<path class="st0" d="M47.812,152.74c0-0.932-0.247-1.667-0.742-2.207c-0.495-0.539-1.167-0.809-2.017-0.809
	c-0.581,0-1.097,0.133-1.551,0.398c-0.454,0.266-0.809,0.632-1.067,1.097c-0.257,0.466-0.386,1.01-0.386,1.631
	c0,0.638,0.133,1.189,0.398,1.655s0.644,0.826,1.134,1.079c0.49,0.253,1.075,0.38,1.754,0.38c0.319,0,0.664-0.043,1.036-0.129
	c0.372-0.086,0.701-0.219,0.987-0.398c0.188-0.114,0.304-0.251,0.349-0.411c0.045-0.159,0.037-0.304-0.024-0.435
	c-0.061-0.131-0.166-0.219-0.313-0.264c-0.147-0.045-0.327-0.006-0.539,0.116c-0.237,0.131-0.488,0.223-0.754,0.276
	c-0.266,0.053-0.505,0.08-0.717,0.08c-1.112,0-1.725-0.535-1.839-1.606h3.703C47.616,153.194,47.812,153.042,47.812,152.74z
	 M43.521,152.311c0.057-0.474,0.225-0.85,0.503-1.128c0.278-0.278,0.641-0.417,1.091-0.417c0.433,0,0.77,0.133,1.012,0.399
	c0.241,0.266,0.378,0.648,0.411,1.146H43.521z"/>
<path class="st0" d="M53.869,154.616c-0.082,0.008-0.176,0.025-0.282,0.049c-0.106,0.024-0.229,0.037-0.368,0.037
	c-0.384,0-0.662-0.098-0.834-0.294c-0.172-0.196-0.257-0.49-0.257-0.883v-2.526h1.3c0.409,0,0.613-0.192,0.613-0.576
	c0-0.384-0.204-0.576-0.613-0.576h-1.3v-1.116c0-0.515-0.253-0.772-0.76-0.772c-0.515,0-0.773,0.257-0.773,0.772v1.116h-0.637
	c-0.409,0-0.613,0.192-0.613,0.576c0,0.384,0.204,0.576,0.613,0.576h0.637v2.612c0,1.569,0.793,2.354,2.379,2.354
	c0.131,0,0.282-0.014,0.453-0.043c0.172-0.029,0.311-0.059,0.417-0.092c0.139-0.049,0.235-0.137,0.288-0.264
	c0.053-0.127,0.08-0.272,0.08-0.435c0-0.212-0.033-0.353-0.098-0.423C54.049,154.639,53.967,154.608,53.869,154.616z"/>
<path class="st0" d="M61.532,152.74c0-0.932-0.247-1.667-0.742-2.207c-0.495-0.539-1.167-0.809-2.017-0.809
	c-0.581,0-1.097,0.133-1.551,0.398c-0.454,0.266-0.809,0.632-1.067,1.097c-0.257,0.466-0.386,1.01-0.386,1.631
	c0,0.638,0.133,1.189,0.398,1.655s0.644,0.826,1.134,1.079c0.491,0.253,1.075,0.38,1.754,0.38c0.319,0,0.664-0.043,1.036-0.129
	c0.372-0.086,0.701-0.219,0.987-0.398c0.188-0.114,0.304-0.251,0.349-0.411c0.045-0.159,0.037-0.304-0.024-0.435
	c-0.061-0.131-0.166-0.219-0.313-0.264c-0.147-0.045-0.327-0.006-0.539,0.116c-0.237,0.131-0.488,0.223-0.754,0.276
	c-0.266,0.053-0.505,0.08-0.717,0.08c-1.112,0-1.725-0.535-1.839-1.606h3.703C61.336,153.194,61.532,153.042,61.532,152.74z
	 M57.241,152.311c0.057-0.474,0.225-0.85,0.503-1.128c0.278-0.278,0.641-0.417,1.091-0.417c0.433,0,0.77,0.133,1.012,0.399
	c0.241,0.266,0.378,0.648,0.411,1.146H57.241z"/>
<path class="st0" d="M67.357,149.724c-0.965,0.082-1.594,0.474-1.888,1.177v-0.38c0-0.515-0.249-0.773-0.748-0.773
	c-0.499,0-0.748,0.257-0.748,0.773v4.635c0,0.523,0.262,0.785,0.785,0.785c0.515,0,0.773-0.261,0.773-0.785v-2.538
	c0-0.932,0.503-1.447,1.508-1.545l0.27-0.025c0.466-0.049,0.678-0.29,0.638-0.723C67.904,149.883,67.708,149.683,67.357,149.724z"/>
<path class="st0" d="M70.765,147.002c-0.286,0-0.509,0.069-0.668,0.208c-0.159,0.139-0.239,0.339-0.239,0.601
	c0,0.253,0.08,0.452,0.239,0.595c0.159,0.143,0.382,0.215,0.668,0.215c0.605,0,0.907-0.27,0.907-0.809S71.37,147.002,70.765,147.002
	z"/>
<path class="st0" d="M70.765,149.761c-0.507,0-0.76,0.278-0.76,0.834v4.5c0,0.262,0.065,0.466,0.196,0.613
	c0.131,0.147,0.319,0.221,0.564,0.221c0.253,0,0.445-0.074,0.576-0.221c0.131-0.147,0.196-0.351,0.196-0.613v-4.5
	C71.538,150.039,71.28,149.761,70.765,149.761z"/>
<path class="st0" d="M77.852,149.724c-0.434,0-0.824,0.09-1.171,0.27c-0.347,0.18-0.624,0.441-0.828,0.785v-0.257
	c0-0.515-0.249-0.773-0.748-0.773c-0.499,0-0.748,0.257-0.748,0.773v4.635c0,0.523,0.253,0.785,0.76,0.785
	c0.515,0,0.772-0.261,0.772-0.785v-2.685c0-0.466,0.133-0.84,0.398-1.122c0.266-0.282,0.623-0.423,1.073-0.423
	c0.368,0,0.639,0.106,0.815,0.319c0.176,0.213,0.264,0.552,0.264,1.018v2.893c0,0.523,0.257,0.785,0.772,0.785
	c0.507,0,0.76-0.261,0.76-0.785v-2.967C79.973,150.545,79.266,149.724,77.852,149.724z"/>
<path class="st0" d="M85.319,149.724c-0.286,0-0.603,0.033-0.95,0.098c-0.348,0.065-0.709,0.176-1.085,0.331
	c-0.188,0.073-0.313,0.188-0.374,0.343c-0.061,0.155-0.069,0.309-0.024,0.46c0.045,0.151,0.133,0.262,0.264,0.331
	c0.131,0.069,0.294,0.059,0.49-0.031c0.302-0.139,0.59-0.237,0.864-0.294c0.274-0.057,0.529-0.086,0.766-0.086
	c0.425,0,0.728,0.09,0.907,0.27c0.18,0.18,0.27,0.474,0.27,0.883v0.257h-0.429c-0.867,0-1.557,0.057-2.072,0.172
	c-0.515,0.115-0.887,0.3-1.116,0.558c-0.229,0.258-0.343,0.607-0.343,1.048c0,0.36,0.096,0.682,0.288,0.969
	c0.192,0.286,0.458,0.513,0.797,0.681c0.339,0.168,0.726,0.251,1.159,0.251c0.417,0,0.777-0.096,1.079-0.288
	c0.302-0.192,0.523-0.456,0.662-0.791v0.27c0,0.523,0.241,0.785,0.723,0.785c0.474,0,0.711-0.261,0.711-0.785v-2.943
	c0-0.85-0.213-1.477-0.638-1.882C86.843,149.926,86.193,149.724,85.319,149.724z M86.447,153.439c0,0.425-0.133,0.777-0.398,1.054
	c-0.266,0.278-0.599,0.417-0.999,0.417c-0.335,0-0.597-0.086-0.785-0.258c-0.188-0.172-0.282-0.392-0.282-0.662
	c0-0.31,0.149-0.525,0.447-0.644c0.298-0.118,0.832-0.178,1.6-0.178h0.417V153.439z"/>
<path class="st0" d="M94.073,149.724c-0.965,0.082-1.594,0.474-1.888,1.177v-0.38c0-0.515-0.249-0.773-0.748-0.773
	c-0.499,0-0.748,0.257-0.748,0.773v4.635c0,0.523,0.262,0.785,0.785,0.785c0.515,0,0.773-0.261,0.773-0.785v-2.538
	c0-0.932,0.503-1.447,1.508-1.545l0.27-0.025c0.466-0.049,0.678-0.29,0.637-0.723C94.621,149.883,94.425,149.683,94.073,149.724z"/>
<path class="st0" d="M97.482,147.002c-0.286,0-0.509,0.069-0.668,0.208s-0.239,0.339-0.239,0.601c0,0.253,0.08,0.452,0.239,0.595
	c0.159,0.143,0.382,0.215,0.668,0.215c0.605,0,0.907-0.27,0.907-0.809S98.087,147.002,97.482,147.002z"/>
<path class="st0" d="M97.482,149.761c-0.507,0-0.76,0.278-0.76,0.834v4.5c0,0.262,0.065,0.466,0.196,0.613
	c0.131,0.147,0.319,0.221,0.564,0.221c0.253,0,0.445-0.074,0.576-0.221c0.131-0.147,0.196-0.351,0.196-0.613v-4.5
	C98.255,150.039,97.997,149.761,97.482,149.761z"/>
<path class="st0" d="M105.427,150.104c-0.458-0.253-0.997-0.38-1.618-0.38c-0.621,0-1.161,0.127-1.618,0.38
	c-0.458,0.253-0.813,0.613-1.067,1.079c-0.253,0.466-0.38,1.018-0.38,1.655c0,0.638,0.127,1.192,0.38,1.661
	c0.253,0.47,0.609,0.832,1.067,1.085c0.458,0.253,0.997,0.38,1.618,0.38c0.621,0,1.161-0.127,1.618-0.38
	c0.458-0.253,0.813-0.615,1.067-1.085c0.253-0.47,0.38-1.024,0.38-1.661c0-0.637-0.127-1.189-0.38-1.655
	C106.24,150.717,105.885,150.357,105.427,150.104z M104.912,154.303c-0.278,0.331-0.646,0.497-1.104,0.497
	c-0.458,0-0.826-0.166-1.103-0.497c-0.278-0.331-0.417-0.819-0.417-1.465c0-0.654,0.139-1.142,0.417-1.465
	c0.278-0.323,0.645-0.485,1.103-0.485c0.458,0,0.826,0.162,1.104,0.485c0.278,0.323,0.417,0.811,0.417,1.465
	C105.329,153.484,105.19,153.972,104.912,154.303z"/>
<path class="st0" d="M112.502,152.458l-1.226-0.233c-0.466-0.082-0.699-0.302-0.699-0.662c0-0.229,0.096-0.413,0.288-0.552
	c0.192-0.139,0.488-0.208,0.889-0.208c0.212,0,0.435,0.029,0.668,0.086c0.233,0.057,0.476,0.151,0.73,0.282
	c0.172,0.082,0.323,0.096,0.454,0.043c0.131-0.053,0.227-0.143,0.288-0.27c0.061-0.127,0.078-0.261,0.049-0.404
	c-0.029-0.143-0.121-0.255-0.276-0.337c-0.564-0.319-1.206-0.478-1.925-0.478c-0.499,0-0.94,0.078-1.324,0.233
	c-0.384,0.155-0.685,0.376-0.901,0.662c-0.217,0.286-0.325,0.625-0.325,1.018c0,0.883,0.519,1.422,1.557,1.618l1.226,0.233
	c0.507,0.098,0.76,0.319,0.76,0.662c0,0.221-0.096,0.398-0.288,0.534c-0.192,0.135-0.484,0.202-0.877,0.202
	c-0.278,0-0.56-0.031-0.846-0.092c-0.286-0.061-0.593-0.169-0.919-0.325c-0.172-0.082-0.321-0.094-0.448-0.037
	c-0.127,0.057-0.217,0.149-0.27,0.276c-0.053,0.127-0.059,0.262-0.018,0.405c0.041,0.143,0.147,0.264,0.319,0.362
	c0.31,0.18,0.662,0.307,1.054,0.38c0.393,0.074,0.764,0.11,1.116,0.11c0.777,0,1.398-0.17,1.864-0.509
	c0.466-0.339,0.699-0.807,0.699-1.404c0-0.441-0.137-0.793-0.411-1.055C113.435,152.736,113.033,152.556,112.502,152.458z"/>
<path class="st0" d="M123.684,149.724c-0.286,0-0.603,0.033-0.95,0.098c-0.348,0.065-0.709,0.176-1.085,0.331
	c-0.188,0.073-0.313,0.188-0.374,0.343c-0.061,0.155-0.069,0.309-0.024,0.46c0.045,0.151,0.133,0.262,0.264,0.331
	c0.131,0.069,0.294,0.059,0.49-0.031c0.302-0.139,0.59-0.237,0.864-0.294c0.274-0.057,0.529-0.086,0.766-0.086
	c0.425,0,0.727,0.09,0.908,0.27c0.179,0.18,0.27,0.474,0.27,0.883v0.257h-0.43c-0.866,0-1.557,0.057-2.072,0.172
	c-0.515,0.115-0.887,0.3-1.116,0.558c-0.229,0.258-0.343,0.607-0.343,1.048c0,0.36,0.096,0.682,0.288,0.969
	c0.192,0.286,0.458,0.513,0.797,0.681c0.339,0.168,0.726,0.251,1.159,0.251c0.417,0,0.776-0.096,1.079-0.288
	c0.302-0.192,0.523-0.456,0.662-0.791v0.27c0,0.523,0.242,0.785,0.724,0.785c0.474,0,0.71-0.261,0.71-0.785v-2.943
	c0-0.85-0.212-1.477-0.637-1.882C125.208,149.926,124.558,149.724,123.684,149.724z M124.812,153.439
	c0,0.425-0.133,0.777-0.399,1.054c-0.266,0.278-0.599,0.417-0.999,0.417c-0.335,0-0.597-0.086-0.785-0.258
	c-0.188-0.172-0.282-0.392-0.282-0.662c0-0.31,0.149-0.525,0.447-0.644c0.298-0.118,0.832-0.178,1.6-0.178h0.417V153.439z"/>
<path class="st0" d="M138.593,147.1c-0.507,0-0.76,0.257-0.76,0.773v2.881c-0.172-0.31-0.429-0.56-0.773-0.748
	c-0.343-0.188-0.728-0.282-1.153-0.282c-0.523,0-0.983,0.127-1.379,0.38c-0.396,0.253-0.705,0.611-0.926,1.073
	c-0.221,0.462-0.331,1.016-0.331,1.661c0,0.638,0.11,1.192,0.331,1.661c0.221,0.47,0.529,0.832,0.926,1.085
	c0.396,0.253,0.856,0.38,1.379,0.38c0.433,0,0.821-0.096,1.165-0.288c0.344-0.192,0.601-0.452,0.773-0.779v0.257
	c0,0.523,0.253,0.785,0.76,0.785s0.761-0.261,0.761-0.785v-7.283C139.366,147.357,139.108,147.1,138.593,147.1z M137.441,154.303
	c-0.278,0.331-0.646,0.497-1.103,0.497c-0.458,0-0.826-0.166-1.104-0.497s-0.417-0.819-0.417-1.465c0-0.654,0.139-1.142,0.417-1.465
	c0.278-0.323,0.646-0.485,1.104-0.485c0.458,0,0.825,0.162,1.103,0.485c0.278,0.323,0.417,0.811,0.417,1.465
	C137.858,153.484,137.718,153.972,137.441,154.303z"/>
<path class="st0" d="M146.538,150.104c-0.458-0.253-0.997-0.38-1.618-0.38c-0.621,0-1.161,0.127-1.619,0.38
	c-0.458,0.253-0.813,0.613-1.067,1.079c-0.254,0.466-0.38,1.018-0.38,1.655c0,0.638,0.126,1.192,0.38,1.661
	c0.253,0.47,0.609,0.832,1.067,1.085c0.458,0.253,0.997,0.38,1.619,0.38c0.621,0,1.161-0.127,1.618-0.38
	c0.458-0.253,0.813-0.615,1.067-1.085c0.253-0.47,0.38-1.024,0.38-1.661c0-0.637-0.127-1.189-0.38-1.655
	C147.352,150.717,146.996,150.357,146.538,150.104z M146.023,154.303c-0.278,0.331-0.646,0.497-1.103,0.497
	c-0.458,0-0.826-0.166-1.104-0.497s-0.417-0.819-0.417-1.465c0-0.654,0.139-1.142,0.417-1.465c0.278-0.323,0.646-0.485,1.104-0.485
	c0.458,0,0.825,0.162,1.103,0.485c0.278,0.323,0.417,0.811,0.417,1.465C146.44,153.484,146.301,153.972,146.023,154.303z"/>
<path class="st0" d="M157.623,149.724c-0.45,0-0.85,0.104-1.202,0.313c-0.351,0.208-0.621,0.497-0.809,0.865
	c-0.278-0.785-0.867-1.177-1.766-1.177c-0.417,0-0.784,0.092-1.103,0.276c-0.319,0.184-0.568,0.44-0.748,0.766v-0.245
	c0-0.515-0.249-0.773-0.748-0.773c-0.499,0-0.748,0.257-0.748,0.773v4.635c0,0.523,0.254,0.785,0.761,0.785
	c0.515,0,0.772-0.261,0.772-0.785v-2.636c0-0.498,0.114-0.889,0.344-1.171c0.228-0.282,0.543-0.423,0.944-0.423
	c0.352,0,0.603,0.106,0.754,0.319c0.151,0.213,0.227,0.548,0.227,1.005v2.906c0,0.523,0.258,0.785,0.773,0.785
	c0.507,0,0.76-0.261,0.76-0.785v-2.636c0-0.498,0.114-0.889,0.343-1.171c0.229-0.282,0.544-0.423,0.944-0.423
	c0.36,0,0.615,0.106,0.767,0.319c0.151,0.213,0.227,0.548,0.227,1.005v2.906c0,0.523,0.253,0.785,0.76,0.785
	c0.515,0,0.773-0.261,0.773-0.785v-2.967C159.646,150.545,158.971,149.724,157.623,149.724z"/>
<path class="st0" d="M163.213,147.002c-0.286,0-0.509,0.069-0.668,0.208s-0.239,0.339-0.239,0.601c0,0.253,0.08,0.452,0.239,0.595
	c0.159,0.143,0.382,0.215,0.668,0.215c0.605,0,0.907-0.27,0.907-0.809S163.818,147.002,163.213,147.002z"/>
<path class="st0" d="M163.213,149.761c-0.507,0-0.76,0.278-0.76,0.834v4.5c0,0.262,0.065,0.466,0.196,0.613
	c0.131,0.147,0.319,0.221,0.564,0.221c0.253,0,0.446-0.074,0.577-0.221c0.13-0.147,0.196-0.351,0.196-0.613v-4.5
	C163.986,150.039,163.729,149.761,163.213,149.761z"/>
<path class="st0" d="M169.712,150.913c0.351,0,0.715,0.106,1.091,0.319c0.172,0.098,0.325,0.119,0.46,0.061
	c0.135-0.057,0.237-0.151,0.306-0.282c0.069-0.131,0.09-0.274,0.061-0.429c-0.029-0.155-0.125-0.282-0.288-0.38
	c-0.278-0.172-0.575-0.294-0.889-0.368c-0.315-0.074-0.607-0.11-0.877-0.11c-0.63,0-1.177,0.125-1.643,0.374
	c-0.466,0.249-0.826,0.605-1.079,1.067c-0.254,0.462-0.38,1.012-0.38,1.649s0.126,1.194,0.38,1.667
	c0.253,0.474,0.613,0.84,1.079,1.097c0.466,0.257,1.013,0.386,1.643,0.386c0.27,0,0.556-0.037,0.858-0.11
	c0.302-0.073,0.589-0.192,0.858-0.355c0.155-0.098,0.249-0.223,0.282-0.374c0.033-0.151,0.02-0.294-0.037-0.429
	c-0.057-0.135-0.151-0.231-0.282-0.288c-0.131-0.057-0.282-0.037-0.454,0.061c-0.376,0.204-0.74,0.306-1.091,0.306
	c-0.532,0-0.942-0.174-1.232-0.521c-0.291-0.347-0.435-0.823-0.435-1.428c0-0.613,0.145-1.085,0.435-1.416
	C168.77,151.079,169.18,150.913,169.712,150.913z"/>
<path class="st0" d="M174.579,147.002c-0.286,0-0.509,0.069-0.668,0.208s-0.239,0.339-0.239,0.601c0,0.253,0.08,0.452,0.239,0.595
	c0.159,0.143,0.382,0.215,0.668,0.215c0.605,0,0.907-0.27,0.907-0.809S175.184,147.002,174.579,147.002z"/>
<path class="st0" d="M174.579,149.761c-0.507,0-0.76,0.278-0.76,0.834v4.5c0,0.262,0.065,0.466,0.196,0.613
	c0.131,0.147,0.319,0.221,0.564,0.221c0.253,0,0.446-0.074,0.577-0.221c0.13-0.147,0.196-0.351,0.196-0.613v-4.5
	C175.352,150.039,175.095,149.761,174.579,149.761z"/>
<path class="st0" d="M180.979,154.677c-0.057,0.008-0.114,0.014-0.172,0.018c-0.057,0.004-0.118,0.006-0.184,0.006
	c-0.613,0-0.92-0.368-0.92-1.103v-5.726c0-0.515-0.257-0.773-0.773-0.773c-0.507,0-0.76,0.257-0.76,0.773v5.8
	c0,1.528,0.683,2.293,2.048,2.293c0.18,0,0.356-0.012,0.527-0.037c0.188-0.025,0.323-0.094,0.405-0.208
	c0.082-0.114,0.122-0.274,0.122-0.478c0-0.237-0.02-0.394-0.061-0.472C181.172,154.692,181.094,154.661,180.979,154.677z"/>
<path class="st0" d="M184.069,149.761c-0.507,0-0.76,0.278-0.76,0.834v4.5c0,0.262,0.065,0.466,0.196,0.613
	c0.131,0.147,0.319,0.221,0.564,0.221c0.253,0,0.446-0.074,0.577-0.221c0.13-0.147,0.196-0.351,0.196-0.613v-4.5
	C184.842,150.039,184.585,149.761,184.069,149.761z"/>
<path class="st0" d="M184.069,147.002c-0.286,0-0.509,0.069-0.668,0.208s-0.239,0.339-0.239,0.601c0,0.253,0.08,0.452,0.239,0.595
	c0.159,0.143,0.382,0.215,0.668,0.215c0.605,0,0.907-0.27,0.907-0.809S184.674,147.002,184.069,147.002z"/>
<path class="st0" d="M192.014,150.104c-0.458-0.253-0.997-0.38-1.618-0.38c-0.621,0-1.161,0.127-1.619,0.38
	c-0.458,0.253-0.813,0.613-1.067,1.079c-0.254,0.466-0.38,1.018-0.38,1.655c0,0.638,0.126,1.192,0.38,1.661
	c0.253,0.47,0.609,0.832,1.067,1.085c0.458,0.253,0.997,0.38,1.619,0.38c0.621,0,1.161-0.127,1.618-0.38
	c0.458-0.253,0.813-0.615,1.067-1.085c0.253-0.47,0.38-1.024,0.38-1.661c0-0.637-0.127-1.189-0.38-1.655
	C192.828,150.717,192.472,150.357,192.014,150.104z M191.5,154.303c-0.278,0.331-0.646,0.497-1.103,0.497
	c-0.458,0-0.826-0.166-1.104-0.497s-0.417-0.819-0.417-1.465c0-0.654,0.139-1.142,0.417-1.465c0.278-0.323,0.646-0.485,1.104-0.485
	c0.458,0,0.825,0.162,1.103,0.485c0.278,0.323,0.417,0.811,0.417,1.465C191.916,153.484,191.777,153.972,191.5,154.303z"/>
<g>
	<g>
		<path class="st1" d="M203.439,71.781h-1.689h-6.796h-0.016c-0.002-0.266-0.006-0.535-0.013-0.808
			c-0.007-0.28-0.017-0.563-0.029-0.846h6.855l0-0.002h1.671c1.709,0,3.095-1.385,3.095-3.094s-1.385-3.094-3.095-3.094h-2.773
			l-4.128-23.185c-0.877-4.925-8.229-8.825-16.368-8.825h-24.431l-0.258-0.831c-1.814-5.845-6.349-9.622-11.553-9.622h-23.805
			c-5.204,0-9.739,3.777-11.553,9.622l-0.253,0.814H92.928v-5.912c0-1.583-0.414-3.167-1.243-4.374
			c-0.829-1.209-1.915-1.812-3.002-1.812h-2.335c-1.087,0-2.173,0.604-3.002,1.812c-0.828,1.207-1.243,2.791-1.243,4.374v5.912
			h-9.843c-1.549,0-3.102,0.418-4.498,1.304c-1.396,0.891-2.435,2.119-3.097,3.51L51.819,63.918h-6.644
			c-1.709,0-3.095,1.385-3.095,3.094c0,1.709,1.385,3.094,3.095,3.094h8.143l-0.781,1.674h-9.909c-1.709,0-3.095,1.385-3.095,3.094
			c0,1.682,1.342,3.047,3.013,3.09c-1.422,2.244-5.6,9.225-4.217,18.744c0,0.001,0,0.002,0,0.003
			c-3.62,0.052-6.539,2.999-6.539,6.631c0,3.665,2.971,6.636,6.636,6.636c0.025,0,0.049-0.003,0.074-0.004
			c0,0-0.001,0.004-0.001,0.004h24.063c-0.001-0.061-0.005-0.121-0.005-0.182c0-10.893,8.862-19.755,19.755-19.755
			s19.755,8.862,19.755,19.755c0,0.061-0.004,0.121-0.005,0.182h7.525c0.046,0,0.089,0.002,0.135,0.002h35.325
			c-0.001-0.061-0.005-0.122-0.005-0.184c0-10.893,8.862-19.755,19.755-19.755c10.893,0,19.755,8.862,19.755,19.755
			c0,0.015-0.001,0.029-0.001,0.043c0.117,0.003,0.189,0.007,0.189,0.01c7.07-0.71,13.03-4.292,13.814-8.694l2.106-23.187h2.776
			c1.709,0,3.095-1.385,3.095-3.094C206.534,73.166,205.149,71.781,203.439,71.781z M114.196,31.926l0.067-0.166
			c1.22-3.004,3.513-4.944,5.842-4.944h23.805c2.329,0,4.622,1.941,5.842,4.944l0.067,0.166H114.196z"/>
	</g>
	<path class="st1" d="M21.866,105.888h-0.06c-0.65,0-1.214,0.232-1.691,0.696c-0.478,0.478-0.716,1.048-0.716,1.711v10.705H8.375
		v-10.705c0-0.663-0.239-1.234-0.716-1.711c-0.478-0.464-1.042-0.696-1.691-0.696h-0.06c-0.65,0-1.214,0.232-1.691,0.696
		c-0.478,0.478-0.716,1.048-0.716,1.711v26.266c0,0.677,0.239,1.241,0.716,1.691c0.478,0.478,1.041,0.716,1.691,0.716h0.06
		c0.65,0,1.214-0.239,1.691-0.716c0.478-0.451,0.716-1.015,0.716-1.691v-10.705h11.024v10.705c0,0.677,0.239,1.241,0.716,1.691
		c0.478,0.478,1.041,0.716,1.691,0.716h0.06c0.65,0,1.214-0.239,1.691-0.716c0.478-0.451,0.716-1.015,0.716-1.691v-26.266
		c0-0.663-0.239-1.234-0.716-1.711C23.08,106.12,22.516,105.888,21.866,105.888z"/>
	<path class="st1" d="M58.594,136.969h0.06c0.65,0,1.214-0.239,1.691-0.716c0.478-0.451,0.716-1.015,0.716-1.691l-0.018-22.172
		c0-0.663-0.239-1.234-0.716-1.711c-0.478-0.464-1.042-0.696-1.691-0.696h-0.06c-0.65,0-1.214,0.232-1.691,0.696
		c-0.478,0.478-0.716,1.048-0.716,1.711l0.018,22.172c0,0.677,0.239,1.241,0.716,1.691C57.38,136.73,57.944,136.969,58.594,136.969z
		"/>
	<path class="st1" d="M217.262,117.902c0.65,0,1.214-0.239,1.691-0.716c0.478-0.451,0.716-1.015,0.716-1.691v-0.04
		c0-0.663-0.239-1.234-0.716-1.711c-0.478-0.478-1.042-0.716-1.691-0.716h-2.985v-5.751c0-0.663-0.239-1.234-0.716-1.711
		c-0.478-0.464-1.042-0.696-1.691-0.696h-0.06c-0.65,0-1.214,0.232-1.691,0.696c-0.478,0.478-0.716,1.048-0.716,1.711v22.425
		c0,1.711,0.61,3.184,1.831,4.417c1.234,1.221,2.713,1.831,4.437,1.831h1.592c0.65,0,1.214-0.239,1.691-0.716
		c0.478-0.451,0.716-1.015,0.716-1.691v-0.04c0-0.663-0.239-1.234-0.716-1.711c-0.478-0.478-1.042-0.716-1.691-0.716h-1.592
		c-0.398,0-0.73-0.132-0.995-0.398c-0.266-0.265-0.398-0.59-0.398-0.975v-11.8H217.262z"/>
	<path class="st1" d="M120.93,136.293c0.304,0.322,0.684,0.483,1.141,0.483h0.027c0.447,0,0.832-0.161,1.154-0.483
		c0.313-0.313,0.469-0.693,0.469-1.141v-7.38c0-1.772-0.631-3.292-1.892-4.562c-1.261-1.262-2.782-1.892-4.562-1.892
		c-2.129,0-3.73,0.707-4.804,2.12c-1.083-1.413-2.689-2.12-4.817-2.12c-1.78,0-3.301,0.63-4.562,1.892
		c-1.261,1.27-1.892,2.79-1.892,4.562v7.38c0,0.456,0.161,0.837,0.483,1.141c0.322,0.322,0.702,0.483,1.14,0.483h0.04
		c0.438,0,0.819-0.161,1.141-0.483c0.322-0.304,0.483-0.685,0.483-1.141v-7.38c0-0.877,0.309-1.624,0.926-2.241
		c0.617-0.617,1.364-0.926,2.241-0.926c0.877,0,1.624,0.309,2.241,0.926s0.926,1.364,0.926,2.241v7.38
		c0,0.456,0.161,0.837,0.483,1.141c0.322,0.322,0.707,0.483,1.154,0.483h0.027c0.456,0,0.836-0.161,1.14-0.483
		c0.322-0.304,0.483-0.685,0.483-1.141v-7.38c0-0.877,0.309-1.624,0.926-2.241s1.364-0.926,2.241-0.926
		c0.886,0,1.637,0.309,2.255,0.926c0.617,0.617,0.926,1.364,0.926,2.241v7.38C120.448,135.608,120.608,135.989,120.93,136.293z"/>
	<path class="st1" d="M138.444,121.318h-0.027c-0.447,0-0.832,0.161-1.154,0.483c-0.322,0.322-0.483,0.707-0.483,1.154V130
		c0,0.885-0.313,1.641-0.939,2.268c-0.626,0.626-1.378,0.939-2.254,0.939c-0.895,0-1.655-0.312-2.281-0.939
		c-0.617-0.626-0.926-1.382-0.926-2.268v-7.045c0-0.447-0.161-0.831-0.483-1.154c-0.322-0.322-0.702-0.483-1.141-0.483h-0.04
		c-0.438,0-0.818,0.161-1.14,0.483c-0.322,0.322-0.483,0.707-0.483,1.154V130c0,1.789,0.635,3.314,1.905,4.575
		c1.27,1.27,2.8,1.905,4.589,1.905c1.422,0,2.487-0.263,3.193-0.792v0.107c0,0.867-0.322,1.624-0.966,2.268
		c-0.635,0.626-1.378,0.94-2.227,0.94c-0.68,0-1.311-0.17-1.892-0.51c-0.572-0.331-1.002-0.765-1.288-1.301
		c-0.188-0.358-0.465-0.613-0.832-0.765c-0.188-0.072-0.38-0.107-0.577-0.107c-0.188,0-0.38,0.031-0.577,0.094l-0.054,0.027
		c-0.448,0.152-0.76,0.461-0.939,0.926c-0.089,0.206-0.134,0.411-0.134,0.617c0,0.242,0.063,0.483,0.188,0.725
		c0.555,1.082,1.369,1.946,2.442,2.59c1.1,0.662,2.321,0.993,3.663,0.993c1.691,0,3.185-0.635,4.482-1.905
		c1.333-1.288,2-2.818,2-4.589v-12.842c0-0.447-0.161-0.831-0.483-1.154C139.28,121.479,138.9,121.318,138.444,121.318z"/>
	<g>
		<path class="st1" d="M98.25,109.797c0-8.786-7.148-15.935-15.935-15.935c-8.723,0-15.823,7.048-15.925,15.747
			c-0.037,0.181-0.059,0.368-0.059,0.563v24.118c0,0.752,0.266,1.38,0.797,1.881c0.531,0.531,1.158,0.797,1.881,0.797h0.066
			c0.723,0,1.35-0.266,1.881-0.797c0.531-0.501,0.797-1.129,0.797-1.881v-12.595c2.815,2.502,6.509,4.036,10.562,4.036
			C91.101,125.732,98.25,118.584,98.25,109.797z M82.315,118.601c-4.854,0-8.803-3.949-8.803-8.803c0-4.854,3.949-8.803,8.803-8.803
			s8.803,3.949,8.803,8.803C91.118,114.651,87.169,118.601,82.315,118.601z"/>
	</g>
	<g>
		<path class="st1" d="M164.801,93.862c-8.787,0-15.935,7.148-15.935,15.935c0,0.141,0.017,0.277,0.021,0.417
			c-0.007,0.08-0.022,0.157-0.022,0.24v23.86c0,0.746,0.263,1.368,0.79,1.864c0.526,0.526,1.148,0.79,1.864,0.79h0.066
			c0.716,0,1.338-0.263,1.864-0.79c0.526-0.497,0.79-1.119,0.79-1.864v-12.618c2.815,2.502,6.509,4.036,10.562,4.036
			c8.786,0,15.935-7.148,15.935-15.935C180.735,101.011,173.587,93.862,164.801,93.862z M164.801,118.601
			c-4.854,0-8.803-3.949-8.803-8.803c0-4.854,3.949-8.803,8.803-8.803c4.854,0,8.803,3.949,8.803,8.803
			C173.604,114.651,169.655,118.601,164.801,118.601z"/>
	</g>
	<path class="st1" d="M97.652,21.71c0.39,0,0.781-0.149,1.078-0.447l6.524-6.524c0.596-0.595,0.596-1.561,0-2.156
		c-0.595-0.595-1.561-0.595-2.156,0l-6.524,6.524c-0.596,0.595-0.596,1.561,0,2.156C96.872,21.561,97.262,21.71,97.652,21.71z"/>
	<path class="st1" d="M75.95,21.263c0.298,0.298,0.688,0.447,1.078,0.447s0.781-0.149,1.078-0.447c0.596-0.595,0.596-1.561,0-2.156
		l-6.524-6.524c-0.595-0.595-1.561-0.595-2.156,0c-0.596,0.595-0.596,1.561,0,2.156L75.95,21.263z"/>
	<path class="st1" d="M87.284,15.776c0.842,0,1.525-0.683,1.525-1.525V5.025c0-0.842-0.683-1.525-1.525-1.525
		c-0.842,0-1.525,0.683-1.525,1.525v9.227C85.759,15.094,86.442,15.776,87.284,15.776z"/>
	<g>
		<path class="st1" d="M51.299,128.452c0-0.464-0.153-0.908-0.458-1.333c-0.491-0.689-1.148-1.035-1.97-1.035
			c-1.154,0-1.924,0.544-2.308,1.632c-0.451,1.3-1.241,2.361-2.368,3.184c-1.154,0.836-2.441,1.254-3.86,1.254
			c-2.136,0-3.708-0.637-4.716-1.91c0.65-0.305,2.852-1.306,6.606-3.005c3.024-1.366,5.465-2.467,7.323-3.303
			c0.623-0.279,1.048-0.729,1.273-1.353c0.106-0.279,0.159-0.557,0.159-0.836c0-0.345-0.08-0.683-0.239-1.015
			c-0.902-1.99-2.288-3.595-4.159-4.815c-1.884-1.247-3.967-1.87-6.248-1.87c-3.157,0-5.857,1.121-8.099,3.363
			c-2.242,2.242-3.363,4.942-3.363,8.099c0,3.157,1.121,5.857,3.363,8.099c2.242,2.242,4.941,3.363,8.099,3.363
			c2.467,0,4.696-0.723,6.686-2.169c1.963-1.393,3.336-3.224,4.119-5.492C51.246,129.016,51.299,128.731,51.299,128.452z
			 M33.749,125.567c0-1.831,0.637-3.389,1.91-4.676c1.286-1.286,2.845-1.93,4.676-1.93c2.043,0,3.555,0.584,4.537,1.751
			l-11.123,4.994V125.567z"/>
	</g>
	<g>
		<path class="st1" d="M202.375,125.066c-1.154,0-1.924,0.544-2.308,1.632c-0.451,1.3-1.241,2.361-2.368,3.184
			c-1.154,0.836-2.441,1.254-3.86,1.254c-2.136,0-3.708-0.637-4.716-1.91c0.65-0.305,2.852-1.306,6.606-3.005
			c3.024-1.366,5.465-2.467,7.323-3.303c0.623-0.279,1.048-0.729,1.273-1.353c0.106-0.279,0.159-0.557,0.159-0.836
			c0-0.345-0.08-0.683-0.239-1.015c-0.902-1.99-2.288-3.595-4.159-4.815c-1.884-1.247-3.967-1.87-6.248-1.87
			c-3.157,0-5.857,1.121-8.099,3.363c-2.242,2.242-3.363,4.942-3.363,8.099c0,3.157,1.121,5.857,3.363,8.099
			c2.242,2.242,4.941,3.363,8.099,3.363c2.467,0,4.696-0.723,6.686-2.169c1.963-1.393,3.336-3.223,4.119-5.492
			c0.106-0.292,0.159-0.577,0.159-0.856c0-0.464-0.153-0.908-0.458-1.333C203.854,125.411,203.197,125.066,202.375,125.066z
			 M187.252,124.548c0-1.831,0.637-3.389,1.91-4.676c1.286-1.286,2.845-1.93,4.676-1.93c2.043,0,3.555,0.584,4.537,1.751
			l-11.123,4.994V124.548z"/>
	</g>
</g>
<path class="st2" d="M203.439,71.781h-1.689h-6.796h-0.016c-0.002-0.266-0.006-0.535-0.013-0.808
	c-0.007-0.28-0.017-0.563-0.029-0.846h6.855l0-0.002h1.671c1.709,0,3.095-1.385,3.095-3.094c0-1.709-1.385-3.094-3.095-3.094h-2.773
	l-4.128-23.185c-0.877-4.925-8.229-8.825-16.368-8.825h-24.431l-0.258-0.831c-1.814-5.845-6.349-9.622-11.553-9.622h-23.805
	c-5.204,0-9.739,3.777-11.553,9.622l-0.253,0.814H72.261c-1.549,0-3.102,0.418-4.498,1.304c-1.396,0.891-2.435,2.119-3.097,3.51
	L51.819,63.918h-6.644c-1.709,0-3.095,1.385-3.095,3.094c0,1.709,1.385,3.094,3.095,3.094h8.143l-0.781,1.674h-9.909
	c-1.709,0-3.095,1.385-3.095,3.094c0,1.681,1.342,3.047,3.013,3.09c-1.422,2.244-5.6,9.225-4.217,18.744c0,0.001,0,0.002,0,0.003
	c-3.62,0.052-6.539,2.999-6.539,6.631c0,3.665,2.971,6.636,6.636,6.636c0.025,0,0.049-0.003,0.074-0.004
	c0,0.001-0.001,0.004-0.001,0.004h24.063c-0.001-0.061-0.005-0.121-0.005-0.182c0-10.893,8.862-19.755,19.755-19.755
	s19.755,8.862,19.755,19.755c0,0.061-0.004,0.121-0.005,0.182h7.525c0.046,0,0.089,0.002,0.135,0.002h35.325
	c-0.001-0.061-0.005-0.122-0.005-0.184c0-10.893,8.862-19.755,19.755-19.755c10.893,0,19.755,8.862,19.755,19.755
	c0,0.014-0.001,0.029-0.001,0.043c0.117,0.003,0.189,0.007,0.189,0.01c7.07-0.71,13.03-4.292,13.814-8.694l2.106-23.187h2.776
	c1.709,0,3.095-1.385,3.095-3.094S205.149,71.781,203.439,71.781z M114.196,31.926l0.067-0.166c1.22-3.004,3.513-4.944,5.842-4.944
	h23.805c2.329,0,4.622,1.941,5.842,4.944l0.067,0.166H114.196z"/>
<path class="st3" d="M92.928,31.909v-5.912c0-1.583-0.414-3.167-1.243-4.374c-0.829-1.209-1.915-1.813-3.002-1.813h-2.335
	c-1.087,0-2.173,0.604-3.002,1.813c-0.828,1.207-1.243,2.791-1.243,4.374v5.912H92.928z"/>
<path class="st2" d="M36.765,155.94c-0.417,0-0.715-0.204-0.895-0.613l-3.2-7.185c-0.131-0.31-0.125-0.562,0.018-0.754
	c0.143-0.192,0.353-0.288,0.631-0.288c0.237,0,0.415,0.051,0.534,0.153c0.118,0.102,0.219,0.256,0.3,0.46l2.636,6.118l2.636-6.13
	c0.09-0.196,0.196-0.345,0.319-0.448c0.123-0.102,0.294-0.153,0.515-0.153c0.261,0,0.46,0.098,0.595,0.294
	c0.135,0.196,0.133,0.446-0.006,0.748l-3.2,7.185c-0.09,0.204-0.202,0.358-0.337,0.46C37.176,155.889,36.994,155.94,36.765,155.94z"
	/>
<path class="st2" d="M45.336,155.965c-0.679,0-1.263-0.127-1.754-0.38c-0.49-0.253-0.869-0.613-1.134-1.079
	s-0.398-1.018-0.398-1.655c0-0.621,0.129-1.165,0.386-1.631c0.257-0.466,0.613-0.831,1.067-1.097
	c0.454-0.265,0.971-0.398,1.551-0.398c0.85,0,1.522,0.27,2.017,0.809c0.494,0.539,0.742,1.275,0.742,2.207
	c0,0.302-0.196,0.454-0.588,0.454h-3.703c0.114,1.071,0.727,1.606,1.839,1.606c0.212,0,0.452-0.026,0.717-0.08
	c0.266-0.053,0.517-0.145,0.754-0.276c0.212-0.123,0.392-0.161,0.539-0.116c0.147,0.045,0.251,0.133,0.313,0.264
	c0.061,0.131,0.069,0.276,0.024,0.435c-0.045,0.159-0.161,0.296-0.349,0.411c-0.286,0.18-0.615,0.313-0.987,0.398
	C46,155.922,45.654,155.965,45.336,155.965z M45.115,150.766c-0.45,0-0.813,0.139-1.091,0.417c-0.278,0.278-0.446,0.654-0.503,1.128
	h3.016c-0.033-0.498-0.17-0.881-0.411-1.146C45.885,150.899,45.548,150.766,45.115,150.766z"/>
<path class="st2" d="M52.974,155.965c-1.586,0-2.379-0.785-2.379-2.354v-2.612h-0.637c-0.409,0-0.613-0.192-0.613-0.576
	c0-0.384,0.204-0.576,0.613-0.576h0.637v-1.116c0-0.515,0.257-0.772,0.773-0.772c0.507,0,0.76,0.257,0.76,0.772v1.116h1.3
	c0.409,0,0.613,0.192,0.613,0.576c0,0.384-0.204,0.576-0.613,0.576h-1.3v2.526c0,0.392,0.086,0.687,0.257,0.883
	c0.172,0.196,0.449,0.294,0.834,0.294c0.139,0,0.262-0.012,0.368-0.037c0.106-0.025,0.2-0.041,0.282-0.049
	c0.098-0.008,0.18,0.023,0.245,0.092c0.065,0.07,0.098,0.211,0.098,0.423c0,0.164-0.027,0.309-0.08,0.435
	c-0.053,0.127-0.149,0.215-0.288,0.264c-0.106,0.033-0.245,0.063-0.417,0.092C53.256,155.95,53.105,155.965,52.974,155.965z"/>
<path class="st2" d="M59.056,155.965c-0.679,0-1.263-0.127-1.754-0.38c-0.49-0.253-0.869-0.613-1.134-1.079
	s-0.398-1.018-0.398-1.655c0-0.621,0.129-1.165,0.386-1.631c0.257-0.466,0.613-0.831,1.067-1.097
	c0.454-0.265,0.971-0.398,1.551-0.398c0.85,0,1.522,0.27,2.017,0.809c0.494,0.539,0.742,1.275,0.742,2.207
	c0,0.302-0.196,0.454-0.588,0.454h-3.703c0.114,1.071,0.727,1.606,1.839,1.606c0.212,0,0.452-0.026,0.717-0.08
	c0.266-0.053,0.517-0.145,0.754-0.276c0.212-0.123,0.392-0.161,0.539-0.116c0.147,0.045,0.251,0.133,0.313,0.264
	c0.061,0.131,0.069,0.276,0.024,0.435c-0.045,0.159-0.161,0.296-0.349,0.411c-0.286,0.18-0.615,0.313-0.987,0.398
	C59.72,155.922,59.375,155.965,59.056,155.965z M58.835,150.766c-0.45,0-0.813,0.139-1.091,0.417
	c-0.278,0.278-0.446,0.654-0.503,1.128h3.016c-0.033-0.498-0.17-0.881-0.411-1.146C59.605,150.899,59.268,150.766,58.835,150.766z"
	/>
<path class="st2" d="M64.757,155.94c-0.523,0-0.785-0.261-0.785-0.785v-4.635c0-0.515,0.249-0.773,0.748-0.773
	c0.498,0,0.748,0.257,0.748,0.773v0.38c0.294-0.703,0.924-1.095,1.888-1.177c0.351-0.041,0.547,0.159,0.588,0.601
	c0.041,0.433-0.172,0.674-0.637,0.723l-0.27,0.025c-1.005,0.098-1.508,0.613-1.508,1.545v2.538
	C65.53,155.679,65.272,155.94,64.757,155.94z"/>
<path class="st2" d="M70.765,148.62c-0.286,0-0.509-0.072-0.668-0.215c-0.159-0.143-0.239-0.341-0.239-0.595
	c0-0.261,0.08-0.462,0.239-0.601s0.382-0.208,0.668-0.208c0.605,0,0.907,0.27,0.907,0.809S71.37,148.62,70.765,148.62z
	 M70.765,155.928c-0.245,0-0.434-0.074-0.564-0.221c-0.131-0.147-0.196-0.351-0.196-0.613v-4.5c0-0.556,0.253-0.834,0.76-0.834
	c0.515,0,0.772,0.278,0.772,0.834v4.5c0,0.262-0.065,0.466-0.196,0.613C71.21,155.854,71.018,155.928,70.765,155.928z"/>
<path class="st2" d="M75.118,155.94c-0.507,0-0.76-0.261-0.76-0.785v-4.635c0-0.515,0.249-0.773,0.748-0.773
	c0.498,0,0.748,0.257,0.748,0.773v0.257c0.204-0.343,0.48-0.605,0.828-0.785c0.347-0.18,0.737-0.27,1.171-0.27
	c1.414,0,2.121,0.822,2.121,2.465v2.967c0,0.523-0.253,0.785-0.76,0.785c-0.515,0-0.772-0.261-0.772-0.785v-2.893
	c0-0.466-0.088-0.805-0.264-1.018c-0.176-0.212-0.447-0.319-0.815-0.319c-0.45,0-0.807,0.141-1.073,0.423s-0.398,0.656-0.398,1.122
	v2.685C75.89,155.679,75.633,155.94,75.118,155.94z"/>
<path class="st2" d="M84.73,155.965c-0.433,0-0.82-0.084-1.159-0.251c-0.339-0.167-0.605-0.394-0.797-0.681
	c-0.192-0.286-0.288-0.609-0.288-0.969c0-0.441,0.114-0.791,0.343-1.048c0.229-0.257,0.601-0.443,1.116-0.558
	c0.515-0.114,1.206-0.172,2.072-0.172h0.429v-0.257c0-0.409-0.09-0.703-0.27-0.883c-0.18-0.18-0.483-0.27-0.907-0.27
	c-0.237,0-0.492,0.029-0.766,0.086c-0.274,0.057-0.562,0.155-0.864,0.294c-0.196,0.09-0.36,0.1-0.49,0.031
	c-0.131-0.069-0.219-0.18-0.264-0.331c-0.045-0.151-0.037-0.304,0.024-0.46c0.061-0.155,0.186-0.27,0.374-0.343
	c0.376-0.155,0.737-0.266,1.085-0.331c0.347-0.065,0.664-0.098,0.95-0.098c0.875,0,1.524,0.202,1.95,0.607
	c0.425,0.405,0.638,1.032,0.638,1.882v2.943c0,0.523-0.237,0.785-0.711,0.785c-0.482,0-0.723-0.261-0.723-0.785v-0.27
	c-0.139,0.335-0.36,0.599-0.662,0.791C85.507,155.869,85.147,155.965,84.73,155.965z M85.049,154.91c0.4,0,0.733-0.139,0.999-0.417
	c0.266-0.278,0.398-0.629,0.398-1.054v-0.27H86.03c-0.768,0-1.302,0.059-1.6,0.178c-0.298,0.119-0.447,0.333-0.447,0.644
	c0,0.27,0.094,0.49,0.282,0.662C84.452,154.824,84.714,154.91,85.049,154.91z"/>
<path class="st2" d="M91.474,155.94c-0.523,0-0.785-0.261-0.785-0.785v-4.635c0-0.515,0.249-0.773,0.748-0.773
	c0.498,0,0.748,0.257,0.748,0.773v0.38c0.294-0.703,0.924-1.095,1.888-1.177c0.351-0.041,0.547,0.159,0.588,0.601
	c0.041,0.433-0.172,0.674-0.637,0.723l-0.27,0.025c-1.005,0.098-1.508,0.613-1.508,1.545v2.538
	C92.246,155.679,91.989,155.94,91.474,155.94z"/>
<path class="st2" d="M97.482,148.62c-0.286,0-0.509-0.072-0.668-0.215c-0.159-0.143-0.239-0.341-0.239-0.595
	c0-0.261,0.08-0.462,0.239-0.601c0.159-0.139,0.382-0.208,0.668-0.208c0.605,0,0.907,0.27,0.907,0.809S98.087,148.62,97.482,148.62z
	 M97.482,155.928c-0.245,0-0.434-0.074-0.564-0.221c-0.131-0.147-0.196-0.351-0.196-0.613v-4.5c0-0.556,0.253-0.834,0.76-0.834
	c0.515,0,0.772,0.278,0.772,0.834v4.5c0,0.262-0.065,0.466-0.196,0.613C97.927,155.854,97.735,155.928,97.482,155.928z"/>
<path class="st2" d="M103.809,155.965c-0.621,0-1.161-0.127-1.618-0.38c-0.458-0.253-0.813-0.615-1.067-1.085
	c-0.253-0.47-0.38-1.024-0.38-1.661c0-0.637,0.127-1.189,0.38-1.655c0.253-0.466,0.609-0.826,1.067-1.079
	c0.458-0.253,0.997-0.38,1.618-0.38c0.621,0,1.161,0.127,1.618,0.38c0.458,0.253,0.813,0.613,1.067,1.079
	c0.253,0.466,0.38,1.018,0.38,1.655c0,0.638-0.127,1.192-0.38,1.661c-0.253,0.47-0.609,0.832-1.067,1.085
	C104.969,155.838,104.43,155.965,103.809,155.965z M103.809,154.8c0.458,0,0.826-0.166,1.104-0.497
	c0.278-0.331,0.417-0.819,0.417-1.465c0-0.654-0.139-1.142-0.417-1.465c-0.278-0.323-0.646-0.485-1.104-0.485
	c-0.458,0-0.826,0.162-1.103,0.485c-0.278,0.323-0.417,0.811-0.417,1.465c0,0.646,0.139,1.134,0.417,1.465
	C102.983,154.634,103.351,154.8,103.809,154.8z"/>
<path class="st2" d="M111.558,155.965c-0.351,0-0.723-0.037-1.116-0.11c-0.392-0.073-0.744-0.2-1.054-0.38
	c-0.172-0.098-0.278-0.219-0.319-0.362c-0.041-0.143-0.035-0.278,0.018-0.405c0.053-0.127,0.143-0.219,0.27-0.276
	c0.127-0.057,0.276-0.045,0.447,0.037c0.327,0.155,0.633,0.264,0.92,0.325c0.286,0.061,0.568,0.092,0.846,0.092
	c0.392,0,0.684-0.067,0.877-0.202c0.192-0.135,0.288-0.313,0.288-0.534c0-0.343-0.253-0.564-0.76-0.662l-1.226-0.233
	c-1.038-0.196-1.557-0.736-1.557-1.618c0-0.393,0.108-0.732,0.325-1.018c0.217-0.286,0.517-0.507,0.901-0.662
	c0.384-0.155,0.826-0.233,1.324-0.233c0.719,0,1.361,0.159,1.925,0.478c0.155,0.082,0.247,0.194,0.276,0.337
	c0.029,0.143,0.012,0.278-0.049,0.404c-0.061,0.127-0.157,0.217-0.288,0.27c-0.131,0.053-0.282,0.039-0.454-0.043
	c-0.253-0.131-0.497-0.225-0.73-0.282c-0.233-0.057-0.456-0.086-0.668-0.086c-0.401,0-0.697,0.07-0.889,0.208
	c-0.192,0.139-0.288,0.323-0.288,0.552c0,0.36,0.233,0.581,0.699,0.662l1.226,0.233c0.531,0.098,0.934,0.278,1.208,0.539
	c0.274,0.262,0.411,0.613,0.411,1.055c0,0.597-0.233,1.065-0.699,1.404C112.955,155.795,112.334,155.965,111.558,155.965z"/>
<path class="st2" d="M123.095,155.965c-0.433,0-0.82-0.084-1.159-0.251c-0.339-0.167-0.605-0.394-0.797-0.681
	c-0.192-0.286-0.288-0.609-0.288-0.969c0-0.441,0.114-0.791,0.343-1.048c0.229-0.257,0.601-0.443,1.116-0.558
	c0.515-0.114,1.206-0.172,2.072-0.172h0.43v-0.257c0-0.409-0.091-0.703-0.27-0.883c-0.18-0.18-0.483-0.27-0.908-0.27
	c-0.237,0-0.492,0.029-0.766,0.086c-0.274,0.057-0.562,0.155-0.864,0.294c-0.196,0.09-0.36,0.1-0.49,0.031
	c-0.131-0.069-0.219-0.18-0.264-0.331c-0.045-0.151-0.037-0.304,0.024-0.46c0.061-0.155,0.186-0.27,0.374-0.343
	c0.376-0.155,0.737-0.266,1.085-0.331c0.347-0.065,0.664-0.098,0.95-0.098c0.875,0,1.524,0.202,1.95,0.607
	c0.425,0.405,0.637,1.032,0.637,1.882v2.943c0,0.523-0.237,0.785-0.71,0.785c-0.483,0-0.724-0.261-0.724-0.785v-0.27
	c-0.138,0.335-0.359,0.599-0.662,0.791C123.872,155.869,123.512,155.965,123.095,155.965z M123.414,154.91
	c0.4,0,0.733-0.139,0.999-0.417c0.266-0.278,0.399-0.629,0.399-1.054v-0.27h-0.417c-0.769,0-1.302,0.059-1.6,0.178
	c-0.298,0.119-0.447,0.333-0.447,0.644c0,0.27,0.094,0.49,0.282,0.662C122.817,154.824,123.079,154.91,123.414,154.91z"/>
<path class="st2" d="M135.908,155.965c-0.523,0-0.983-0.127-1.379-0.38c-0.396-0.253-0.705-0.615-0.926-1.085
	c-0.221-0.47-0.331-1.024-0.331-1.661c0-0.645,0.11-1.199,0.331-1.661c0.221-0.462,0.529-0.819,0.926-1.073
	c0.396-0.253,0.856-0.38,1.379-0.38c0.425,0,0.809,0.094,1.153,0.282c0.343,0.188,0.601,0.438,0.773,0.748v-2.881
	c0-0.515,0.253-0.773,0.76-0.773c0.515,0,0.773,0.257,0.773,0.773v7.283c0,0.523-0.254,0.785-0.761,0.785
	c-0.507,0-0.76-0.261-0.76-0.785v-0.257c-0.172,0.327-0.429,0.587-0.773,0.779C136.729,155.869,136.341,155.965,135.908,155.965z
	 M136.337,154.8c0.458,0,0.825-0.166,1.103-0.497c0.278-0.331,0.417-0.819,0.417-1.465c0-0.654-0.139-1.142-0.417-1.465
	c-0.278-0.323-0.646-0.485-1.103-0.485c-0.458,0-0.826,0.162-1.104,0.485s-0.417,0.811-0.417,1.465c0,0.646,0.139,1.134,0.417,1.465
	S135.879,154.8,136.337,154.8z"/>
<path class="st2" d="M144.92,155.965c-0.621,0-1.161-0.127-1.619-0.38c-0.458-0.253-0.813-0.615-1.067-1.085
	c-0.254-0.47-0.38-1.024-0.38-1.661c0-0.637,0.126-1.189,0.38-1.655c0.253-0.466,0.609-0.826,1.067-1.079
	c0.458-0.253,0.997-0.38,1.619-0.38c0.621,0,1.161,0.127,1.618,0.38c0.458,0.253,0.813,0.613,1.067,1.079
	c0.253,0.466,0.38,1.018,0.38,1.655c0,0.638-0.127,1.192-0.38,1.661c-0.254,0.47-0.609,0.832-1.067,1.085
	C146.081,155.838,145.541,155.965,144.92,155.965z M144.92,154.8c0.458,0,0.825-0.166,1.103-0.497
	c0.278-0.331,0.417-0.819,0.417-1.465c0-0.654-0.139-1.142-0.417-1.465c-0.278-0.323-0.646-0.485-1.103-0.485
	c-0.458,0-0.826,0.162-1.104,0.485s-0.417,0.811-0.417,1.465c0,0.646,0.139,1.134,0.417,1.465S144.462,154.8,144.92,154.8z"/>
<path class="st2" d="M151.259,155.94c-0.507,0-0.761-0.261-0.761-0.785v-4.635c0-0.515,0.249-0.773,0.748-0.773
	c0.498,0,0.748,0.257,0.748,0.773v0.245c0.18-0.327,0.429-0.582,0.748-0.766c0.319-0.184,0.686-0.276,1.103-0.276
	c0.899,0,1.488,0.392,1.766,1.177c0.188-0.368,0.458-0.656,0.809-0.865c0.352-0.208,0.752-0.313,1.202-0.313
	c1.349,0,2.023,0.822,2.023,2.465v2.967c0,0.523-0.258,0.785-0.773,0.785c-0.507,0-0.76-0.261-0.76-0.785v-2.906
	c0-0.458-0.076-0.793-0.227-1.005c-0.151-0.212-0.407-0.319-0.767-0.319c-0.4,0-0.715,0.141-0.944,0.423
	c-0.229,0.282-0.343,0.673-0.343,1.171v2.636c0,0.523-0.253,0.785-0.76,0.785c-0.515,0-0.773-0.261-0.773-0.785v-2.906
	c0-0.458-0.076-0.793-0.227-1.005c-0.151-0.212-0.402-0.319-0.754-0.319c-0.4,0-0.715,0.141-0.944,0.423
	c-0.229,0.282-0.344,0.673-0.344,1.171v2.636C152.031,155.679,151.774,155.94,151.259,155.94z"/>
<path class="st2" d="M163.213,148.62c-0.286,0-0.509-0.072-0.668-0.215c-0.159-0.143-0.239-0.341-0.239-0.595
	c0-0.261,0.08-0.462,0.239-0.601c0.159-0.139,0.382-0.208,0.668-0.208c0.605,0,0.907,0.27,0.907,0.809
	S163.818,148.62,163.213,148.62z M163.213,155.928c-0.245,0-0.433-0.074-0.564-0.221c-0.131-0.147-0.196-0.351-0.196-0.613v-4.5
	c0-0.556,0.253-0.834,0.76-0.834c0.515,0,0.773,0.278,0.773,0.834v4.5c0,0.262-0.066,0.466-0.196,0.613
	C163.659,155.854,163.467,155.928,163.213,155.928z"/>
<path class="st2" d="M169.577,155.965c-0.63,0-1.177-0.129-1.643-0.386c-0.466-0.257-0.826-0.623-1.079-1.097
	c-0.254-0.474-0.38-1.03-0.38-1.667c0-0.637,0.126-1.187,0.38-1.649c0.253-0.462,0.613-0.817,1.079-1.067
	c0.466-0.249,1.013-0.374,1.643-0.374c0.27,0,0.562,0.037,0.877,0.11c0.314,0.074,0.611,0.196,0.889,0.368
	c0.163,0.098,0.259,0.225,0.288,0.38c0.028,0.155,0.008,0.298-0.061,0.429c-0.07,0.131-0.172,0.225-0.306,0.282
	c-0.135,0.057-0.289,0.037-0.46-0.061c-0.376-0.212-0.74-0.319-1.091-0.319c-0.532,0-0.942,0.166-1.232,0.497
	c-0.291,0.331-0.435,0.803-0.435,1.416c0,0.605,0.145,1.081,0.435,1.428c0.29,0.347,0.7,0.521,1.232,0.521
	c0.351,0,0.715-0.102,1.091-0.306c0.172-0.098,0.323-0.118,0.454-0.061c0.131,0.057,0.225,0.153,0.282,0.288
	c0.057,0.135,0.07,0.278,0.037,0.429c-0.033,0.151-0.127,0.276-0.282,0.374c-0.27,0.164-0.556,0.282-0.858,0.355
	C170.133,155.928,169.847,155.965,169.577,155.965z"/>
<path class="st2" d="M174.579,148.62c-0.286,0-0.509-0.072-0.668-0.215c-0.159-0.143-0.239-0.341-0.239-0.595
	c0-0.261,0.08-0.462,0.239-0.601s0.382-0.208,0.668-0.208c0.605,0,0.907,0.27,0.907,0.809S175.184,148.62,174.579,148.62z
	 M174.579,155.928c-0.245,0-0.433-0.074-0.564-0.221c-0.131-0.147-0.196-0.351-0.196-0.613v-4.5c0-0.556,0.253-0.834,0.76-0.834
	c0.515,0,0.773,0.278,0.773,0.834v4.5c0,0.262-0.066,0.466-0.196,0.613C175.025,155.854,174.832,155.928,174.579,155.928z"/>
<path class="st2" d="M180.219,155.965c-1.365,0-2.048-0.764-2.048-2.293v-5.8c0-0.515,0.253-0.773,0.76-0.773
	c0.515,0,0.773,0.257,0.773,0.773v5.726c0,0.736,0.306,1.103,0.92,1.103c0.065,0,0.126-0.002,0.184-0.006
	c0.057-0.004,0.114-0.01,0.172-0.018c0.114-0.016,0.192,0.014,0.233,0.092c0.041,0.078,0.061,0.235,0.061,0.472
	c0,0.204-0.041,0.364-0.122,0.478c-0.082,0.115-0.217,0.184-0.405,0.208C180.575,155.953,180.399,155.965,180.219,155.965z"/>
<path class="st2" d="M184.069,148.62c-0.286,0-0.509-0.072-0.668-0.215c-0.159-0.143-0.239-0.341-0.239-0.595
	c0-0.261,0.08-0.462,0.239-0.601c0.159-0.139,0.382-0.208,0.668-0.208c0.605,0,0.907,0.27,0.907,0.809
	S184.674,148.62,184.069,148.62z M184.069,155.928c-0.245,0-0.433-0.074-0.564-0.221c-0.131-0.147-0.196-0.351-0.196-0.613v-4.5
	c0-0.556,0.253-0.834,0.76-0.834c0.515,0,0.773,0.278,0.773,0.834v4.5c0,0.262-0.066,0.466-0.196,0.613
	C184.515,155.854,184.322,155.928,184.069,155.928z"/>
<path class="st2" d="M190.396,155.965c-0.621,0-1.161-0.127-1.619-0.38c-0.458-0.253-0.813-0.615-1.067-1.085
	c-0.254-0.47-0.38-1.024-0.38-1.661c0-0.637,0.126-1.189,0.38-1.655c0.253-0.466,0.609-0.826,1.067-1.079
	c0.458-0.253,0.997-0.38,1.619-0.38c0.621,0,1.161,0.127,1.618,0.38c0.458,0.253,0.813,0.613,1.067,1.079
	c0.253,0.466,0.38,1.018,0.38,1.655c0,0.638-0.127,1.192-0.38,1.661c-0.254,0.47-0.609,0.832-1.067,1.085
	C191.557,155.838,191.017,155.965,190.396,155.965z M190.396,154.8c0.458,0,0.825-0.166,1.103-0.497
	c0.278-0.331,0.417-0.819,0.417-1.465c0-0.654-0.139-1.142-0.417-1.465c-0.278-0.323-0.646-0.485-1.103-0.485
	c-0.458,0-0.826,0.162-1.104,0.485s-0.417,0.811-0.417,1.465c0,0.646,0.139,1.134,0.417,1.465S189.938,154.8,190.396,154.8z"/>
<path class="st4" d="M135.404,89.846L135.404,89.846c0,1.896-1.537,3.433-3.433,3.433H126.2v5.771c0,1.896-1.537,3.433-3.433,3.433
	h0c-1.896,0-3.433-1.537-3.433-3.433v-5.771h-5.771c-1.896,0-3.433-1.537-3.433-3.433v0c0-1.896,1.537-3.433,3.433-3.433h5.771
	v-5.771c0-1.896,1.537-3.433,3.433-3.433h0c1.896,0,3.433,1.537,3.433,3.433v5.771h5.771
	C133.867,86.413,135.404,87.95,135.404,89.846z"/>
<path class="st4" d="M122.766,69.88c-1.524,0-2.76-1.236-2.76-2.76V44.27c0-1.524,1.236-2.76,2.76-2.76
	c1.524,0,2.76,1.236,2.76,2.76v22.85C125.526,68.644,124.291,69.88,122.766,69.88z"/>
<path class="st4" d="M132.954,69.88c-1.524,0-2.76-1.236-2.76-2.76V44.27c0-1.524,1.236-2.76,2.76-2.76
	c1.524,0,2.76,1.236,2.76,2.76v22.85C135.714,68.644,134.479,69.88,132.954,69.88z"/>
<path class="st4" d="M143.142,69.88c-1.524,0-2.76-1.236-2.76-2.76V44.27c0-1.524,1.236-2.76,2.76-2.76
	c1.524,0,2.76,1.236,2.76,2.76v22.85C145.902,68.644,144.666,69.88,143.142,69.88z"/>
<path class="st4" d="M153.33,69.88c-1.524,0-2.76-1.236-2.76-2.76V44.27c0-1.524,1.236-2.76,2.76-2.76s2.76,1.236,2.76,2.76v22.85
	C156.09,68.644,154.854,69.88,153.33,69.88z"/>
<path class="st4" d="M163.518,69.88c-1.524,0-2.76-1.236-2.76-2.76V44.27c0-1.524,1.236-2.76,2.76-2.76
	c1.524,0,2.76,1.236,2.76,2.76v22.85C166.278,68.644,165.042,69.88,163.518,69.88z"/>
<path class="st4" d="M173.706,69.88c-1.524,0-2.76-1.236-2.76-2.76V44.27c0-1.524,1.236-2.76,2.76-2.76s2.76,1.236,2.76,2.76v22.85
	C176.466,68.644,175.23,69.88,173.706,69.88z"/>
<path class="st4" d="M183.894,69.88c-1.524,0-2.76-1.236-2.76-2.76V44.27c0-1.524,1.236-2.76,2.76-2.76s2.76,1.236,2.76,2.76v22.85
	C186.653,68.644,185.418,69.88,183.894,69.88z"/>
<path class="st2" d="M5.967,105.888c0.65,0,1.214,0.232,1.691,0.696c0.478,0.478,0.716,1.048,0.716,1.711v10.705h11.024v-10.705
	c0-0.663,0.239-1.234,0.716-1.711c0.478-0.464,1.041-0.696,1.691-0.696h0.06c0.65,0,1.214,0.232,1.691,0.696
	c0.478,0.478,0.716,1.048,0.716,1.711v26.266c0,0.677-0.239,1.241-0.716,1.691c-0.478,0.478-1.042,0.716-1.691,0.716h-0.06
	c-0.65,0-1.214-0.239-1.691-0.716c-0.478-0.451-0.716-1.015-0.716-1.691v-10.705H8.375v10.705c0,0.677-0.239,1.241-0.716,1.691
	c-0.478,0.478-1.042,0.716-1.691,0.716h-0.06c-0.65,0-1.214-0.239-1.691-0.716c-0.478-0.451-0.716-1.015-0.716-1.691v-26.266
	c0-0.663,0.239-1.234,0.716-1.711c0.478-0.464,1.041-0.696,1.691-0.696H5.967z"/>
<path class="st2" d="M58.635,109.981c0.65,0,1.214,0.232,1.691,0.696c0.478,0.478,0.716,1.048,0.716,1.711l0.018,22.172
	c0,0.677-0.239,1.241-0.716,1.691c-0.478,0.478-1.042,0.716-1.691,0.716h-0.06c-0.65,0-1.214-0.239-1.691-0.716
	c-0.478-0.451-0.716-1.015-0.716-1.691l-0.018-22.172c0-0.663,0.239-1.234,0.716-1.711c0.478-0.464,1.041-0.696,1.691-0.696H58.635z
	"/>
<path class="st2" d="M69.075,107.495c0.723,0,1.35,0.258,1.881,0.775c0.531,0.531,0.797,1.166,0.797,1.903v24.118
	c0,0.752-0.266,1.38-0.797,1.881c-0.531,0.531-1.159,0.797-1.881,0.797h-0.066c-0.723,0-1.35-0.266-1.881-0.797
	c-0.531-0.501-0.797-1.129-0.797-1.881v-24.118c0-0.737,0.266-1.372,0.797-1.903c0.531-0.516,1.158-0.775,1.881-0.775H69.075z"/>
<path class="st2" d="M211.87,104.869c0.65,0,1.214,0.232,1.691,0.696c0.478,0.478,0.716,1.048,0.716,1.711v5.751h2.985
	c0.65,0,1.214,0.239,1.691,0.716s0.716,1.048,0.716,1.711v0.04c0,0.677-0.239,1.241-0.716,1.691
	c-0.478,0.478-1.042,0.716-1.691,0.716h-2.985v11.8c0,0.385,0.132,0.71,0.398,0.975c0.265,0.266,0.597,0.398,0.995,0.398h1.592
	c0.65,0,1.214,0.239,1.691,0.716c0.478,0.478,0.716,1.048,0.716,1.711v0.04c0,0.677-0.239,1.241-0.716,1.691
	c-0.478,0.478-1.042,0.716-1.691,0.716h-1.592c-1.725,0-3.204-0.61-4.437-1.831c-1.221-1.234-1.831-2.706-1.831-4.417v-22.425
	c0-0.663,0.239-1.234,0.716-1.711c0.478-0.464,1.041-0.696,1.691-0.696H211.87z"/>
<path class="st2" d="M151.584,107.801c0.716,0,1.338,0.256,1.864,0.768c0.526,0.526,0.79,1.155,0.79,1.886v23.86
	c0,0.746-0.263,1.368-0.79,1.864c-0.526,0.526-1.148,0.79-1.864,0.79h-0.066c-0.717,0-1.338-0.263-1.864-0.79
	c-0.526-0.497-0.79-1.119-0.79-1.864v-23.86c0-0.731,0.263-1.36,0.79-1.886c0.526-0.512,1.148-0.768,1.864-0.768H151.584z"/>
<path class="st2" d="M104.48,135.152c0,0.456-0.161,0.837-0.483,1.141c-0.322,0.322-0.702,0.483-1.141,0.483h-0.04
	c-0.438,0-0.818-0.161-1.14-0.483c-0.322-0.304-0.483-0.685-0.483-1.141v-7.38c0-1.772,0.631-3.292,1.892-4.562
	c1.262-1.262,2.782-1.892,4.562-1.892c2.129,0,3.735,0.707,4.817,2.12c1.073-1.413,2.674-2.12,4.804-2.12
	c1.78,0,3.301,0.63,4.562,1.892c1.261,1.27,1.892,2.79,1.892,4.562v7.38c0,0.447-0.157,0.827-0.469,1.141
	c-0.322,0.322-0.707,0.483-1.154,0.483h-0.027c-0.456,0-0.837-0.161-1.141-0.483c-0.322-0.304-0.483-0.685-0.483-1.141v-7.38
	c0-0.877-0.309-1.624-0.926-2.241c-0.618-0.617-1.369-0.926-2.255-0.926c-0.877,0-1.624,0.309-2.241,0.926s-0.926,1.364-0.926,2.241
	v7.38c0,0.456-0.161,0.837-0.483,1.141c-0.304,0.322-0.684,0.483-1.14,0.483h-0.027c-0.447,0-0.832-0.161-1.154-0.483
	c-0.322-0.304-0.483-0.685-0.483-1.141v-7.38c0-0.877-0.309-1.624-0.926-2.241s-1.364-0.926-2.241-0.926
	c-0.877,0-1.624,0.309-2.241,0.926c-0.618,0.617-0.926,1.364-0.926,2.241V135.152z"/>
<path class="st2" d="M130.38,130c0,0.885,0.309,1.641,0.926,2.268c0.626,0.626,1.386,0.939,2.281,0.939
	c0.877,0,1.628-0.313,2.254-0.939c0.626-0.626,0.939-1.382,0.939-2.268v-7.045c0-0.447,0.161-0.831,0.483-1.154
	c0.322-0.322,0.707-0.483,1.154-0.483h0.027c0.456,0,0.836,0.161,1.141,0.483c0.322,0.322,0.483,0.707,0.483,1.154v12.842
	c0,1.771-0.667,3.301-2,4.589c-1.297,1.27-2.791,1.905-4.481,1.905c-1.342,0-2.563-0.331-3.663-0.993
	c-1.074-0.644-1.888-1.508-2.442-2.59c-0.125-0.242-0.188-0.483-0.188-0.725c0-0.206,0.045-0.411,0.134-0.617
	c0.179-0.465,0.492-0.774,0.939-0.926l0.054-0.027c0.197-0.062,0.389-0.094,0.577-0.094c0.197,0,0.389,0.035,0.577,0.107
	c0.367,0.152,0.644,0.407,0.832,0.765c0.286,0.537,0.716,0.97,1.288,1.301c0.581,0.34,1.212,0.51,1.892,0.51
	c0.85,0,1.592-0.313,2.227-0.94c0.644-0.644,0.966-1.4,0.966-2.268v-0.107c-0.707,0.528-1.771,0.791-3.193,0.791
	c-1.789,0-3.319-0.635-4.589-1.905c-1.27-1.261-1.905-2.787-1.905-4.575v-7.045c0-0.447,0.161-0.831,0.483-1.154
	c0.322-0.322,0.702-0.483,1.14-0.483h0.04c0.438,0,0.819,0.161,1.141,0.483c0.322,0.322,0.483,0.707,0.483,1.154V130z"/>
<path class="st5" d="M82.315,125.732c-8.787,0-15.935-7.148-15.935-15.935s7.148-15.935,15.935-15.935s15.935,7.148,15.935,15.935
	S91.101,125.732,82.315,125.732z M82.315,100.994c-4.854,0-8.803,3.949-8.803,8.803s3.949,8.803,8.803,8.803
	s8.803-3.949,8.803-8.803S87.169,100.994,82.315,100.994z"/>
<path class="st5" d="M164.801,125.732c-8.787,0-15.935-7.148-15.935-15.935s7.148-15.935,15.935-15.935s15.935,7.148,15.935,15.935
	S173.587,125.732,164.801,125.732z M164.801,100.994c-4.854,0-8.803,3.949-8.803,8.803s3.949,8.803,8.803,8.803
	c4.854,0,8.803-3.949,8.803-8.803S169.655,100.994,164.801,100.994z"/>
<path class="st4" d="M97.655,66.269V43.437c0-1.611-1.306-2.917-2.917-2.917H77.081c-1.404,0-2.683,0.806-3.289,2.073L62.522,66.157
	c-0.825,1.725,0.433,3.72,2.345,3.72h29.18C96.04,69.878,97.655,68.262,97.655,66.269z"/>
<path class="st2" d="M105.255,12.582c-0.595-0.595-1.561-0.595-2.156,0l-6.524,6.524c-0.596,0.595-0.596,1.561,0,2.156
	c0.298,0.298,0.688,0.447,1.078,0.447s0.781-0.149,1.078-0.447l6.524-6.524C105.85,14.143,105.85,13.178,105.255,12.582z"/>
<path class="st2" d="M71.582,12.582c-0.595-0.595-1.561-0.595-2.156,0c-0.596,0.595-0.596,1.561,0,2.156l6.524,6.524
	c0.298,0.298,0.688,0.447,1.078,0.447s0.781-0.149,1.078-0.447c0.596-0.595,0.596-1.561,0-2.156L71.582,12.582z"/>
<path class="st2" d="M87.284,3.5c-0.842,0-1.525,0.683-1.525,1.525v9.227c0,0.842,0.683,1.525,1.525,1.525s1.525-0.683,1.525-1.525
	V5.025C88.809,4.183,88.126,3.5,87.284,3.5z"/>
<path class="st2" d="M50.742,120.732c0.159,0.332,0.239,0.67,0.239,1.015c0,0.279-0.053,0.557-0.159,0.836
	c-0.226,0.624-0.65,1.075-1.273,1.353c-1.857,0.836-4.298,1.937-7.323,3.303c-3.754,1.698-5.957,2.7-6.606,3.005
	c1.008,1.273,2.58,1.91,4.716,1.91c1.419,0,2.706-0.418,3.86-1.254c1.127-0.822,1.917-1.883,2.368-3.184
	c0.385-1.087,1.154-1.632,2.308-1.632c0.822,0,1.479,0.345,1.97,1.035c0.305,0.425,0.458,0.869,0.458,1.333
	c0,0.279-0.053,0.564-0.159,0.856c-0.783,2.268-2.156,4.099-4.119,5.492c-1.99,1.446-4.218,2.169-6.686,2.169
	c-3.157,0-5.857-1.121-8.099-3.363c-2.242-2.242-3.363-4.941-3.363-8.099c0-3.157,1.121-5.857,3.363-8.099
	c2.242-2.242,4.941-3.363,8.099-3.363c2.281,0,4.364,0.624,6.248,1.87C48.454,117.137,49.84,118.742,50.742,120.732z
	 M40.335,118.961c-1.831,0-3.39,0.644-4.676,1.93c-1.273,1.287-1.91,2.845-1.91,4.676v0.139l11.123-4.994
	C43.89,119.545,42.378,118.961,40.335,118.961z"/>
<path class="st2" d="M204.245,119.713c0.159,0.332,0.239,0.67,0.239,1.015c0,0.279-0.053,0.557-0.159,0.836
	c-0.226,0.624-0.65,1.075-1.273,1.353c-1.857,0.836-4.298,1.937-7.323,3.303c-3.754,1.698-5.956,2.7-6.606,3.005
	c1.008,1.273,2.58,1.91,4.716,1.91c1.419,0,2.706-0.418,3.86-1.254c1.127-0.822,1.917-1.883,2.368-3.184
	c0.385-1.087,1.154-1.632,2.308-1.632c0.822,0,1.479,0.345,1.97,1.035c0.305,0.425,0.458,0.869,0.458,1.333
	c0,0.279-0.053,0.564-0.159,0.856c-0.783,2.268-2.156,4.099-4.119,5.492c-1.99,1.446-4.218,2.169-6.686,2.169
	c-3.157,0-5.857-1.121-8.099-3.363c-2.242-2.242-3.363-4.941-3.363-8.099c0-3.157,1.121-5.857,3.363-8.099
	c2.242-2.242,4.941-3.363,8.099-3.363c2.281,0,4.364,0.624,6.248,1.87C201.957,116.118,203.343,117.723,204.245,119.713z
	 M193.838,117.942c-1.831,0-3.39,0.644-4.676,1.93c-1.273,1.287-1.91,2.845-1.91,4.676v0.139l11.123-4.994
	C197.393,118.526,195.881,117.942,193.838,117.942z"/>
</svg>
