<?xml version="1.0" encoding="utf-8"?>
<!-- Generator: Adobe Illustrator 25.3.0, SVG Export Plug-In . SVG Version: 6.00 Build 0)  -->
<svg version="1.1" id="Capa_1" xmlns="http://www.w3.org/2000/svg" xmlns:xlink="http://www.w3.org/1999/xlink" x="0px" y="0px"
	 viewBox="0 0 120 120" style="enable-background:new 0 0 120 120;" xml:space="preserve">
<style type="text/css">
	.st0{fill:#0071BC;}
</style>
<path class="st0" d="M61.987,0.032C27.333-1.094-1.095,27.339,0.032,61.993c1.023,31.438,26.537,56.952,57.975,57.975
	c34.654,1.127,63.087-27.301,61.96-61.955C118.945,26.572,93.428,1.055,61.987,0.032z M70.994,32.27
	c2.375,0.58,4.138,2.721,4.138,5.271c0,2.546-1.763,4.686-4.138,5.267V32.27z M33.116,16.78c0-4.505,3.686-8.19,8.19-8.19h18.935
	c4.521,0,8.186,3.665,8.186,8.186v6.265c-0.032-0.036-0.067-0.072-0.099-0.112c-0.067-0.076-0.139-0.157-0.211-0.238l-0.162-0.166
	c-0.072-0.072-0.148-0.148-0.225-0.225c-0.054-0.049-0.108-0.103-0.166-0.157c-0.077-0.072-0.157-0.144-0.234-0.211
	c-0.059-0.054-0.117-0.103-0.175-0.153c-0.086-0.067-0.171-0.139-0.256-0.207c-0.054-0.045-0.112-0.09-0.171-0.135
	c-0.094-0.067-0.184-0.135-0.283-0.202c-0.054-0.04-0.103-0.081-0.162-0.117c-0.117-0.081-0.234-0.157-0.36-0.234
	c-0.031-0.018-0.063-0.04-0.094-0.063c-0.157-0.094-0.319-0.184-0.477-0.274c-0.045-0.018-0.085-0.04-0.126-0.058
	c-0.121-0.067-0.243-0.13-0.364-0.189c-0.063-0.031-0.126-0.054-0.184-0.081c-0.108-0.049-0.211-0.099-0.324-0.144
	c-0.068-0.027-0.139-0.054-0.207-0.081c-0.103-0.04-0.207-0.081-0.31-0.117c-0.072-0.027-0.148-0.049-0.22-0.076
	c-0.103-0.031-0.207-0.067-0.31-0.099c-0.076-0.023-0.153-0.045-0.229-0.063c-0.103-0.031-0.211-0.058-0.319-0.081
	c-0.077-0.018-0.153-0.04-0.229-0.054c-0.108-0.027-0.216-0.045-0.328-0.067c-0.077-0.014-0.153-0.027-0.229-0.04
	c-0.117-0.018-0.229-0.031-0.346-0.049c-0.072-0.005-0.148-0.018-0.22-0.027c-0.13-0.013-0.256-0.022-0.387-0.031
	c-0.063-0.005-0.126-0.013-0.189-0.013c-0.193-0.014-0.387-0.018-0.585-0.018H41.301c-0.193,0-0.387,0.005-0.585,0.018
	c-0.059,0-0.126,0.009-0.189,0.013c-0.126,0.009-0.256,0.018-0.382,0.031c-0.077,0.009-0.148,0.022-0.225,0.027
	c-0.112,0.018-0.229,0.031-0.342,0.049c-0.081,0.014-0.157,0.027-0.234,0.04c-0.108,0.022-0.22,0.04-0.324,0.067
	c-0.081,0.013-0.157,0.036-0.234,0.054c-0.108,0.022-0.211,0.049-0.319,0.081c-0.077,0.018-0.148,0.04-0.225,0.063
	c-0.108,0.031-0.211,0.067-0.31,0.099c-0.076,0.027-0.148,0.049-0.22,0.076c-0.108,0.036-0.211,0.076-0.315,0.117
	c-0.067,0.027-0.139,0.054-0.207,0.081c-0.108,0.045-0.216,0.094-0.319,0.144c-0.063,0.027-0.126,0.049-0.184,0.081
	c-0.126,0.058-0.247,0.121-0.369,0.189c-0.041,0.018-0.081,0.04-0.121,0.058c-0.162,0.09-0.319,0.18-0.477,0.274
	c-0.032,0.022-0.067,0.045-0.099,0.063c-0.121,0.076-0.243,0.153-0.36,0.234c-0.054,0.036-0.108,0.076-0.162,0.117
	c-0.094,0.067-0.189,0.135-0.283,0.202c-0.058,0.045-0.112,0.09-0.171,0.135c-0.086,0.067-0.171,0.139-0.256,0.207
	c-0.058,0.049-0.112,0.099-0.171,0.153c-0.081,0.067-0.162,0.139-0.238,0.211c-0.054,0.054-0.112,0.108-0.166,0.157
	c-0.076,0.076-0.153,0.153-0.225,0.225l-0.157,0.166c-0.077,0.081-0.144,0.162-0.216,0.238c-0.031,0.04-0.067,0.076-0.099,0.112
	V16.78z M33.116,30.008c0-4.521,3.665-8.186,8.186-8.186h18.939c4.521,0,8.186,3.665,8.186,8.186v18.939
	c0,4.521-3.665,8.186-8.186,8.186H41.301c-4.502,0-8.186-3.684-8.186-8.186V30.008z M54.893,63.708l-0.517,3.832
	c-1.034,1.061-2.145,1.61-3.301,1.633c-1.768,0.027-3.306-1.142-3.913-1.678l-0.508-3.787H54.893z M30.548,32.27v10.538
	c-2.37-0.58-4.138-2.721-4.138-5.267C26.41,34.991,28.177,32.85,30.548,32.27z M27.595,102.828c-1.072,0-1.941-0.869-1.941-1.941
	V83.862c0-5.388,2.168-10.511,5.919-14.262l-0.998,5.159l-0.261,1.322l1.336,0.193l8.082,1.156l-2.609,3.724l-0.463,0.661
	l11.91,21.013H27.595z M39.691,81.964l3.342-4.776l1.201-1.709l-2.069-0.297l-3.526-0.504l-5.289-0.756l0.477-2.442l1.421-7.336
	h8.874l1.448,10.808l3.049,22.758L39.691,81.964z M49.793,87.132l-2.177-16.254c0.949,0.481,2.109,0.864,3.396,0.864h0.085
	c0.981-0.018,1.916-0.247,2.811-0.688l-3.135,23.392L49.793,87.132z M56.867,68.291l0.553-4.147h2.478
	c0.508,0.108,1.012,0.229,1.511,0.378v10.367l-2.028,0.292c-0.441,0.063-0.819,0.351-0.998,0.76
	c-0.175,0.409-0.13,0.882,0.126,1.246l2.901,4.142v1.412L52.923,97.71L56.867,68.291z M52.973,102.828l8.437-14.882v13.569
	c0,0.121,0.009,0.247,0.018,0.369c0.004,0.04,0.009,0.081,0.013,0.121c0.014,0.081,0.027,0.162,0.041,0.243
	c0.009,0.045,0.018,0.09,0.032,0.135c0.013,0.072,0.031,0.144,0.054,0.216c0.014,0.045,0.027,0.09,0.041,0.135
	c0.014,0.031,0.018,0.063,0.031,0.094H52.973z M98.929,101.515c0,0.725-0.588,1.313-1.313,1.313H65.291
	c-0.725,0-1.313-0.588-1.313-1.313V61.581c0-0.725,0.588-1.313,1.313-1.313h32.32c0.725,0,1.318,0.593,1.318,1.318V101.515z"/>
<path class="st0" d="M47.958,39.601c-0.706,0.081-1.34-0.427-1.426-1.129c-0.171-1.502-1.444-2.631-2.955-2.631
	c-1.507,0-2.775,1.129-2.95,2.631c-0.077,0.657-0.63,1.138-1.273,1.138c-0.05,0-0.099-0.005-0.148-0.009
	c-0.706-0.081-1.21-0.72-1.129-1.426c0.324-2.793,2.69-4.902,5.501-4.902c2.82,0,5.186,2.109,5.51,4.902
	C49.167,38.882,48.659,39.52,47.958,39.601z"/>
<path class="st0" d="M62.341,39.601c-0.054,0.004-0.103,0.009-0.153,0.009c-0.639,0-1.196-0.481-1.273-1.138
	c-0.171-1.502-1.439-2.631-2.95-2.631c-1.511,0-2.779,1.129-2.955,2.631c-0.081,0.702-0.72,1.21-1.421,1.129
	c-0.706-0.081-1.21-0.72-1.129-1.426c0.324-2.793,2.69-4.902,5.505-4.902c2.811,0,5.181,2.109,5.501,4.902
	C63.546,38.882,63.043,39.52,62.341,39.601z"/>
<path class="st0" d="M58.23,45.763c-0.472,2.802-3.612,4.835-7.457,4.835c-3.85,0-6.985-2.033-7.462-4.835
	c-0.117-0.697,0.355-1.358,1.052-1.48c0.702-0.117,1.363,0.355,1.48,1.052c0.22,1.295,2.168,2.694,4.929,2.694
	c2.762,0,4.704-1.399,4.925-2.694c0.117-0.697,0.783-1.169,1.48-1.052C57.879,44.405,58.347,45.066,58.23,45.763z"/>
<path class="st0" d="M94.98,94.62c0,0.706-0.576,1.282-1.286,1.282H69.29c-0.711,0-1.286-0.576-1.286-1.282
	c0-0.711,0.576-1.286,1.286-1.286h24.404C94.404,93.334,94.98,93.91,94.98,94.62z"/>
<path class="st0" d="M94.98,88.198c0,0.711-0.576,1.286-1.286,1.286H69.29c-0.711,0-1.286-0.576-1.286-1.286
	c0-0.706,0.576-1.282,1.286-1.282h24.404C94.404,86.916,94.98,87.491,94.98,88.198z"/>
<path class="st0" d="M94.98,81.78c0,0.711-0.576,1.286-1.286,1.286H69.29c-0.711,0-1.286-0.576-1.286-1.286
	c0-0.706,0.576-1.282,1.286-1.282h24.404C94.404,80.498,94.98,81.073,94.98,81.78z"/>
<path class="st0" d="M94.98,75.361c0,0.711-0.576,1.282-1.286,1.282H69.29c-0.711,0-1.286-0.571-1.286-1.282
	c0-0.706,0.576-1.282,1.286-1.282h24.404C94.404,74.08,94.98,74.655,94.98,75.361z"/>
<path class="st0" d="M82.742,66.744c0,0.711-0.576,1.286-1.286,1.286H69.29c-0.711,0-1.286-0.576-1.286-1.286
	c0-0.706,0.576-1.282,1.286-1.282h12.166C82.166,65.462,82.742,66.038,82.742,66.744z"/>
</svg>
